<?xml version="1.0" encoding="utf-8" standalone="no"?>
<!DOCTYPE svg PUBLIC "-//W3C//DTD SVG 1.1//EN"
  "http://www.w3.org/Graphics/SVG/1.1/DTD/svg11.dtd">
<!-- Created with matplotlib (https://matplotlib.org/) -->
<svg height="332.91875pt" version="1.1" viewBox="0 0 504.928125 332.91875" width="504.928125pt" xmlns="http://www.w3.org/2000/svg" xmlns:xlink="http://www.w3.org/1999/xlink">
 <metadata>
  <rdf:RDF xmlns:cc="http://creativecommons.org/ns#" xmlns:dc="http://purl.org/dc/elements/1.1/" xmlns:rdf="http://www.w3.org/1999/02/22-rdf-syntax-ns#">
   <cc:Work>
    <dc:type rdf:resource="http://purl.org/dc/dcmitype/StillImage"/>
    <dc:date>2021-01-06T19:42:51.631518</dc:date>
    <dc:format>image/svg+xml</dc:format>
    <dc:creator>
     <cc:Agent>
      <dc:title>Matplotlib v3.3.3, https://matplotlib.org/</dc:title>
     </cc:Agent>
    </dc:creator>
   </cc:Work>
  </rdf:RDF>
 </metadata>
 <defs>
  <style type="text/css">*{stroke-linecap:butt;stroke-linejoin:round;}</style>
 </defs>
 <g id="figure_1">
  <g id="patch_1">
   <path d="M 0 332.91875 
L 504.928125 332.91875 
L 504.928125 0 
L 0 0 
z
" style="fill:none;"/>
  </g>
  <g id="axes_1">
   <g id="patch_2">
    <path d="M 61.21875 278.71875 
L 319.665625 278.71875 
L 319.665625 7.2 
L 61.21875 7.2 
z
" style="fill:#ffffff;"/>
   </g>
   <g id="PolyCollection_1">
    <defs>
     <path d="M 74.552105 -54.234884 
L 74.552105 -54.2 
L 75.503642 -54.2 
L 76.455178 -54.2 
L 77.406714 -54.2 
L 78.35825 -54.2 
L 79.309786 -54.2 
L 80.261322 -54.2 
L 81.212859 -54.2 
L 82.164395 -54.2 
L 83.115931 -54.2 
L 84.067467 -54.2 
L 85.019003 -54.2 
L 85.970539 -54.2 
L 86.922076 -54.2 
L 87.873612 -54.2 
L 88.825148 -54.2 
L 89.776684 -54.2 
L 90.72822 -54.2 
L 91.679756 -54.2 
L 92.631293 -54.2 
L 93.582829 -54.2 
L 94.534365 -54.2 
L 95.485901 -54.2 
L 96.437437 -54.2 
L 97.388973 -54.2 
L 98.340509 -54.2 
L 99.292046 -54.2 
L 100.243582 -54.2 
L 101.195118 -54.2 
L 102.146654 -54.2 
L 103.09819 -54.2 
L 104.049726 -54.2 
L 105.001263 -54.2 
L 105.952799 -54.2 
L 106.904335 -54.2 
L 107.855871 -54.2 
L 108.807407 -54.2 
L 109.758943 -54.2 
L 110.71048 -54.2 
L 111.662016 -54.2 
L 112.613552 -54.2 
L 113.565088 -54.2 
L 114.516624 -54.2 
L 115.46816 -54.2 
L 116.419696 -54.2 
L 117.371233 -54.2 
L 118.322769 -54.2 
L 119.274305 -54.2 
L 120.225841 -54.2 
L 121.177377 -54.2 
L 122.128913 -54.2 
L 123.08045 -54.2 
L 124.031986 -54.2 
L 124.983522 -54.2 
L 125.935058 -54.2 
L 126.886594 -54.2 
L 127.83813 -54.2 
L 128.789667 -54.2 
L 129.741203 -54.2 
L 130.692739 -54.2 
L 131.644275 -54.2 
L 132.595811 -54.2 
L 133.547347 -54.2 
L 134.498884 -54.2 
L 135.45042 -54.2 
L 136.401956 -54.2 
L 137.353492 -54.2 
L 138.305028 -54.2 
L 139.256564 -54.2 
L 140.2081 -54.2 
L 141.159637 -54.2 
L 142.111173 -54.2 
L 143.062709 -54.2 
L 144.014245 -54.2 
L 144.965781 -54.2 
L 145.917317 -54.2 
L 146.868854 -54.2 
L 147.82039 -54.2 
L 148.771926 -54.2 
L 149.723462 -54.2 
L 150.674998 -54.2 
L 151.626534 -54.2 
L 152.578071 -54.2 
L 153.529607 -54.2 
L 154.481143 -54.2 
L 155.432679 -54.2 
L 156.384215 -54.2 
L 157.335751 -54.2 
L 158.287288 -54.2 
L 159.238824 -54.2 
L 160.19036 -54.2 
L 161.141896 -54.2 
L 162.093432 -54.2 
L 163.044968 -54.2 
L 163.996504 -54.2 
L 164.948041 -54.2 
L 165.899577 -54.2 
L 166.851113 -54.2 
L 167.802649 -54.2 
L 168.754185 -54.2 
L 169.705721 -54.2 
L 170.657258 -54.2 
L 171.608794 -54.2 
L 172.56033 -54.2 
L 173.511866 -54.2 
L 174.463402 -54.2 
L 175.414938 -54.2 
L 176.366475 -54.2 
L 177.318011 -54.2 
L 178.269547 -54.2 
L 179.221083 -54.2 
L 180.172619 -54.2 
L 181.124155 -54.2 
L 182.075692 -54.2 
L 183.027228 -54.2 
L 183.978764 -54.2 
L 184.9303 -54.2 
L 185.881836 -54.2 
L 186.833372 -54.2 
L 187.784908 -54.2 
L 188.736445 -54.2 
L 189.687981 -54.2 
L 190.639517 -54.2 
L 191.591053 -54.2 
L 192.542589 -54.2 
L 193.494125 -54.2 
L 194.445662 -54.2 
L 195.397198 -54.2 
L 196.348734 -54.2 
L 197.30027 -54.2 
L 198.251806 -54.2 
L 199.203342 -54.2 
L 200.154879 -54.2 
L 201.106415 -54.2 
L 202.057951 -54.2 
L 203.009487 -54.2 
L 203.961023 -54.2 
L 204.912559 -54.2 
L 205.864096 -54.2 
L 206.815632 -54.2 
L 207.767168 -54.2 
L 208.718704 -54.2 
L 209.67024 -54.2 
L 210.621776 -54.2 
L 211.573312 -54.2 
L 212.524849 -54.2 
L 213.476385 -54.2 
L 214.427921 -54.2 
L 215.379457 -54.2 
L 216.330993 -54.2 
L 217.282529 -54.2 
L 218.234066 -54.2 
L 219.185602 -54.2 
L 220.137138 -54.2 
L 221.088674 -54.2 
L 222.04021 -54.2 
L 222.991746 -54.2 
L 223.943283 -54.2 
L 224.894819 -54.2 
L 225.846355 -54.2 
L 226.797891 -54.2 
L 227.749427 -54.2 
L 228.700963 -54.2 
L 229.6525 -54.2 
L 230.604036 -54.2 
L 231.555572 -54.2 
L 232.507108 -54.2 
L 233.458644 -54.2 
L 234.41018 -54.2 
L 235.361716 -54.2 
L 236.313253 -54.2 
L 237.264789 -54.2 
L 238.216325 -54.2 
L 239.167861 -54.2 
L 240.119397 -54.2 
L 241.070933 -54.2 
L 242.02247 -54.2 
L 242.974006 -54.2 
L 243.925542 -54.2 
L 244.877078 -54.2 
L 245.828614 -54.2 
L 246.78015 -54.2 
L 247.731687 -54.2 
L 248.683223 -54.2 
L 249.634759 -54.2 
L 250.586295 -54.2 
L 251.537831 -54.2 
L 252.489367 -54.2 
L 253.440904 -54.2 
L 254.39244 -54.2 
L 255.343976 -54.2 
L 256.295512 -54.2 
L 257.247048 -54.2 
L 258.198584 -54.2 
L 259.15012 -54.2 
L 260.101657 -54.2 
L 261.053193 -54.2 
L 262.004729 -54.2 
L 262.956265 -54.2 
L 263.907801 -54.2 
L 263.907801 -54.211042 
L 263.907801 -54.211042 
L 262.956265 -54.213948 
L 262.004729 -54.217513 
L 261.053193 -54.221858 
L 260.101657 -54.22712 
L 259.15012 -54.23345 
L 258.198584 -54.241015 
L 257.247048 -54.249994 
L 256.295512 -54.260583 
L 255.343976 -54.272985 
L 254.39244 -54.287416 
L 253.440904 -54.304093 
L 252.489367 -54.323238 
L 251.537831 -54.345068 
L 250.586295 -54.36979 
L 249.634759 -54.397597 
L 248.683223 -54.428662 
L 247.731687 -54.463127 
L 246.78015 -54.501103 
L 245.828614 -54.542655 
L 244.877078 -54.587803 
L 243.925542 -54.636514 
L 242.974006 -54.688695 
L 242.02247 -54.744192 
L 241.070933 -54.802786 
L 240.119397 -54.864195 
L 239.167861 -54.928069 
L 238.216325 -54.993999 
L 237.264789 -55.061516 
L 236.313253 -55.130101 
L 235.361716 -55.199188 
L 234.41018 -55.268173 
L 233.458644 -55.336428 
L 232.507108 -55.403305 
L 231.555572 -55.468153 
L 230.604036 -55.530323 
L 229.6525 -55.589187 
L 228.700963 -55.644141 
L 227.749427 -55.694622 
L 226.797891 -55.740114 
L 225.846355 -55.780162 
L 224.894819 -55.814374 
L 223.943283 -55.842436 
L 222.991746 -55.864112 
L 222.04021 -55.879252 
L 221.088674 -55.887799 
L 220.137138 -55.889788 
L 219.185602 -55.885351 
L 218.234066 -55.874716 
L 217.282529 -55.85821 
L 216.330993 -55.836253 
L 215.379457 -55.80936 
L 214.427921 -55.778132 
L 213.476385 -55.743253 
L 212.524849 -55.705484 
L 211.573312 -55.66565 
L 210.621776 -55.624636 
L 209.67024 -55.583369 
L 208.718704 -55.542814 
L 207.767168 -55.503953 
L 206.815632 -55.467778 
L 205.864096 -55.435278 
L 204.912559 -55.407424 
L 203.961023 -55.385158 
L 203.009487 -55.369386 
L 202.057951 -55.360968 
L 201.106415 -55.360715 
L 200.154879 -55.369383 
L 199.203342 -55.387674 
L 198.251806 -55.41624 
L 197.30027 -55.455684 
L 196.348734 -55.506575 
L 195.397198 -55.569452 
L 194.445662 -55.644835 
L 193.494125 -55.733244 
L 192.542589 -55.835206 
L 191.591053 -55.951273 
L 190.639517 -56.082032 
L 189.687981 -56.228115 
L 188.736445 -56.390209 
L 187.784908 -56.569063 
L 186.833372 -56.765487 
L 185.881836 -56.980352 
L 184.9303 -57.21458 
L 183.978764 -57.469137 
L 183.027228 -57.745012 
L 182.075692 -58.043196 
L 181.124155 -58.364655 
L 180.172619 -58.710299 
L 179.221083 -59.080941 
L 178.269547 -59.477257 
L 177.318011 -59.899743 
L 176.366475 -60.348668 
L 175.414938 -60.824019 
L 174.463402 -61.325461 
L 173.511866 -61.852284 
L 172.56033 -62.40336 
L 171.608794 -62.977108 
L 170.657258 -63.571463 
L 169.705721 -64.18385 
L 168.754185 -64.811185 
L 167.802649 -65.449873 
L 166.851113 -66.09583 
L 165.899577 -66.744524 
L 164.948041 -67.391026 
L 163.996504 -68.030084 
L 163.044968 -68.65621 
L 162.093432 -69.263783 
L 161.141896 -69.847167 
L 160.19036 -70.400831 
L 159.238824 -70.919482 
L 158.287288 -71.398195 
L 157.335751 -71.832535 
L 156.384215 -72.21868 
L 155.432679 -72.553523 
L 154.481143 -72.834754 
L 153.529607 -73.060929 
L 152.578071 -73.231509 
L 151.626534 -73.346868 
L 150.674998 -73.408285 
L 149.723462 -73.417895 
L 148.771926 -73.378628 
L 147.82039 -73.294116 
L 146.868854 -73.16858 
L 145.917317 -73.006707 
L 144.965781 -72.813515 
L 144.014245 -72.594204 
L 143.062709 -72.354022 
L 142.111173 -72.098117 
L 141.159637 -71.831414 
L 140.2081 -71.55849 
L 139.256564 -71.283478 
L 138.305028 -71.009978 
L 137.353492 -70.740996 
L 136.401956 -70.478896 
L 135.45042 -70.225377 
L 134.498884 -69.981472 
L 133.547347 -69.747558 
L 132.595811 -69.523391 
L 131.644275 -69.308151 
L 130.692739 -69.100503 
L 129.741203 -68.898664 
L 128.789667 -68.700485 
L 127.83813 -68.503535 
L 126.886594 -68.305185 
L 125.935058 -68.102702 
L 124.983522 -67.893333 
L 124.031986 -67.674394 
L 123.08045 -67.44335 
L 122.128913 -67.197888 
L 121.177377 -66.93599 
L 120.225841 -66.655983 
L 119.274305 -66.356595 
L 118.322769 -66.036985 
L 117.371233 -65.696772 
L 116.419696 -65.336049 
L 115.46816 -64.955379 
L 114.516624 -64.555784 
L 113.565088 -64.138725 
L 112.613552 -63.706063 
L 111.662016 -63.260018 
L 110.71048 -62.803114 
L 109.758943 -62.33812 
L 108.807407 -61.867985 
L 107.855871 -61.395775 
L 106.904335 -60.924596 
L 105.952799 -60.457535 
L 105.001263 -59.997589 
L 104.049726 -59.547612 
L 103.09819 -59.110253 
L 102.146654 -58.687917 
L 101.195118 -58.282726 
L 100.243582 -57.896486 
L 99.292046 -57.530676 
L 98.340509 -57.186429 
L 97.388973 -56.864543 
L 96.437437 -56.565478 
L 95.485901 -56.289378 
L 94.534365 -56.036095 
L 93.582829 -55.80521 
L 92.631293 -55.596069 
L 91.679756 -55.407816 
L 90.72822 -55.239432 
L 89.776684 -55.089764 
L 88.825148 -54.957566 
L 87.873612 -54.841531 
L 86.922076 -54.740321 
L 85.970539 -54.652593 
L 85.019003 -54.577027 
L 84.067467 -54.512345 
L 83.115931 -54.457323 
L 82.164395 -54.410813 
L 81.212859 -54.371741 
L 80.261322 -54.339125 
L 79.309786 -54.312066 
L 78.35825 -54.289759 
L 77.406714 -54.271483 
L 76.455178 -54.256603 
L 75.503642 -54.244564 
L 74.552105 -54.234884 
z
" id="m1aed97c24d" style="stroke:#9467bd;"/>
    </defs>
    <g clip-path="url(#pc0004bbf85)">
     <use style="fill:#9467bd;fill-opacity:0.25;stroke:#9467bd;" x="0" xlink:href="#m1aed97c24d" y="332.91875"/>
    </g>
   </g>
   <g id="PolyCollection_2">
    <defs>
     <path d="M 72.966335 -54.248126 
L 72.966335 -54.2 
L 73.869817 -54.2 
L 74.773298 -54.2 
L 75.676779 -54.2 
L 76.580261 -54.2 
L 77.483742 -54.2 
L 78.387223 -54.2 
L 79.290705 -54.2 
L 80.194186 -54.2 
L 81.097667 -54.2 
L 82.001149 -54.2 
L 82.90463 -54.2 
L 83.808111 -54.2 
L 84.711593 -54.2 
L 85.615074 -54.2 
L 86.518555 -54.2 
L 87.422037 -54.2 
L 88.325518 -54.2 
L 89.228999 -54.2 
L 90.132481 -54.2 
L 91.035962 -54.2 
L 91.939443 -54.2 
L 92.842925 -54.2 
L 93.746406 -54.2 
L 94.649887 -54.2 
L 95.553369 -54.2 
L 96.45685 -54.2 
L 97.360331 -54.2 
L 98.263813 -54.2 
L 99.167294 -54.2 
L 100.070775 -54.2 
L 100.974257 -54.2 
L 101.877738 -54.2 
L 102.781219 -54.2 
L 103.684701 -54.2 
L 104.588182 -54.2 
L 105.491663 -54.2 
L 106.395145 -54.2 
L 107.298626 -54.2 
L 108.202107 -54.2 
L 109.105589 -54.2 
L 110.00907 -54.2 
L 110.912551 -54.2 
L 111.816033 -54.2 
L 112.719514 -54.2 
L 113.622995 -54.2 
L 114.526477 -54.2 
L 115.429958 -54.2 
L 116.333439 -54.2 
L 117.236921 -54.2 
L 118.140402 -54.2 
L 119.043883 -54.2 
L 119.947365 -54.2 
L 120.850846 -54.2 
L 121.754327 -54.2 
L 122.657809 -54.2 
L 123.56129 -54.2 
L 124.464771 -54.2 
L 125.368253 -54.2 
L 126.271734 -54.2 
L 127.175215 -54.2 
L 128.078697 -54.2 
L 128.982178 -54.2 
L 129.885659 -54.2 
L 130.789141 -54.2 
L 131.692622 -54.2 
L 132.596103 -54.2 
L 133.499585 -54.2 
L 134.403066 -54.2 
L 135.306547 -54.2 
L 136.210029 -54.2 
L 137.11351 -54.2 
L 138.016991 -54.2 
L 138.920473 -54.2 
L 139.823954 -54.2 
L 140.727435 -54.2 
L 141.630917 -54.2 
L 142.534398 -54.2 
L 143.437879 -54.2 
L 144.341361 -54.2 
L 145.244842 -54.2 
L 146.148323 -54.2 
L 147.051805 -54.2 
L 147.955286 -54.2 
L 148.858767 -54.2 
L 149.762248 -54.2 
L 150.66573 -54.2 
L 151.569211 -54.2 
L 152.472692 -54.2 
L 153.376174 -54.2 
L 154.279655 -54.2 
L 155.183136 -54.2 
L 156.086618 -54.2 
L 156.990099 -54.2 
L 157.89358 -54.2 
L 158.797062 -54.2 
L 159.700543 -54.2 
L 160.604024 -54.2 
L 161.507506 -54.2 
L 162.410987 -54.2 
L 163.314468 -54.2 
L 164.21795 -54.2 
L 165.121431 -54.2 
L 166.024912 -54.2 
L 166.928394 -54.2 
L 167.831875 -54.2 
L 168.735356 -54.2 
L 169.638838 -54.2 
L 170.542319 -54.2 
L 171.4458 -54.2 
L 172.349282 -54.2 
L 173.252763 -54.2 
L 174.156244 -54.2 
L 175.059726 -54.2 
L 175.963207 -54.2 
L 176.866688 -54.2 
L 177.77017 -54.2 
L 178.673651 -54.2 
L 179.577132 -54.2 
L 180.480614 -54.2 
L 181.384095 -54.2 
L 182.287576 -54.2 
L 183.191058 -54.2 
L 184.094539 -54.2 
L 184.99802 -54.2 
L 185.901502 -54.2 
L 186.804983 -54.2 
L 187.708464 -54.2 
L 188.611946 -54.2 
L 189.515427 -54.2 
L 190.418908 -54.2 
L 191.32239 -54.2 
L 192.225871 -54.2 
L 193.129352 -54.2 
L 194.032834 -54.2 
L 194.936315 -54.2 
L 195.839796 -54.2 
L 196.743278 -54.2 
L 197.646759 -54.2 
L 198.55024 -54.2 
L 199.453722 -54.2 
L 200.357203 -54.2 
L 201.260684 -54.2 
L 202.164166 -54.2 
L 203.067647 -54.2 
L 203.971128 -54.2 
L 204.87461 -54.2 
L 205.778091 -54.2 
L 206.681572 -54.2 
L 207.585054 -54.2 
L 208.488535 -54.2 
L 209.392016 -54.2 
L 210.295498 -54.2 
L 211.198979 -54.2 
L 212.10246 -54.2 
L 213.005942 -54.2 
L 213.909423 -54.2 
L 214.812904 -54.2 
L 215.716386 -54.2 
L 216.619867 -54.2 
L 217.523348 -54.2 
L 218.42683 -54.2 
L 219.330311 -54.2 
L 220.233792 -54.2 
L 221.137274 -54.2 
L 222.040755 -54.2 
L 222.944236 -54.2 
L 223.847718 -54.2 
L 224.751199 -54.2 
L 225.65468 -54.2 
L 226.558162 -54.2 
L 227.461643 -54.2 
L 228.365124 -54.2 
L 229.268606 -54.2 
L 230.172087 -54.2 
L 231.075568 -54.2 
L 231.97905 -54.2 
L 232.882531 -54.2 
L 233.786012 -54.2 
L 234.689494 -54.2 
L 235.592975 -54.2 
L 236.496456 -54.2 
L 237.399938 -54.2 
L 238.303419 -54.2 
L 239.2069 -54.2 
L 240.110382 -54.2 
L 241.013863 -54.2 
L 241.917344 -54.2 
L 242.820826 -54.2 
L 243.724307 -54.2 
L 244.627788 -54.2 
L 245.53127 -54.2 
L 246.434751 -54.2 
L 247.338232 -54.2 
L 248.241714 -54.2 
L 249.145195 -54.2 
L 250.048676 -54.2 
L 250.952158 -54.2 
L 251.855639 -54.2 
L 252.75912 -54.2 
L 252.75912 -54.218698 
L 252.75912 -54.218698 
L 251.855639 -54.223979 
L 250.952158 -54.230562 
L 250.048676 -54.23871 
L 249.145195 -54.248728 
L 248.241714 -54.260959 
L 247.338232 -54.275787 
L 246.434751 -54.29364 
L 245.53127 -54.314983 
L 244.627788 -54.340316 
L 243.724307 -54.370173 
L 242.820826 -54.405107 
L 241.917344 -54.445684 
L 241.013863 -54.492471 
L 240.110382 -54.546016 
L 239.2069 -54.606835 
L 238.303419 -54.675391 
L 237.399938 -54.75207 
L 236.496456 -54.83716 
L 235.592975 -54.930828 
L 234.689494 -55.033098 
L 233.786012 -55.143828 
L 232.882531 -55.26269 
L 231.97905 -55.38916 
L 231.075568 -55.522505 
L 230.172087 -55.661777 
L 229.268606 -55.805819 
L 228.365124 -55.953274 
L 227.461643 -56.102605 
L 226.558162 -56.252118 
L 225.65468 -56.400001 
L 224.751199 -56.544366 
L 223.847718 -56.683295 
L 222.944236 -56.8149 
L 222.040755 -56.937376 
L 221.137274 -57.049068 
L 220.233792 -57.148523 
L 219.330311 -57.234556 
L 218.42683 -57.306297 
L 217.523348 -57.363241 
L 216.619867 -57.405281 
L 215.716386 -57.432738 
L 214.812904 -57.44637 
L 213.909423 -57.447378 
L 213.005942 -57.437386 
L 212.10246 -57.418419 
L 211.198979 -57.392858 
L 210.295498 -57.363386 
L 209.392016 -57.332927 
L 208.488535 -57.304567 
L 207.585054 -57.281475 
L 206.681572 -57.266817 
L 205.778091 -57.263667 
L 204.87461 -57.274922 
L 203.971128 -57.303217 
L 203.067647 -57.350853 
L 202.164166 -57.419726 
L 201.260684 -57.511276 
L 200.357203 -57.626446 
L 199.453722 -57.765661 
L 198.55024 -57.928816 
L 197.646759 -58.115296 
L 196.743278 -58.324003 
L 195.839796 -58.553406 
L 194.936315 -58.80161 
L 194.032834 -59.066436 
L 193.129352 -59.345522 
L 192.225871 -59.636423 
L 191.32239 -59.93673 
L 190.418908 -60.244181 
L 189.515427 -60.556781 
L 188.611946 -60.872905 
L 187.708464 -61.191397 
L 186.804983 -61.511656 
L 185.901502 -61.833695 
L 184.99802 -62.158185 
L 184.094539 -62.486469 
L 183.191058 -62.820556 
L 182.287576 -63.163074 
L 181.384095 -63.517214 
L 180.480614 -63.886626 
L 179.577132 -64.275308 
L 178.673651 -64.687468 
L 177.77017 -65.12736 
L 176.866688 -65.599122 
L 175.963207 -66.106598 
L 175.059726 -66.653156 
L 174.156244 -67.24152 
L 173.252763 -67.8736 
L 172.349282 -68.55035 
L 171.4458 -69.271642 
L 170.542319 -70.036164 
L 169.638838 -70.841356 
L 168.735356 -71.683379 
L 167.831875 -72.557119 
L 166.928394 -73.456236 
L 166.024912 -74.373247 
L 165.121431 -75.299657 
L 164.21795 -76.226122 
L 163.314468 -77.14265 
L 162.410987 -78.038827 
L 161.507506 -78.904077 
L 160.604024 -79.727927 
L 159.700543 -80.500294 
L 158.797062 -81.211758 
L 157.89358 -81.85384 
L 156.990099 -82.419249 
L 156.086618 -82.902109 
L 155.183136 -83.298145 
L 154.279655 -83.604826 
L 153.376174 -83.821455 
L 152.472692 -83.949214 
L 151.569211 -83.991134 
L 150.66573 -83.952031 
L 149.762248 -83.838363 
L 148.858767 -83.658059 
L 147.955286 -83.420287 
L 147.051805 -83.135201 
L 146.148323 -82.813646 
L 145.244842 -82.466864 
L 144.341361 -82.106182 
L 143.437879 -81.742712 
L 142.534398 -81.387064 
L 141.630917 -81.049086 
L 140.727435 -80.737627 
L 139.823954 -80.460351 
L 138.920473 -80.223577 
L 138.016991 -80.03217 
L 137.11351 -79.889473 
L 136.210029 -79.797277 
L 135.306547 -79.755837 
L 134.403066 -79.763915 
L 133.499585 -79.818855 
L 132.596103 -79.916688 
L 131.692622 -80.052255 
L 130.789141 -80.219341 
L 129.885659 -80.410834 
L 128.982178 -80.618879 
L 128.078697 -80.835047 
L 127.175215 -81.0505 
L 126.271734 -81.256165 
L 125.368253 -81.442901 
L 124.464771 -81.601665 
L 123.56129 -81.723681 
L 122.657809 -81.800591 
L 121.754327 -81.824619 
L 120.850846 -81.788706 
L 119.947365 -81.686652 
L 119.043883 -81.513233 
L 118.140402 -81.264313 
L 117.236921 -80.936927 
L 116.333439 -80.529355 
L 115.429958 -80.04116 
L 114.526477 -79.473211 
L 113.622995 -78.827676 
L 112.719514 -78.10798 
L 111.816033 -77.318748 
L 110.912551 -76.465708 
L 110.00907 -75.555579 
L 109.105589 -74.595927 
L 108.202107 -73.595008 
L 107.298626 -72.561597 
L 106.395145 -71.504804 
L 105.491663 -70.433882 
L 104.588182 -69.358046 
L 103.684701 -68.286291 
L 102.781219 -67.22722 
L 101.877738 -66.188895 
L 100.974257 -65.178701 
L 100.070775 -64.203239 
L 99.167294 -63.26824 
L 98.263813 -62.378508 
L 97.360331 -61.537887 
L 96.45685 -60.749258 
L 95.553369 -60.014558 
L 94.649887 -59.334819 
L 93.746406 -58.71023 
L 92.842925 -58.140212 
L 91.939443 -57.623505 
L 91.035962 -57.158261 
L 90.132481 -56.742149 
L 89.228999 -56.37245 
L 88.325518 -56.046159 
L 87.422037 -55.760076 
L 86.518555 -55.510893 
L 85.615074 -55.29527 
L 84.711593 -55.109907 
L 83.808111 -54.951594 
L 82.90463 -54.817263 
L 82.001149 -54.70402 
L 81.097667 -54.609173 
L 80.194186 -54.530246 
L 79.290705 -54.464993 
L 78.387223 -54.411391 
L 77.483742 -54.367644 
L 76.580261 -54.332169 
L 75.676779 -54.303587 
L 74.773298 -54.280707 
L 73.869817 -54.262509 
L 72.966335 -54.248126 
z
" id="maa5b21c236" style="stroke:#d62728;"/>
    </defs>
    <g clip-path="url(#pc0004bbf85)">
     <use style="fill:#d62728;fill-opacity:0.25;stroke:#d62728;" x="0" xlink:href="#maa5b21c236" y="332.91875"/>
    </g>
   </g>
   <g id="PolyCollection_3">
    <defs>
     <path d="M 75.820593 -54.406547 
L 75.820593 -54.2 
L 76.747191 -54.2 
L 77.67379 -54.2 
L 78.600389 -54.2 
L 79.526987 -54.2 
L 80.453586 -54.2 
L 81.380184 -54.2 
L 82.306783 -54.2 
L 83.233381 -54.2 
L 84.15998 -54.2 
L 85.086578 -54.2 
L 86.013177 -54.2 
L 86.939775 -54.2 
L 87.866374 -54.2 
L 88.792973 -54.2 
L 89.719571 -54.2 
L 90.64617 -54.2 
L 91.572768 -54.2 
L 92.499367 -54.2 
L 93.425965 -54.2 
L 94.352564 -54.2 
L 95.279162 -54.2 
L 96.205761 -54.2 
L 97.13236 -54.2 
L 98.058958 -54.2 
L 98.985557 -54.2 
L 99.912155 -54.2 
L 100.838754 -54.2 
L 101.765352 -54.2 
L 102.691951 -54.2 
L 103.618549 -54.2 
L 104.545148 -54.2 
L 105.471746 -54.2 
L 106.398345 -54.2 
L 107.324944 -54.2 
L 108.251542 -54.2 
L 109.178141 -54.2 
L 110.104739 -54.2 
L 111.031338 -54.2 
L 111.957936 -54.2 
L 112.884535 -54.2 
L 113.811133 -54.2 
L 114.737732 -54.2 
L 115.66433 -54.2 
L 116.590929 -54.2 
L 117.517528 -54.2 
L 118.444126 -54.2 
L 119.370725 -54.2 
L 120.297323 -54.2 
L 121.223922 -54.2 
L 122.15052 -54.2 
L 123.077119 -54.2 
L 124.003717 -54.2 
L 124.930316 -54.2 
L 125.856915 -54.2 
L 126.783513 -54.2 
L 127.710112 -54.2 
L 128.63671 -54.2 
L 129.563309 -54.2 
L 130.489907 -54.2 
L 131.416506 -54.2 
L 132.343104 -54.2 
L 133.269703 -54.2 
L 134.196301 -54.2 
L 135.1229 -54.2 
L 136.049499 -54.2 
L 136.976097 -54.2 
L 137.902696 -54.2 
L 138.829294 -54.2 
L 139.755893 -54.2 
L 140.682491 -54.2 
L 141.60909 -54.2 
L 142.535688 -54.2 
L 143.462287 -54.2 
L 144.388886 -54.2 
L 145.315484 -54.2 
L 146.242083 -54.2 
L 147.168681 -54.2 
L 148.09528 -54.2 
L 149.021878 -54.2 
L 149.948477 -54.2 
L 150.875075 -54.2 
L 151.801674 -54.2 
L 152.728272 -54.2 
L 153.654871 -54.2 
L 154.58147 -54.2 
L 155.508068 -54.2 
L 156.434667 -54.2 
L 157.361265 -54.2 
L 158.287864 -54.2 
L 159.214462 -54.2 
L 160.141061 -54.2 
L 161.067659 -54.2 
L 161.994258 -54.2 
L 162.920856 -54.2 
L 163.847455 -54.2 
L 164.774054 -54.2 
L 165.700652 -54.2 
L 166.627251 -54.2 
L 167.553849 -54.2 
L 168.480448 -54.2 
L 169.407046 -54.2 
L 170.333645 -54.2 
L 171.260243 -54.2 
L 172.186842 -54.2 
L 173.113441 -54.2 
L 174.040039 -54.2 
L 174.966638 -54.2 
L 175.893236 -54.2 
L 176.819835 -54.2 
L 177.746433 -54.2 
L 178.673032 -54.2 
L 179.59963 -54.2 
L 180.526229 -54.2 
L 181.452827 -54.2 
L 182.379426 -54.2 
L 183.306025 -54.2 
L 184.232623 -54.2 
L 185.159222 -54.2 
L 186.08582 -54.2 
L 187.012419 -54.2 
L 187.939017 -54.2 
L 188.865616 -54.2 
L 189.792214 -54.2 
L 190.718813 -54.2 
L 191.645411 -54.2 
L 192.57201 -54.2 
L 193.498609 -54.2 
L 194.425207 -54.2 
L 195.351806 -54.2 
L 196.278404 -54.2 
L 197.205003 -54.2 
L 198.131601 -54.2 
L 199.0582 -54.2 
L 199.984798 -54.2 
L 200.911397 -54.2 
L 201.837996 -54.2 
L 202.764594 -54.2 
L 203.691193 -54.2 
L 204.617791 -54.2 
L 205.54439 -54.2 
L 206.470988 -54.2 
L 207.397587 -54.2 
L 208.324185 -54.2 
L 209.250784 -54.2 
L 210.177382 -54.2 
L 211.103981 -54.2 
L 212.03058 -54.2 
L 212.957178 -54.2 
L 213.883777 -54.2 
L 214.810375 -54.2 
L 215.736974 -54.2 
L 216.663572 -54.2 
L 217.590171 -54.2 
L 218.516769 -54.2 
L 219.443368 -54.2 
L 220.369967 -54.2 
L 221.296565 -54.2 
L 222.223164 -54.2 
L 223.149762 -54.2 
L 224.076361 -54.2 
L 225.002959 -54.2 
L 225.929558 -54.2 
L 226.856156 -54.2 
L 227.782755 -54.2 
L 228.709353 -54.2 
L 229.635952 -54.2 
L 230.562551 -54.2 
L 231.489149 -54.2 
L 232.415748 -54.2 
L 233.342346 -54.2 
L 234.268945 -54.2 
L 235.195543 -54.2 
L 236.122142 -54.2 
L 237.04874 -54.2 
L 237.975339 -54.2 
L 238.901937 -54.2 
L 239.828536 -54.2 
L 240.755135 -54.2 
L 241.681733 -54.2 
L 242.608332 -54.2 
L 243.53493 -54.2 
L 244.461529 -54.2 
L 245.388127 -54.2 
L 246.314726 -54.2 
L 247.241324 -54.2 
L 248.167923 -54.2 
L 249.094522 -54.2 
L 250.02112 -54.2 
L 250.947719 -54.2 
L 251.874317 -54.2 
L 252.800916 -54.2 
L 253.727514 -54.2 
L 254.654113 -54.2 
L 255.580711 -54.2 
L 256.50731 -54.2 
L 257.433908 -54.2 
L 258.360507 -54.2 
L 259.287106 -54.2 
L 260.213704 -54.2 
L 260.213704 -54.219613 
L 260.213704 -54.219613 
L 259.287106 -54.226113 
L 258.360507 -54.234522 
L 257.433908 -54.245323 
L 256.50731 -54.259091 
L 255.580711 -54.276515 
L 254.654113 -54.298401 
L 253.727514 -54.325692 
L 252.800916 -54.359476 
L 251.874317 -54.400994 
L 250.947719 -54.451647 
L 250.02112 -54.512999 
L 249.094522 -54.586776 
L 248.167923 -54.674854 
L 247.241324 -54.779252 
L 246.314726 -54.902101 
L 245.388127 -55.045622 
L 244.461529 -55.212079 
L 243.53493 -55.403737 
L 242.608332 -55.622796 
L 241.681733 -55.87133 
L 240.755135 -56.151206 
L 239.828536 -56.464004 
L 238.901937 -56.810924 
L 237.975339 -57.192698 
L 237.04874 -57.609501 
L 236.122142 -58.060857 
L 235.195543 -58.545568 
L 234.268945 -59.061639 
L 233.342346 -59.606237 
L 232.415748 -60.175656 
L 231.489149 -60.76532 
L 230.562551 -61.369805 
L 229.635952 -61.982907 
L 228.709353 -62.59773 
L 227.782755 -63.206816 
L 226.856156 -63.802314 
L 225.929558 -64.37617 
L 225.002959 -64.92035 
L 224.076361 -65.427082 
L 223.149762 -65.889109 
L 222.223164 -66.299952 
L 221.296565 -66.654159 
L 220.369967 -66.947543 
L 219.443368 -67.177396 
L 218.516769 -67.342655 
L 217.590171 -67.444041 
L 216.663572 -67.484132 
L 215.736974 -67.467386 
L 214.810375 -67.400098 
L 213.883777 -67.290305 
L 212.957178 -67.147622 
L 212.03058 -66.983026 
L 211.103981 -66.808587 
L 210.177382 -66.637157 
L 209.250784 -66.48202 
L 208.324185 -66.356519 
L 207.397587 -66.273664 
L 206.470988 -66.245737 
L 205.54439 -66.283898 
L 204.617791 -66.397811 
L 203.691193 -66.595299 
L 202.764594 -66.882036 
L 201.837996 -67.261288 
L 200.911397 -67.73372 
L 199.984798 -68.297269 
L 199.0582 -68.947104 
L 198.131601 -69.675672 
L 197.205003 -70.472839 
L 196.278404 -71.326132 
L 195.351806 -72.221076 
L 194.425207 -73.141631 
L 193.498609 -74.070709 
L 192.57201 -74.990771 
L 191.645411 -75.884468 
L 190.718813 -76.73533 
L 189.792214 -77.528448 
L 188.865616 -78.251143 
L 187.939017 -78.893576 
L 187.012419 -79.449288 
L 186.08582 -79.915616 
L 185.159222 -80.29399 
L 184.232623 -80.59007 
L 183.306025 -80.813716 
L 182.379426 -80.978801 
L 181.452827 -81.102842 
L 180.526229 -81.206486 
L 179.59963 -81.312852 
L 178.673032 -81.446763 
L 177.746433 -81.633892 
L 176.819835 -81.899858 
L 175.893236 -82.269307 
L 174.966638 -82.765017 
L 174.040039 -83.407052 
L 173.113441 -84.21201 
L 172.186842 -85.192379 
L 171.260243 -86.356036 
L 170.333645 -87.705901 
L 169.407046 -89.239752 
L 168.480448 -90.950224 
L 167.553849 -92.82497 
L 166.627251 -94.846997 
L 165.700652 -96.995156 
L 164.774054 -99.244767 
L 163.847455 -101.568365 
L 162.920856 -103.936538 
L 161.994258 -106.318824 
L 161.067659 -108.684636 
L 160.141061 -111.004181 
L 159.214462 -113.249343 
L 158.287864 -115.394479 
L 157.361265 -117.417119 
L 156.434667 -119.298525 
L 155.508068 -121.02409 
L 154.58147 -122.583578 
L 153.654871 -123.971175 
L 152.728272 -125.185379 
L 151.801674 -126.22872 
L 150.875075 -127.107356 
L 149.948477 -127.830554 
L 149.021878 -128.410096 
L 148.09528 -128.859655 
L 147.168681 -129.194174 
L 146.242083 -129.429279 
L 145.315484 -129.580769 
L 144.388886 -129.664186 
L 143.462287 -129.694509 
L 142.535688 -129.685936 
L 141.60909 -129.651793 
L 140.682491 -129.604511 
L 139.755893 -129.555685 
L 138.829294 -129.51616 
L 137.902696 -129.496131 
L 136.976097 -129.505216 
L 136.049499 -129.552476 
L 135.1229 -129.646371 
L 134.196301 -129.794622 
L 133.269703 -130.003986 
L 132.343104 -130.279946 
L 131.416506 -130.626325 
L 130.489907 -131.044857 
L 129.563309 -131.534728 
L 128.63671 -132.092144 
L 127.710112 -132.709934 
L 126.783513 -133.377248 
L 125.856915 -134.07937 
L 124.930316 -134.797679 
L 124.003717 -135.509771 
L 123.077119 -136.189768 
L 122.15052 -136.80881 
L 121.223922 -137.335715 
L 120.297323 -137.737808 
L 119.370725 -137.981881 
L 118.444126 -138.035244 
L 117.517528 -137.866843 
L 116.590929 -137.448385 
L 115.66433 -136.755424 
L 114.737732 -135.768357 
L 113.811133 -134.473288 
L 112.884535 -132.862714 
L 111.957936 -130.93599 
L 111.031338 -128.69957 
L 110.104739 -126.166977 
L 109.178141 -123.358524 
L 108.251542 -120.300796 
L 107.324944 -117.025887 
L 106.398345 -113.570464 
L 105.471746 -109.974668 
L 104.545148 -106.280917 
L 103.618549 -102.532661 
L 102.691951 -98.77314 
L 101.765352 -95.044197 
L 100.838754 -91.385201 
L 99.912155 -87.832104 
L 98.985557 -84.41668 
L 98.058958 -81.165958 
L 97.13236 -78.101853 
L 96.205761 -75.241004 
L 95.279162 -72.594811 
L 94.352564 -70.169632 
L 93.425965 -67.967141 
L 92.499367 -65.984796 
L 91.572768 -64.216397 
L 90.64617 -62.652694 
L 89.719571 -61.282022 
L 88.792973 -60.090921 
L 87.866374 -59.064738 
L 86.939775 -58.188166 
L 86.013177 -57.445733 
L 85.086578 -56.822208 
L 84.15998 -56.302935 
L 83.233381 -55.874092 
L 82.306783 -55.522874 
L 81.380184 -55.237611 
L 80.453586 -55.007829 
L 79.526987 -54.824259 
L 78.600389 -54.678812 
L 77.67379 -54.564512 
L 76.747191 -54.475422 
L 75.820593 -54.406547 
z
" id="mda70f02775" style="stroke:#2ca02c;"/>
    </defs>
    <g clip-path="url(#pc0004bbf85)">
     <use style="fill:#2ca02c;fill-opacity:0.25;stroke:#2ca02c;" x="0" xlink:href="#mda70f02775" y="332.91875"/>
    </g>
   </g>
   <g id="PolyCollection_4">
    <defs>
     <path d="M 75.415647 -54.321814 
L 75.415647 -54.2 
L 76.584001 -54.2 
L 77.752354 -54.2 
L 78.920708 -54.2 
L 80.089062 -54.2 
L 81.257416 -54.2 
L 82.425769 -54.2 
L 83.594123 -54.2 
L 84.762477 -54.2 
L 85.930831 -54.2 
L 87.099184 -54.2 
L 88.267538 -54.2 
L 89.435892 -54.2 
L 90.604246 -54.2 
L 91.772599 -54.2 
L 92.940953 -54.2 
L 94.109307 -54.2 
L 95.27766 -54.2 
L 96.446014 -54.2 
L 97.614368 -54.2 
L 98.782722 -54.2 
L 99.951075 -54.2 
L 101.119429 -54.2 
L 102.287783 -54.2 
L 103.456137 -54.2 
L 104.62449 -54.2 
L 105.792844 -54.2 
L 106.961198 -54.2 
L 108.129552 -54.2 
L 109.297905 -54.2 
L 110.466259 -54.2 
L 111.634613 -54.2 
L 112.802966 -54.2 
L 113.97132 -54.2 
L 115.139674 -54.2 
L 116.308028 -54.2 
L 117.476381 -54.2 
L 118.644735 -54.2 
L 119.813089 -54.2 
L 120.981443 -54.2 
L 122.149796 -54.2 
L 123.31815 -54.2 
L 124.486504 -54.2 
L 125.654858 -54.2 
L 126.823211 -54.2 
L 127.991565 -54.2 
L 129.159919 -54.2 
L 130.328272 -54.2 
L 131.496626 -54.2 
L 132.66498 -54.2 
L 133.833334 -54.2 
L 135.001687 -54.2 
L 136.170041 -54.2 
L 137.338395 -54.2 
L 138.506749 -54.2 
L 139.675102 -54.2 
L 140.843456 -54.2 
L 142.01181 -54.2 
L 143.180164 -54.2 
L 144.348517 -54.2 
L 145.516871 -54.2 
L 146.685225 -54.2 
L 147.853578 -54.2 
L 149.021932 -54.2 
L 150.190286 -54.2 
L 151.35864 -54.2 
L 152.526993 -54.2 
L 153.695347 -54.2 
L 154.863701 -54.2 
L 156.032055 -54.2 
L 157.200408 -54.2 
L 158.368762 -54.2 
L 159.537116 -54.2 
L 160.705469 -54.2 
L 161.873823 -54.2 
L 163.042177 -54.2 
L 164.210531 -54.2 
L 165.378884 -54.2 
L 166.547238 -54.2 
L 167.715592 -54.2 
L 168.883946 -54.2 
L 170.052299 -54.2 
L 171.220653 -54.2 
L 172.389007 -54.2 
L 173.557361 -54.2 
L 174.725714 -54.2 
L 175.894068 -54.2 
L 177.062422 -54.2 
L 178.230775 -54.2 
L 179.399129 -54.2 
L 180.567483 -54.2 
L 181.735837 -54.2 
L 182.90419 -54.2 
L 184.072544 -54.2 
L 185.240898 -54.2 
L 186.409252 -54.2 
L 187.577605 -54.2 
L 188.745959 -54.2 
L 189.914313 -54.2 
L 191.082667 -54.2 
L 192.25102 -54.2 
L 193.419374 -54.2 
L 194.587728 -54.2 
L 195.756081 -54.2 
L 196.924435 -54.2 
L 198.092789 -54.2 
L 199.261143 -54.2 
L 200.429496 -54.2 
L 201.59785 -54.2 
L 202.766204 -54.2 
L 203.934558 -54.2 
L 205.102911 -54.2 
L 206.271265 -54.2 
L 207.439619 -54.2 
L 208.607973 -54.2 
L 209.776326 -54.2 
L 210.94468 -54.2 
L 212.113034 -54.2 
L 213.281387 -54.2 
L 214.449741 -54.2 
L 215.618095 -54.2 
L 216.786449 -54.2 
L 217.954802 -54.2 
L 219.123156 -54.2 
L 220.29151 -54.2 
L 221.459864 -54.2 
L 222.628217 -54.2 
L 223.796571 -54.2 
L 224.964925 -54.2 
L 226.133279 -54.2 
L 227.301632 -54.2 
L 228.469986 -54.2 
L 229.63834 -54.2 
L 230.806693 -54.2 
L 231.975047 -54.2 
L 233.143401 -54.2 
L 234.311755 -54.2 
L 235.480108 -54.2 
L 236.648462 -54.2 
L 237.816816 -54.2 
L 238.98517 -54.2 
L 240.153523 -54.2 
L 241.321877 -54.2 
L 242.490231 -54.2 
L 243.658584 -54.2 
L 244.826938 -54.2 
L 245.995292 -54.2 
L 247.163646 -54.2 
L 248.331999 -54.2 
L 249.500353 -54.2 
L 250.668707 -54.2 
L 251.837061 -54.2 
L 253.005414 -54.2 
L 254.173768 -54.2 
L 255.342122 -54.2 
L 256.510476 -54.2 
L 257.678829 -54.2 
L 258.847183 -54.2 
L 260.015537 -54.2 
L 261.18389 -54.2 
L 262.352244 -54.2 
L 263.520598 -54.2 
L 264.688952 -54.2 
L 265.857305 -54.2 
L 267.025659 -54.2 
L 268.194013 -54.2 
L 269.362367 -54.2 
L 270.53072 -54.2 
L 271.699074 -54.2 
L 272.867428 -54.2 
L 274.035782 -54.2 
L 275.204135 -54.2 
L 276.372489 -54.2 
L 277.540843 -54.2 
L 278.709196 -54.2 
L 279.87755 -54.2 
L 281.045904 -54.2 
L 282.214258 -54.2 
L 283.382611 -54.2 
L 284.550965 -54.2 
L 285.719319 -54.2 
L 286.887673 -54.2 
L 288.056026 -54.2 
L 289.22438 -54.2 
L 290.392734 -54.2 
L 291.561088 -54.2 
L 292.729441 -54.2 
L 293.897795 -54.2 
L 295.066149 -54.2 
L 296.234502 -54.2 
L 297.402856 -54.2 
L 298.57121 -54.2 
L 299.739564 -54.2 
L 300.907917 -54.2 
L 302.076271 -54.2 
L 303.244625 -54.2 
L 304.412979 -54.2 
L 305.581332 -54.2 
L 306.749686 -54.2 
L 307.91804 -54.2 
L 307.91804 -54.213092 
L 307.91804 -54.213092 
L 306.749686 -54.218432 
L 305.581332 -54.225601 
L 304.412979 -54.235082 
L 303.244625 -54.247428 
L 302.076271 -54.263258 
L 300.907917 -54.283237 
L 299.739564 -54.308057 
L 298.57121 -54.338393 
L 297.402856 -54.374865 
L 296.234502 -54.41798 
L 295.066149 -54.468078 
L 293.897795 -54.525261 
L 292.729441 -54.589341 
L 291.561088 -54.659785 
L 290.392734 -54.735683 
L 289.22438 -54.815728 
L 288.056026 -54.898227 
L 286.887673 -54.981146 
L 285.719319 -55.062175 
L 284.550965 -55.138829 
L 283.382611 -55.208569 
L 282.214258 -55.26894 
L 281.045904 -55.317714 
L 279.87755 -55.353026 
L 278.709196 -55.373493 
L 277.540843 -55.378308 
L 276.372489 -55.367295 
L 275.204135 -55.340923 
L 274.035782 -55.300282 
L 272.867428 -55.247016 
L 271.699074 -55.183228 
L 270.53072 -55.111359 
L 269.362367 -55.034061 
L 268.194013 -54.954071 
L 267.025659 -54.874088 
L 265.857305 -54.796691 
L 264.688952 -54.724264 
L 263.520598 -54.658975 
L 262.352244 -54.602769 
L 261.18389 -54.5574 
L 260.015537 -54.524489 
L 258.847183 -54.505588 
L 257.678829 -54.502265 
L 256.510476 -54.516177 
L 255.342122 -54.549144 
L 254.173768 -54.6032 
L 253.005414 -54.680632 
L 251.837061 -54.783996 
L 250.668707 -54.916106 
L 249.500353 -55.080012 
L 248.331999 -55.278957 
L 247.163646 -55.516312 
L 245.995292 -55.795517 
L 244.826938 -56.119994 
L 243.658584 -56.493067 
L 242.490231 -56.91786 
L 241.321877 -57.39718 
L 240.153523 -57.93338 
L 238.98517 -58.528188 
L 237.816816 -59.182501 
L 236.648462 -59.896141 
L 235.480108 -60.667573 
L 234.311755 -61.493607 
L 233.143401 -62.369095 
L 231.975047 -63.286654 
L 230.806693 -64.236469 
L 229.63834 -65.206194 
L 228.469986 -66.181016 
L 227.301632 -67.143906 
L 226.133279 -68.076087 
L 224.964925 -68.957716 
L 223.796571 -69.768779 
L 222.628217 -70.490141 
L 221.459864 -71.1047 
L 220.29151 -71.598564 
L 219.123156 -71.962144 
L 217.954802 -72.191094 
L 216.786449 -72.286982 
L 215.618095 -72.25765 
L 214.449741 -72.1172 
L 213.281387 -71.885606 
L 212.113034 -71.587967 
L 210.94468 -71.25344 
L 209.776326 -70.913943 
L 208.607973 -70.602695 
L 207.439619 -70.352705 
L 206.271265 -70.195287 
L 205.102911 -70.158689 
L 203.934558 -70.266917 
L 202.766204 -70.538779 
L 201.59785 -70.987218 
L 200.429496 -71.618932 
L 199.261143 -72.434301 
L 198.092789 -73.427625 
L 196.924435 -74.587657 
L 195.756081 -75.898426 
L 194.587728 -77.340307 
L 193.419374 -78.891319 
L 192.25102 -80.528561 
L 191.082667 -82.229749 
L 189.914313 -83.974729 
L 188.745959 -85.746873 
L 187.577605 -87.534262 
L 186.409252 -89.330519 
L 185.240898 -91.135247 
L 184.072544 -92.953971 
L 182.90419 -94.797601 
L 181.735837 -96.681412 
L 180.567483 -98.623609 
L 179.399129 -100.643598 
L 178.230775 -102.760065 
L 177.062422 -104.989026 
L 175.894068 -107.341983 
L 174.725714 -109.824327 
L 173.557361 -112.434089 
L 172.389007 -115.161114 
L 171.220653 -117.986728 
L 170.052299 -120.883893 
L 168.883946 -123.817858 
L 167.715592 -126.747289 
L 166.547238 -129.625814 
L 165.378884 -132.403962 
L 164.210531 -135.031404 
L 163.042177 -137.459413 
L 161.873823 -139.64345 
L 160.705469 -141.545724 
L 159.537116 -143.137584 
L 158.368762 -144.40156 
L 157.200408 -145.332882 
L 156.032055 -145.940314 
L 154.863701 -146.246164 
L 153.695347 -146.285407 
L 152.526993 -146.103928 
L 151.35864 -145.755958 
L 150.190286 -145.300904 
L 149.021932 -144.79981 
L 147.853578 -144.311764 
L 146.685225 -143.890576 
L 145.516871 -143.582034 
L 144.348517 -143.42198 
L 143.180164 -143.435376 
L 142.01181 -143.636378 
L 140.843456 -144.029361 
L 139.675102 -144.610672 
L 138.506749 -145.370839 
L 137.338395 -146.296888 
L 136.170041 -147.374419 
L 135.001687 -148.589133 
L 133.833334 -149.927568 
L 132.66498 -151.376942 
L 131.496626 -152.924098 
L 130.328272 -154.553705 
L 129.159919 -156.245949 
L 127.991565 -157.974074 
L 126.823211 -159.702131 
L 125.654858 -161.38332 
L 124.486504 -162.959259 
L 123.31815 -164.360404 
L 122.149796 -165.50776 
L 120.981443 -166.315853 
L 119.813089 -166.696824 
L 118.644735 -166.565359 
L 117.476381 -165.844083 
L 116.308028 -164.46896 
L 115.139674 -162.394253 
L 113.97132 -159.59658 
L 112.802966 -156.07771 
L 111.634613 -151.865821 
L 110.466259 -147.015078 
L 109.297905 -141.603564 
L 108.129552 -135.729682 
L 106.961198 -129.50734 
L 105.792844 -123.060282 
L 104.62449 -116.516002 
L 103.456137 -109.999698 
L 102.287783 -103.628697 
L 101.119429 -97.507699 
L 99.951075 -91.725123 
L 98.782722 -86.350696 
L 97.614368 -81.434339 
L 96.446014 -77.006279 
L 95.27766 -73.078233 
L 94.109307 -69.645441 
L 92.940953 -66.689299 
L 91.772599 -64.18033 
L 90.604246 -62.081233 
L 89.435892 -60.349813 
L 88.267538 -58.941618 
L 87.099184 -57.812174 
L 85.930831 -56.918758 
L 84.762477 -56.221697 
L 83.594123 -55.685219 
L 82.425769 -55.277904 
L 81.257416 -54.97281 
L 80.089062 -54.747339 
L 78.920708 -54.582931 
L 77.752354 -54.46464 
L 76.584001 -54.380655 
L 75.415647 -54.321814 
z
" id="ma15e998df5" style="stroke:#ff7f0e;"/>
    </defs>
    <g clip-path="url(#pc0004bbf85)">
     <use style="fill:#ff7f0e;fill-opacity:0.25;stroke:#ff7f0e;" x="0" xlink:href="#ma15e998df5" y="332.91875"/>
    </g>
   </g>
   <g id="PolyCollection_5">
    <defs>
     <path d="M 81.030502 -54.50028 
L 81.030502 -54.2 
L 82.047961 -54.2 
L 83.065419 -54.2 
L 84.082877 -54.2 
L 85.100336 -54.2 
L 86.117794 -54.2 
L 87.135252 -54.2 
L 88.152711 -54.2 
L 89.170169 -54.2 
L 90.187627 -54.2 
L 91.205086 -54.2 
L 92.222544 -54.2 
L 93.240002 -54.2 
L 94.257461 -54.2 
L 95.274919 -54.2 
L 96.292377 -54.2 
L 97.309836 -54.2 
L 98.327294 -54.2 
L 99.344752 -54.2 
L 100.36221 -54.2 
L 101.379669 -54.2 
L 102.397127 -54.2 
L 103.414585 -54.2 
L 104.432044 -54.2 
L 105.449502 -54.2 
L 106.46696 -54.2 
L 107.484419 -54.2 
L 108.501877 -54.2 
L 109.519335 -54.2 
L 110.536794 -54.2 
L 111.554252 -54.2 
L 112.57171 -54.2 
L 113.589169 -54.2 
L 114.606627 -54.2 
L 115.624085 -54.2 
L 116.641544 -54.2 
L 117.659002 -54.2 
L 118.67646 -54.2 
L 119.693919 -54.2 
L 120.711377 -54.2 
L 121.728835 -54.2 
L 122.746294 -54.2 
L 123.763752 -54.2 
L 124.78121 -54.2 
L 125.798669 -54.2 
L 126.816127 -54.2 
L 127.833585 -54.2 
L 128.851044 -54.2 
L 129.868502 -54.2 
L 130.88596 -54.2 
L 131.903419 -54.2 
L 132.920877 -54.2 
L 133.938335 -54.2 
L 134.955794 -54.2 
L 135.973252 -54.2 
L 136.99071 -54.2 
L 138.008169 -54.2 
L 139.025627 -54.2 
L 140.043085 -54.2 
L 141.060544 -54.2 
L 142.078002 -54.2 
L 143.09546 -54.2 
L 144.112918 -54.2 
L 145.130377 -54.2 
L 146.147835 -54.2 
L 147.165293 -54.2 
L 148.182752 -54.2 
L 149.20021 -54.2 
L 150.217668 -54.2 
L 151.235127 -54.2 
L 152.252585 -54.2 
L 153.270043 -54.2 
L 154.287502 -54.2 
L 155.30496 -54.2 
L 156.322418 -54.2 
L 157.339877 -54.2 
L 158.357335 -54.2 
L 159.374793 -54.2 
L 160.392252 -54.2 
L 161.40971 -54.2 
L 162.427168 -54.2 
L 163.444627 -54.2 
L 164.462085 -54.2 
L 165.479543 -54.2 
L 166.497002 -54.2 
L 167.51446 -54.2 
L 168.531918 -54.2 
L 169.549377 -54.2 
L 170.566835 -54.2 
L 171.584293 -54.2 
L 172.601752 -54.2 
L 173.61921 -54.2 
L 174.636668 -54.2 
L 175.654127 -54.2 
L 176.671585 -54.2 
L 177.689043 -54.2 
L 178.706502 -54.2 
L 179.72396 -54.2 
L 180.741418 -54.2 
L 181.758877 -54.2 
L 182.776335 -54.2 
L 183.793793 -54.2 
L 184.811251 -54.2 
L 185.82871 -54.2 
L 186.846168 -54.2 
L 187.863626 -54.2 
L 188.881085 -54.2 
L 189.898543 -54.2 
L 190.916001 -54.2 
L 191.93346 -54.2 
L 192.950918 -54.2 
L 193.968376 -54.2 
L 194.985835 -54.2 
L 196.003293 -54.2 
L 197.020751 -54.2 
L 198.03821 -54.2 
L 199.055668 -54.2 
L 200.073126 -54.2 
L 201.090585 -54.2 
L 202.108043 -54.2 
L 203.125501 -54.2 
L 204.14296 -54.2 
L 205.160418 -54.2 
L 206.177876 -54.2 
L 207.195335 -54.2 
L 208.212793 -54.2 
L 209.230251 -54.2 
L 210.24771 -54.2 
L 211.265168 -54.2 
L 212.282626 -54.2 
L 213.300085 -54.2 
L 214.317543 -54.2 
L 215.335001 -54.2 
L 216.35246 -54.2 
L 217.369918 -54.2 
L 218.387376 -54.2 
L 219.404835 -54.2 
L 220.422293 -54.2 
L 221.439751 -54.2 
L 222.45721 -54.2 
L 223.474668 -54.2 
L 224.492126 -54.2 
L 225.509585 -54.2 
L 226.527043 -54.2 
L 227.544501 -54.2 
L 228.561959 -54.2 
L 229.579418 -54.2 
L 230.596876 -54.2 
L 231.614334 -54.2 
L 232.631793 -54.2 
L 233.649251 -54.2 
L 234.666709 -54.2 
L 235.684168 -54.2 
L 236.701626 -54.2 
L 237.719084 -54.2 
L 238.736543 -54.2 
L 239.754001 -54.2 
L 240.771459 -54.2 
L 241.788918 -54.2 
L 242.806376 -54.2 
L 243.823834 -54.2 
L 244.841293 -54.2 
L 245.858751 -54.2 
L 246.876209 -54.2 
L 247.893668 -54.2 
L 248.911126 -54.2 
L 249.928584 -54.2 
L 250.946043 -54.2 
L 251.963501 -54.2 
L 252.980959 -54.2 
L 253.998418 -54.2 
L 255.015876 -54.2 
L 256.033334 -54.2 
L 257.050793 -54.2 
L 258.068251 -54.2 
L 259.085709 -54.2 
L 260.103168 -54.2 
L 261.120626 -54.2 
L 262.138084 -54.2 
L 263.155543 -54.2 
L 264.173001 -54.2 
L 265.190459 -54.2 
L 266.207918 -54.2 
L 267.225376 -54.2 
L 268.242834 -54.2 
L 269.260293 -54.2 
L 270.277751 -54.2 
L 271.295209 -54.2 
L 272.312667 -54.2 
L 273.330126 -54.2 
L 274.347584 -54.2 
L 275.365042 -54.2 
L 276.382501 -54.2 
L 277.399959 -54.2 
L 278.417417 -54.2 
L 279.434876 -54.2 
L 280.452334 -54.2 
L 281.469792 -54.2 
L 282.487251 -54.2 
L 283.504709 -54.2 
L 283.504709 -54.215332 
L 283.504709 -54.215332 
L 282.487251 -54.221731 
L 281.469792 -54.23037 
L 280.452334 -54.241851 
L 279.434876 -54.256869 
L 278.417417 -54.276199 
L 277.399959 -54.300677 
L 276.382501 -54.331169 
L 275.365042 -54.368521 
L 274.347584 -54.413506 
L 273.330126 -54.466755 
L 272.312667 -54.528683 
L 271.295209 -54.599421 
L 270.277751 -54.678741 
L 269.260293 -54.766016 
L 268.242834 -54.860189 
L 267.225376 -54.959784 
L 266.207918 -55.062954 
L 265.190459 -55.16757 
L 264.173001 -55.27136 
L 263.155543 -55.372076 
L 262.138084 -55.46769 
L 261.120626 -55.556609 
L 260.103168 -55.637869 
L 259.085709 -55.711314 
L 258.068251 -55.777716 
L 257.050793 -55.838839 
L 256.033334 -55.897407 
L 255.015876 -55.957001 
L 253.998418 -56.021853 
L 252.980959 -56.09658 
L 251.963501 -56.18585 
L 250.946043 -56.294022 
L 249.928584 -56.424791 
L 248.911126 -56.580878 
L 247.893668 -56.763792 
L 246.876209 -56.9737 
L 245.858751 -57.209439 
L 244.841293 -57.468664 
L 243.823834 -57.748142 
L 242.806376 -58.044176 
L 241.788918 -58.353112 
L 240.771459 -58.671894 
L 239.754001 -58.998603 
L 238.736543 -59.33292 
L 237.719084 -59.676445 
L 236.701626 -60.032825 
L 235.684168 -60.407645 
L 234.666709 -60.80807 
L 233.649251 -61.242238 
L 232.631793 -61.718444 
L 231.614334 -62.244168 
L 230.596876 -62.82503 
L 229.579418 -63.463772 
L 228.561959 -64.159371 
L 227.544501 -64.90638 
L 226.527043 -65.694598 
L 225.509585 -66.50911 
L 224.492126 -67.330765 
L 223.474668 -68.137051 
L 222.45721 -68.903349 
L 221.439751 -69.604472 
L 220.422293 -70.216372 
L 219.404835 -70.717886 
L 218.387376 -71.092368 
L 217.369918 -71.329068 
L 216.35246 -71.424138 
L 215.335001 -71.381167 
L 214.317543 -71.211206 
L 213.300085 -70.932278 
L 212.282626 -70.568412 
L 211.265168 -70.148296 
L 210.24771 -69.703654 
L 209.230251 -69.267487 
L 208.212793 -68.872306 
L 207.195335 -68.548487 
L 206.177876 -68.322832 
L 205.160418 -68.217426 
L 204.14296 -68.248806 
L 203.125501 -68.427451 
L 202.108043 -68.757581 
L 201.090585 -69.237212 
L 200.073126 -69.858447 
L 199.055668 -70.607943 
L 198.03821 -71.467554 
L 197.020751 -72.415122 
L 196.003293 -73.425426 
L 194.985835 -74.471306 
L 193.968376 -75.524966 
L 192.950918 -76.559448 
L 191.93346 -77.550266 
L 190.916001 -78.477139 
L 189.898543 -79.325722 
L 188.881085 -80.089239 
L 187.863626 -80.769847 
L 186.846168 -81.379597 
L 185.82871 -81.940848 
L 184.811251 -82.486007 
L 183.793793 -83.056543 
L 182.776335 -83.701257 
L 181.758877 -84.473879 
L 180.741418 -85.430109 
L 179.72396 -86.624301 
L 178.706502 -88.106001 
L 177.689043 -89.916602 
L 176.671585 -92.086338 
L 175.654127 -94.631834 
L 174.636668 -97.554386 
L 173.61921 -100.839054 
L 172.601752 -104.454627 
L 171.584293 -108.354419 
L 170.566835 -112.477843 
L 169.549377 -116.752643 
L 168.531918 -121.097652 
L 167.51446 -125.425955 
L 166.497002 -129.648313 
L 165.479543 -133.676731 
L 164.462085 -137.428067 
L 163.444627 -140.827566 
L 162.427168 -143.812211 
L 161.40971 -146.333781 
L 160.392252 -148.361462 
L 159.374793 -149.883879 
L 158.357335 -150.910388 
L 157.339877 -151.47147 
L 156.322418 -151.618114 
L 155.30496 -151.420111 
L 154.287502 -150.963257 
L 153.270043 -150.345553 
L 152.252585 -149.672578 
L 151.235127 -149.052317 
L 150.217668 -148.589791 
L 149.20021 -148.381896 
L 148.182752 -148.512866 
L 147.165293 -149.050747 
L 146.147835 -150.04519 
L 145.130377 -151.52675 
L 144.112918 -153.507755 
L 143.09546 -155.984635 
L 142.078002 -158.941437 
L 141.060544 -162.354173 
L 140.043085 -166.195483 
L 139.025627 -170.439139 
L 138.008169 -175.063858 
L 136.99071 -180.056019 
L 135.973252 -185.410957 
L 134.955794 -191.132662 
L 133.938335 -197.231866 
L 132.920877 -203.722652 
L 131.903419 -210.617826 
L 130.88596 -217.923424 
L 129.868502 -225.632747 
L 128.851044 -233.720409 
L 127.833585 -242.136817 
L 126.816127 -250.803566 
L 125.798669 -259.610147 
L 124.78121 -268.412368 
L 123.763752 -277.032817 
L 122.746294 -285.263623 
L 121.728835 -292.871674 
L 120.711377 -299.606295 
L 119.693919 -305.209217 
L 118.67646 -309.42647 
L 117.659002 -312.021579 
L 116.641544 -312.789286 
L 115.624085 -311.56882 
L 114.606627 -308.25567 
L 113.589169 -302.810831 
L 112.57171 -295.266619 
L 111.554252 -285.728382 
L 110.536794 -274.371776 
L 109.519335 -261.435632 
L 108.501877 -247.21088 
L 107.484419 -232.026302 
L 106.46696 -216.232213 
L 105.449502 -200.183326 
L 104.432044 -184.222076 
L 103.414585 -168.663609 
L 102.397127 -153.783426 
L 101.379669 -139.80836 
L 100.36221 -126.91125 
L 99.344752 -115.209316 
L 98.327294 -104.765915 
L 97.309836 -95.595158 
L 96.292377 -87.668645 
L 95.274919 -80.92356 
L 94.257461 -75.271334 
L 93.240002 -70.606204 
L 92.222544 -66.813104 
L 91.205086 -63.774482 
L 90.187627 -61.375822 
L 89.170169 -59.509779 
L 88.152711 -58.078972 
L 87.135252 -56.997566 
L 86.117794 -56.191852 
L 85.100336 -55.600029 
L 84.082877 -55.171431 
L 83.065419 -54.865385 
L 82.047961 -54.649898 
L 81.030502 -54.50028 
z
" id="m5d31edb863" style="stroke:#1f77b4;"/>
    </defs>
    <g clip-path="url(#pc0004bbf85)">
     <use style="fill:#1f77b4;fill-opacity:0.25;stroke:#1f77b4;" x="0" xlink:href="#m5d31edb863" y="332.91875"/>
    </g>
   </g>
   <g id="matplotlib.axis_1">
    <g id="xtick_1">
     <g id="line2d_1">
      <defs>
       <path d="M 0 0 
L 0 3.5 
" id="mfd840fd99c" style="stroke:#000000;stroke-width:0.8;"/>
      </defs>
      <g>
       <use style="stroke:#000000;stroke-width:0.8;" x="92.823247" xlink:href="#mfd840fd99c" y="278.71875"/>
      </g>
     </g>
     <g id="text_1">
      <!-- 0 -->
      <g transform="translate(87.823247 299.378125)scale(0.2 -0.2)">
       <defs>
        <path d="M 47.59375 33 
Q 47.59375 26.296875 46.296875 20.34375 
Q 45 14.40625 42.453125 9.40625 
Q 39.90625 4.40625 35.40625 1.5 
Q 30.90625 -1.40625 25 -1.40625 
Q 18.90625 -1.40625 14.296875 1.6875 
Q 9.703125 4.796875 7.203125 10 
Q 4.703125 15.203125 3.546875 21.09375 
Q 2.40625 27 2.40625 33.59375 
Q 2.40625 42.90625 4.703125 50.34375 
Q 7 57.796875 12.34375 62.6875 
Q 17.703125 67.59375 25.40625 67.59375 
Q 35.203125 67.59375 41.390625 58 
Q 47.59375 48.40625 47.59375 33 
z
M 38 32.5 
Q 38 48.296875 34.640625 56.640625 
Q 31.296875 65 24.796875 65 
Q 18.59375 65 15.296875 56.59375 
Q 12 48.203125 12 32.90625 
Q 12 17.5 15.296875 9.34375 
Q 18.59375 1.203125 25 1.203125 
Q 31.296875 1.203125 34.640625 9.34375 
Q 38 17.5 38 32.5 
z
" id="STIXGeneral-Regular-48"/>
       </defs>
       <use xlink:href="#STIXGeneral-Regular-48"/>
      </g>
     </g>
    </g>
    <g id="xtick_2">
     <g id="line2d_2">
      <g>
       <use style="stroke:#000000;stroke-width:0.8;" x="214.103733" xlink:href="#mfd840fd99c" y="278.71875"/>
      </g>
     </g>
     <g id="text_2">
      <!-- 2 -->
      <g transform="translate(209.103733 299.378125)scale(0.2 -0.2)">
       <defs>
        <path d="M 47.40625 13.703125 
L 42 0 
L 2.90625 0 
L 2.90625 1.203125 
L 20.703125 20.09375 
Q 27.703125 27.40625 30.703125 33.5 
Q 33.703125 39.59375 33.703125 46.09375 
Q 33.703125 52.796875 30 56.5 
Q 26.296875 60.203125 19.796875 60.203125 
Q 14.40625 60.203125 11.25 57.390625 
Q 8.09375 54.59375 5.09375 47.203125 
L 3 47.703125 
Q 4.703125 57 9.84375 62.296875 
Q 15 67.59375 23.796875 67.59375 
Q 32.09375 67.59375 37.1875 62.59375 
Q 42.296875 57.59375 42.296875 50 
Q 42.296875 38.703125 29.5 25.203125 
L 13 7.59375 
L 36.40625 7.59375 
Q 39.703125 7.59375 41.640625 8.890625 
Q 43.59375 10.203125 46 14.296875 
z
" id="STIXGeneral-Regular-50"/>
       </defs>
       <use xlink:href="#STIXGeneral-Regular-50"/>
      </g>
     </g>
    </g>
    <g id="text_3">
     <!-- carat -->
     <g transform="translate(171.010937 321.378125)scale(0.2 -0.2)">
      <defs>
       <path d="M 39.796875 15.59375 
L 41.203125 14.703125 
Q 36.90625 6.296875 33 3.203125 
Q 27.90625 -1 21.5 -1 
Q 13.203125 -1 7.84375 5.25 
Q 2.5 11.5 2.5 21.203125 
Q 2.5 33.90625 10.90625 40.90625 
Q 17.09375 46 24.40625 46 
Q 30.703125 46 35.25 42.953125 
Q 39.796875 39.90625 39.796875 35.703125 
Q 39.796875 34 38.390625 32.75 
Q 37 31.5 35.09375 31.5 
Q 31.59375 31.5 30.296875 36.09375 
L 29.703125 38.296875 
Q 28.90625 41.09375 27.703125 42.09375 
Q 26.5 43.09375 23.796875 43.09375 
Q 17.703125 43.09375 13.953125 38.296875 
Q 10.203125 33.5 10.203125 25.703125 
Q 10.203125 17.09375 14.5 11.640625 
Q 18.796875 6.203125 25.703125 6.203125 
Q 30 6.203125 33.09375 8.25 
Q 36.203125 10.296875 39.796875 15.59375 
z
" id="STIXGeneral-Regular-99"/>
       <path d="M 44.203125 6.59375 
L 44.203125 3.796875 
Q 40.40625 -1 35.203125 -1 
Q 29.5 -1 28.796875 6.296875 
L 28.703125 6.296875 
Q 22.296875 -1 14.203125 -1 
Q 9.5 -1 6.59375 1.75 
Q 3.703125 4.5 3.703125 9.40625 
Q 3.703125 16.40625 10.703125 21.09375 
Q 15.5 24.296875 28.703125 29.203125 
L 28.703125 34.59375 
Q 28.703125 39.09375 26.546875 41.34375 
Q 24.40625 43.59375 20.90625 43.59375 
Q 17.90625 43.59375 15.90625 42.140625 
Q 13.90625 40.703125 13.90625 38.703125 
Q 13.90625 37.796875 14.203125 36.6875 
Q 14.5 35.59375 14.5 34.5 
Q 14.5 33 13.140625 31.703125 
Q 11.796875 30.40625 9.90625 30.40625 
Q 8.203125 30.40625 6.890625 31.703125 
Q 5.59375 33 5.59375 35 
Q 5.59375 39.796875 10.703125 43 
Q 15.40625 46 22.203125 46 
Q 30.296875 46 34 41.5 
Q 35.796875 39.40625 36.296875 37.25 
Q 36.796875 35.09375 36.796875 30.40625 
L 36.796875 11.296875 
Q 36.796875 4.703125 39.90625 4.703125 
Q 41.90625 4.703125 44.203125 6.59375 
z
M 28.703125 12.703125 
L 28.703125 26.796875 
Q 19.5 23.59375 15.90625 20.203125 
Q 12.5 17.09375 12.5 12.5 
Q 12.5 8.703125 14.390625 6.75 
Q 16.296875 4.796875 19.40625 4.796875 
Q 22.703125 4.796875 25.203125 6.40625 
Q 27.296875 7.90625 28 9.203125 
Q 28.703125 10.5 28.703125 12.703125 
z
" id="STIXGeneral-Regular-97"/>
       <path d="M 16 45.796875 
L 16 36.59375 
Q 19.796875 42 22.34375 44 
Q 24.90625 46 28 46 
Q 30.59375 46 32.046875 44.59375 
Q 33.5 43.203125 33.5 40.703125 
Q 33.5 38.59375 32.453125 37.390625 
Q 31.40625 36.203125 29.59375 36.203125 
Q 27.703125 36.203125 25.59375 38.203125 
Q 24 39.703125 23 39.703125 
Q 20.90625 39.703125 18.453125 36.796875 
Q 16 33.90625 16 31.5 
L 16 9 
Q 16 4.703125 17.703125 3.203125 
Q 19.40625 1.703125 24.5 1.5 
L 24.5 0 
L 0.5 0 
L 0.5 1.5 
Q 5.296875 2.40625 6.4375 3.5 
Q 7.59375 4.59375 7.59375 8.40625 
L 7.59375 33.40625 
Q 7.59375 36.703125 6.84375 38.046875 
Q 6.09375 39.40625 4.203125 39.40625 
Q 2.59375 39.40625 0.703125 39 
L 0.703125 40.59375 
Q 7 42.59375 15.5 46 
z
" id="STIXGeneral-Regular-114"/>
       <path d="M 26.59375 7.703125 
L 27.90625 6.59375 
Q 23.09375 -1 15.796875 -1 
Q 7 -1 7 11.703125 
L 7 41.796875 
L 1.703125 41.796875 
Q 1.296875 42.09375 1.296875 42.5 
Q 1.296875 43.296875 3 44.40625 
Q 6.796875 46.59375 12.703125 55.09375 
Q 12.90625 55.40625 13.65625 56.34375 
Q 14.40625 57.296875 14.703125 57.90625 
Q 15.40625 57.90625 15.40625 56.59375 
L 15.40625 45 
L 25.5 45 
L 25.5 41.796875 
L 15.40625 41.796875 
L 15.40625 13.203125 
Q 15.40625 8.40625 16.59375 6.296875 
Q 17.796875 4.203125 20.59375 4.203125 
Q 23.59375 4.203125 26.59375 7.703125 
z
" id="STIXGeneral-Regular-116"/>
      </defs>
      <use xlink:href="#STIXGeneral-Regular-99"/>
      <use x="44.399994" xlink:href="#STIXGeneral-Regular-97"/>
      <use x="88.799988" xlink:href="#STIXGeneral-Regular-114"/>
      <use x="122.099976" xlink:href="#STIXGeneral-Regular-97"/>
      <use x="166.499969" xlink:href="#STIXGeneral-Regular-116"/>
     </g>
    </g>
   </g>
   <g id="matplotlib.axis_2">
    <g id="ytick_1">
     <g id="line2d_3">
      <defs>
       <path d="M 0 0 
L -3.5 0 
" id="m3c99b7d51e" style="stroke:#000000;stroke-width:0.8;"/>
      </defs>
      <g>
       <use style="stroke:#000000;stroke-width:0.8;" x="61.21875" xlink:href="#m3c99b7d51e" y="278.71875"/>
      </g>
     </g>
     <g id="text_4">
      <!-- 0.0 -->
      <g transform="translate(29.21875 285.548437)scale(0.2 -0.2)">
       <defs>
        <path d="M 18.09375 4.296875 
Q 18.09375 2.09375 16.4375 0.5 
Q 14.796875 -1.09375 12.5 -1.09375 
Q 10.203125 -1.09375 8.59375 0.5 
Q 7 2.09375 7 4.390625 
Q 7 6.703125 8.640625 8.34375 
Q 10.296875 10 12.59375 10 
Q 14.796875 10 16.4375 8.296875 
Q 18.09375 6.59375 18.09375 4.296875 
z
" id="STIXGeneral-Regular-46"/>
       </defs>
       <use xlink:href="#STIXGeneral-Regular-48"/>
       <use x="49.999985" xlink:href="#STIXGeneral-Regular-46"/>
       <use x="74.999969" xlink:href="#STIXGeneral-Regular-48"/>
      </g>
     </g>
    </g>
    <g id="ytick_2">
     <g id="line2d_4">
      <g>
       <use style="stroke:#000000;stroke-width:0.8;" x="61.21875" xlink:href="#m3c99b7d51e" y="229.774911"/>
      </g>
     </g>
     <g id="text_5">
      <!-- 0.1 -->
      <g transform="translate(29.21875 236.604598)scale(0.2 -0.2)">
       <defs>
        <path d="M 39.40625 0 
L 11.796875 0 
L 11.796875 1.5 
Q 17.296875 1.796875 19.296875 3.546875 
Q 21.296875 5.296875 21.296875 9.5 
L 21.296875 54.40625 
Q 21.296875 59.296875 18.296875 59.296875 
Q 16.90625 59.296875 13.796875 58.09375 
L 11.09375 57.09375 
L 11.09375 58.5 
L 29 67.59375 
L 29.90625 67.296875 
L 29.90625 7.59375 
Q 29.90625 4.296875 31.90625 2.890625 
Q 33.90625 1.5 39.40625 1.5 
z
" id="STIXGeneral-Regular-49"/>
       </defs>
       <use xlink:href="#STIXGeneral-Regular-48"/>
       <use x="49.999985" xlink:href="#STIXGeneral-Regular-46"/>
       <use x="74.999969" xlink:href="#STIXGeneral-Regular-49"/>
      </g>
     </g>
    </g>
    <g id="ytick_3">
     <g id="line2d_5">
      <g>
       <use style="stroke:#000000;stroke-width:0.8;" x="61.21875" xlink:href="#m3c99b7d51e" y="180.831071"/>
      </g>
     </g>
     <g id="text_6">
      <!-- 0.2 -->
      <g transform="translate(29.21875 187.660759)scale(0.2 -0.2)">
       <use xlink:href="#STIXGeneral-Regular-48"/>
       <use x="49.999985" xlink:href="#STIXGeneral-Regular-46"/>
       <use x="74.999969" xlink:href="#STIXGeneral-Regular-50"/>
      </g>
     </g>
    </g>
    <g id="ytick_4">
     <g id="line2d_6">
      <g>
       <use style="stroke:#000000;stroke-width:0.8;" x="61.21875" xlink:href="#m3c99b7d51e" y="131.887232"/>
      </g>
     </g>
     <g id="text_7">
      <!-- 0.3 -->
      <g transform="translate(29.21875 138.71692)scale(0.2 -0.2)">
       <defs>
        <path d="M 6.09375 51 
L 4.5 51.40625 
Q 6.796875 58.90625 11.6875 63.25 
Q 16.59375 67.59375 24.09375 67.59375 
Q 31.09375 67.59375 35.390625 63.796875 
Q 39.703125 60 39.703125 53.90625 
Q 39.703125 45.703125 30.40625 40.09375 
Q 35.90625 37.703125 38.703125 34.796875 
Q 43.09375 29.90625 43.09375 21.90625 
Q 43.09375 13.90625 38.5 7.90625 
Q 35.09375 3.296875 28.75 0.9375 
Q 22.40625 -1.40625 15.296875 -1.40625 
Q 4.09375 -1.40625 4.09375 4.296875 
Q 4.09375 5.90625 5.296875 6.90625 
Q 6.5 7.90625 8.203125 7.90625 
Q 10.703125 7.90625 14.296875 5.296875 
Q 18.703125 2.203125 22.90625 2.203125 
Q 28.40625 2.203125 32.15625 6.640625 
Q 35.90625 11.09375 35.90625 17.5 
Q 35.90625 29 25.5 32 
Q 22.40625 33 15.296875 33 
L 15.296875 34.40625 
Q 20.90625 36.296875 23.703125 38 
Q 31.796875 42.59375 31.796875 51.40625 
Q 31.796875 56.40625 28.9375 59 
Q 26.09375 61.59375 21 61.59375 
Q 12 61.59375 6.09375 51 
z
" id="STIXGeneral-Regular-51"/>
       </defs>
       <use xlink:href="#STIXGeneral-Regular-48"/>
       <use x="49.999985" xlink:href="#STIXGeneral-Regular-46"/>
       <use x="74.999969" xlink:href="#STIXGeneral-Regular-51"/>
      </g>
     </g>
    </g>
    <g id="ytick_5">
     <g id="line2d_7">
      <g>
       <use style="stroke:#000000;stroke-width:0.8;" x="61.21875" xlink:href="#m3c99b7d51e" y="82.943393"/>
      </g>
     </g>
     <g id="text_8">
      <!-- 0.4 -->
      <g transform="translate(29.21875 89.77308)scale(0.2 -0.2)">
       <defs>
        <path d="M 47.296875 16.703125 
L 37 16.703125 
L 37 0 
L 29.203125 0 
L 29.203125 16.703125 
L 1.203125 16.703125 
L 1.203125 23.09375 
L 32.59375 67.59375 
L 37 67.59375 
L 37 23.09375 
L 47.296875 23.09375 
z
M 29.203125 23.09375 
L 29.203125 57.40625 
L 5.203125 23.09375 
z
" id="STIXGeneral-Regular-52"/>
       </defs>
       <use xlink:href="#STIXGeneral-Regular-48"/>
       <use x="49.999985" xlink:href="#STIXGeneral-Regular-46"/>
       <use x="74.999969" xlink:href="#STIXGeneral-Regular-52"/>
      </g>
     </g>
    </g>
    <g id="ytick_6">
     <g id="line2d_8">
      <g>
       <use style="stroke:#000000;stroke-width:0.8;" x="61.21875" xlink:href="#m3c99b7d51e" y="33.999553"/>
      </g>
     </g>
     <g id="text_9">
      <!-- 0.5 -->
      <g transform="translate(29.21875 40.829241)scale(0.2 -0.2)">
       <defs>
        <path d="M 43.796875 68.09375 
L 40.203125 59.59375 
Q 39.59375 58.296875 37.5 58.296875 
L 18.09375 58.296875 
L 14.09375 49.796875 
Q 25.09375 47.703125 30 45.25 
Q 34.90625 42.796875 39.09375 37 
Q 42.59375 32.203125 42.59375 24.296875 
Q 42.59375 17.09375 40.25 12.1875 
Q 37.90625 7.296875 32.796875 3.5 
Q 26 -1.40625 15.796875 -1.40625 
Q 10.09375 -1.40625 6.59375 0.296875 
Q 3.09375 2 3.09375 4.796875 
Q 3.09375 8.59375 7.59375 8.59375 
Q 11.203125 8.59375 15 5.5 
Q 18.90625 2.296875 22.09375 2.296875 
Q 27.296875 2.296875 31.4375 7.5 
Q 35.59375 12.703125 35.59375 19.203125 
Q 35.59375 28.796875 28.90625 34.203125 
Q 20.203125 41.203125 7.59375 41.203125 
Q 6.40625 41.203125 6.40625 42 
L 6.5 42.5 
L 17.40625 66.203125 
L 38.09375 66.203125 
Q 39.796875 66.203125 40.75 66.703125 
Q 41.703125 67.203125 42.90625 68.796875 
z
" id="STIXGeneral-Regular-53"/>
       </defs>
       <use xlink:href="#STIXGeneral-Regular-48"/>
       <use x="49.999985" xlink:href="#STIXGeneral-Regular-46"/>
       <use x="74.999969" xlink:href="#STIXGeneral-Regular-53"/>
      </g>
     </g>
    </g>
    <g id="text_10">
     <!-- Density -->
     <g transform="translate(20.859375 174.070312)rotate(-90)scale(0.2 -0.2)">
      <defs>
       <path d="M 1.59375 66.203125 
L 28.59375 66.203125 
Q 48.09375 66.203125 58.59375 57.09375 
Q 68.5 48.59375 68.5 33.40625 
Q 68.5 15.09375 54.90625 6.40625 
Q 45 0 29.703125 0 
L 1.59375 0 
L 1.59375 1.90625 
Q 7.40625 2.296875 8.90625 3.9375 
Q 10.40625 5.59375 10.40625 11.5 
L 10.40625 55 
Q 10.40625 60.796875 8.90625 62.34375 
Q 7.40625 63.90625 1.59375 64.296875 
z
M 20.59375 58.296875 
L 20.59375 8.40625 
Q 20.59375 5.703125 21.546875 4.703125 
Q 22.5 3.703125 25.40625 3.703125 
Q 33.203125 3.703125 38 4.796875 
Q 42.796875 5.90625 47.203125 8.90625 
Q 57.59375 15.90625 57.59375 32.796875 
Q 57.59375 47.296875 48.09375 55.59375 
Q 43.796875 59.40625 38.6875 60.953125 
Q 33.59375 62.5 25.90625 62.5 
Q 23 62.5 21.796875 61.59375 
Q 20.59375 60.703125 20.59375 58.296875 
z
" id="STIXGeneral-Regular-68"/>
       <path d="M 40.796875 16.40625 
L 42.40625 15.703125 
Q 36.40625 -1 21.5 -1 
Q 12.703125 -1 7.59375 5.140625 
Q 2.5 11.296875 2.5 21.703125 
Q 2.5 32.40625 8.203125 39.203125 
Q 13.90625 46 23.203125 46 
Q 32.203125 46 37.09375 39.09375 
Q 40 35.09375 40.5 27.703125 
L 9.703125 27.703125 
Q 10.09375 21.40625 10.9375 18.09375 
Q 11.796875 14.796875 14.296875 11.40625 
Q 18.5 5.90625 25.40625 5.90625 
Q 30.296875 5.90625 33.640625 8.296875 
Q 37 10.703125 40.796875 16.40625 
z
M 9.90625 30.90625 
L 30.296875 30.90625 
Q 29.40625 37.203125 27.34375 39.796875 
Q 25.296875 42.40625 20.5 42.40625 
Q 16.296875 42.40625 13.5 39.453125 
Q 10.703125 36.5 9.90625 30.90625 
z
" id="STIXGeneral-Regular-101"/>
       <path d="M 48.5 0 
L 27.703125 0 
L 27.796875 1.5 
Q 31.5 1.796875 32.75 3.640625 
Q 34 5.5 34 10.5 
L 34 30.40625 
Q 34 40.5 26.703125 40.5 
Q 24.203125 40.5 22 39.296875 
Q 19.796875 38.09375 16.40625 34.796875 
L 16.40625 7.203125 
Q 16.40625 4.203125 17.75 3 
Q 19.09375 1.796875 22.90625 1.5 
L 22.90625 0 
L 1.796875 0 
L 1.796875 1.5 
Q 5.59375 1.796875 6.796875 3.34375 
Q 8 4.90625 8 9.40625 
L 8 33.703125 
Q 8 37.40625 7.296875 38.796875 
Q 6.59375 40.203125 4.5 40.203125 
Q 2.5 40.203125 1.59375 39.796875 
L 1.59375 41.5 
Q 8.59375 43.5 15.296875 46 
L 16.09375 45.703125 
L 16.09375 37.90625 
L 16.203125 37.90625 
Q 23.296875 46 30.59375 46 
Q 36.296875 46 39.34375 42 
Q 42.40625 38 42.40625 30.59375 
L 42.40625 8.5 
Q 42.40625 4.5 43.59375 3.203125 
Q 44.796875 1.90625 48.5 1.5 
z
" id="STIXGeneral-Regular-110"/>
       <path d="M 15.59375 30.09375 
L 26 23.796875 
Q 31 20.796875 32.890625 18.1875 
Q 34.796875 15.59375 34.796875 11.5 
Q 34.796875 6.5 30.640625 2.75 
Q 26.5 -1 20.796875 -1 
Q 16.09375 -1 13.5 -0.09375 
Q 10.796875 0.796875 8.90625 0.796875 
Q 7.203125 0.796875 6.5 -0.40625 
L 5.203125 -0.40625 
L 5.203125 15.296875 
L 6.796875 15.296875 
Q 8.40625 8 11.40625 4.59375 
Q 14.40625 1.203125 19.5 1.203125 
Q 23.203125 1.203125 25.5 3.296875 
Q 27.796875 5.40625 27.796875 8.59375 
Q 27.796875 13.203125 22.5 16.09375 
L 17.09375 19.09375 
Q 5.09375 25.796875 5.09375 33.59375 
Q 5.09375 39.40625 8.84375 42.65625 
Q 12.59375 45.90625 18.90625 45.90625 
Q 23.296875 45.90625 25.59375 44.796875 
Q 27.40625 44 28.40625 44 
Q 29.09375 44 30 45 
L 31.09375 45 
L 31.59375 31.40625 
L 30.09375 31.40625 
Q 28.40625 38.203125 25.84375 40.953125 
Q 23.296875 43.703125 18.796875 43.703125 
Q 15.40625 43.703125 13.34375 42 
Q 11.296875 40.296875 11.296875 36.90625 
Q 11.296875 35.203125 12.4375 33.25 
Q 13.59375 31.296875 15.59375 30.09375 
z
" id="STIXGeneral-Regular-115"/>
       <path d="M 18 63.203125 
Q 18 61 16.5 59.546875 
Q 15 58.09375 12.796875 58.09375 
Q 10.703125 58.09375 9.25 59.546875 
Q 7.796875 61 7.796875 63.203125 
Q 7.796875 65.296875 9.296875 66.796875 
Q 10.796875 68.296875 12.90625 68.296875 
Q 15.09375 68.296875 16.546875 66.796875 
Q 18 65.296875 18 63.203125 
z
M 25.296875 0 
L 1.59375 0 
L 1.59375 1.5 
Q 6.796875 1.796875 8.140625 3.296875 
Q 9.5 4.796875 9.5 10.40625 
L 9.5 33.09375 
Q 9.5 36.59375 8.796875 38 
Q 8.09375 39.40625 6.203125 39.40625 
Q 3.796875 39.40625 2 38.90625 
L 2 40.5 
L 17.5 46 
L 17.90625 45.59375 
L 17.90625 10.5 
Q 17.90625 4.90625 19.15625 3.40625 
Q 20.40625 1.90625 25.296875 1.5 
z
" id="STIXGeneral-Regular-105"/>
       <path d="M 47.5 45 
L 47.5 43.5 
Q 45.703125 43.296875 44.59375 42.1875 
Q 43.5 41.09375 42.5 38.40625 
L 27.5 -2.5 
Q 23.59375 -13.09375 19.640625 -17.4375 
Q 15.703125 -21.796875 10 -21.796875 
Q 6.796875 -21.796875 4.890625 -20.140625 
Q 3 -18.5 3 -16 
Q 3 -14.09375 4.25 -12.75 
Q 5.5 -11.40625 7.296875 -11.40625 
Q 10.203125 -11.40625 12.5 -12.703125 
Q 13.796875 -13.40625 15.09375 -13.40625 
Q 17.203125 -13.40625 20.09375 -9 
Q 21.5 -7 22.796875 -3.296875 
Q 24.09375 0.40625 24.09375 1.796875 
Q 24.09375 3.09375 19.90625 11.90625 
L 6.703125 40.09375 
Q 5.40625 43 1.40625 43.59375 
L 1.40625 45 
L 21.90625 45 
L 21.90625 43.5 
Q 18.703125 43.40625 17.453125 42.796875 
Q 16.203125 42.203125 16.203125 40.796875 
Q 16.203125 39.703125 17.5 36.703125 
L 28.703125 11.703125 
L 38.40625 39.296875 
Q 38.796875 40.203125 38.796875 41.09375 
Q 38.796875 43.5 34.203125 43.5 
L 34.203125 45 
z
" id="STIXGeneral-Regular-121"/>
      </defs>
      <use xlink:href="#STIXGeneral-Regular-68"/>
      <use x="72.199982" xlink:href="#STIXGeneral-Regular-101"/>
      <use x="116.599976" xlink:href="#STIXGeneral-Regular-110"/>
      <use x="166.59996" xlink:href="#STIXGeneral-Regular-115"/>
      <use x="205.499954" xlink:href="#STIXGeneral-Regular-105"/>
      <use x="233.299942" xlink:href="#STIXGeneral-Regular-116"/>
      <use x="261.09993" xlink:href="#STIXGeneral-Regular-121"/>
     </g>
    </g>
   </g>
   <g id="patch_3">
    <path d="M 61.21875 278.71875 
L 61.21875 7.2 
" style="fill:none;stroke:#000000;stroke-linecap:square;stroke-linejoin:miter;stroke-width:0.8;"/>
   </g>
   <g id="patch_4">
    <path d="M 61.21875 278.71875 
L 319.665625 278.71875 
" style="fill:none;stroke:#000000;stroke-linecap:square;stroke-linejoin:miter;stroke-width:0.8;"/>
   </g>
  </g>
  <g id="legend_1">
   <g id="text_11">
    <!-- cut -->
    <g transform="translate(401.996875 100.257812)scale(0.2 -0.2)">
     <defs>
      <path d="M 48 5 
L 48 3.59375 
Q 40.203125 1.5 34.296875 -0.90625 
L 33.796875 -0.59375 
L 33.796875 7.59375 
L 33.59375 7.59375 
Q 27.296875 -1 19.296875 -1 
Q 13.59375 -1 10.34375 2.5 
Q 7.09375 6 7.09375 11.796875 
L 7.09375 36.90625 
Q 7.09375 40.59375 5.796875 42 
Q 4.5 43.40625 0.90625 43.59375 
L 0.90625 45 
L 15.5 45 
L 15.5 12.703125 
Q 15.5 9.296875 17.546875 7.046875 
Q 19.59375 4.796875 22.59375 4.796875 
Q 27.5 4.796875 31 7.90625 
Q 32.296875 9.09375 32.796875 10.140625 
Q 33.296875 11.203125 33.296875 13.703125 
L 33.296875 36.796875 
Q 33.296875 40.703125 31.890625 41.84375 
Q 30.5 43 25.90625 43.296875 
L 25.90625 45 
L 41.703125 45 
L 41.703125 10.703125 
Q 41.703125 7.203125 42.84375 6.09375 
Q 44 5 47.40625 5 
z
" id="STIXGeneral-Regular-117"/>
     </defs>
     <use xlink:href="#STIXGeneral-Regular-99"/>
     <use x="44.399994" xlink:href="#STIXGeneral-Regular-117"/>
     <use x="94.399979" xlink:href="#STIXGeneral-Regular-116"/>
    </g>
   </g>
   <g id="patch_5">
    <path d="M 341.50625 128.598437 
L 381.50625 128.598437 
L 381.50625 114.598437 
L 341.50625 114.598437 
z
" style="fill:#1f77b4;fill-opacity:0.25;stroke:#1f77b4;stroke-linejoin:miter;"/>
   </g>
   <g id="text_12">
    <!-- Ideal -->
    <g transform="translate(397.50625 128.598437)scale(0.2 -0.2)">
     <defs>
      <path d="M 31.5 0 
L 1.796875 0 
L 1.796875 1.90625 
Q 8.09375 2.09375 9.796875 3.75 
Q 11.5 5.40625 11.5 11.203125 
L 11.5 55.09375 
Q 11.5 60.90625 9.890625 62.40625 
Q 8.296875 63.90625 1.796875 64.296875 
L 1.796875 66.203125 
L 31.5 66.203125 
L 31.5 64.296875 
Q 25.203125 64 23.453125 62.390625 
Q 21.703125 60.796875 21.703125 55.09375 
L 21.703125 11.203125 
Q 21.703125 5.59375 23.5 3.84375 
Q 25.296875 2.09375 31.5 1.90625 
z
" id="STIXGeneral-Regular-73"/>
      <path d="M 49.09375 4.203125 
L 34.40625 -1 
L 34 -0.703125 
L 34 5.703125 
Q 29.203125 -1 21.203125 -1 
Q 12.90625 -1 7.796875 4.953125 
Q 2.703125 10.90625 2.703125 20.5 
Q 2.703125 31.09375 8.796875 38.546875 
Q 14.90625 46 23.5 46 
Q 28.90625 46 34 41.703125 
L 34 57.296875 
Q 34 60.40625 33.09375 61.40625 
Q 32.203125 62.40625 29.40625 62.40625 
Q 28 62.40625 27.203125 62.296875 
L 27.203125 63.90625 
Q 36.296875 66.296875 41.90625 68.296875 
L 42.40625 68.09375 
L 42.40625 11.40625 
Q 42.40625 7.90625 43.25 6.796875 
Q 44.09375 5.703125 46.796875 5.703125 
Q 47.40625 5.703125 49.09375 5.796875 
z
M 34 10.203125 
L 34 33.203125 
Q 34 37.203125 30.953125 40.203125 
Q 27.90625 43.203125 23.796875 43.203125 
Q 18.09375 43.203125 14.6875 38.09375 
Q 11.296875 33 11.296875 24.5 
Q 11.296875 15.296875 15.046875 9.75 
Q 18.796875 4.203125 25.09375 4.203125 
Q 29.796875 4.203125 32.5 7.40625 
Q 34 9.09375 34 10.203125 
z
" id="STIXGeneral-Regular-100"/>
      <path d="M 25.703125 0 
L 2.09375 0 
L 2.09375 1.5 
Q 6.796875 1.90625 8.296875 3.453125 
Q 9.796875 5 9.796875 9.203125 
L 9.796875 56.09375 
Q 9.796875 59.703125 8.890625 61.09375 
Q 8 62.5 5.59375 62.5 
Q 3.5 62.5 1.90625 62.296875 
L 1.90625 63.90625 
Q 11.40625 66.203125 17.703125 68.296875 
L 18.203125 67.90625 
L 18.203125 8.703125 
Q 18.203125 4.5 19.59375 3.140625 
Q 21 1.796875 25.703125 1.5 
z
" id="STIXGeneral-Regular-108"/>
     </defs>
     <use xlink:href="#STIXGeneral-Regular-73"/>
     <use x="33.299988" xlink:href="#STIXGeneral-Regular-100"/>
     <use x="83.299973" xlink:href="#STIXGeneral-Regular-101"/>
     <use x="127.699966" xlink:href="#STIXGeneral-Regular-97"/>
     <use x="172.09996" xlink:href="#STIXGeneral-Regular-108"/>
    </g>
   </g>
   <g id="patch_6">
    <path d="M 341.50625 156.939062 
L 381.50625 156.939062 
L 381.50625 142.939062 
L 341.50625 142.939062 
z
" style="fill:#ff7f0e;fill-opacity:0.25;stroke:#ff7f0e;stroke-linejoin:miter;"/>
   </g>
   <g id="text_13">
    <!-- Premium -->
    <g transform="translate(397.50625 156.939062)scale(0.2 -0.2)">
     <defs>
      <path d="M 1.59375 66.203125 
L 27.5 66.203125 
Q 41.703125 66.203125 49.203125 59.90625 
Q 54.203125 55.703125 54.203125 48 
Q 54.203125 40 48.5 34.90625 
Q 44.296875 31.09375 39.890625 29.9375 
Q 35.5 28.796875 27.09375 28.796875 
Q 24.203125 28.796875 20.203125 29.09375 
L 20.203125 11.203125 
Q 20.203125 5.5 21.84375 3.84375 
Q 23.5 2.203125 29.59375 1.90625 
L 29.59375 0 
L 1.59375 0 
L 1.59375 1.90625 
Q 7.40625 2.296875 8.703125 4 
Q 10 5.703125 10 12.203125 
L 10 55.09375 
Q 10 60.703125 8.546875 62.296875 
Q 7.09375 63.90625 1.59375 64.296875 
z
M 20.203125 58.90625 
L 20.203125 33.09375 
Q 23.59375 32.796875 26.296875 32.796875 
Q 34.40625 32.796875 38.84375 36.75 
Q 43.296875 40.703125 43.296875 47.5 
Q 43.296875 55.59375 38.6875 59.046875 
Q 34.09375 62.5 23.703125 62.5 
Q 21.59375 62.5 20.890625 61.75 
Q 20.203125 61 20.203125 58.90625 
z
" id="STIXGeneral-Regular-80"/>
      <path d="M 77.5 0 
L 55.703125 0 
L 55.703125 1.5 
Q 59.90625 1.90625 61.046875 3.25 
Q 62.203125 4.59375 62.203125 9 
L 62.203125 29.59375 
Q 62.203125 35.59375 60.453125 38.1875 
Q 58.703125 40.796875 54.5 40.796875 
Q 51 40.796875 48.546875 39.390625 
Q 46.09375 38 43.796875 34.703125 
L 43.796875 9.5 
Q 43.796875 4.703125 45.25 3.140625 
Q 46.703125 1.59375 51 1.5 
L 51 0 
L 28.59375 0 
L 28.59375 1.5 
Q 33 1.796875 34.203125 2.9375 
Q 35.40625 4.09375 35.40625 8.59375 
L 35.40625 29.703125 
Q 35.40625 40.796875 28.90625 40.796875 
Q 26.09375 40.796875 22.9375 39.546875 
Q 19.796875 38.296875 18.296875 36.5 
Q 17 35 17 34.796875 
L 17 7 
Q 17 3.796875 18.390625 2.75 
Q 19.796875 1.703125 23.796875 1.5 
L 23.796875 0 
L 1.59375 0 
L 1.59375 1.5 
Q 5.796875 1.59375 7.1875 3.046875 
Q 8.59375 4.5 8.59375 8.796875 
L 8.59375 33.59375 
Q 8.59375 37.296875 7.796875 38.75 
Q 7 40.203125 5.09375 40.203125 
Q 3.59375 40.203125 1.90625 39.796875 
L 1.90625 41.5 
Q 8.703125 43.40625 15.796875 46 
L 16.59375 45.703125 
L 16.59375 38.296875 
L 16.796875 38.296875 
Q 21.296875 43 24.75 44.5 
Q 28.203125 46 32.09375 46 
Q 40 46 42.703125 37.59375 
Q 50.5 46 59 46 
Q 70.59375 46 70.59375 28 
L 70.59375 7.703125 
Q 70.59375 4.40625 71.59375 3.15625 
Q 72.59375 1.90625 74.90625 1.703125 
L 77.5 1.5 
z
" id="STIXGeneral-Regular-109"/>
     </defs>
     <use xlink:href="#STIXGeneral-Regular-80"/>
     <use x="55.699997" xlink:href="#STIXGeneral-Regular-114"/>
     <use x="88.999985" xlink:href="#STIXGeneral-Regular-101"/>
     <use x="133.399979" xlink:href="#STIXGeneral-Regular-109"/>
     <use x="211.199966" xlink:href="#STIXGeneral-Regular-105"/>
     <use x="238.999954" xlink:href="#STIXGeneral-Regular-117"/>
     <use x="288.999939" xlink:href="#STIXGeneral-Regular-109"/>
    </g>
   </g>
   <g id="patch_7">
    <path d="M 341.50625 185.279687 
L 381.50625 185.279687 
L 381.50625 171.279687 
L 341.50625 171.279687 
z
" style="fill:#2ca02c;fill-opacity:0.25;stroke:#2ca02c;stroke-linejoin:miter;"/>
   </g>
   <g id="text_14">
    <!-- Very Good -->
    <g transform="translate(397.50625 185.279687)scale(0.2 -0.2)">
     <defs>
      <path d="M 69.703125 66.203125 
L 69.703125 64.296875 
Q 66.59375 64.203125 64.59375 62.34375 
Q 62.59375 60.5 60.5 55.203125 
L 38.296875 -1.09375 
L 36.796875 -1.09375 
L 12.40625 53.296875 
Q 9.203125 60.40625 7.296875 62.296875 
Q 5.40625 64.203125 1.59375 64.296875 
L 1.59375 66.203125 
L 28.09375 66.203125 
L 28.09375 64.296875 
L 25.296875 64.09375 
Q 20.796875 63.796875 20.796875 61 
Q 20.796875 59 24.703125 50.296875 
L 39.90625 16.09375 
L 54.59375 53 
Q 56.5 57.796875 56.5 60.203125 
Q 56.5 60.90625 56.34375 61.453125 
Q 56.203125 62 56 62.390625 
Q 55.796875 62.796875 55.25 63.09375 
Q 54.703125 63.40625 54.390625 63.546875 
Q 54.09375 63.703125 53.296875 63.84375 
Q 52.5 64 52.140625 64.046875 
Q 51.796875 64.09375 50.75 64.1875 
Q 49.703125 64.296875 49.296875 64.296875 
L 49.296875 66.203125 
z
" id="STIXGeneral-Regular-86"/>
      <path id="STIXGeneral-Regular-32"/>
      <path d="M 70.90625 35.40625 
L 70.90625 33.59375 
Q 66.5 33.203125 65.203125 31.796875 
Q 63.90625 30.40625 63.90625 25.59375 
L 63.90625 5.59375 
Q 55.296875 -1.40625 38.5 -1.40625 
Q 30.703125 -1.40625 23.546875 1.390625 
Q 16.40625 4.203125 11.5 9.296875 
Q 3.203125 18 3.203125 32.703125 
Q 3.203125 49.296875 13.90625 59 
Q 23.296875 67.59375 37.796875 67.59375 
Q 44.203125 67.59375 51.09375 65.296875 
Q 53.796875 64.296875 55.5 64.296875 
Q 57.09375 64.296875 58.296875 65.25 
Q 59.5 66.203125 60 67.59375 
L 62.203125 67.59375 
L 63 46.5 
L 60.703125 46.5 
Q 57.5 54.296875 53.59375 58.09375 
Q 47.796875 63.59375 39 63.59375 
Q 29 63.59375 22.296875 56.703125 
Q 14.59375 49 14.59375 32.40625 
Q 14.59375 18.59375 21.796875 10.59375 
Q 29 2.59375 40.90625 2.59375 
Q 46.59375 2.59375 50.390625 4.390625 
Q 54.203125 6.203125 54.203125 8.703125 
L 54.203125 24.40625 
Q 54.203125 30.203125 52.75 31.640625 
Q 51.296875 33.09375 45.296875 33.59375 
L 45.296875 35.40625 
z
" id="STIXGeneral-Regular-71"/>
      <path d="M 47 23.09375 
Q 47 12.59375 40.75 5.796875 
Q 34.5 -1 24.5 -1 
Q 15.296875 -1 9.09375 5.75 
Q 2.90625 12.5 2.90625 22.796875 
Q 2.90625 33.203125 9.09375 39.59375 
Q 15.296875 46 25.40625 46 
Q 34.703125 46 40.84375 39.640625 
Q 47 33.296875 47 23.09375 
z
M 38 20.40625 
Q 38 31.796875 33 38.203125 
Q 29 43.203125 23.5 43.203125 
Q 18.296875 43.203125 15.09375 38.953125 
Q 11.90625 34.703125 11.90625 27.296875 
Q 11.90625 14.5 17.203125 6.796875 
Q 20.59375 1.796875 26.203125 1.796875 
Q 31.703125 1.796875 34.84375 6.75 
Q 38 11.703125 38 20.40625 
z
" id="STIXGeneral-Regular-111"/>
     </defs>
     <use xlink:href="#STIXGeneral-Regular-86"/>
     <use x="72.199982" xlink:href="#STIXGeneral-Regular-101"/>
     <use x="116.599976" xlink:href="#STIXGeneral-Regular-114"/>
     <use x="149.899963" xlink:href="#STIXGeneral-Regular-121"/>
     <use x="199.899948" xlink:href="#STIXGeneral-Regular-32"/>
     <use x="224.899933" xlink:href="#STIXGeneral-Regular-71"/>
     <use x="297.099915" xlink:href="#STIXGeneral-Regular-111"/>
     <use x="347.099899" xlink:href="#STIXGeneral-Regular-111"/>
     <use x="397.099884" xlink:href="#STIXGeneral-Regular-100"/>
    </g>
   </g>
   <g id="patch_8">
    <path d="M 341.50625 213.639062 
L 381.50625 213.639062 
L 381.50625 199.639062 
L 341.50625 199.639062 
z
" style="fill:#d62728;fill-opacity:0.25;stroke:#d62728;stroke-linejoin:miter;"/>
   </g>
   <g id="text_15">
    <!-- Good -->
    <g transform="translate(397.50625 213.639062)scale(0.2 -0.2)">
     <use xlink:href="#STIXGeneral-Regular-71"/>
     <use x="72.199982" xlink:href="#STIXGeneral-Regular-111"/>
     <use x="122.199966" xlink:href="#STIXGeneral-Regular-111"/>
     <use x="172.199951" xlink:href="#STIXGeneral-Regular-100"/>
    </g>
   </g>
   <g id="patch_9">
    <path d="M 341.50625 241.979687 
L 381.50625 241.979687 
L 381.50625 227.979687 
L 341.50625 227.979687 
z
" style="fill:#9467bd;fill-opacity:0.25;stroke:#9467bd;stroke-linejoin:miter;"/>
   </g>
   <g id="text_16">
    <!-- Fair -->
    <g transform="translate(397.50625 241.979687)scale(0.2 -0.2)">
     <defs>
      <path d="M 54.59375 51.90625 
L 52.09375 51.90625 
Q 51 58.703125 48.34375 60.546875 
Q 45.703125 62.40625 36.703125 62.40625 
L 23.5 62.40625 
Q 21.40625 62.40625 20.75 61.65625 
Q 20.09375 60.90625 20.09375 58.5 
L 20.09375 36.796875 
L 34.296875 36.796875 
Q 40.59375 36.796875 42.75 38.59375 
Q 44.90625 40.40625 45.59375 46.296875 
L 47.90625 46.296875 
L 47.90625 23 
L 45.59375 23 
Q 45 29.09375 42.890625 30.890625 
Q 40.796875 32.703125 34.296875 32.703125 
L 20.09375 32.703125 
L 20.09375 11.203125 
Q 20.09375 5.5 21.75 3.84375 
Q 23.40625 2.203125 29.203125 1.90625 
L 29.203125 0 
L 1.09375 0 
L 1.09375 1.90625 
Q 6.796875 2.296875 8.34375 4.046875 
Q 9.90625 5.796875 9.90625 12.296875 
L 9.90625 55.09375 
Q 9.90625 60.59375 8.40625 62.25 
Q 6.90625 63.90625 1.203125 64.296875 
L 1.203125 66.203125 
L 54.09375 66.203125 
z
" id="STIXGeneral-Regular-70"/>
     </defs>
     <use xlink:href="#STIXGeneral-Regular-70"/>
     <use x="55.599991" xlink:href="#STIXGeneral-Regular-97"/>
     <use x="99.999985" xlink:href="#STIXGeneral-Regular-105"/>
     <use x="127.799973" xlink:href="#STIXGeneral-Regular-114"/>
    </g>
   </g>
  </g>
 </g>
 <defs>
  <clipPath id="pc0004bbf85">
   <rect height="271.51875" width="258.446875" x="61.21875" y="7.2"/>
  </clipPath>
 </defs>
</svg>
