<?xml version="1.0" encoding="utf-8" standalone="no"?>
<!DOCTYPE svg PUBLIC "-//W3C//DTD SVG 1.1//EN"
  "http://www.w3.org/Graphics/SVG/1.1/DTD/svg11.dtd">
<!-- Created with matplotlib (https://matplotlib.org/) -->
<svg height="360.39875pt" version="1.1" viewBox="0 0 636.41875 360.39875" width="636.41875pt" xmlns="http://www.w3.org/2000/svg" xmlns:xlink="http://www.w3.org/1999/xlink">
 <metadata>
  <rdf:RDF xmlns:cc="http://creativecommons.org/ns#" xmlns:dc="http://purl.org/dc/elements/1.1/" xmlns:rdf="http://www.w3.org/1999/02/22-rdf-syntax-ns#">
   <cc:Work>
    <dc:type rdf:resource="http://purl.org/dc/dcmitype/StillImage"/>
    <dc:date>2021-01-06T19:54:15.866484</dc:date>
    <dc:format>image/svg+xml</dc:format>
    <dc:creator>
     <cc:Agent>
      <dc:title>Matplotlib v3.3.3, https://matplotlib.org/</dc:title>
     </cc:Agent>
    </dc:creator>
   </cc:Work>
  </rdf:RDF>
 </metadata>
 <defs>
  <style type="text/css">*{stroke-linecap:butt;stroke-linejoin:round;}</style>
 </defs>
 <g id="figure_1">
  <g id="patch_1">
   <path d="M 0 360.39875 
L 636.41875 360.39875 
L 636.41875 0 
L 0 0 
z
" style="fill:none;"/>
  </g>
  <g id="axes_1">
   <g id="patch_2">
    <path d="M 71.21875 306.18 
L 629.21875 306.18 
L 629.21875 7.2 
L 71.21875 7.2 
z
" style="fill:#ffffff;"/>
   </g>
   <g id="patch_3">
    <path clip-path="url(#pac036d7a8a)" d="M 96.582386 306.18 
L 113.491477 306.18 
L 113.491477 298.04449 
L 96.582386 298.04449 
z
" style="fill:#1f77b4;fill-opacity:0.75;stroke:#000000;stroke-linejoin:miter;"/>
   </g>
   <g id="patch_4">
    <path clip-path="url(#pac036d7a8a)" d="M 113.491477 306.18 
L 130.400568 306.18 
L 130.400568 298.04449 
L 113.491477 298.04449 
z
" style="fill:#1f77b4;fill-opacity:0.75;stroke:#000000;stroke-linejoin:miter;"/>
   </g>
   <g id="patch_5">
    <path clip-path="url(#pac036d7a8a)" d="M 130.400568 306.18 
L 147.309659 306.18 
L 147.309659 298.04449 
L 130.400568 298.04449 
z
" style="fill:#1f77b4;fill-opacity:0.75;stroke:#000000;stroke-linejoin:miter;"/>
   </g>
   <g id="patch_6">
    <path clip-path="url(#pac036d7a8a)" d="M 147.309659 306.18 
L 164.21875 306.18 
L 164.21875 265.502449 
L 147.309659 265.502449 
z
" style="fill:#1f77b4;fill-opacity:0.75;stroke:#000000;stroke-linejoin:miter;"/>
   </g>
   <g id="patch_7">
    <path clip-path="url(#pac036d7a8a)" d="M 164.21875 306.18 
L 181.127841 306.18 
L 181.127841 208.553878 
L 164.21875 208.553878 
z
" style="fill:#1f77b4;fill-opacity:0.75;stroke:#000000;stroke-linejoin:miter;"/>
   </g>
   <g id="patch_8">
    <path clip-path="url(#pac036d7a8a)" d="M 181.127841 306.18 
L 198.036932 306.18 
L 198.036932 265.502449 
L 181.127841 265.502449 
z
" style="fill:#1f77b4;fill-opacity:0.75;stroke:#000000;stroke-linejoin:miter;"/>
   </g>
   <g id="patch_9">
    <path clip-path="url(#pac036d7a8a)" d="M 198.036932 306.18 
L 214.946023 306.18 
L 214.946023 176.011837 
L 198.036932 176.011837 
z
" style="fill:#1f77b4;fill-opacity:0.75;stroke:#000000;stroke-linejoin:miter;"/>
   </g>
   <g id="patch_10">
    <path clip-path="url(#pac036d7a8a)" d="M 214.946023 306.18 
L 231.855114 306.18 
L 231.855114 119.063265 
L 214.946023 119.063265 
z
" style="fill:#1f77b4;fill-opacity:0.75;stroke:#000000;stroke-linejoin:miter;"/>
   </g>
   <g id="patch_11">
    <path clip-path="url(#pac036d7a8a)" d="M 231.855114 306.18 
L 248.764205 306.18 
L 248.764205 200.418367 
L 231.855114 200.418367 
z
" style="fill:#1f77b4;fill-opacity:0.75;stroke:#000000;stroke-linejoin:miter;"/>
   </g>
   <g id="patch_12">
    <path clip-path="url(#pac036d7a8a)" d="M 248.764205 306.18 
L 265.673295 306.18 
L 265.673295 21.437143 
L 248.764205 21.437143 
z
" style="fill:#1f77b4;fill-opacity:0.75;stroke:#000000;stroke-linejoin:miter;"/>
   </g>
   <g id="patch_13">
    <path clip-path="url(#pac036d7a8a)" d="M 265.673295 306.18 
L 282.582386 306.18 
L 282.582386 127.198776 
L 265.673295 127.198776 
z
" style="fill:#1f77b4;fill-opacity:0.75;stroke:#000000;stroke-linejoin:miter;"/>
   </g>
   <g id="patch_14">
    <path clip-path="url(#pac036d7a8a)" d="M 282.582386 306.18 
L 299.491477 306.18 
L 299.491477 127.198776 
L 282.582386 127.198776 
z
" style="fill:#1f77b4;fill-opacity:0.75;stroke:#000000;stroke-linejoin:miter;"/>
   </g>
   <g id="patch_15">
    <path clip-path="url(#pac036d7a8a)" d="M 299.491477 306.18 
L 316.400568 306.18 
L 316.400568 143.469796 
L 299.491477 143.469796 
z
" style="fill:#1f77b4;fill-opacity:0.75;stroke:#000000;stroke-linejoin:miter;"/>
   </g>
   <g id="patch_16">
    <path clip-path="url(#pac036d7a8a)" d="M 316.400568 306.18 
L 333.309659 306.18 
L 333.309659 192.282857 
L 316.400568 192.282857 
z
" style="fill:#1f77b4;fill-opacity:0.75;stroke:#000000;stroke-linejoin:miter;"/>
   </g>
   <g id="patch_17">
    <path clip-path="url(#pac036d7a8a)" d="M 333.309659 306.18 
L 350.21875 306.18 
L 350.21875 224.824898 
L 333.309659 224.824898 
z
" style="fill:#1f77b4;fill-opacity:0.75;stroke:#000000;stroke-linejoin:miter;"/>
   </g>
   <g id="patch_18">
    <path clip-path="url(#pac036d7a8a)" d="M 350.21875 306.18 
L 367.127841 306.18 
L 367.127841 232.960408 
L 350.21875 232.960408 
z
" style="fill:#1f77b4;fill-opacity:0.75;stroke:#000000;stroke-linejoin:miter;"/>
   </g>
   <g id="patch_19">
    <path clip-path="url(#pac036d7a8a)" d="M 367.127841 306.18 
L 384.036932 306.18 
L 384.036932 281.773469 
L 367.127841 281.773469 
z
" style="fill:#1f77b4;fill-opacity:0.75;stroke:#000000;stroke-linejoin:miter;"/>
   </g>
   <g id="patch_20">
    <path clip-path="url(#pac036d7a8a)" d="M 384.036932 306.18 
L 400.946023 306.18 
L 400.946023 281.773469 
L 384.036932 281.773469 
z
" style="fill:#1f77b4;fill-opacity:0.75;stroke:#000000;stroke-linejoin:miter;"/>
   </g>
   <g id="patch_21">
    <path clip-path="url(#pac036d7a8a)" d="M 400.946023 306.18 
L 417.855114 306.18 
L 417.855114 200.418367 
L 400.946023 200.418367 
z
" style="fill:#1f77b4;fill-opacity:0.75;stroke:#000000;stroke-linejoin:miter;"/>
   </g>
   <g id="patch_22">
    <path clip-path="url(#pac036d7a8a)" d="M 417.855114 306.18 
L 434.764205 306.18 
L 434.764205 176.011837 
L 417.855114 176.011837 
z
" style="fill:#1f77b4;fill-opacity:0.75;stroke:#000000;stroke-linejoin:miter;"/>
   </g>
   <g id="patch_23">
    <path clip-path="url(#pac036d7a8a)" d="M 434.764205 306.18 
L 451.673295 306.18 
L 451.673295 200.418367 
L 434.764205 200.418367 
z
" style="fill:#1f77b4;fill-opacity:0.75;stroke:#000000;stroke-linejoin:miter;"/>
   </g>
   <g id="patch_24">
    <path clip-path="url(#pac036d7a8a)" d="M 451.673295 306.18 
L 468.582386 306.18 
L 468.582386 159.740816 
L 451.673295 159.740816 
z
" style="fill:#1f77b4;fill-opacity:0.75;stroke:#000000;stroke-linejoin:miter;"/>
   </g>
   <g id="patch_25">
    <path clip-path="url(#pac036d7a8a)" d="M 468.582386 306.18 
L 485.491477 306.18 
L 485.491477 192.282857 
L 468.582386 192.282857 
z
" style="fill:#1f77b4;fill-opacity:0.75;stroke:#000000;stroke-linejoin:miter;"/>
   </g>
   <g id="patch_26">
    <path clip-path="url(#pac036d7a8a)" d="M 485.491477 306.18 
L 502.400568 306.18 
L 502.400568 224.824898 
L 485.491477 224.824898 
z
" style="fill:#1f77b4;fill-opacity:0.75;stroke:#000000;stroke-linejoin:miter;"/>
   </g>
   <g id="patch_27">
    <path clip-path="url(#pac036d7a8a)" d="M 502.400568 306.18 
L 519.309659 306.18 
L 519.309659 200.418367 
L 502.400568 200.418367 
z
" style="fill:#1f77b4;fill-opacity:0.75;stroke:#000000;stroke-linejoin:miter;"/>
   </g>
   <g id="patch_28">
    <path clip-path="url(#pac036d7a8a)" d="M 519.309659 306.18 
L 536.21875 306.18 
L 536.21875 241.095918 
L 519.309659 241.095918 
z
" style="fill:#1f77b4;fill-opacity:0.75;stroke:#000000;stroke-linejoin:miter;"/>
   </g>
   <g id="patch_29">
    <path clip-path="url(#pac036d7a8a)" d="M 536.21875 306.18 
L 553.127841 306.18 
L 553.127841 249.231429 
L 536.21875 249.231429 
z
" style="fill:#1f77b4;fill-opacity:0.75;stroke:#000000;stroke-linejoin:miter;"/>
   </g>
   <g id="patch_30">
    <path clip-path="url(#pac036d7a8a)" d="M 553.127841 306.18 
L 570.036932 306.18 
L 570.036932 298.04449 
L 553.127841 298.04449 
z
" style="fill:#1f77b4;fill-opacity:0.75;stroke:#000000;stroke-linejoin:miter;"/>
   </g>
   <g id="patch_31">
    <path clip-path="url(#pac036d7a8a)" d="M 570.036932 306.18 
L 586.946023 306.18 
L 586.946023 257.366939 
L 570.036932 257.366939 
z
" style="fill:#1f77b4;fill-opacity:0.75;stroke:#000000;stroke-linejoin:miter;"/>
   </g>
   <g id="patch_32">
    <path clip-path="url(#pac036d7a8a)" d="M 586.946023 306.18 
L 603.855114 306.18 
L 603.855114 241.095918 
L 586.946023 241.095918 
z
" style="fill:#1f77b4;fill-opacity:0.75;stroke:#000000;stroke-linejoin:miter;"/>
   </g>
   <g id="matplotlib.axis_1">
    <g id="xtick_1">
     <g id="line2d_1">
      <defs>
       <path d="M 0 0 
L 0 3.5 
" id="mcc3bb2a249" style="stroke:#000000;stroke-width:0.8;"/>
      </defs>
      <g>
       <use style="stroke:#000000;stroke-width:0.8;" x="79.386701" xlink:href="#mcc3bb2a249" y="306.18"/>
      </g>
     </g>
     <g id="text_1">
      <!-- 170 -->
      <g transform="translate(64.386701 326.839375)scale(0.2 -0.2)">
       <defs>
        <path d="M 39.40625 0 
L 11.796875 0 
L 11.796875 1.5 
Q 17.296875 1.796875 19.296875 3.546875 
Q 21.296875 5.296875 21.296875 9.5 
L 21.296875 54.40625 
Q 21.296875 59.296875 18.296875 59.296875 
Q 16.90625 59.296875 13.796875 58.09375 
L 11.09375 57.09375 
L 11.09375 58.5 
L 29 67.59375 
L 29.90625 67.296875 
L 29.90625 7.59375 
Q 29.90625 4.296875 31.90625 2.890625 
Q 33.90625 1.5 39.40625 1.5 
z
" id="STIXGeneral-Regular-49"/>
        <path d="M 44.90625 64.59375 
L 23.703125 -0.796875 
L 17.203125 -0.796875 
L 37 58.796875 
L 15.5 58.796875 
Q 11.203125 58.796875 9.09375 57.296875 
Q 7 55.796875 3.796875 50.59375 
L 2 51.5 
L 8 66.203125 
L 44.90625 66.203125 
z
" id="STIXGeneral-Regular-55"/>
        <path d="M 47.59375 33 
Q 47.59375 26.296875 46.296875 20.34375 
Q 45 14.40625 42.453125 9.40625 
Q 39.90625 4.40625 35.40625 1.5 
Q 30.90625 -1.40625 25 -1.40625 
Q 18.90625 -1.40625 14.296875 1.6875 
Q 9.703125 4.796875 7.203125 10 
Q 4.703125 15.203125 3.546875 21.09375 
Q 2.40625 27 2.40625 33.59375 
Q 2.40625 42.90625 4.703125 50.34375 
Q 7 57.796875 12.34375 62.6875 
Q 17.703125 67.59375 25.40625 67.59375 
Q 35.203125 67.59375 41.390625 58 
Q 47.59375 48.40625 47.59375 33 
z
M 38 32.5 
Q 38 48.296875 34.640625 56.640625 
Q 31.296875 65 24.796875 65 
Q 18.59375 65 15.296875 56.59375 
Q 12 48.203125 12 32.90625 
Q 12 17.5 15.296875 9.34375 
Q 18.59375 1.203125 25 1.203125 
Q 31.296875 1.203125 34.640625 9.34375 
Q 38 17.5 38 32.5 
z
" id="STIXGeneral-Regular-48"/>
       </defs>
       <use xlink:href="#STIXGeneral-Regular-49"/>
       <use x="49.999985" xlink:href="#STIXGeneral-Regular-55"/>
       <use x="99.999969" xlink:href="#STIXGeneral-Regular-48"/>
      </g>
     </g>
    </g>
    <g id="xtick_2">
     <g id="line2d_2">
      <g>
       <use style="stroke:#000000;stroke-width:0.8;" x="165.365129" xlink:href="#mcc3bb2a249" y="306.18"/>
      </g>
     </g>
     <g id="text_2">
      <!-- 180 -->
      <g transform="translate(150.365129 326.839375)scale(0.2 -0.2)">
       <defs>
        <path d="M 44.5 15.5 
Q 44.5 7.796875 39.140625 3.1875 
Q 33.796875 -1.40625 24.796875 -1.40625 
Q 16.40625 -1.40625 11 3.1875 
Q 5.59375 7.796875 5.59375 14.90625 
Q 5.59375 20.203125 8.1875 23.953125 
Q 10.796875 27.703125 18.59375 33.203125 
Q 11.09375 39.40625 8.640625 43.203125 
Q 6.203125 47 6.203125 52 
Q 6.203125 59.09375 11.640625 63.34375 
Q 17.09375 67.59375 25.59375 67.59375 
Q 32.90625 67.59375 37.65625 63.4375 
Q 42.40625 59.296875 42.40625 53.296875 
Q 42.40625 47.796875 39.546875 44.5 
Q 36.703125 41.203125 29 37.09375 
Q 38 31.09375 41.25 26.390625 
Q 44.5 21.703125 44.5 15.5 
z
M 35.5 53.296875 
Q 35.5 58.5 32.59375 61.640625 
Q 29.703125 64.796875 24.59375 64.796875 
Q 19.5 64.796875 16.546875 62.140625 
Q 13.59375 59.5 13.59375 54.890625 
Q 13.59375 50.296875 16.546875 46.546875 
Q 19.5 42.796875 26.09375 38.90625 
Q 31.203125 41.90625 33.34375 45.25 
Q 35.5 48.59375 35.5 53.296875 
z
M 27.09375 27.203125 
L 21.203125 31.203125 
Q 16.796875 27.59375 15 24.140625 
Q 13.203125 20.703125 13.203125 15.796875 
Q 13.203125 9 16.640625 5.203125 
Q 20.09375 1.40625 25.90625 1.40625 
Q 30.796875 1.40625 33.84375 4.453125 
Q 36.90625 7.5 36.90625 12.40625 
Q 36.90625 16.90625 34.59375 20.296875 
Q 32.296875 23.703125 27.09375 27.203125 
z
" id="STIXGeneral-Regular-56"/>
       </defs>
       <use xlink:href="#STIXGeneral-Regular-49"/>
       <use x="49.999985" xlink:href="#STIXGeneral-Regular-56"/>
       <use x="99.999969" xlink:href="#STIXGeneral-Regular-48"/>
      </g>
     </g>
    </g>
    <g id="xtick_3">
     <g id="line2d_3">
      <g>
       <use style="stroke:#000000;stroke-width:0.8;" x="251.343557" xlink:href="#mcc3bb2a249" y="306.18"/>
      </g>
     </g>
     <g id="text_3">
      <!-- 190 -->
      <g transform="translate(236.343557 326.839375)scale(0.2 -0.2)">
       <defs>
        <path d="M 5.90625 -2.203125 
L 5.59375 -0.203125 
Q 17.09375 1.796875 25.046875 9.5 
Q 33 17.203125 36 29.40625 
Q 30.203125 23.703125 21 23.703125 
Q 12.90625 23.703125 7.953125 29.296875 
Q 3 34.90625 3 44 
Q 3 54.09375 8.953125 60.84375 
Q 14.90625 67.59375 23.796875 67.59375 
Q 33.296875 67.59375 39.5 60 
Q 45.90625 52 45.90625 39.40625 
Q 45.90625 30.59375 42.84375 22.84375 
Q 39.796875 15.09375 33.90625 9.703125 
Q 27.703125 4.09375 21.796875 1.640625 
Q 15.90625 -0.796875 5.90625 -2.203125 
z
M 36.203125 35.5 
L 36.203125 39.40625 
Q 36.203125 64.796875 23 64.796875 
Q 18.296875 64.796875 15.703125 61.40625 
Q 14.203125 59.40625 13.203125 55.40625 
Q 12.203125 51.40625 12.203125 47.40625 
Q 12.203125 38.5 15.546875 33.25 
Q 18.90625 28 24.5 28 
Q 28.5 28 32.34375 29.953125 
Q 36.203125 31.90625 36.203125 35.5 
z
" id="STIXGeneral-Regular-57"/>
       </defs>
       <use xlink:href="#STIXGeneral-Regular-49"/>
       <use x="49.999985" xlink:href="#STIXGeneral-Regular-57"/>
       <use x="99.999969" xlink:href="#STIXGeneral-Regular-48"/>
      </g>
     </g>
    </g>
    <g id="xtick_4">
     <g id="line2d_4">
      <g>
       <use style="stroke:#000000;stroke-width:0.8;" x="337.321986" xlink:href="#mcc3bb2a249" y="306.18"/>
      </g>
     </g>
     <g id="text_4">
      <!-- 200 -->
      <g transform="translate(322.321986 326.839375)scale(0.2 -0.2)">
       <defs>
        <path d="M 47.40625 13.703125 
L 42 0 
L 2.90625 0 
L 2.90625 1.203125 
L 20.703125 20.09375 
Q 27.703125 27.40625 30.703125 33.5 
Q 33.703125 39.59375 33.703125 46.09375 
Q 33.703125 52.796875 30 56.5 
Q 26.296875 60.203125 19.796875 60.203125 
Q 14.40625 60.203125 11.25 57.390625 
Q 8.09375 54.59375 5.09375 47.203125 
L 3 47.703125 
Q 4.703125 57 9.84375 62.296875 
Q 15 67.59375 23.796875 67.59375 
Q 32.09375 67.59375 37.1875 62.59375 
Q 42.296875 57.59375 42.296875 50 
Q 42.296875 38.703125 29.5 25.203125 
L 13 7.59375 
L 36.40625 7.59375 
Q 39.703125 7.59375 41.640625 8.890625 
Q 43.59375 10.203125 46 14.296875 
z
" id="STIXGeneral-Regular-50"/>
       </defs>
       <use xlink:href="#STIXGeneral-Regular-50"/>
       <use x="49.999985" xlink:href="#STIXGeneral-Regular-48"/>
       <use x="99.999969" xlink:href="#STIXGeneral-Regular-48"/>
      </g>
     </g>
    </g>
    <g id="xtick_5">
     <g id="line2d_5">
      <g>
       <use style="stroke:#000000;stroke-width:0.8;" x="423.300414" xlink:href="#mcc3bb2a249" y="306.18"/>
      </g>
     </g>
     <g id="text_5">
      <!-- 210 -->
      <g transform="translate(408.300414 326.839375)scale(0.2 -0.2)">
       <use xlink:href="#STIXGeneral-Regular-50"/>
       <use x="49.999985" xlink:href="#STIXGeneral-Regular-49"/>
       <use x="99.999969" xlink:href="#STIXGeneral-Regular-48"/>
      </g>
     </g>
    </g>
    <g id="xtick_6">
     <g id="line2d_6">
      <g>
       <use style="stroke:#000000;stroke-width:0.8;" x="509.278842" xlink:href="#mcc3bb2a249" y="306.18"/>
      </g>
     </g>
     <g id="text_6">
      <!-- 220 -->
      <g transform="translate(494.278842 326.839375)scale(0.2 -0.2)">
       <use xlink:href="#STIXGeneral-Regular-50"/>
       <use x="49.999985" xlink:href="#STIXGeneral-Regular-50"/>
       <use x="99.999969" xlink:href="#STIXGeneral-Regular-48"/>
      </g>
     </g>
    </g>
    <g id="xtick_7">
     <g id="line2d_7">
      <g>
       <use style="stroke:#000000;stroke-width:0.8;" x="595.257271" xlink:href="#mcc3bb2a249" y="306.18"/>
      </g>
     </g>
     <g id="text_7">
      <!-- 230 -->
      <g transform="translate(580.257271 326.839375)scale(0.2 -0.2)">
       <defs>
        <path d="M 6.09375 51 
L 4.5 51.40625 
Q 6.796875 58.90625 11.6875 63.25 
Q 16.59375 67.59375 24.09375 67.59375 
Q 31.09375 67.59375 35.390625 63.796875 
Q 39.703125 60 39.703125 53.90625 
Q 39.703125 45.703125 30.40625 40.09375 
Q 35.90625 37.703125 38.703125 34.796875 
Q 43.09375 29.90625 43.09375 21.90625 
Q 43.09375 13.90625 38.5 7.90625 
Q 35.09375 3.296875 28.75 0.9375 
Q 22.40625 -1.40625 15.296875 -1.40625 
Q 4.09375 -1.40625 4.09375 4.296875 
Q 4.09375 5.90625 5.296875 6.90625 
Q 6.5 7.90625 8.203125 7.90625 
Q 10.703125 7.90625 14.296875 5.296875 
Q 18.703125 2.203125 22.90625 2.203125 
Q 28.40625 2.203125 32.15625 6.640625 
Q 35.90625 11.09375 35.90625 17.5 
Q 35.90625 29 25.5 32 
Q 22.40625 33 15.296875 33 
L 15.296875 34.40625 
Q 20.90625 36.296875 23.703125 38 
Q 31.796875 42.59375 31.796875 51.40625 
Q 31.796875 56.40625 28.9375 59 
Q 26.09375 61.59375 21 61.59375 
Q 12 61.59375 6.09375 51 
z
" id="STIXGeneral-Regular-51"/>
       </defs>
       <use xlink:href="#STIXGeneral-Regular-50"/>
       <use x="49.999985" xlink:href="#STIXGeneral-Regular-51"/>
       <use x="99.999969" xlink:href="#STIXGeneral-Regular-48"/>
      </g>
     </g>
    </g>
    <g id="text_8">
     <!-- flipper_length_mm -->
     <g transform="translate(273 348.839375)scale(0.2 -0.2)">
      <defs>
       <path d="M 2.09375 45 
L 10.296875 45 
Q 10.40625 51 11.09375 54.34375 
Q 11.796875 57.703125 13.796875 61.09375 
Q 18 68.296875 27.90625 68.296875 
Q 32.40625 68.296875 35.34375 66.546875 
Q 38.296875 64.796875 38.296875 62.09375 
Q 38.296875 60.40625 37.09375 59.203125 
Q 35.90625 58 34.09375 58 
Q 31.703125 58 29.59375 61.59375 
Q 27.203125 65.5 24.296875 65.5 
Q 18.703125 65.5 18.703125 56.59375 
L 18.703125 45 
L 30.90625 45 
L 30.90625 41.796875 
L 18.703125 41.796875 
L 18.703125 10.40625 
Q 18.703125 4.796875 20.296875 3.25 
Q 21.90625 1.703125 28 1.5 
L 28 0 
L 2 0 
L 2 1.5 
Q 7.40625 1.796875 8.84375 3.34375 
Q 10.296875 4.90625 10.296875 10.40625 
L 10.296875 41.796875 
L 2.09375 41.796875 
z
" id="STIXGeneral-Regular-102"/>
       <path d="M 25.703125 0 
L 2.09375 0 
L 2.09375 1.5 
Q 6.796875 1.90625 8.296875 3.453125 
Q 9.796875 5 9.796875 9.203125 
L 9.796875 56.09375 
Q 9.796875 59.703125 8.890625 61.09375 
Q 8 62.5 5.59375 62.5 
Q 3.5 62.5 1.90625 62.296875 
L 1.90625 63.90625 
Q 11.40625 66.203125 17.703125 68.296875 
L 18.203125 67.90625 
L 18.203125 8.703125 
Q 18.203125 4.5 19.59375 3.140625 
Q 21 1.796875 25.703125 1.5 
z
" id="STIXGeneral-Regular-108"/>
       <path d="M 18 63.203125 
Q 18 61 16.5 59.546875 
Q 15 58.09375 12.796875 58.09375 
Q 10.703125 58.09375 9.25 59.546875 
Q 7.796875 61 7.796875 63.203125 
Q 7.796875 65.296875 9.296875 66.796875 
Q 10.796875 68.296875 12.90625 68.296875 
Q 15.09375 68.296875 16.546875 66.796875 
Q 18 65.296875 18 63.203125 
z
M 25.296875 0 
L 1.59375 0 
L 1.59375 1.5 
Q 6.796875 1.796875 8.140625 3.296875 
Q 9.5 4.796875 9.5 10.40625 
L 9.5 33.09375 
Q 9.5 36.59375 8.796875 38 
Q 8.09375 39.40625 6.203125 39.40625 
Q 3.796875 39.40625 2 38.90625 
L 2 40.5 
L 17.5 46 
L 17.90625 45.59375 
L 17.90625 10.5 
Q 17.90625 4.90625 19.15625 3.40625 
Q 20.40625 1.90625 25.296875 1.5 
z
" id="STIXGeneral-Regular-105"/>
       <path d="M 15.90625 45.796875 
L 15.90625 38.09375 
Q 22.203125 46 30.296875 46 
Q 37.59375 46 42.296875 40 
Q 47 34 47 24.703125 
Q 47 13.796875 40.953125 6.390625 
Q 34.90625 -1 26 -1 
Q 22.90625 -1 20.75 -0.09375 
Q 18.59375 0.796875 15.90625 3.296875 
L 15.90625 -12.40625 
Q 15.90625 -17.09375 17.5 -18.4375 
Q 19.09375 -19.796875 24.703125 -19.90625 
L 24.703125 -21.703125 
L 0.5 -21.703125 
L 0.5 -20 
Q 4.90625 -19.59375 6.203125 -18.296875 
Q 7.5 -17 7.5 -13.09375 
L 7.5 33.703125 
Q 7.5 37.203125 6.703125 38.296875 
Q 5.90625 39.40625 3.40625 39.40625 
Q 1.796875 39.40625 0.90625 39.296875 
L 0.90625 40.90625 
Q 7.90625 43 15.296875 46 
z
M 15.90625 33.40625 
L 15.90625 8.796875 
Q 15.90625 6.59375 19.34375 4.390625 
Q 22.796875 2.203125 26.296875 2.203125 
Q 31.703125 2.203125 35.046875 7.296875 
Q 38.40625 12.40625 38.40625 20.703125 
Q 38.40625 29.5 35.046875 34.75 
Q 31.703125 40 26.09375 40 
Q 22.59375 40 19.25 37.796875 
Q 15.90625 35.59375 15.90625 33.40625 
z
" id="STIXGeneral-Regular-112"/>
       <path d="M 40.796875 16.40625 
L 42.40625 15.703125 
Q 36.40625 -1 21.5 -1 
Q 12.703125 -1 7.59375 5.140625 
Q 2.5 11.296875 2.5 21.703125 
Q 2.5 32.40625 8.203125 39.203125 
Q 13.90625 46 23.203125 46 
Q 32.203125 46 37.09375 39.09375 
Q 40 35.09375 40.5 27.703125 
L 9.703125 27.703125 
Q 10.09375 21.40625 10.9375 18.09375 
Q 11.796875 14.796875 14.296875 11.40625 
Q 18.5 5.90625 25.40625 5.90625 
Q 30.296875 5.90625 33.640625 8.296875 
Q 37 10.703125 40.796875 16.40625 
z
M 9.90625 30.90625 
L 30.296875 30.90625 
Q 29.40625 37.203125 27.34375 39.796875 
Q 25.296875 42.40625 20.5 42.40625 
Q 16.296875 42.40625 13.5 39.453125 
Q 10.703125 36.5 9.90625 30.90625 
z
" id="STIXGeneral-Regular-101"/>
       <path d="M 16 45.796875 
L 16 36.59375 
Q 19.796875 42 22.34375 44 
Q 24.90625 46 28 46 
Q 30.59375 46 32.046875 44.59375 
Q 33.5 43.203125 33.5 40.703125 
Q 33.5 38.59375 32.453125 37.390625 
Q 31.40625 36.203125 29.59375 36.203125 
Q 27.703125 36.203125 25.59375 38.203125 
Q 24 39.703125 23 39.703125 
Q 20.90625 39.703125 18.453125 36.796875 
Q 16 33.90625 16 31.5 
L 16 9 
Q 16 4.703125 17.703125 3.203125 
Q 19.40625 1.703125 24.5 1.5 
L 24.5 0 
L 0.5 0 
L 0.5 1.5 
Q 5.296875 2.40625 6.4375 3.5 
Q 7.59375 4.59375 7.59375 8.40625 
L 7.59375 33.40625 
Q 7.59375 36.703125 6.84375 38.046875 
Q 6.09375 39.40625 4.203125 39.40625 
Q 2.59375 39.40625 0.703125 39 
L 0.703125 40.59375 
Q 7 42.59375 15.5 46 
z
" id="STIXGeneral-Regular-114"/>
       <path d="M 50 -12.5 
L 0 -12.5 
L 0 -7.5 
L 50 -7.5 
z
" id="STIXGeneral-Regular-95"/>
       <path d="M 48.5 0 
L 27.703125 0 
L 27.796875 1.5 
Q 31.5 1.796875 32.75 3.640625 
Q 34 5.5 34 10.5 
L 34 30.40625 
Q 34 40.5 26.703125 40.5 
Q 24.203125 40.5 22 39.296875 
Q 19.796875 38.09375 16.40625 34.796875 
L 16.40625 7.203125 
Q 16.40625 4.203125 17.75 3 
Q 19.09375 1.796875 22.90625 1.5 
L 22.90625 0 
L 1.796875 0 
L 1.796875 1.5 
Q 5.59375 1.796875 6.796875 3.34375 
Q 8 4.90625 8 9.40625 
L 8 33.703125 
Q 8 37.40625 7.296875 38.796875 
Q 6.59375 40.203125 4.5 40.203125 
Q 2.5 40.203125 1.59375 39.796875 
L 1.59375 41.5 
Q 8.59375 43.5 15.296875 46 
L 16.09375 45.703125 
L 16.09375 37.90625 
L 16.203125 37.90625 
Q 23.296875 46 30.59375 46 
Q 36.296875 46 39.34375 42 
Q 42.40625 38 42.40625 30.59375 
L 42.40625 8.5 
Q 42.40625 4.5 43.59375 3.203125 
Q 44.796875 1.90625 48.5 1.5 
z
" id="STIXGeneral-Regular-110"/>
       <path d="M 47 38.796875 
L 38.703125 38.796875 
Q 40.59375 34.5 40.59375 30.40625 
Q 40.59375 22.703125 35.390625 18.796875 
Q 30.203125 14.90625 25 14.90625 
Q 23.90625 14.90625 21.203125 15.203125 
L 19.296875 15.40625 
Q 17.296875 14.796875 15.296875 12.6875 
Q 13.296875 10.59375 13.296875 9.09375 
Q 13.296875 6.796875 21.09375 6.40625 
L 34 5.796875 
Q 39.5 5.59375 42.796875 2.6875 
Q 46.09375 -0.203125 46.09375 -4.90625 
Q 46.09375 -10.703125 40.09375 -15.40625 
Q 31.796875 -21.796875 20.09375 -21.796875 
Q 12.90625 -21.796875 7.84375 -18.9375 
Q 2.796875 -16.09375 2.796875 -12.09375 
Q 2.796875 -9.296875 5 -6.546875 
Q 7.203125 -3.796875 12.59375 0.09375 
Q 9.40625 1.59375 8.34375 2.6875 
Q 7.296875 3.796875 7.296875 5.40625 
Q 7.296875 8.296875 11.90625 12.296875 
Q 14.203125 14.296875 16.203125 16.296875 
Q 11.203125 18.796875 9.046875 21.890625 
Q 6.90625 25 6.90625 29.703125 
Q 6.90625 36.5 11.75 41.25 
Q 16.59375 46 23.59375 46 
Q 27.59375 46 31.59375 44.5 
L 33.796875 43.703125 
Q 36.703125 42.703125 39.296875 42.703125 
L 47 42.703125 
z
M 15.203125 33.796875 
L 15.203125 33.5 
Q 15.203125 26.296875 18.046875 21.84375 
Q 20.90625 17.40625 25.5 17.40625 
Q 28.90625 17.40625 30.90625 19.84375 
Q 32.90625 22.296875 32.90625 26.40625 
Q 32.90625 33 29.90625 38.5 
Q 27.40625 43.203125 22.59375 43.203125 
Q 19.09375 43.203125 17.140625 40.703125 
Q 15.203125 38.203125 15.203125 33.796875 
z
M 43.296875 -6.40625 
Q 43.296875 -3.59375 40.546875 -2.546875 
Q 37.796875 -1.5 30.90625 -1.5 
Q 21 -1.5 14.703125 -0.203125 
Q 11.703125 -3.796875 10.75 -5.4375 
Q 9.796875 -7.09375 9.796875 -8.796875 
Q 9.796875 -12.09375 13.75 -14.09375 
Q 17.703125 -16.09375 24.296875 -16.09375 
Q 32.796875 -16.09375 38.046875 -13.4375 
Q 43.296875 -10.796875 43.296875 -6.40625 
z
" id="STIXGeneral-Regular-103"/>
       <path d="M 26.59375 7.703125 
L 27.90625 6.59375 
Q 23.09375 -1 15.796875 -1 
Q 7 -1 7 11.703125 
L 7 41.796875 
L 1.703125 41.796875 
Q 1.296875 42.09375 1.296875 42.5 
Q 1.296875 43.296875 3 44.40625 
Q 6.796875 46.59375 12.703125 55.09375 
Q 12.90625 55.40625 13.65625 56.34375 
Q 14.40625 57.296875 14.703125 57.90625 
Q 15.40625 57.90625 15.40625 56.59375 
L 15.40625 45 
L 25.5 45 
L 25.5 41.796875 
L 15.40625 41.796875 
L 15.40625 13.203125 
Q 15.40625 8.40625 16.59375 6.296875 
Q 17.796875 4.203125 20.59375 4.203125 
Q 23.59375 4.203125 26.59375 7.703125 
z
" id="STIXGeneral-Regular-116"/>
       <path d="M 48.703125 0 
L 27.5 0 
L 27.5 1.5 
Q 31.90625 2 33.09375 3.5 
Q 34.296875 5 34.296875 10.203125 
L 34.296875 30 
Q 34.296875 40.59375 26.90625 40.59375 
Q 23.90625 40.59375 21.40625 39.1875 
Q 18.90625 37.796875 15.703125 34.296875 
L 15.703125 10.203125 
Q 15.703125 5 16.890625 3.5 
Q 18.09375 2 22.5 1.5 
L 22.5 0 
L 0.90625 0 
L 0.90625 1.5 
Q 5.203125 2.09375 6.25 3.5 
Q 7.296875 4.90625 7.296875 10.203125 
L 7.296875 57.296875 
Q 7.296875 60.5 6.34375 61.453125 
Q 5.40625 62.40625 2.203125 62.40625 
Q 1.296875 62.40625 1 62.296875 
L 1 63.90625 
L 3.703125 64.703125 
Q 11.40625 67 15.203125 68.296875 
L 15.703125 68 
L 15.703125 37.59375 
Q 19.203125 42.09375 22.59375 44.046875 
Q 26 46 30.40625 46 
Q 42.703125 46 42.703125 30.09375 
L 42.703125 10.203125 
Q 42.703125 5 43.640625 3.640625 
Q 44.59375 2.296875 48.703125 1.5 
z
" id="STIXGeneral-Regular-104"/>
       <path d="M 77.5 0 
L 55.703125 0 
L 55.703125 1.5 
Q 59.90625 1.90625 61.046875 3.25 
Q 62.203125 4.59375 62.203125 9 
L 62.203125 29.59375 
Q 62.203125 35.59375 60.453125 38.1875 
Q 58.703125 40.796875 54.5 40.796875 
Q 51 40.796875 48.546875 39.390625 
Q 46.09375 38 43.796875 34.703125 
L 43.796875 9.5 
Q 43.796875 4.703125 45.25 3.140625 
Q 46.703125 1.59375 51 1.5 
L 51 0 
L 28.59375 0 
L 28.59375 1.5 
Q 33 1.796875 34.203125 2.9375 
Q 35.40625 4.09375 35.40625 8.59375 
L 35.40625 29.703125 
Q 35.40625 40.796875 28.90625 40.796875 
Q 26.09375 40.796875 22.9375 39.546875 
Q 19.796875 38.296875 18.296875 36.5 
Q 17 35 17 34.796875 
L 17 7 
Q 17 3.796875 18.390625 2.75 
Q 19.796875 1.703125 23.796875 1.5 
L 23.796875 0 
L 1.59375 0 
L 1.59375 1.5 
Q 5.796875 1.59375 7.1875 3.046875 
Q 8.59375 4.5 8.59375 8.796875 
L 8.59375 33.59375 
Q 8.59375 37.296875 7.796875 38.75 
Q 7 40.203125 5.09375 40.203125 
Q 3.59375 40.203125 1.90625 39.796875 
L 1.90625 41.5 
Q 8.703125 43.40625 15.796875 46 
L 16.59375 45.703125 
L 16.59375 38.296875 
L 16.796875 38.296875 
Q 21.296875 43 24.75 44.5 
Q 28.203125 46 32.09375 46 
Q 40 46 42.703125 37.59375 
Q 50.5 46 59 46 
Q 70.59375 46 70.59375 28 
L 70.59375 7.703125 
Q 70.59375 4.40625 71.59375 3.15625 
Q 72.59375 1.90625 74.90625 1.703125 
L 77.5 1.5 
z
" id="STIXGeneral-Regular-109"/>
      </defs>
      <use xlink:href="#STIXGeneral-Regular-102"/>
      <use x="33.299988" xlink:href="#STIXGeneral-Regular-108"/>
      <use x="61.099976" xlink:href="#STIXGeneral-Regular-105"/>
      <use x="88.899963" xlink:href="#STIXGeneral-Regular-112"/>
      <use x="138.899948" xlink:href="#STIXGeneral-Regular-112"/>
      <use x="188.899933" xlink:href="#STIXGeneral-Regular-101"/>
      <use x="233.299927" xlink:href="#STIXGeneral-Regular-114"/>
      <use x="266.599915" xlink:href="#STIXGeneral-Regular-95"/>
      <use x="316.599899" xlink:href="#STIXGeneral-Regular-108"/>
      <use x="344.399887" xlink:href="#STIXGeneral-Regular-101"/>
      <use x="388.799881" xlink:href="#STIXGeneral-Regular-110"/>
      <use x="438.799866" xlink:href="#STIXGeneral-Regular-103"/>
      <use x="488.79985" xlink:href="#STIXGeneral-Regular-116"/>
      <use x="516.599838" xlink:href="#STIXGeneral-Regular-104"/>
      <use x="566.599823" xlink:href="#STIXGeneral-Regular-95"/>
      <use x="616.599808" xlink:href="#STIXGeneral-Regular-109"/>
      <use x="694.399796" xlink:href="#STIXGeneral-Regular-109"/>
     </g>
    </g>
   </g>
   <g id="matplotlib.axis_2">
    <g id="ytick_1">
     <g id="line2d_8">
      <defs>
       <path d="M 0 0 
L -3.5 0 
" id="m721925ea5b" style="stroke:#000000;stroke-width:0.8;"/>
      </defs>
      <g>
       <use style="stroke:#000000;stroke-width:0.8;" x="71.21875" xlink:href="#m721925ea5b" y="306.18"/>
      </g>
     </g>
     <g id="text_9">
      <!-- 0.00 -->
      <g transform="translate(29.21875 313.009687)scale(0.2 -0.2)">
       <defs>
        <path d="M 18.09375 4.296875 
Q 18.09375 2.09375 16.4375 0.5 
Q 14.796875 -1.09375 12.5 -1.09375 
Q 10.203125 -1.09375 8.59375 0.5 
Q 7 2.09375 7 4.390625 
Q 7 6.703125 8.640625 8.34375 
Q 10.296875 10 12.59375 10 
Q 14.796875 10 16.4375 8.296875 
Q 18.09375 6.59375 18.09375 4.296875 
z
" id="STIXGeneral-Regular-46"/>
       </defs>
       <use xlink:href="#STIXGeneral-Regular-48"/>
       <use x="49.999985" xlink:href="#STIXGeneral-Regular-46"/>
       <use x="74.999969" xlink:href="#STIXGeneral-Regular-48"/>
       <use x="124.999954" xlink:href="#STIXGeneral-Regular-48"/>
      </g>
     </g>
    </g>
    <g id="ytick_2">
     <g id="line2d_9">
      <g>
       <use style="stroke:#000000;stroke-width:0.8;" x="71.21875" xlink:href="#m721925ea5b" y="251.460558"/>
      </g>
     </g>
     <g id="text_10">
      <!-- 0.01 -->
      <g transform="translate(29.21875 258.290246)scale(0.2 -0.2)">
       <use xlink:href="#STIXGeneral-Regular-48"/>
       <use x="49.999985" xlink:href="#STIXGeneral-Regular-46"/>
       <use x="74.999969" xlink:href="#STIXGeneral-Regular-48"/>
       <use x="124.999954" xlink:href="#STIXGeneral-Regular-49"/>
      </g>
     </g>
    </g>
    <g id="ytick_3">
     <g id="line2d_10">
      <g>
       <use style="stroke:#000000;stroke-width:0.8;" x="71.21875" xlink:href="#m721925ea5b" y="196.741117"/>
      </g>
     </g>
     <g id="text_11">
      <!-- 0.02 -->
      <g transform="translate(29.21875 203.570804)scale(0.2 -0.2)">
       <use xlink:href="#STIXGeneral-Regular-48"/>
       <use x="49.999985" xlink:href="#STIXGeneral-Regular-46"/>
       <use x="74.999969" xlink:href="#STIXGeneral-Regular-48"/>
       <use x="124.999954" xlink:href="#STIXGeneral-Regular-50"/>
      </g>
     </g>
    </g>
    <g id="ytick_4">
     <g id="line2d_11">
      <g>
       <use style="stroke:#000000;stroke-width:0.8;" x="71.21875" xlink:href="#m721925ea5b" y="142.021675"/>
      </g>
     </g>
     <g id="text_12">
      <!-- 0.03 -->
      <g transform="translate(29.21875 148.851363)scale(0.2 -0.2)">
       <use xlink:href="#STIXGeneral-Regular-48"/>
       <use x="49.999985" xlink:href="#STIXGeneral-Regular-46"/>
       <use x="74.999969" xlink:href="#STIXGeneral-Regular-48"/>
       <use x="124.999954" xlink:href="#STIXGeneral-Regular-51"/>
      </g>
     </g>
    </g>
    <g id="ytick_5">
     <g id="line2d_12">
      <g>
       <use style="stroke:#000000;stroke-width:0.8;" x="71.21875" xlink:href="#m721925ea5b" y="87.302233"/>
      </g>
     </g>
     <g id="text_13">
      <!-- 0.04 -->
      <g transform="translate(29.21875 94.131921)scale(0.2 -0.2)">
       <defs>
        <path d="M 47.296875 16.703125 
L 37 16.703125 
L 37 0 
L 29.203125 0 
L 29.203125 16.703125 
L 1.203125 16.703125 
L 1.203125 23.09375 
L 32.59375 67.59375 
L 37 67.59375 
L 37 23.09375 
L 47.296875 23.09375 
z
M 29.203125 23.09375 
L 29.203125 57.40625 
L 5.203125 23.09375 
z
" id="STIXGeneral-Regular-52"/>
       </defs>
       <use xlink:href="#STIXGeneral-Regular-48"/>
       <use x="49.999985" xlink:href="#STIXGeneral-Regular-46"/>
       <use x="74.999969" xlink:href="#STIXGeneral-Regular-48"/>
       <use x="124.999954" xlink:href="#STIXGeneral-Regular-52"/>
      </g>
     </g>
    </g>
    <g id="ytick_6">
     <g id="line2d_13">
      <g>
       <use style="stroke:#000000;stroke-width:0.8;" x="71.21875" xlink:href="#m721925ea5b" y="32.582792"/>
      </g>
     </g>
     <g id="text_14">
      <!-- 0.05 -->
      <g transform="translate(29.21875 39.412479)scale(0.2 -0.2)">
       <defs>
        <path d="M 43.796875 68.09375 
L 40.203125 59.59375 
Q 39.59375 58.296875 37.5 58.296875 
L 18.09375 58.296875 
L 14.09375 49.796875 
Q 25.09375 47.703125 30 45.25 
Q 34.90625 42.796875 39.09375 37 
Q 42.59375 32.203125 42.59375 24.296875 
Q 42.59375 17.09375 40.25 12.1875 
Q 37.90625 7.296875 32.796875 3.5 
Q 26 -1.40625 15.796875 -1.40625 
Q 10.09375 -1.40625 6.59375 0.296875 
Q 3.09375 2 3.09375 4.796875 
Q 3.09375 8.59375 7.59375 8.59375 
Q 11.203125 8.59375 15 5.5 
Q 18.90625 2.296875 22.09375 2.296875 
Q 27.296875 2.296875 31.4375 7.5 
Q 35.59375 12.703125 35.59375 19.203125 
Q 35.59375 28.796875 28.90625 34.203125 
Q 20.203125 41.203125 7.59375 41.203125 
Q 6.40625 41.203125 6.40625 42 
L 6.5 42.5 
L 17.40625 66.203125 
L 38.09375 66.203125 
Q 39.796875 66.203125 40.75 66.703125 
Q 41.703125 67.203125 42.90625 68.796875 
z
" id="STIXGeneral-Regular-53"/>
       </defs>
       <use xlink:href="#STIXGeneral-Regular-48"/>
       <use x="49.999985" xlink:href="#STIXGeneral-Regular-46"/>
       <use x="74.999969" xlink:href="#STIXGeneral-Regular-48"/>
       <use x="124.999954" xlink:href="#STIXGeneral-Regular-53"/>
      </g>
     </g>
    </g>
    <g id="text_15">
     <!-- Density -->
     <g transform="translate(20.859375 187.800937)rotate(-90)scale(0.2 -0.2)">
      <defs>
       <path d="M 1.59375 66.203125 
L 28.59375 66.203125 
Q 48.09375 66.203125 58.59375 57.09375 
Q 68.5 48.59375 68.5 33.40625 
Q 68.5 15.09375 54.90625 6.40625 
Q 45 0 29.703125 0 
L 1.59375 0 
L 1.59375 1.90625 
Q 7.40625 2.296875 8.90625 3.9375 
Q 10.40625 5.59375 10.40625 11.5 
L 10.40625 55 
Q 10.40625 60.796875 8.90625 62.34375 
Q 7.40625 63.90625 1.59375 64.296875 
z
M 20.59375 58.296875 
L 20.59375 8.40625 
Q 20.59375 5.703125 21.546875 4.703125 
Q 22.5 3.703125 25.40625 3.703125 
Q 33.203125 3.703125 38 4.796875 
Q 42.796875 5.90625 47.203125 8.90625 
Q 57.59375 15.90625 57.59375 32.796875 
Q 57.59375 47.296875 48.09375 55.59375 
Q 43.796875 59.40625 38.6875 60.953125 
Q 33.59375 62.5 25.90625 62.5 
Q 23 62.5 21.796875 61.59375 
Q 20.59375 60.703125 20.59375 58.296875 
z
" id="STIXGeneral-Regular-68"/>
       <path d="M 15.59375 30.09375 
L 26 23.796875 
Q 31 20.796875 32.890625 18.1875 
Q 34.796875 15.59375 34.796875 11.5 
Q 34.796875 6.5 30.640625 2.75 
Q 26.5 -1 20.796875 -1 
Q 16.09375 -1 13.5 -0.09375 
Q 10.796875 0.796875 8.90625 0.796875 
Q 7.203125 0.796875 6.5 -0.40625 
L 5.203125 -0.40625 
L 5.203125 15.296875 
L 6.796875 15.296875 
Q 8.40625 8 11.40625 4.59375 
Q 14.40625 1.203125 19.5 1.203125 
Q 23.203125 1.203125 25.5 3.296875 
Q 27.796875 5.40625 27.796875 8.59375 
Q 27.796875 13.203125 22.5 16.09375 
L 17.09375 19.09375 
Q 5.09375 25.796875 5.09375 33.59375 
Q 5.09375 39.40625 8.84375 42.65625 
Q 12.59375 45.90625 18.90625 45.90625 
Q 23.296875 45.90625 25.59375 44.796875 
Q 27.40625 44 28.40625 44 
Q 29.09375 44 30 45 
L 31.09375 45 
L 31.59375 31.40625 
L 30.09375 31.40625 
Q 28.40625 38.203125 25.84375 40.953125 
Q 23.296875 43.703125 18.796875 43.703125 
Q 15.40625 43.703125 13.34375 42 
Q 11.296875 40.296875 11.296875 36.90625 
Q 11.296875 35.203125 12.4375 33.25 
Q 13.59375 31.296875 15.59375 30.09375 
z
" id="STIXGeneral-Regular-115"/>
       <path d="M 47.5 45 
L 47.5 43.5 
Q 45.703125 43.296875 44.59375 42.1875 
Q 43.5 41.09375 42.5 38.40625 
L 27.5 -2.5 
Q 23.59375 -13.09375 19.640625 -17.4375 
Q 15.703125 -21.796875 10 -21.796875 
Q 6.796875 -21.796875 4.890625 -20.140625 
Q 3 -18.5 3 -16 
Q 3 -14.09375 4.25 -12.75 
Q 5.5 -11.40625 7.296875 -11.40625 
Q 10.203125 -11.40625 12.5 -12.703125 
Q 13.796875 -13.40625 15.09375 -13.40625 
Q 17.203125 -13.40625 20.09375 -9 
Q 21.5 -7 22.796875 -3.296875 
Q 24.09375 0.40625 24.09375 1.796875 
Q 24.09375 3.09375 19.90625 11.90625 
L 6.703125 40.09375 
Q 5.40625 43 1.40625 43.59375 
L 1.40625 45 
L 21.90625 45 
L 21.90625 43.5 
Q 18.703125 43.40625 17.453125 42.796875 
Q 16.203125 42.203125 16.203125 40.796875 
Q 16.203125 39.703125 17.5 36.703125 
L 28.703125 11.703125 
L 38.40625 39.296875 
Q 38.796875 40.203125 38.796875 41.09375 
Q 38.796875 43.5 34.203125 43.5 
L 34.203125 45 
z
" id="STIXGeneral-Regular-121"/>
      </defs>
      <use xlink:href="#STIXGeneral-Regular-68"/>
      <use x="72.199982" xlink:href="#STIXGeneral-Regular-101"/>
      <use x="116.599976" xlink:href="#STIXGeneral-Regular-110"/>
      <use x="166.59996" xlink:href="#STIXGeneral-Regular-115"/>
      <use x="205.499954" xlink:href="#STIXGeneral-Regular-105"/>
      <use x="233.299942" xlink:href="#STIXGeneral-Regular-116"/>
      <use x="261.09993" xlink:href="#STIXGeneral-Regular-121"/>
     </g>
    </g>
   </g>
   <g id="patch_33">
    <path d="M 71.21875 306.18 
L 71.21875 7.2 
" style="fill:none;stroke:#000000;stroke-linecap:square;stroke-linejoin:miter;stroke-width:0.8;"/>
   </g>
   <g id="patch_34">
    <path d="M 629.21875 306.18 
L 629.21875 7.2 
" style="fill:none;stroke:#000000;stroke-linecap:square;stroke-linejoin:miter;stroke-width:0.8;"/>
   </g>
   <g id="patch_35">
    <path d="M 71.21875 306.18 
L 629.21875 306.18 
" style="fill:none;stroke:#000000;stroke-linecap:square;stroke-linejoin:miter;stroke-width:0.8;"/>
   </g>
   <g id="patch_36">
    <path d="M 71.21875 7.2 
L 629.21875 7.2 
" style="fill:none;stroke:#000000;stroke-linecap:square;stroke-linejoin:miter;stroke-width:0.8;"/>
   </g>
  </g>
 </g>
 <defs>
  <clipPath id="pac036d7a8a">
   <rect height="298.98" width="558" x="71.21875" y="7.2"/>
  </clipPath>
 </defs>
</svg>
