<?xml version="1.0" encoding="utf-8" standalone="no"?>
<!DOCTYPE svg PUBLIC "-//W3C//DTD SVG 1.1//EN"
  "http://www.w3.org/Graphics/SVG/1.1/DTD/svg11.dtd">
<!-- Created with matplotlib (https://matplotlib.org/) -->
<svg height="388.8pt" version="1.1" viewBox="0 0 710.042624 388.8" width="710.042624pt" xmlns="http://www.w3.org/2000/svg" xmlns:xlink="http://www.w3.org/1999/xlink">
 <metadata>
  <rdf:RDF xmlns:cc="http://creativecommons.org/ns#" xmlns:dc="http://purl.org/dc/elements/1.1/" xmlns:rdf="http://www.w3.org/1999/02/22-rdf-syntax-ns#">
   <cc:Work>
    <dc:type rdf:resource="http://purl.org/dc/dcmitype/StillImage"/>
    <dc:date>2021-02-14T00:47:28.368280</dc:date>
    <dc:format>image/svg+xml</dc:format>
    <dc:creator>
     <cc:Agent>
      <dc:title>Matplotlib v3.3.4, https://matplotlib.org/</dc:title>
     </cc:Agent>
    </dc:creator>
   </cc:Work>
  </rdf:RDF>
 </metadata>
 <defs>
  <style type="text/css">*{stroke-linecap:butt;stroke-linejoin:round;}</style>
 </defs>
 <g id="figure_1">
  <g id="patch_1">
   <path d="M 0 388.8 
L 710.042624 388.8 
L 710.042624 0 
L 0 0 
z
" style="fill:#ffffff;"/>
  </g>
  <g id="axes_1">
   <g id="patch_2">
    <path d="M 52.7 341.78875 
L 671.362261 341.78875 
L 671.362261 23.03475 
L 52.7 23.03475 
z
" style="fill:#e5e5e5;"/>
   </g>
   <g id="matplotlib.axis_1">
    <g id="xtick_1">
     <g id="line2d_1">
      <path clip-path="url(#p851f211b7d)" d="M 104.954937 341.78875 
L 104.954937 23.03475 
" style="fill:none;stroke:#ffffff;stroke-linecap:square;stroke-width:0.8;"/>
     </g>
     <g id="line2d_2">
      <defs>
       <path d="M 0 0 
L 0 3.5 
" id="me8cd1fb4fc" style="stroke:#555555;stroke-width:0.8;"/>
      </defs>
      <g>
       <use style="fill:#555555;stroke:#555555;stroke-width:0.8;" x="104.954937" xlink:href="#me8cd1fb4fc" y="341.78875"/>
      </g>
     </g>
     <g id="text_1">
      <!-- −4 -->
      <g style="fill:#555555;" transform="translate(93.104937 362.448125)scale(0.2 -0.2)">
       <defs>
        <path d="M 62.09375 22 
L 6.40625 22 
L 6.40625 28.59375 
L 62.09375 28.59375 
z
" id="STIXGeneral-Regular-8722"/>
        <path d="M 47.296875 16.703125 
L 37 16.703125 
L 37 0 
L 29.203125 0 
L 29.203125 16.703125 
L 1.203125 16.703125 
L 1.203125 23.09375 
L 32.59375 67.59375 
L 37 67.59375 
L 37 23.09375 
L 47.296875 23.09375 
z
M 29.203125 23.09375 
L 29.203125 57.40625 
L 5.203125 23.09375 
z
" id="STIXGeneral-Regular-52"/>
       </defs>
       <use xlink:href="#STIXGeneral-Regular-8722"/>
       <use x="68.499985" xlink:href="#STIXGeneral-Regular-52"/>
      </g>
     </g>
    </g>
    <g id="xtick_2">
     <g id="line2d_3">
      <path clip-path="url(#p851f211b7d)" d="M 204.478618 341.78875 
L 204.478618 23.03475 
" style="fill:none;stroke:#ffffff;stroke-linecap:square;stroke-width:0.8;"/>
     </g>
     <g id="line2d_4">
      <g>
       <use style="fill:#555555;stroke:#555555;stroke-width:0.8;" x="204.478618" xlink:href="#me8cd1fb4fc" y="341.78875"/>
      </g>
     </g>
     <g id="text_2">
      <!-- −2 -->
      <g style="fill:#555555;" transform="translate(192.628618 362.448125)scale(0.2 -0.2)">
       <defs>
        <path d="M 47.40625 13.703125 
L 42 0 
L 2.90625 0 
L 2.90625 1.203125 
L 20.703125 20.09375 
Q 27.703125 27.40625 30.703125 33.5 
Q 33.703125 39.59375 33.703125 46.09375 
Q 33.703125 52.796875 30 56.5 
Q 26.296875 60.203125 19.796875 60.203125 
Q 14.40625 60.203125 11.25 57.390625 
Q 8.09375 54.59375 5.09375 47.203125 
L 3 47.703125 
Q 4.703125 57 9.84375 62.296875 
Q 15 67.59375 23.796875 67.59375 
Q 32.09375 67.59375 37.1875 62.59375 
Q 42.296875 57.59375 42.296875 50 
Q 42.296875 38.703125 29.5 25.203125 
L 13 7.59375 
L 36.40625 7.59375 
Q 39.703125 7.59375 41.640625 8.890625 
Q 43.59375 10.203125 46 14.296875 
z
" id="STIXGeneral-Regular-50"/>
       </defs>
       <use xlink:href="#STIXGeneral-Regular-8722"/>
       <use x="68.499985" xlink:href="#STIXGeneral-Regular-50"/>
      </g>
     </g>
    </g>
    <g id="xtick_3">
     <g id="line2d_5">
      <path clip-path="url(#p851f211b7d)" d="M 304.002298 341.78875 
L 304.002298 23.03475 
" style="fill:none;stroke:#ffffff;stroke-linecap:square;stroke-width:0.8;"/>
     </g>
     <g id="line2d_6">
      <g>
       <use style="fill:#555555;stroke:#555555;stroke-width:0.8;" x="304.002298" xlink:href="#me8cd1fb4fc" y="341.78875"/>
      </g>
     </g>
     <g id="text_3">
      <!-- 0 -->
      <g style="fill:#555555;" transform="translate(299.002298 362.448125)scale(0.2 -0.2)">
       <defs>
        <path d="M 47.59375 33 
Q 47.59375 26.296875 46.296875 20.34375 
Q 45 14.40625 42.453125 9.40625 
Q 39.90625 4.40625 35.40625 1.5 
Q 30.90625 -1.40625 25 -1.40625 
Q 18.90625 -1.40625 14.296875 1.6875 
Q 9.703125 4.796875 7.203125 10 
Q 4.703125 15.203125 3.546875 21.09375 
Q 2.40625 27 2.40625 33.59375 
Q 2.40625 42.90625 4.703125 50.34375 
Q 7 57.796875 12.34375 62.6875 
Q 17.703125 67.59375 25.40625 67.59375 
Q 35.203125 67.59375 41.390625 58 
Q 47.59375 48.40625 47.59375 33 
z
M 38 32.5 
Q 38 48.296875 34.640625 56.640625 
Q 31.296875 65 24.796875 65 
Q 18.59375 65 15.296875 56.59375 
Q 12 48.203125 12 32.90625 
Q 12 17.5 15.296875 9.34375 
Q 18.59375 1.203125 25 1.203125 
Q 31.296875 1.203125 34.640625 9.34375 
Q 38 17.5 38 32.5 
z
" id="STIXGeneral-Regular-48"/>
       </defs>
       <use xlink:href="#STIXGeneral-Regular-48"/>
      </g>
     </g>
    </g>
    <g id="xtick_4">
     <g id="line2d_7">
      <path clip-path="url(#p851f211b7d)" d="M 403.525979 341.78875 
L 403.525979 23.03475 
" style="fill:none;stroke:#ffffff;stroke-linecap:square;stroke-width:0.8;"/>
     </g>
     <g id="line2d_8">
      <g>
       <use style="fill:#555555;stroke:#555555;stroke-width:0.8;" x="403.525979" xlink:href="#me8cd1fb4fc" y="341.78875"/>
      </g>
     </g>
     <g id="text_4">
      <!-- 2 -->
      <g style="fill:#555555;" transform="translate(398.525979 362.448125)scale(0.2 -0.2)">
       <use xlink:href="#STIXGeneral-Regular-50"/>
      </g>
     </g>
    </g>
    <g id="xtick_5">
     <g id="line2d_9">
      <path clip-path="url(#p851f211b7d)" d="M 503.04966 341.78875 
L 503.04966 23.03475 
" style="fill:none;stroke:#ffffff;stroke-linecap:square;stroke-width:0.8;"/>
     </g>
     <g id="line2d_10">
      <g>
       <use style="fill:#555555;stroke:#555555;stroke-width:0.8;" x="503.04966" xlink:href="#me8cd1fb4fc" y="341.78875"/>
      </g>
     </g>
     <g id="text_5">
      <!-- 4 -->
      <g style="fill:#555555;" transform="translate(498.04966 362.448125)scale(0.2 -0.2)">
       <use xlink:href="#STIXGeneral-Regular-52"/>
      </g>
     </g>
    </g>
    <g id="xtick_6">
     <g id="line2d_11">
      <path clip-path="url(#p851f211b7d)" d="M 602.57334 341.78875 
L 602.57334 23.03475 
" style="fill:none;stroke:#ffffff;stroke-linecap:square;stroke-width:0.8;"/>
     </g>
     <g id="line2d_12">
      <g>
       <use style="fill:#555555;stroke:#555555;stroke-width:0.8;" x="602.57334" xlink:href="#me8cd1fb4fc" y="341.78875"/>
      </g>
     </g>
     <g id="text_6">
      <!-- 6 -->
      <g style="fill:#555555;" transform="translate(597.57334 362.448125)scale(0.2 -0.2)">
       <defs>
        <path d="M 44.59375 68.40625 
L 44.796875 66.796875 
Q 33 64.90625 25.09375 57.25 
Q 17.203125 49.59375 15.203125 38.296875 
Q 21 42.796875 27.90625 42.796875 
Q 36.703125 42.796875 41.75 37.1875 
Q 46.796875 31.59375 46.796875 21.90625 
Q 46.796875 12.09375 41.703125 5.90625 
Q 35.796875 -1.40625 25.796875 -1.40625 
Q 13.59375 -1.40625 8.09375 8.703125 
Q 3.40625 17.296875 3.40625 27.90625 
Q 3.40625 44.296875 14.296875 55.5 
Q 20.5 61.90625 27.046875 64.546875 
Q 33.59375 67.203125 44.59375 68.40625 
z
M 37.796875 18.796875 
Q 37.796875 38.203125 24.296875 38.203125 
Q 19.296875 38.203125 16 35.546875 
Q 12.703125 32.90625 12.703125 26.59375 
Q 12.703125 14.90625 16.34375 8.15625 
Q 20 1.40625 26.90625 1.40625 
Q 32.203125 1.40625 35 6.15625 
Q 37.796875 10.90625 37.796875 18.796875 
z
" id="STIXGeneral-Regular-54"/>
       </defs>
       <use xlink:href="#STIXGeneral-Regular-54"/>
      </g>
     </g>
    </g>
    <g id="text_7">
     <!-- e(hs_grad | X) -->
     <g style="fill:#555555;" transform="translate(327.842381 378.984375)scale(0.12 -0.12)">
      <defs>
       <path d="M 40.796875 16.40625 
L 42.40625 15.703125 
Q 36.40625 -1 21.5 -1 
Q 12.703125 -1 7.59375 5.140625 
Q 2.5 11.296875 2.5 21.703125 
Q 2.5 32.40625 8.203125 39.203125 
Q 13.90625 46 23.203125 46 
Q 32.203125 46 37.09375 39.09375 
Q 40 35.09375 40.5 27.703125 
L 9.703125 27.703125 
Q 10.09375 21.40625 10.9375 18.09375 
Q 11.796875 14.796875 14.296875 11.40625 
Q 18.5 5.90625 25.40625 5.90625 
Q 30.296875 5.90625 33.640625 8.296875 
Q 37 10.703125 40.796875 16.40625 
z
M 9.90625 30.90625 
L 30.296875 30.90625 
Q 29.40625 37.203125 27.34375 39.796875 
Q 25.296875 42.40625 20.5 42.40625 
Q 16.296875 42.40625 13.5 39.453125 
Q 10.703125 36.5 9.90625 30.90625 
z
" id="STIXGeneral-Regular-101"/>
       <path d="M 30.40625 -16.09375 
L 29.203125 -17.703125 
Q 17.59375 -11.09375 11.1875 0.5 
Q 4.796875 12.09375 4.796875 25.203125 
Q 4.796875 52.90625 29.5 67.59375 
L 30.40625 66 
Q 20.203125 57.296875 16.796875 48.84375 
Q 13.40625 40.40625 13.40625 25.5 
Q 13.40625 10.703125 16.90625 1.5 
Q 20.40625 -7.703125 30.40625 -16.09375 
z
" id="STIXGeneral-Regular-40"/>
       <path d="M 48.703125 0 
L 27.5 0 
L 27.5 1.5 
Q 31.90625 2 33.09375 3.5 
Q 34.296875 5 34.296875 10.203125 
L 34.296875 30 
Q 34.296875 40.59375 26.90625 40.59375 
Q 23.90625 40.59375 21.40625 39.1875 
Q 18.90625 37.796875 15.703125 34.296875 
L 15.703125 10.203125 
Q 15.703125 5 16.890625 3.5 
Q 18.09375 2 22.5 1.5 
L 22.5 0 
L 0.90625 0 
L 0.90625 1.5 
Q 5.203125 2.09375 6.25 3.5 
Q 7.296875 4.90625 7.296875 10.203125 
L 7.296875 57.296875 
Q 7.296875 60.5 6.34375 61.453125 
Q 5.40625 62.40625 2.203125 62.40625 
Q 1.296875 62.40625 1 62.296875 
L 1 63.90625 
L 3.703125 64.703125 
Q 11.40625 67 15.203125 68.296875 
L 15.703125 68 
L 15.703125 37.59375 
Q 19.203125 42.09375 22.59375 44.046875 
Q 26 46 30.40625 46 
Q 42.703125 46 42.703125 30.09375 
L 42.703125 10.203125 
Q 42.703125 5 43.640625 3.640625 
Q 44.59375 2.296875 48.703125 1.5 
z
" id="STIXGeneral-Regular-104"/>
       <path d="M 15.59375 30.09375 
L 26 23.796875 
Q 31 20.796875 32.890625 18.1875 
Q 34.796875 15.59375 34.796875 11.5 
Q 34.796875 6.5 30.640625 2.75 
Q 26.5 -1 20.796875 -1 
Q 16.09375 -1 13.5 -0.09375 
Q 10.796875 0.796875 8.90625 0.796875 
Q 7.203125 0.796875 6.5 -0.40625 
L 5.203125 -0.40625 
L 5.203125 15.296875 
L 6.796875 15.296875 
Q 8.40625 8 11.40625 4.59375 
Q 14.40625 1.203125 19.5 1.203125 
Q 23.203125 1.203125 25.5 3.296875 
Q 27.796875 5.40625 27.796875 8.59375 
Q 27.796875 13.203125 22.5 16.09375 
L 17.09375 19.09375 
Q 5.09375 25.796875 5.09375 33.59375 
Q 5.09375 39.40625 8.84375 42.65625 
Q 12.59375 45.90625 18.90625 45.90625 
Q 23.296875 45.90625 25.59375 44.796875 
Q 27.40625 44 28.40625 44 
Q 29.09375 44 30 45 
L 31.09375 45 
L 31.59375 31.40625 
L 30.09375 31.40625 
Q 28.40625 38.203125 25.84375 40.953125 
Q 23.296875 43.703125 18.796875 43.703125 
Q 15.40625 43.703125 13.34375 42 
Q 11.296875 40.296875 11.296875 36.90625 
Q 11.296875 35.203125 12.4375 33.25 
Q 13.59375 31.296875 15.59375 30.09375 
z
" id="STIXGeneral-Regular-115"/>
       <path d="M 50 -12.5 
L 0 -12.5 
L 0 -7.5 
L 50 -7.5 
z
" id="STIXGeneral-Regular-95"/>
       <path d="M 47 38.796875 
L 38.703125 38.796875 
Q 40.59375 34.5 40.59375 30.40625 
Q 40.59375 22.703125 35.390625 18.796875 
Q 30.203125 14.90625 25 14.90625 
Q 23.90625 14.90625 21.203125 15.203125 
L 19.296875 15.40625 
Q 17.296875 14.796875 15.296875 12.6875 
Q 13.296875 10.59375 13.296875 9.09375 
Q 13.296875 6.796875 21.09375 6.40625 
L 34 5.796875 
Q 39.5 5.59375 42.796875 2.6875 
Q 46.09375 -0.203125 46.09375 -4.90625 
Q 46.09375 -10.703125 40.09375 -15.40625 
Q 31.796875 -21.796875 20.09375 -21.796875 
Q 12.90625 -21.796875 7.84375 -18.9375 
Q 2.796875 -16.09375 2.796875 -12.09375 
Q 2.796875 -9.296875 5 -6.546875 
Q 7.203125 -3.796875 12.59375 0.09375 
Q 9.40625 1.59375 8.34375 2.6875 
Q 7.296875 3.796875 7.296875 5.40625 
Q 7.296875 8.296875 11.90625 12.296875 
Q 14.203125 14.296875 16.203125 16.296875 
Q 11.203125 18.796875 9.046875 21.890625 
Q 6.90625 25 6.90625 29.703125 
Q 6.90625 36.5 11.75 41.25 
Q 16.59375 46 23.59375 46 
Q 27.59375 46 31.59375 44.5 
L 33.796875 43.703125 
Q 36.703125 42.703125 39.296875 42.703125 
L 47 42.703125 
z
M 15.203125 33.796875 
L 15.203125 33.5 
Q 15.203125 26.296875 18.046875 21.84375 
Q 20.90625 17.40625 25.5 17.40625 
Q 28.90625 17.40625 30.90625 19.84375 
Q 32.90625 22.296875 32.90625 26.40625 
Q 32.90625 33 29.90625 38.5 
Q 27.40625 43.203125 22.59375 43.203125 
Q 19.09375 43.203125 17.140625 40.703125 
Q 15.203125 38.203125 15.203125 33.796875 
z
M 43.296875 -6.40625 
Q 43.296875 -3.59375 40.546875 -2.546875 
Q 37.796875 -1.5 30.90625 -1.5 
Q 21 -1.5 14.703125 -0.203125 
Q 11.703125 -3.796875 10.75 -5.4375 
Q 9.796875 -7.09375 9.796875 -8.796875 
Q 9.796875 -12.09375 13.75 -14.09375 
Q 17.703125 -16.09375 24.296875 -16.09375 
Q 32.796875 -16.09375 38.046875 -13.4375 
Q 43.296875 -10.796875 43.296875 -6.40625 
z
" id="STIXGeneral-Regular-103"/>
       <path d="M 16 45.796875 
L 16 36.59375 
Q 19.796875 42 22.34375 44 
Q 24.90625 46 28 46 
Q 30.59375 46 32.046875 44.59375 
Q 33.5 43.203125 33.5 40.703125 
Q 33.5 38.59375 32.453125 37.390625 
Q 31.40625 36.203125 29.59375 36.203125 
Q 27.703125 36.203125 25.59375 38.203125 
Q 24 39.703125 23 39.703125 
Q 20.90625 39.703125 18.453125 36.796875 
Q 16 33.90625 16 31.5 
L 16 9 
Q 16 4.703125 17.703125 3.203125 
Q 19.40625 1.703125 24.5 1.5 
L 24.5 0 
L 0.5 0 
L 0.5 1.5 
Q 5.296875 2.40625 6.4375 3.5 
Q 7.59375 4.59375 7.59375 8.40625 
L 7.59375 33.40625 
Q 7.59375 36.703125 6.84375 38.046875 
Q 6.09375 39.40625 4.203125 39.40625 
Q 2.59375 39.40625 0.703125 39 
L 0.703125 40.59375 
Q 7 42.59375 15.5 46 
z
" id="STIXGeneral-Regular-114"/>
       <path d="M 44.203125 6.59375 
L 44.203125 3.796875 
Q 40.40625 -1 35.203125 -1 
Q 29.5 -1 28.796875 6.296875 
L 28.703125 6.296875 
Q 22.296875 -1 14.203125 -1 
Q 9.5 -1 6.59375 1.75 
Q 3.703125 4.5 3.703125 9.40625 
Q 3.703125 16.40625 10.703125 21.09375 
Q 15.5 24.296875 28.703125 29.203125 
L 28.703125 34.59375 
Q 28.703125 39.09375 26.546875 41.34375 
Q 24.40625 43.59375 20.90625 43.59375 
Q 17.90625 43.59375 15.90625 42.140625 
Q 13.90625 40.703125 13.90625 38.703125 
Q 13.90625 37.796875 14.203125 36.6875 
Q 14.5 35.59375 14.5 34.5 
Q 14.5 33 13.140625 31.703125 
Q 11.796875 30.40625 9.90625 30.40625 
Q 8.203125 30.40625 6.890625 31.703125 
Q 5.59375 33 5.59375 35 
Q 5.59375 39.796875 10.703125 43 
Q 15.40625 46 22.203125 46 
Q 30.296875 46 34 41.5 
Q 35.796875 39.40625 36.296875 37.25 
Q 36.796875 35.09375 36.796875 30.40625 
L 36.796875 11.296875 
Q 36.796875 4.703125 39.90625 4.703125 
Q 41.90625 4.703125 44.203125 6.59375 
z
M 28.703125 12.703125 
L 28.703125 26.796875 
Q 19.5 23.59375 15.90625 20.203125 
Q 12.5 17.09375 12.5 12.5 
Q 12.5 8.703125 14.390625 6.75 
Q 16.296875 4.796875 19.40625 4.796875 
Q 22.703125 4.796875 25.203125 6.40625 
Q 27.296875 7.90625 28 9.203125 
Q 28.703125 10.5 28.703125 12.703125 
z
" id="STIXGeneral-Regular-97"/>
       <path d="M 49.09375 4.203125 
L 34.40625 -1 
L 34 -0.703125 
L 34 5.703125 
Q 29.203125 -1 21.203125 -1 
Q 12.90625 -1 7.796875 4.953125 
Q 2.703125 10.90625 2.703125 20.5 
Q 2.703125 31.09375 8.796875 38.546875 
Q 14.90625 46 23.5 46 
Q 28.90625 46 34 41.703125 
L 34 57.296875 
Q 34 60.40625 33.09375 61.40625 
Q 32.203125 62.40625 29.40625 62.40625 
Q 28 62.40625 27.203125 62.296875 
L 27.203125 63.90625 
Q 36.296875 66.296875 41.90625 68.296875 
L 42.40625 68.09375 
L 42.40625 11.40625 
Q 42.40625 7.90625 43.25 6.796875 
Q 44.09375 5.703125 46.796875 5.703125 
Q 47.40625 5.703125 49.09375 5.796875 
z
M 34 10.203125 
L 34 33.203125 
Q 34 37.203125 30.953125 40.203125 
Q 27.90625 43.203125 23.796875 43.203125 
Q 18.09375 43.203125 14.6875 38.09375 
Q 11.296875 33 11.296875 24.5 
Q 11.296875 15.296875 15.046875 9.75 
Q 18.796875 4.203125 25.09375 4.203125 
Q 29.796875 4.203125 32.5 7.40625 
Q 34 9.09375 34 10.203125 
z
" id="STIXGeneral-Regular-100"/>
       <path id="STIXGeneral-Regular-32"/>
       <path d="M 13.296875 -1.40625 
L 6.703125 -1.40625 
L 6.703125 67.59375 
L 13.296875 67.59375 
z
" id="STIXGeneral-Regular-124"/>
       <path d="M 70.40625 0 
L 40.796875 0 
L 40.796875 1.90625 
L 43.40625 2.09375 
Q 48.40625 2.40625 48.40625 5 
Q 48.40625 7.203125 43.296875 14.796875 
L 33.796875 28.90625 
L 21.90625 14 
Q 16.59375 7.40625 16.59375 5.09375 
Q 16.59375 3.59375 18.25 2.890625 
Q 19.90625 2.203125 24.203125 1.90625 
L 24.203125 0 
L 1 0 
L 1 1.90625 
Q 4.90625 2.296875 7.34375 4.1875 
Q 9.796875 6.09375 15.5 13.296875 
L 31.09375 32.796875 
L 20.5 48.296875 
Q 13.5 58.5 10.390625 61.140625 
Q 7.296875 63.796875 2.203125 64.296875 
L 2.203125 66.203125 
L 32.296875 66.203125 
L 32.296875 64.296875 
L 29.40625 64.203125 
Q 27.09375 64.09375 25.9375 63.5 
Q 24.796875 62.90625 24.796875 61.296875 
Q 24.796875 60.703125 24.9375 60.046875 
Q 25.09375 59.40625 25.546875 58.5 
Q 26 57.59375 26.390625 56.84375 
Q 26.796875 56.09375 27.640625 54.796875 
Q 28.5 53.5 29.09375 52.59375 
Q 29.703125 51.703125 31 49.84375 
Q 32.296875 48 33.09375 46.796875 
L 37.5 40.40625 
L 48.703125 54.40625 
Q 52.703125 59.296875 52.703125 61.09375 
Q 52.703125 62.796875 51.296875 63.5 
Q 49.90625 64.203125 45.90625 64.296875 
L 45.90625 66.203125 
L 69.59375 66.203125 
L 69.59375 64.296875 
Q 64.796875 64 62 62.140625 
Q 59.203125 60.296875 54.40625 54.40625 
L 40.09375 36.703125 
L 59.296875 9.296875 
Q 62.203125 5.09375 64.296875 3.75 
Q 66.40625 2.40625 70.40625 1.90625 
z
" id="STIXGeneral-Regular-88"/>
       <path d="M 2.90625 66 
L 4.09375 67.59375 
Q 15.5 60.796875 22 49.1875 
Q 28.5 37.59375 28.5 24.703125 
Q 28.5 -2.59375 3.796875 -17.703125 
L 2.90625 -16.09375 
Q 13.203125 -7.59375 16.546875 0.84375 
Q 19.90625 9.296875 19.90625 24.40625 
Q 19.90625 39.59375 16.546875 48.75 
Q 13.203125 57.90625 2.90625 66 
z
" id="STIXGeneral-Regular-41"/>
      </defs>
      <use xlink:href="#STIXGeneral-Regular-101"/>
      <use x="44.399994" xlink:href="#STIXGeneral-Regular-40"/>
      <use x="77.699982" xlink:href="#STIXGeneral-Regular-104"/>
      <use x="127.699966" xlink:href="#STIXGeneral-Regular-115"/>
      <use x="166.59996" xlink:href="#STIXGeneral-Regular-95"/>
      <use x="216.599945" xlink:href="#STIXGeneral-Regular-103"/>
      <use x="266.59993" xlink:href="#STIXGeneral-Regular-114"/>
      <use x="299.899918" xlink:href="#STIXGeneral-Regular-97"/>
      <use x="344.299911" xlink:href="#STIXGeneral-Regular-100"/>
      <use x="394.299896" xlink:href="#STIXGeneral-Regular-32"/>
      <use x="419.299881" xlink:href="#STIXGeneral-Regular-124"/>
      <use x="439.299866" xlink:href="#STIXGeneral-Regular-32"/>
      <use x="464.29985" xlink:href="#STIXGeneral-Regular-88"/>
      <use x="536.499832" xlink:href="#STIXGeneral-Regular-41"/>
     </g>
    </g>
   </g>
   <g id="matplotlib.axis_2">
    <g id="ytick_1">
     <g id="line2d_13">
      <path clip-path="url(#p851f211b7d)" d="M 52.7 322.608831 
L 671.362261 322.608831 
" style="fill:none;stroke:#ffffff;stroke-linecap:square;stroke-width:0.8;"/>
     </g>
     <g id="line2d_14">
      <defs>
       <path d="M 0 0 
L -3.5 0 
" id="m631e943b6d" style="stroke:#555555;stroke-width:0.8;"/>
      </defs>
      <g>
       <use style="fill:#555555;stroke:#555555;stroke-width:0.8;" x="52.7" xlink:href="#m631e943b6d" y="322.608831"/>
      </g>
     </g>
     <g id="text_8">
      <!-- −4 -->
      <g style="fill:#555555;" transform="translate(22 329.438518)scale(0.2 -0.2)">
       <use xlink:href="#STIXGeneral-Regular-8722"/>
       <use x="68.499985" xlink:href="#STIXGeneral-Regular-52"/>
      </g>
     </g>
    </g>
    <g id="ytick_2">
     <g id="line2d_15">
      <path clip-path="url(#p851f211b7d)" d="M 52.7 255.33539 
L 671.362261 255.33539 
" style="fill:none;stroke:#ffffff;stroke-linecap:square;stroke-width:0.8;"/>
     </g>
     <g id="line2d_16">
      <g>
       <use style="fill:#555555;stroke:#555555;stroke-width:0.8;" x="52.7" xlink:href="#m631e943b6d" y="255.33539"/>
      </g>
     </g>
     <g id="text_9">
      <!-- −2 -->
      <g style="fill:#555555;" transform="translate(22 262.165077)scale(0.2 -0.2)">
       <use xlink:href="#STIXGeneral-Regular-8722"/>
       <use x="68.499985" xlink:href="#STIXGeneral-Regular-50"/>
      </g>
     </g>
    </g>
    <g id="ytick_3">
     <g id="line2d_17">
      <path clip-path="url(#p851f211b7d)" d="M 52.7 188.061949 
L 671.362261 188.061949 
" style="fill:none;stroke:#ffffff;stroke-linecap:square;stroke-width:0.8;"/>
     </g>
     <g id="line2d_18">
      <g>
       <use style="fill:#555555;stroke:#555555;stroke-width:0.8;" x="52.7" xlink:href="#m631e943b6d" y="188.061949"/>
      </g>
     </g>
     <g id="text_10">
      <!-- 0 -->
      <g style="fill:#555555;" transform="translate(35.7 194.891637)scale(0.2 -0.2)">
       <use xlink:href="#STIXGeneral-Regular-48"/>
      </g>
     </g>
    </g>
    <g id="ytick_4">
     <g id="line2d_19">
      <path clip-path="url(#p851f211b7d)" d="M 52.7 120.788508 
L 671.362261 120.788508 
" style="fill:none;stroke:#ffffff;stroke-linecap:square;stroke-width:0.8;"/>
     </g>
     <g id="line2d_20">
      <g>
       <use style="fill:#555555;stroke:#555555;stroke-width:0.8;" x="52.7" xlink:href="#m631e943b6d" y="120.788508"/>
      </g>
     </g>
     <g id="text_11">
      <!-- 2 -->
      <g style="fill:#555555;" transform="translate(35.7 127.618196)scale(0.2 -0.2)">
       <use xlink:href="#STIXGeneral-Regular-50"/>
      </g>
     </g>
    </g>
    <g id="ytick_5">
     <g id="line2d_21">
      <path clip-path="url(#p851f211b7d)" d="M 52.7 53.515068 
L 671.362261 53.515068 
" style="fill:none;stroke:#ffffff;stroke-linecap:square;stroke-width:0.8;"/>
     </g>
     <g id="line2d_22">
      <g>
       <use style="fill:#555555;stroke:#555555;stroke-width:0.8;" x="52.7" xlink:href="#m631e943b6d" y="53.515068"/>
      </g>
     </g>
     <g id="text_12">
      <!-- 4 -->
      <g style="fill:#555555;" transform="translate(35.7 60.344755)scale(0.2 -0.2)">
       <use xlink:href="#STIXGeneral-Regular-52"/>
      </g>
     </g>
    </g>
    <g id="text_13">
     <!-- e(murder | X) -->
     <g style="fill:#555555;" transform="translate(15.395625 214.93175)rotate(-90)scale(0.12 -0.12)">
      <defs>
       <path d="M 77.5 0 
L 55.703125 0 
L 55.703125 1.5 
Q 59.90625 1.90625 61.046875 3.25 
Q 62.203125 4.59375 62.203125 9 
L 62.203125 29.59375 
Q 62.203125 35.59375 60.453125 38.1875 
Q 58.703125 40.796875 54.5 40.796875 
Q 51 40.796875 48.546875 39.390625 
Q 46.09375 38 43.796875 34.703125 
L 43.796875 9.5 
Q 43.796875 4.703125 45.25 3.140625 
Q 46.703125 1.59375 51 1.5 
L 51 0 
L 28.59375 0 
L 28.59375 1.5 
Q 33 1.796875 34.203125 2.9375 
Q 35.40625 4.09375 35.40625 8.59375 
L 35.40625 29.703125 
Q 35.40625 40.796875 28.90625 40.796875 
Q 26.09375 40.796875 22.9375 39.546875 
Q 19.796875 38.296875 18.296875 36.5 
Q 17 35 17 34.796875 
L 17 7 
Q 17 3.796875 18.390625 2.75 
Q 19.796875 1.703125 23.796875 1.5 
L 23.796875 0 
L 1.59375 0 
L 1.59375 1.5 
Q 5.796875 1.59375 7.1875 3.046875 
Q 8.59375 4.5 8.59375 8.796875 
L 8.59375 33.59375 
Q 8.59375 37.296875 7.796875 38.75 
Q 7 40.203125 5.09375 40.203125 
Q 3.59375 40.203125 1.90625 39.796875 
L 1.90625 41.5 
Q 8.703125 43.40625 15.796875 46 
L 16.59375 45.703125 
L 16.59375 38.296875 
L 16.796875 38.296875 
Q 21.296875 43 24.75 44.5 
Q 28.203125 46 32.09375 46 
Q 40 46 42.703125 37.59375 
Q 50.5 46 59 46 
Q 70.59375 46 70.59375 28 
L 70.59375 7.703125 
Q 70.59375 4.40625 71.59375 3.15625 
Q 72.59375 1.90625 74.90625 1.703125 
L 77.5 1.5 
z
" id="STIXGeneral-Regular-109"/>
       <path d="M 48 5 
L 48 3.59375 
Q 40.203125 1.5 34.296875 -0.90625 
L 33.796875 -0.59375 
L 33.796875 7.59375 
L 33.59375 7.59375 
Q 27.296875 -1 19.296875 -1 
Q 13.59375 -1 10.34375 2.5 
Q 7.09375 6 7.09375 11.796875 
L 7.09375 36.90625 
Q 7.09375 40.59375 5.796875 42 
Q 4.5 43.40625 0.90625 43.59375 
L 0.90625 45 
L 15.5 45 
L 15.5 12.703125 
Q 15.5 9.296875 17.546875 7.046875 
Q 19.59375 4.796875 22.59375 4.796875 
Q 27.5 4.796875 31 7.90625 
Q 32.296875 9.09375 32.796875 10.140625 
Q 33.296875 11.203125 33.296875 13.703125 
L 33.296875 36.796875 
Q 33.296875 40.703125 31.890625 41.84375 
Q 30.5 43 25.90625 43.296875 
L 25.90625 45 
L 41.703125 45 
L 41.703125 10.703125 
Q 41.703125 7.203125 42.84375 6.09375 
Q 44 5 47.40625 5 
z
" id="STIXGeneral-Regular-117"/>
      </defs>
      <use xlink:href="#STIXGeneral-Regular-101"/>
      <use x="44.399994" xlink:href="#STIXGeneral-Regular-40"/>
      <use x="77.699982" xlink:href="#STIXGeneral-Regular-109"/>
      <use x="155.499969" xlink:href="#STIXGeneral-Regular-117"/>
      <use x="205.499954" xlink:href="#STIXGeneral-Regular-114"/>
      <use x="238.799942" xlink:href="#STIXGeneral-Regular-100"/>
      <use x="288.799927" xlink:href="#STIXGeneral-Regular-101"/>
      <use x="333.199921" xlink:href="#STIXGeneral-Regular-114"/>
      <use x="366.499908" xlink:href="#STIXGeneral-Regular-32"/>
      <use x="391.499893" xlink:href="#STIXGeneral-Regular-124"/>
      <use x="411.499878" xlink:href="#STIXGeneral-Regular-32"/>
      <use x="436.499863" xlink:href="#STIXGeneral-Regular-88"/>
      <use x="508.699844" xlink:href="#STIXGeneral-Regular-41"/>
     </g>
    </g>
   </g>
   <g id="line2d_23">
    <defs>
     <path d="M 0 3 
C 0.795609 3 1.55874 2.683901 2.12132 2.12132 
C 2.683901 1.55874 3 0.795609 3 0 
C 3 -0.795609 2.683901 -1.55874 2.12132 -2.12132 
C 1.55874 -2.683901 0.795609 -3 0 -3 
C -0.795609 -3 -1.55874 -2.683901 -2.12132 -2.12132 
C -2.683901 -1.55874 -3 -0.795609 -3 0 
C -3 0.795609 -2.683901 1.55874 -2.12132 2.12132 
C -1.55874 2.683901 -0.795609 3 0 3 
z
" id="mf897a84457" style="stroke:#e24a33;"/>
    </defs>
    <g clip-path="url(#p851f211b7d)">
     <use style="fill:#e24a33;stroke:#e24a33;" x="197.035177" xlink:href="#mf897a84457" y="214.903565"/>
     <use style="fill:#e24a33;stroke:#e24a33;" x="287.707223" xlink:href="#mf897a84457" y="228.626592"/>
     <use style="fill:#e24a33;stroke:#e24a33;" x="328.883489" xlink:href="#mf897a84457" y="189.961439"/>
     <use style="fill:#e24a33;stroke:#e24a33;" x="239.250167" xlink:href="#mf897a84457" y="192.970426"/>
     <use style="fill:#e24a33;stroke:#e24a33;" x="80.821012" xlink:href="#mf897a84457" y="224.25165"/>
     <use style="fill:#e24a33;stroke:#e24a33;" x="416.219176" xlink:href="#mf897a84457" y="158.474155"/>
     <use style="fill:#e24a33;stroke:#e24a33;" x="261.115827" xlink:href="#mf897a84457" y="221.65067"/>
     <use style="fill:#e24a33;stroke:#e24a33;" x="226.187517" xlink:href="#mf897a84457" y="231.953199"/>
     <use style="fill:#e24a33;stroke:#e24a33;" x="643.241249" xlink:href="#mf897a84457" y="37.523568"/>
     <use style="fill:#e24a33;stroke:#e24a33;" x="336.163686" xlink:href="#mf897a84457" y="199.588432"/>
     <use style="fill:#e24a33;stroke:#e24a33;" x="285.566318" xlink:href="#mf897a84457" y="250.814647"/>
     <use style="fill:#e24a33;stroke:#e24a33;" x="362.865595" xlink:href="#mf897a84457" y="296.334005"/>
     <use style="fill:#e24a33;stroke:#e24a33;" x="362.060884" xlink:href="#mf897a84457" y="175.898994"/>
     <use style="fill:#e24a33;stroke:#e24a33;" x="304.919599" xlink:href="#mf897a84457" y="82.041673"/>
     <use style="fill:#e24a33;stroke:#e24a33;" x="308.01542" xlink:href="#mf897a84457" y="163.206508"/>
     <use style="fill:#e24a33;stroke:#e24a33;" x="343.281196" xlink:href="#mf897a84457" y="198.090916"/>
     <use style="fill:#e24a33;stroke:#e24a33;" x="395.59395" xlink:href="#mf897a84457" y="143.57196"/>
     <use style="fill:#e24a33;stroke:#e24a33;" x="197.814143" xlink:href="#mf897a84457" y="240.072366"/>
     <use style="fill:#e24a33;stroke:#e24a33;" x="228.710951" xlink:href="#mf897a84457" y="87.796658"/>
     <use style="fill:#e24a33;stroke:#e24a33;" x="315.398838" xlink:href="#mf897a84457" y="214.943856"/>
     <use style="fill:#e24a33;stroke:#e24a33;" x="229.955284" xlink:href="#mf897a84457" y="110.560715"/>
     <use style="fill:#e24a33;stroke:#e24a33;" x="331.78494" xlink:href="#mf897a84457" y="235.724363"/>
     <use style="fill:#e24a33;stroke:#e24a33;" x="467.358606" xlink:href="#mf897a84457" y="161.17041"/>
     <use style="fill:#e24a33;stroke:#e24a33;" x="398.660221" xlink:href="#mf897a84457" y="182.951734"/>
     <use style="fill:#e24a33;stroke:#e24a33;" x="253.144857" xlink:href="#mf897a84457" y="327.299932"/>
     <use style="fill:#e24a33;stroke:#e24a33;" x="321.712369" xlink:href="#mf897a84457" y="137.690872"/>
     <use style="fill:#e24a33;stroke:#e24a33;" x="459.723018" xlink:href="#mf897a84457" y="153.382221"/>
     <use style="fill:#e24a33;stroke:#e24a33;" x="359.615353" xlink:href="#mf897a84457" y="171.379843"/>
     <use style="fill:#e24a33;stroke:#e24a33;" x="163.393307" xlink:href="#mf897a84457" y="213.190267"/>
     <use style="fill:#e24a33;stroke:#e24a33;" x="257.246791" xlink:href="#mf897a84457" y="176.748941"/>
     <use style="fill:#e24a33;stroke:#e24a33;" x="220.735575" xlink:href="#mf897a84457" y="213.972043"/>
     <use style="fill:#e24a33;stroke:#e24a33;" x="265.213845" xlink:href="#mf897a84457" y="121.404933"/>
     <use style="fill:#e24a33;stroke:#e24a33;" x="272.460901" xlink:href="#mf897a84457" y="322.768643"/>
     <use style="fill:#e24a33;stroke:#e24a33;" x="266.136458" xlink:href="#mf897a84457" y="208.195005"/>
     <use style="fill:#e24a33;stroke:#e24a33;" x="311.183152" xlink:href="#mf897a84457" y="130.050099"/>
     <use style="fill:#e24a33;stroke:#e24a33;" x="409.420791" xlink:href="#mf897a84457" y="214.547987"/>
     <use style="fill:#e24a33;stroke:#e24a33;" x="304.043369" xlink:href="#mf897a84457" y="163.442096"/>
     <use style="fill:#e24a33;stroke:#e24a33;" x="432.716824" xlink:href="#mf897a84457" y="225.287005"/>
     <use style="fill:#e24a33;stroke:#e24a33;" x="320.926803" xlink:href="#mf897a84457" y="148.425369"/>
     <use style="fill:#e24a33;stroke:#e24a33;" x="172.767392" xlink:href="#mf897a84457" y="280.273153"/>
     <use style="fill:#e24a33;stroke:#e24a33;" x="270.934001" xlink:href="#mf897a84457" y="212.714525"/>
     <use style="fill:#e24a33;stroke:#e24a33;" x="386.511254" xlink:href="#mf897a84457" y="145.304605"/>
     <use style="fill:#e24a33;stroke:#e24a33;" x="238.664815" xlink:href="#mf897a84457" y="145.161621"/>
     <use style="fill:#e24a33;stroke:#e24a33;" x="136.474033" xlink:href="#mf897a84457" y="237.575497"/>
     <use style="fill:#e24a33;stroke:#e24a33;" x="416.075833" xlink:href="#mf897a84457" y="137.501914"/>
     <use style="fill:#e24a33;stroke:#e24a33;" x="295.030708" xlink:href="#mf897a84457" y="220.215465"/>
     <use style="fill:#e24a33;stroke:#e24a33;" x="169.530846" xlink:href="#mf897a84457" y="151.128842"/>
     <use style="fill:#e24a33;stroke:#e24a33;" x="408.034307" xlink:href="#mf897a84457" y="185.878698"/>
     <use style="fill:#e24a33;stroke:#e24a33;" x="192.189467" xlink:href="#mf897a84457" y="172.020538"/>
     <use style="fill:#e24a33;stroke:#e24a33;" x="371.140081" xlink:href="#mf897a84457" y="195.630035"/>
     <use style="fill:#e24a33;stroke:#e24a33;" x="280.480603" xlink:href="#mf897a84457" y="136.886756"/>
    </g>
   </g>
   <g id="line2d_24">
    <path clip-path="url(#p851f211b7d)" d="M 52.7 240.02938 
L 671.362261 112.094663 
" style="fill:none;stroke:#000000;stroke-linecap:square;stroke-width:4;"/>
   </g>
   <g id="patch_3">
    <path d="M 52.7 341.78875 
L 52.7 23.03475 
" style="fill:none;stroke:#ffffff;stroke-linecap:square;stroke-linejoin:miter;"/>
   </g>
   <g id="patch_4">
    <path d="M 671.362261 341.78875 
L 671.362261 23.03475 
" style="fill:none;stroke:#ffffff;stroke-linecap:square;stroke-linejoin:miter;"/>
   </g>
   <g id="patch_5">
    <path d="M 52.7 341.78875 
L 671.362261 341.78875 
" style="fill:none;stroke:#ffffff;stroke-linecap:square;stroke-linejoin:miter;"/>
   </g>
   <g id="patch_6">
    <path d="M 52.7 23.03475 
L 671.362261 23.03475 
" style="fill:none;stroke:#ffffff;stroke-linecap:square;stroke-linejoin:miter;"/>
   </g>
   <g id="text_14">
    <!-- Alabama -->
    <g transform="translate(171.042052 206.778315)scale(0.144 -0.144)">
     <defs>
      <path d="M 70.703125 0 
L 45.203125 0 
L 45.203125 1.90625 
Q 49.203125 1.90625 50.703125 2.796875 
Q 52.09375 3.5 52.09375 5.203125 
Q 52.09375 7.796875 50.203125 12.203125 
L 46.09375 21.59375 
L 19.90625 21.59375 
L 15.296875 10.203125 
Q 14.40625 7.90625 14.40625 6 
Q 14.40625 3.703125 16.046875 2.796875 
Q 17.703125 1.90625 21.40625 1.90625 
L 21.40625 0 
L 1.5 0 
L 1.5 1.90625 
Q 5.703125 2.296875 7.59375 4.9375 
Q 9.5 7.59375 14.09375 18.59375 
L 34.703125 67.40625 
L 36.703125 67.40625 
L 61.296875 11.09375 
Q 63.5 5.90625 65.25 4.09375 
Q 67 2.296875 70.703125 1.90625 
z
M 44.703125 25.703125 
L 33.09375 53.203125 
L 21.59375 25.703125 
z
" id="STIXGeneral-Regular-65"/>
      <path d="M 25.703125 0 
L 2.09375 0 
L 2.09375 1.5 
Q 6.796875 1.90625 8.296875 3.453125 
Q 9.796875 5 9.796875 9.203125 
L 9.796875 56.09375 
Q 9.796875 59.703125 8.890625 61.09375 
Q 8 62.5 5.59375 62.5 
Q 3.5 62.5 1.90625 62.296875 
L 1.90625 63.90625 
Q 11.40625 66.203125 17.703125 68.296875 
L 18.203125 67.90625 
L 18.203125 8.703125 
Q 18.203125 4.5 19.59375 3.140625 
Q 21 1.796875 25.703125 1.5 
z
" id="STIXGeneral-Regular-108"/>
      <path d="M 15.296875 68.09375 
L 15.296875 37.59375 
Q 16.90625 41.40625 20.546875 43.703125 
Q 24.203125 46 28.796875 46 
Q 36.703125 46 41.75 39.703125 
Q 46.796875 33.40625 46.796875 24 
Q 46.796875 13 40.09375 6 
Q 33.40625 -1 23.40625 -1 
Q 17.296875 -1 12.09375 1.046875 
Q 6.90625 3.09375 6.90625 5.59375 
L 6.90625 56.59375 
Q 6.90625 60.296875 6 61.34375 
Q 5.09375 62.40625 2 62.40625 
Q 1.296875 62.40625 0.296875 62.203125 
L 0.296875 63.90625 
L 3.296875 64.796875 
Q 13.5 67.90625 14.796875 68.296875 
z
M 15.296875 31.796875 
L 15.296875 7.40625 
Q 15.296875 5.09375 18.140625 3.640625 
Q 21 2.203125 25 2.203125 
Q 30.90625 2.203125 34.296875 6.5 
Q 38 11.09375 38 19.703125 
Q 38 29.5 34.09375 35 
Q 30.796875 39.703125 25.203125 39.703125 
Q 21.203125 39.703125 18.25 37.34375 
Q 15.296875 35 15.296875 31.796875 
z
" id="STIXGeneral-Regular-98"/>
     </defs>
     <use xlink:href="#STIXGeneral-Regular-65"/>
     <use x="72.199982" xlink:href="#STIXGeneral-Regular-108"/>
     <use x="99.999969" xlink:href="#STIXGeneral-Regular-97"/>
     <use x="144.399963" xlink:href="#STIXGeneral-Regular-98"/>
     <use x="194.399948" xlink:href="#STIXGeneral-Regular-97"/>
     <use x="238.799942" xlink:href="#STIXGeneral-Regular-109"/>
     <use x="316.59993" xlink:href="#STIXGeneral-Regular-97"/>
    </g>
   </g>
   <g id="text_15">
    <!-- Alaska -->
    <g transform="translate(267.711473 220.501342)scale(0.144 -0.144)">
     <defs>
      <path d="M 50.5 0 
L 28.703125 0 
L 28.703125 1.5 
L 30.59375 1.5 
Q 32.703125 1.5 32.703125 3 
Q 32.703125 3.90625 31.59375 5.296875 
L 16.59375 25.09375 
L 16.59375 6.703125 
Q 16.59375 4.09375 17.84375 2.890625 
Q 19.09375 1.703125 22.09375 1.59375 
L 24.09375 1.5 
L 24.09375 0 
L 0.703125 0 
L 0.703125 1.5 
Q 6.09375 2.40625 7.140625 3.34375 
Q 8.203125 4.296875 8.203125 8.203125 
L 8.203125 56.40625 
Q 8.203125 60 7.296875 61.25 
Q 6.40625 62.5 3.90625 62.5 
Q 3.296875 62.5 0.703125 62.296875 
L 0.703125 63.90625 
L 3.703125 64.703125 
Q 9.703125 66.296875 16.203125 68.296875 
L 16.59375 68.09375 
L 16.59375 26.09375 
L 30.296875 38.296875 
Q 32.59375 40.40625 32.59375 41.796875 
Q 32.59375 42.796875 31.546875 43.140625 
Q 30.5 43.5 27.59375 43.59375 
L 27.59375 45 
L 48 45 
L 48 43.5 
Q 43 43.5 39.140625 41.34375 
Q 35.296875 39.203125 26.40625 30.90625 
L 23.5 28.203125 
L 38.796875 8.796875 
Q 44.203125 1.90625 50.5 1.5 
z
" id="STIXGeneral-Regular-107"/>
     </defs>
     <use xlink:href="#STIXGeneral-Regular-65"/>
     <use x="72.199982" xlink:href="#STIXGeneral-Regular-108"/>
     <use x="99.999969" xlink:href="#STIXGeneral-Regular-97"/>
     <use x="144.399963" xlink:href="#STIXGeneral-Regular-115"/>
     <use x="183.299957" xlink:href="#STIXGeneral-Regular-107"/>
     <use x="233.299942" xlink:href="#STIXGeneral-Regular-97"/>
    </g>
   </g>
   <g id="text_16">
    <!-- Arizona -->
    <g transform="translate(305.691614 181.836189)scale(0.144 -0.144)">
     <defs>
      <path d="M 18 63.203125 
Q 18 61 16.5 59.546875 
Q 15 58.09375 12.796875 58.09375 
Q 10.703125 58.09375 9.25 59.546875 
Q 7.796875 61 7.796875 63.203125 
Q 7.796875 65.296875 9.296875 66.796875 
Q 10.796875 68.296875 12.90625 68.296875 
Q 15.09375 68.296875 16.546875 66.796875 
Q 18 65.296875 18 63.203125 
z
M 25.296875 0 
L 1.59375 0 
L 1.59375 1.5 
Q 6.796875 1.796875 8.140625 3.296875 
Q 9.5 4.796875 9.5 10.40625 
L 9.5 33.09375 
Q 9.5 36.59375 8.796875 38 
Q 8.09375 39.40625 6.203125 39.40625 
Q 3.796875 39.40625 2 38.90625 
L 2 40.5 
L 17.5 46 
L 17.90625 45.59375 
L 17.90625 10.5 
Q 17.90625 4.90625 19.15625 3.40625 
Q 20.40625 1.90625 25.296875 1.5 
z
" id="STIXGeneral-Regular-105"/>
      <path d="M 41.796875 13.59375 
L 40.296875 0 
L 2.703125 0 
L 2.703125 1.5 
L 29.296875 42 
L 15.796875 42 
Q 11.09375 42 9.4375 40.34375 
Q 7.796875 38.703125 7.09375 33.203125 
L 5.296875 33.203125 
L 5.703125 45 
L 40.296875 45 
L 40.296875 43.5 
L 13.40625 3 
L 26.703125 3 
Q 35.09375 3 37.296875 5.703125 
Q 38.703125 7.40625 40 14 
z
" id="STIXGeneral-Regular-122"/>
      <path d="M 47 23.09375 
Q 47 12.59375 40.75 5.796875 
Q 34.5 -1 24.5 -1 
Q 15.296875 -1 9.09375 5.75 
Q 2.90625 12.5 2.90625 22.796875 
Q 2.90625 33.203125 9.09375 39.59375 
Q 15.296875 46 25.40625 46 
Q 34.703125 46 40.84375 39.640625 
Q 47 33.296875 47 23.09375 
z
M 38 20.40625 
Q 38 31.796875 33 38.203125 
Q 29 43.203125 23.5 43.203125 
Q 18.296875 43.203125 15.09375 38.953125 
Q 11.90625 34.703125 11.90625 27.296875 
Q 11.90625 14.5 17.203125 6.796875 
Q 20.59375 1.796875 26.203125 1.796875 
Q 31.703125 1.796875 34.84375 6.75 
Q 38 11.703125 38 20.40625 
z
" id="STIXGeneral-Regular-111"/>
      <path d="M 48.5 0 
L 27.703125 0 
L 27.796875 1.5 
Q 31.5 1.796875 32.75 3.640625 
Q 34 5.5 34 10.5 
L 34 30.40625 
Q 34 40.5 26.703125 40.5 
Q 24.203125 40.5 22 39.296875 
Q 19.796875 38.09375 16.40625 34.796875 
L 16.40625 7.203125 
Q 16.40625 4.203125 17.75 3 
Q 19.09375 1.796875 22.90625 1.5 
L 22.90625 0 
L 1.796875 0 
L 1.796875 1.5 
Q 5.59375 1.796875 6.796875 3.34375 
Q 8 4.90625 8 9.40625 
L 8 33.703125 
Q 8 37.40625 7.296875 38.796875 
Q 6.59375 40.203125 4.5 40.203125 
Q 2.5 40.203125 1.59375 39.796875 
L 1.59375 41.5 
Q 8.59375 43.5 15.296875 46 
L 16.09375 45.703125 
L 16.09375 37.90625 
L 16.203125 37.90625 
Q 23.296875 46 30.59375 46 
Q 36.296875 46 39.34375 42 
Q 42.40625 38 42.40625 30.59375 
L 42.40625 8.5 
Q 42.40625 4.5 43.59375 3.203125 
Q 44.796875 1.90625 48.5 1.5 
z
" id="STIXGeneral-Regular-110"/>
     </defs>
     <use xlink:href="#STIXGeneral-Regular-65"/>
     <use x="72.199982" xlink:href="#STIXGeneral-Regular-114"/>
     <use x="105.499969" xlink:href="#STIXGeneral-Regular-105"/>
     <use x="133.299957" xlink:href="#STIXGeneral-Regular-122"/>
     <use x="177.699951" xlink:href="#STIXGeneral-Regular-111"/>
     <use x="227.699936" xlink:href="#STIXGeneral-Regular-110"/>
     <use x="277.699921" xlink:href="#STIXGeneral-Regular-97"/>
    </g>
   </g>
   <g id="text_17">
    <!-- Arkansas -->
    <g transform="translate(212.457167 184.845176)scale(0.144 -0.144)">
     <use xlink:href="#STIXGeneral-Regular-65"/>
     <use x="72.199982" xlink:href="#STIXGeneral-Regular-114"/>
     <use x="105.499969" xlink:href="#STIXGeneral-Regular-107"/>
     <use x="155.499954" xlink:href="#STIXGeneral-Regular-97"/>
     <use x="199.899948" xlink:href="#STIXGeneral-Regular-110"/>
     <use x="249.899933" xlink:href="#STIXGeneral-Regular-115"/>
     <use x="288.799927" xlink:href="#STIXGeneral-Regular-97"/>
     <use x="333.199921" xlink:href="#STIXGeneral-Regular-115"/>
    </g>
   </g>
   <g id="text_18">
    <!-- California -->
    <g transform="translate(51.625012 216.1264)scale(0.144 -0.144)">
     <defs>
      <path d="M 61.40625 13.09375 
L 63.296875 11.296875 
Q 54.40625 -1.40625 36 -1.40625 
Q 21.5 -1.40625 12.40625 7.5 
Q 2.796875 16.90625 2.796875 32.5 
Q 2.796875 47.09375 11.796875 57.203125 
Q 21.203125 67.59375 36.09375 67.59375 
Q 42.5 67.59375 48 66.09375 
Q 54.296875 64.296875 54.90625 64.296875 
Q 58.203125 64.296875 59.09375 67.59375 
L 61.09375 67.59375 
L 62 44.90625 
L 59.703125 44.90625 
Q 58.09375 52.09375 54.5 56 
Q 47.40625 63.59375 38.40625 63.59375 
Q 27.296875 63.59375 20.84375 55.4375 
Q 14.40625 47.296875 14.40625 34.09375 
Q 14.40625 18 21.59375 10.203125 
Q 28.296875 3 39.40625 3 
Q 46 3 50.796875 5.296875 
Q 55.59375 7.59375 61.40625 13.09375 
z
" id="STIXGeneral-Regular-67"/>
      <path d="M 2.09375 45 
L 10.296875 45 
Q 10.40625 51 11.09375 54.34375 
Q 11.796875 57.703125 13.796875 61.09375 
Q 18 68.296875 27.90625 68.296875 
Q 32.40625 68.296875 35.34375 66.546875 
Q 38.296875 64.796875 38.296875 62.09375 
Q 38.296875 60.40625 37.09375 59.203125 
Q 35.90625 58 34.09375 58 
Q 31.703125 58 29.59375 61.59375 
Q 27.203125 65.5 24.296875 65.5 
Q 18.703125 65.5 18.703125 56.59375 
L 18.703125 45 
L 30.90625 45 
L 30.90625 41.796875 
L 18.703125 41.796875 
L 18.703125 10.40625 
Q 18.703125 4.796875 20.296875 3.25 
Q 21.90625 1.703125 28 1.5 
L 28 0 
L 2 0 
L 2 1.5 
Q 7.40625 1.796875 8.84375 3.34375 
Q 10.296875 4.90625 10.296875 10.40625 
L 10.296875 41.796875 
L 2.09375 41.796875 
z
" id="STIXGeneral-Regular-102"/>
     </defs>
     <use xlink:href="#STIXGeneral-Regular-67"/>
     <use x="66.699997" xlink:href="#STIXGeneral-Regular-97"/>
     <use x="111.099991" xlink:href="#STIXGeneral-Regular-108"/>
     <use x="138.899979" xlink:href="#STIXGeneral-Regular-105"/>
     <use x="166.699966" xlink:href="#STIXGeneral-Regular-102"/>
     <use x="199.999954" xlink:href="#STIXGeneral-Regular-111"/>
     <use x="249.999939" xlink:href="#STIXGeneral-Regular-114"/>
     <use x="283.299927" xlink:href="#STIXGeneral-Regular-110"/>
     <use x="333.299911" xlink:href="#STIXGeneral-Regular-105"/>
     <use x="361.099899" xlink:href="#STIXGeneral-Regular-97"/>
    </g>
   </g>
   <g id="text_19">
    <!-- Colorado -->
    <g transform="translate(389.420551 150.348905)scale(0.144 -0.144)">
     <use xlink:href="#STIXGeneral-Regular-67"/>
     <use x="66.699997" xlink:href="#STIXGeneral-Regular-111"/>
     <use x="116.699982" xlink:href="#STIXGeneral-Regular-108"/>
     <use x="144.499969" xlink:href="#STIXGeneral-Regular-111"/>
     <use x="194.499954" xlink:href="#STIXGeneral-Regular-114"/>
     <use x="227.799942" xlink:href="#STIXGeneral-Regular-97"/>
     <use x="272.199936" xlink:href="#STIXGeneral-Regular-100"/>
     <use x="322.199921" xlink:href="#STIXGeneral-Regular-111"/>
    </g>
   </g>
   <g id="text_20">
    <!-- Connecticut -->
    <g transform="translate(226.317327 213.52542)scale(0.144 -0.144)">
     <defs>
      <path d="M 39.796875 15.59375 
L 41.203125 14.703125 
Q 36.90625 6.296875 33 3.203125 
Q 27.90625 -1 21.5 -1 
Q 13.203125 -1 7.84375 5.25 
Q 2.5 11.5 2.5 21.203125 
Q 2.5 33.90625 10.90625 40.90625 
Q 17.09375 46 24.40625 46 
Q 30.703125 46 35.25 42.953125 
Q 39.796875 39.90625 39.796875 35.703125 
Q 39.796875 34 38.390625 32.75 
Q 37 31.5 35.09375 31.5 
Q 31.59375 31.5 30.296875 36.09375 
L 29.703125 38.296875 
Q 28.90625 41.09375 27.703125 42.09375 
Q 26.5 43.09375 23.796875 43.09375 
Q 17.703125 43.09375 13.953125 38.296875 
Q 10.203125 33.5 10.203125 25.703125 
Q 10.203125 17.09375 14.5 11.640625 
Q 18.796875 6.203125 25.703125 6.203125 
Q 30 6.203125 33.09375 8.25 
Q 36.203125 10.296875 39.796875 15.59375 
z
" id="STIXGeneral-Regular-99"/>
      <path d="M 26.59375 7.703125 
L 27.90625 6.59375 
Q 23.09375 -1 15.796875 -1 
Q 7 -1 7 11.703125 
L 7 41.796875 
L 1.703125 41.796875 
Q 1.296875 42.09375 1.296875 42.5 
Q 1.296875 43.296875 3 44.40625 
Q 6.796875 46.59375 12.703125 55.09375 
Q 12.90625 55.40625 13.65625 56.34375 
Q 14.40625 57.296875 14.703125 57.90625 
Q 15.40625 57.90625 15.40625 56.59375 
L 15.40625 45 
L 25.5 45 
L 25.5 41.796875 
L 15.40625 41.796875 
L 15.40625 13.203125 
Q 15.40625 8.40625 16.59375 6.296875 
Q 17.796875 4.203125 20.59375 4.203125 
Q 23.59375 4.203125 26.59375 7.703125 
z
" id="STIXGeneral-Regular-116"/>
     </defs>
     <use xlink:href="#STIXGeneral-Regular-67"/>
     <use x="66.699997" xlink:href="#STIXGeneral-Regular-111"/>
     <use x="116.699982" xlink:href="#STIXGeneral-Regular-110"/>
     <use x="166.699966" xlink:href="#STIXGeneral-Regular-110"/>
     <use x="216.699951" xlink:href="#STIXGeneral-Regular-101"/>
     <use x="261.099945" xlink:href="#STIXGeneral-Regular-99"/>
     <use x="305.499939" xlink:href="#STIXGeneral-Regular-116"/>
     <use x="333.299927" xlink:href="#STIXGeneral-Regular-105"/>
     <use x="361.099915" xlink:href="#STIXGeneral-Regular-99"/>
     <use x="405.499908" xlink:href="#STIXGeneral-Regular-117"/>
     <use x="455.499893" xlink:href="#STIXGeneral-Regular-116"/>
    </g>
   </g>
   <g id="text_21">
    <!-- Delaware -->
    <g transform="translate(198.602517 223.827949)scale(0.144 -0.144)">
     <defs>
      <path d="M 1.59375 66.203125 
L 28.59375 66.203125 
Q 48.09375 66.203125 58.59375 57.09375 
Q 68.5 48.59375 68.5 33.40625 
Q 68.5 15.09375 54.90625 6.40625 
Q 45 0 29.703125 0 
L 1.59375 0 
L 1.59375 1.90625 
Q 7.40625 2.296875 8.90625 3.9375 
Q 10.40625 5.59375 10.40625 11.5 
L 10.40625 55 
Q 10.40625 60.796875 8.90625 62.34375 
Q 7.40625 63.90625 1.59375 64.296875 
z
M 20.59375 58.296875 
L 20.59375 8.40625 
Q 20.59375 5.703125 21.546875 4.703125 
Q 22.5 3.703125 25.40625 3.703125 
Q 33.203125 3.703125 38 4.796875 
Q 42.796875 5.90625 47.203125 8.90625 
Q 57.59375 15.90625 57.59375 32.796875 
Q 57.59375 47.296875 48.09375 55.59375 
Q 43.796875 59.40625 38.6875 60.953125 
Q 33.59375 62.5 25.90625 62.5 
Q 23 62.5 21.796875 61.59375 
Q 20.59375 60.703125 20.59375 58.296875 
z
" id="STIXGeneral-Regular-68"/>
      <path d="M 69.40625 45 
L 69.40625 43.5 
Q 67.90625 43 67.203125 42.046875 
Q 66.5 41.09375 65.296875 38.09375 
L 51.5 3.5 
Q 49.5 -1.40625 48.703125 -1.40625 
Q 48.203125 -1.40625 47.84375 -0.75 
Q 47.5 -0.09375 46.296875 2.90625 
L 37.203125 26.5 
L 26 2.5 
Q 24.203125 -1.40625 23.5 -1.40625 
Q 22.59375 -1.40625 20.90625 3 
L 7.40625 37.203125 
Q 5.90625 41.09375 4.90625 42.1875 
Q 3.90625 43.296875 2.09375 43.5 
L 2.09375 45 
L 20.09375 45 
L 20.09375 43.5 
Q 17.5 43.203125 16.5 42.5 
Q 15.5 41.796875 15.5 40.203125 
Q 15.5 38.703125 16.09375 37.203125 
L 26 11.09375 
L 35.09375 31 
L 33.09375 36.59375 
Q 31.703125 40.59375 30.34375 41.890625 
Q 29 43.203125 26.203125 43.5 
L 26.203125 45 
L 46.5 45 
L 46.5 43.5 
Q 43 43 41.84375 42.296875 
Q 40.703125 41.59375 40.703125 40 
Q 40.703125 38.40625 42.40625 34 
L 50.796875 11.59375 
L 59.796875 33.796875 
Q 61.5 38 61.5 40.5 
Q 61.5 41.703125 60.546875 42.34375 
Q 59.59375 43 57.09375 43.5 
L 57.09375 45 
z
" id="STIXGeneral-Regular-119"/>
     </defs>
     <use xlink:href="#STIXGeneral-Regular-68"/>
     <use x="72.199982" xlink:href="#STIXGeneral-Regular-101"/>
     <use x="116.599976" xlink:href="#STIXGeneral-Regular-108"/>
     <use x="144.399963" xlink:href="#STIXGeneral-Regular-97"/>
     <use x="188.799957" xlink:href="#STIXGeneral-Regular-119"/>
     <use x="260.999939" xlink:href="#STIXGeneral-Regular-97"/>
     <use x="305.399933" xlink:href="#STIXGeneral-Regular-114"/>
     <use x="338.699921" xlink:href="#STIXGeneral-Regular-101"/>
    </g>
   </g>
   <g id="text_22">
    <!-- District of Columbia -->
    <g transform="translate(583.639874 29.398318)scale(0.144 -0.144)">
     <use xlink:href="#STIXGeneral-Regular-68"/>
     <use x="72.199982" xlink:href="#STIXGeneral-Regular-105"/>
     <use x="99.999969" xlink:href="#STIXGeneral-Regular-115"/>
     <use x="138.899963" xlink:href="#STIXGeneral-Regular-116"/>
     <use x="166.699951" xlink:href="#STIXGeneral-Regular-114"/>
     <use x="199.999939" xlink:href="#STIXGeneral-Regular-105"/>
     <use x="227.799927" xlink:href="#STIXGeneral-Regular-99"/>
     <use x="272.199921" xlink:href="#STIXGeneral-Regular-116"/>
     <use x="299.999908" xlink:href="#STIXGeneral-Regular-32"/>
     <use x="324.999893" xlink:href="#STIXGeneral-Regular-111"/>
     <use x="374.999878" xlink:href="#STIXGeneral-Regular-102"/>
     <use x="408.299866" xlink:href="#STIXGeneral-Regular-32"/>
     <use x="433.29985" xlink:href="#STIXGeneral-Regular-67"/>
     <use x="499.999847" xlink:href="#STIXGeneral-Regular-111"/>
     <use x="549.999832" xlink:href="#STIXGeneral-Regular-108"/>
     <use x="577.79982" xlink:href="#STIXGeneral-Regular-117"/>
     <use x="627.799805" xlink:href="#STIXGeneral-Regular-109"/>
     <use x="705.599792" xlink:href="#STIXGeneral-Regular-98"/>
     <use x="755.599777" xlink:href="#STIXGeneral-Regular-105"/>
     <use x="783.399765" xlink:href="#STIXGeneral-Regular-97"/>
    </g>
   </g>
   <g id="text_23">
    <!-- Florida -->
    <g transform="translate(315.363561 191.463182)scale(0.144 -0.144)">
     <defs>
      <path d="M 54.59375 51.90625 
L 52.09375 51.90625 
Q 51 58.703125 48.34375 60.546875 
Q 45.703125 62.40625 36.703125 62.40625 
L 23.5 62.40625 
Q 21.40625 62.40625 20.75 61.65625 
Q 20.09375 60.90625 20.09375 58.5 
L 20.09375 36.796875 
L 34.296875 36.796875 
Q 40.59375 36.796875 42.75 38.59375 
Q 44.90625 40.40625 45.59375 46.296875 
L 47.90625 46.296875 
L 47.90625 23 
L 45.59375 23 
Q 45 29.09375 42.890625 30.890625 
Q 40.796875 32.703125 34.296875 32.703125 
L 20.09375 32.703125 
L 20.09375 11.203125 
Q 20.09375 5.5 21.75 3.84375 
Q 23.40625 2.203125 29.203125 1.90625 
L 29.203125 0 
L 1.09375 0 
L 1.09375 1.90625 
Q 6.796875 2.296875 8.34375 4.046875 
Q 9.90625 5.796875 9.90625 12.296875 
L 9.90625 55.09375 
Q 9.90625 60.59375 8.40625 62.25 
Q 6.90625 63.90625 1.203125 64.296875 
L 1.203125 66.203125 
L 54.09375 66.203125 
z
" id="STIXGeneral-Regular-70"/>
     </defs>
     <use xlink:href="#STIXGeneral-Regular-70"/>
     <use x="55.599991" xlink:href="#STIXGeneral-Regular-108"/>
     <use x="83.399979" xlink:href="#STIXGeneral-Regular-111"/>
     <use x="133.399963" xlink:href="#STIXGeneral-Regular-114"/>
     <use x="166.699951" xlink:href="#STIXGeneral-Regular-105"/>
     <use x="194.499939" xlink:href="#STIXGeneral-Regular-100"/>
     <use x="244.499924" xlink:href="#STIXGeneral-Regular-97"/>
    </g>
   </g>
   <g id="text_24">
    <!-- Georgia -->
    <g transform="translate(262.374443 242.675897)scale(0.144 -0.144)">
     <defs>
      <path d="M 70.90625 35.40625 
L 70.90625 33.59375 
Q 66.5 33.203125 65.203125 31.796875 
Q 63.90625 30.40625 63.90625 25.59375 
L 63.90625 5.59375 
Q 55.296875 -1.40625 38.5 -1.40625 
Q 30.703125 -1.40625 23.546875 1.390625 
Q 16.40625 4.203125 11.5 9.296875 
Q 3.203125 18 3.203125 32.703125 
Q 3.203125 49.296875 13.90625 59 
Q 23.296875 67.59375 37.796875 67.59375 
Q 44.203125 67.59375 51.09375 65.296875 
Q 53.796875 64.296875 55.5 64.296875 
Q 57.09375 64.296875 58.296875 65.25 
Q 59.5 66.203125 60 67.59375 
L 62.203125 67.59375 
L 63 46.5 
L 60.703125 46.5 
Q 57.5 54.296875 53.59375 58.09375 
Q 47.796875 63.59375 39 63.59375 
Q 29 63.59375 22.296875 56.703125 
Q 14.59375 49 14.59375 32.40625 
Q 14.59375 18.59375 21.796875 10.59375 
Q 29 2.59375 40.90625 2.59375 
Q 46.59375 2.59375 50.390625 4.390625 
Q 54.203125 6.203125 54.203125 8.703125 
L 54.203125 24.40625 
Q 54.203125 30.203125 52.75 31.640625 
Q 51.296875 33.09375 45.296875 33.59375 
L 45.296875 35.40625 
z
" id="STIXGeneral-Regular-71"/>
     </defs>
     <use xlink:href="#STIXGeneral-Regular-71"/>
     <use x="72.199982" xlink:href="#STIXGeneral-Regular-101"/>
     <use x="116.599976" xlink:href="#STIXGeneral-Regular-111"/>
     <use x="166.59996" xlink:href="#STIXGeneral-Regular-114"/>
     <use x="199.899948" xlink:href="#STIXGeneral-Regular-103"/>
     <use x="249.899933" xlink:href="#STIXGeneral-Regular-105"/>
     <use x="277.699921" xlink:href="#STIXGeneral-Regular-97"/>
    </g>
   </g>
   <g id="text_25">
    <!-- Hawaii -->
    <g transform="translate(342.071095 288.208755)scale(0.144 -0.144)">
     <defs>
      <path d="M 70.296875 0 
L 42.40625 0 
L 42.40625 1.90625 
Q 48.203125 2.296875 49.703125 4.140625 
Q 51.203125 6 51.203125 12.40625 
L 51.203125 31.5 
L 20.90625 31.5 
L 20.90625 11.296875 
Q 20.90625 5.796875 22.5 4 
Q 24.09375 2.203125 29.59375 1.90625 
L 29.703125 0 
L 1.796875 0 
L 1.796875 1.90625 
Q 7.703125 2.296875 9.203125 4.046875 
Q 10.703125 5.796875 10.703125 12.203125 
L 10.703125 54.796875 
Q 10.703125 60.59375 9.140625 62.1875 
Q 7.59375 63.796875 1.796875 64.296875 
L 1.796875 66.203125 
L 29.796875 66.203125 
L 29.796875 64.296875 
Q 24.203125 63.796875 22.546875 62.140625 
Q 20.90625 60.5 20.90625 54.796875 
L 20.90625 35.90625 
L 51.203125 35.90625 
L 51.203125 54.796875 
Q 51.203125 60.59375 49.640625 62.1875 
Q 48.09375 63.796875 42.296875 64.296875 
L 42.296875 66.203125 
L 70.296875 66.203125 
L 70.296875 64.296875 
Q 64.703125 63.796875 63.046875 62.140625 
Q 61.40625 60.5 61.40625 54.796875 
L 61.40625 11.09375 
Q 61.40625 5.796875 63.046875 4.046875 
Q 64.703125 2.296875 70.296875 1.90625 
z
" id="STIXGeneral-Regular-72"/>
     </defs>
     <use xlink:href="#STIXGeneral-Regular-72"/>
     <use x="72.199982" xlink:href="#STIXGeneral-Regular-97"/>
     <use x="116.599976" xlink:href="#STIXGeneral-Regular-119"/>
     <use x="188.799957" xlink:href="#STIXGeneral-Regular-97"/>
     <use x="233.199951" xlink:href="#STIXGeneral-Regular-105"/>
     <use x="260.999939" xlink:href="#STIXGeneral-Regular-105"/>
    </g>
   </g>
   <g id="text_26">
    <!-- Idaho -->
    <g transform="translate(345.666259 167.773744)scale(0.144 -0.144)">
     <defs>
      <path d="M 31.5 0 
L 1.796875 0 
L 1.796875 1.90625 
Q 8.09375 2.09375 9.796875 3.75 
Q 11.5 5.40625 11.5 11.203125 
L 11.5 55.09375 
Q 11.5 60.90625 9.890625 62.40625 
Q 8.296875 63.90625 1.796875 64.296875 
L 1.796875 66.203125 
L 31.5 66.203125 
L 31.5 64.296875 
Q 25.203125 64 23.453125 62.390625 
Q 21.703125 60.796875 21.703125 55.09375 
L 21.703125 11.203125 
Q 21.703125 5.59375 23.5 3.84375 
Q 25.296875 2.09375 31.5 1.90625 
z
" id="STIXGeneral-Regular-73"/>
     </defs>
     <use xlink:href="#STIXGeneral-Regular-73"/>
     <use x="33.299988" xlink:href="#STIXGeneral-Regular-100"/>
     <use x="83.299973" xlink:href="#STIXGeneral-Regular-97"/>
     <use x="127.699966" xlink:href="#STIXGeneral-Regular-104"/>
     <use x="177.699951" xlink:href="#STIXGeneral-Regular-111"/>
    </g>
   </g>
   <g id="text_27">
    <!-- Illinois -->
    <g transform="translate(284.515474 73.916423)scale(0.144 -0.144)">
     <use xlink:href="#STIXGeneral-Regular-73"/>
     <use x="33.299988" xlink:href="#STIXGeneral-Regular-108"/>
     <use x="61.099976" xlink:href="#STIXGeneral-Regular-108"/>
     <use x="88.899963" xlink:href="#STIXGeneral-Regular-105"/>
     <use x="116.699951" xlink:href="#STIXGeneral-Regular-110"/>
     <use x="166.699936" xlink:href="#STIXGeneral-Regular-111"/>
     <use x="216.699921" xlink:href="#STIXGeneral-Regular-105"/>
     <use x="244.499908" xlink:href="#STIXGeneral-Regular-115"/>
    </g>
   </g>
   <g id="text_28">
    <!-- Indiana -->
    <g transform="translate(286.42217 155.081258)scale(0.144 -0.144)">
     <use xlink:href="#STIXGeneral-Regular-73"/>
     <use x="33.299988" xlink:href="#STIXGeneral-Regular-110"/>
     <use x="83.299973" xlink:href="#STIXGeneral-Regular-100"/>
     <use x="133.299957" xlink:href="#STIXGeneral-Regular-105"/>
     <use x="161.099945" xlink:href="#STIXGeneral-Regular-97"/>
     <use x="205.499939" xlink:href="#STIXGeneral-Regular-110"/>
     <use x="255.499924" xlink:href="#STIXGeneral-Regular-97"/>
    </g>
   </g>
   <g id="text_29">
    <!-- Iowa -->
    <g transform="translate(328.887946 189.965666)scale(0.144 -0.144)">
     <use xlink:href="#STIXGeneral-Regular-73"/>
     <use x="33.299988" xlink:href="#STIXGeneral-Regular-111"/>
     <use x="83.299973" xlink:href="#STIXGeneral-Regular-119"/>
     <use x="155.499954" xlink:href="#STIXGeneral-Regular-97"/>
    </g>
   </g>
   <g id="text_30">
    <!-- Kansas  -->
    <g transform="translate(372.998325 135.44671)scale(0.144 -0.144)">
     <defs>
      <path d="M 72.296875 0 
L 42 0 
L 42 1.90625 
L 44.703125 2 
Q 48.90625 2.09375 48.90625 4.40625 
Q 48.90625 6.203125 45.65625 10.046875 
Q 42.40625 13.90625 35.203125 21.40625 
L 25.203125 31.703125 
L 22.59375 29.59375 
L 22.59375 11.09375 
Q 22.59375 5.5 24.1875 3.953125 
Q 25.796875 2.40625 31.5 1.90625 
L 31.5 0 
L 3.296875 0 
L 3.296875 1.90625 
Q 9.203125 2.203125 10.796875 4.09375 
Q 12.40625 6 12.40625 12.5 
L 12.40625 54.90625 
Q 12.40625 60.5 10.796875 62.203125 
Q 9.203125 63.90625 3.40625 64.296875 
L 3.40625 66.203125 
L 31.59375 66.203125 
L 31.59375 64.296875 
Q 25.5 63.90625 24.046875 62.296875 
Q 22.59375 60.703125 22.59375 54.796875 
L 22.59375 34.796875 
L 40.40625 51.203125 
Q 44.703125 55.203125 46.453125 57.296875 
Q 48.203125 59.40625 48.203125 61.09375 
Q 48.203125 62.703125 47.34375 63.390625 
Q 46.5 64.09375 44.09375 64.203125 
L 41.59375 64.296875 
L 41.59375 66.203125 
L 67.5 66.203125 
L 67.5 64.296875 
Q 62.40625 63.90625 59.75 62.546875 
Q 57.09375 61.203125 51.90625 56.203125 
L 33.296875 38.40625 
L 56.703125 12.796875 
Q 62.90625 6 65.84375 3.953125 
Q 68.796875 1.90625 72.296875 1.90625 
z
" id="STIXGeneral-Regular-75"/>
     </defs>
     <use xlink:href="#STIXGeneral-Regular-75"/>
     <use x="72.199982" xlink:href="#STIXGeneral-Regular-97"/>
     <use x="116.599976" xlink:href="#STIXGeneral-Regular-110"/>
     <use x="166.59996" xlink:href="#STIXGeneral-Regular-115"/>
     <use x="205.499954" xlink:href="#STIXGeneral-Regular-97"/>
     <use x="249.899948" xlink:href="#STIXGeneral-Regular-115"/>
     <use x="288.799942" xlink:href="#STIXGeneral-Regular-32"/>
    </g>
   </g>
   <g id="text_31">
    <!-- Kentucky  -->
    <g transform="translate(168.019643 231.933616)scale(0.144 -0.144)">
     <defs>
      <path d="M 47.5 45 
L 47.5 43.5 
Q 45.703125 43.296875 44.59375 42.1875 
Q 43.5 41.09375 42.5 38.40625 
L 27.5 -2.5 
Q 23.59375 -13.09375 19.640625 -17.4375 
Q 15.703125 -21.796875 10 -21.796875 
Q 6.796875 -21.796875 4.890625 -20.140625 
Q 3 -18.5 3 -16 
Q 3 -14.09375 4.25 -12.75 
Q 5.5 -11.40625 7.296875 -11.40625 
Q 10.203125 -11.40625 12.5 -12.703125 
Q 13.796875 -13.40625 15.09375 -13.40625 
Q 17.203125 -13.40625 20.09375 -9 
Q 21.5 -7 22.796875 -3.296875 
Q 24.09375 0.40625 24.09375 1.796875 
Q 24.09375 3.09375 19.90625 11.90625 
L 6.703125 40.09375 
Q 5.40625 43 1.40625 43.59375 
L 1.40625 45 
L 21.90625 45 
L 21.90625 43.5 
Q 18.703125 43.40625 17.453125 42.796875 
Q 16.203125 42.203125 16.203125 40.796875 
Q 16.203125 39.703125 17.5 36.703125 
L 28.703125 11.703125 
L 38.40625 39.296875 
Q 38.796875 40.203125 38.796875 41.09375 
Q 38.796875 43.5 34.203125 43.5 
L 34.203125 45 
z
" id="STIXGeneral-Regular-121"/>
     </defs>
     <use xlink:href="#STIXGeneral-Regular-75"/>
     <use x="72.199982" xlink:href="#STIXGeneral-Regular-101"/>
     <use x="116.599976" xlink:href="#STIXGeneral-Regular-110"/>
     <use x="166.59996" xlink:href="#STIXGeneral-Regular-116"/>
     <use x="194.399948" xlink:href="#STIXGeneral-Regular-117"/>
     <use x="244.399933" xlink:href="#STIXGeneral-Regular-99"/>
     <use x="288.799927" xlink:href="#STIXGeneral-Regular-107"/>
     <use x="338.799911" xlink:href="#STIXGeneral-Regular-121"/>
     <use x="388.799896" xlink:href="#STIXGeneral-Regular-32"/>
    </g>
   </g>
   <g id="text_32">
    <!-- Louisiana -->
    <g transform="translate(200.313701 79.671408)scale(0.144 -0.144)">
     <defs>
      <path d="M 59.796875 17.40625 
L 55 0 
L 1.203125 0 
L 1.203125 1.90625 
Q 6.703125 2.203125 8.296875 4 
Q 9.90625 5.796875 9.90625 11.5 
L 9.90625 54.59375 
Q 9.90625 60.5 8.453125 62.203125 
Q 7 63.90625 1.203125 64.296875 
L 1.203125 66.203125 
L 29.5 66.203125 
L 29.5 64.296875 
Q 23.40625 63.90625 21.75 62.25 
Q 20.09375 60.59375 20.09375 54.796875 
L 20.09375 8.40625 
Q 20.09375 5.59375 21.84375 4.75 
Q 23.59375 3.90625 29.09375 3.90625 
L 36.09375 3.90625 
Q 48.203125 3.90625 53 10 
Q 55 12.703125 57.203125 17.40625 
z
" id="STIXGeneral-Regular-76"/>
     </defs>
     <use xlink:href="#STIXGeneral-Regular-76"/>
     <use x="61.099991" xlink:href="#STIXGeneral-Regular-111"/>
     <use x="111.099976" xlink:href="#STIXGeneral-Regular-117"/>
     <use x="161.09996" xlink:href="#STIXGeneral-Regular-105"/>
     <use x="188.899948" xlink:href="#STIXGeneral-Regular-115"/>
     <use x="227.799942" xlink:href="#STIXGeneral-Regular-105"/>
     <use x="255.59993" xlink:href="#STIXGeneral-Regular-97"/>
     <use x="299.999924" xlink:href="#STIXGeneral-Regular-110"/>
     <use x="349.999908" xlink:href="#STIXGeneral-Regular-97"/>
    </g>
   </g>
   <g id="text_33">
    <!-- Maine -->
    <g transform="translate(297.001713 206.818606)scale(0.144 -0.144)">
     <defs>
      <path d="M 86.40625 0 
L 58.40625 0 
L 58.40625 1.90625 
Q 64.296875 2.296875 65.84375 4.140625 
Q 67.40625 6 67.40625 12.296875 
L 67.40625 57.203125 
L 41.90625 0 
L 40.5 0 
L 15.296875 54.90625 
L 15.296875 15.09375 
Q 15.296875 7 17 4.59375 
Q 18.703125 2.203125 24.59375 1.90625 
L 24.59375 0 
L 1.203125 0 
L 1.203125 1.90625 
Q 5.59375 2.203125 7.5 3.203125 
Q 9.40625 4.203125 10.15625 6.75 
Q 10.90625 9.296875 10.90625 15.09375 
L 10.90625 54.90625 
Q 10.90625 60.59375 9.203125 62.25 
Q 7.5 63.90625 1.40625 64.296875 
L 1.40625 66.203125 
L 21.203125 66.203125 
L 44.296875 16 
L 66.40625 66.203125 
L 86.296875 66.203125 
L 86.296875 64.296875 
Q 80.90625 64.203125 79.25 62.390625 
Q 77.59375 60.59375 77.59375 55 
L 77.59375 11.203125 
Q 77.59375 5.90625 79.25 4.09375 
Q 80.90625 2.296875 86.40625 1.90625 
z
" id="STIXGeneral-Regular-77"/>
     </defs>
     <use xlink:href="#STIXGeneral-Regular-77"/>
     <use x="88.899994" xlink:href="#STIXGeneral-Regular-97"/>
     <use x="133.299988" xlink:href="#STIXGeneral-Regular-105"/>
     <use x="161.099976" xlink:href="#STIXGeneral-Regular-110"/>
     <use x="211.09996" xlink:href="#STIXGeneral-Regular-101"/>
    </g>
   </g>
   <g id="text_34">
    <!-- Maryland -->
    <g transform="translate(201.960784 102.421965)scale(0.144 -0.144)">
     <use xlink:href="#STIXGeneral-Regular-77"/>
     <use x="88.899994" xlink:href="#STIXGeneral-Regular-97"/>
     <use x="133.299988" xlink:href="#STIXGeneral-Regular-114"/>
     <use x="166.599976" xlink:href="#STIXGeneral-Regular-121"/>
     <use x="216.59996" xlink:href="#STIXGeneral-Regular-108"/>
     <use x="244.399948" xlink:href="#STIXGeneral-Regular-97"/>
     <use x="288.799942" xlink:href="#STIXGeneral-Regular-110"/>
     <use x="338.799927" xlink:href="#STIXGeneral-Regular-100"/>
    </g>
   </g>
   <g id="text_35">
    <!-- Massachusetts -->
    <g transform="translate(290.18694 227.599113)scale(0.144 -0.144)">
     <use xlink:href="#STIXGeneral-Regular-77"/>
     <use x="88.899994" xlink:href="#STIXGeneral-Regular-97"/>
     <use x="133.299988" xlink:href="#STIXGeneral-Regular-115"/>
     <use x="172.199982" xlink:href="#STIXGeneral-Regular-115"/>
     <use x="211.099976" xlink:href="#STIXGeneral-Regular-97"/>
     <use x="255.499969" xlink:href="#STIXGeneral-Regular-99"/>
     <use x="299.899963" xlink:href="#STIXGeneral-Regular-104"/>
     <use x="349.899948" xlink:href="#STIXGeneral-Regular-117"/>
     <use x="399.899933" xlink:href="#STIXGeneral-Regular-115"/>
     <use x="438.799927" xlink:href="#STIXGeneral-Regular-101"/>
     <use x="483.199921" xlink:href="#STIXGeneral-Regular-116"/>
     <use x="510.999908" xlink:href="#STIXGeneral-Regular-116"/>
     <use x="538.799896" xlink:href="#STIXGeneral-Regular-115"/>
    </g>
   </g>
   <g id="text_36">
    <!-- Michigan -->
    <g transform="translate(439.760106 153.03166)scale(0.144 -0.144)">
     <use xlink:href="#STIXGeneral-Regular-77"/>
     <use x="88.899994" xlink:href="#STIXGeneral-Regular-105"/>
     <use x="116.699982" xlink:href="#STIXGeneral-Regular-99"/>
     <use x="161.099976" xlink:href="#STIXGeneral-Regular-104"/>
     <use x="211.09996" xlink:href="#STIXGeneral-Regular-105"/>
     <use x="238.899948" xlink:href="#STIXGeneral-Regular-103"/>
     <use x="288.899933" xlink:href="#STIXGeneral-Regular-97"/>
     <use x="333.299927" xlink:href="#STIXGeneral-Regular-110"/>
    </g>
   </g>
   <g id="text_37">
    <!-- Minnesota -->
    <g transform="translate(368.260471 174.826484)scale(0.144 -0.144)">
     <use xlink:href="#STIXGeneral-Regular-77"/>
     <use x="88.899994" xlink:href="#STIXGeneral-Regular-105"/>
     <use x="116.699982" xlink:href="#STIXGeneral-Regular-110"/>
     <use x="166.699966" xlink:href="#STIXGeneral-Regular-110"/>
     <use x="216.699951" xlink:href="#STIXGeneral-Regular-101"/>
     <use x="261.099945" xlink:href="#STIXGeneral-Regular-115"/>
     <use x="299.999939" xlink:href="#STIXGeneral-Regular-111"/>
     <use x="349.999924" xlink:href="#STIXGeneral-Regular-116"/>
     <use x="377.799911" xlink:href="#STIXGeneral-Regular-97"/>
    </g>
   </g>
   <g id="text_38">
    <!-- Mississippi -->
    <g transform="translate(220.333107 319.174682)scale(0.144 -0.144)">
     <defs>
      <path d="M 15.90625 45.796875 
L 15.90625 38.09375 
Q 22.203125 46 30.296875 46 
Q 37.59375 46 42.296875 40 
Q 47 34 47 24.703125 
Q 47 13.796875 40.953125 6.390625 
Q 34.90625 -1 26 -1 
Q 22.90625 -1 20.75 -0.09375 
Q 18.59375 0.796875 15.90625 3.296875 
L 15.90625 -12.40625 
Q 15.90625 -17.09375 17.5 -18.4375 
Q 19.09375 -19.796875 24.703125 -19.90625 
L 24.703125 -21.703125 
L 0.5 -21.703125 
L 0.5 -20 
Q 4.90625 -19.59375 6.203125 -18.296875 
Q 7.5 -17 7.5 -13.09375 
L 7.5 33.703125 
Q 7.5 37.203125 6.703125 38.296875 
Q 5.90625 39.40625 3.40625 39.40625 
Q 1.796875 39.40625 0.90625 39.296875 
L 0.90625 40.90625 
Q 7.90625 43 15.296875 46 
z
M 15.90625 33.40625 
L 15.90625 8.796875 
Q 15.90625 6.59375 19.34375 4.390625 
Q 22.796875 2.203125 26.296875 2.203125 
Q 31.703125 2.203125 35.046875 7.296875 
Q 38.40625 12.40625 38.40625 20.703125 
Q 38.40625 29.5 35.046875 34.75 
Q 31.703125 40 26.09375 40 
Q 22.59375 40 19.25 37.796875 
Q 15.90625 35.59375 15.90625 33.40625 
z
" id="STIXGeneral-Regular-112"/>
     </defs>
     <use xlink:href="#STIXGeneral-Regular-77"/>
     <use x="88.899994" xlink:href="#STIXGeneral-Regular-105"/>
     <use x="116.699982" xlink:href="#STIXGeneral-Regular-115"/>
     <use x="155.599976" xlink:href="#STIXGeneral-Regular-115"/>
     <use x="194.499969" xlink:href="#STIXGeneral-Regular-105"/>
     <use x="222.299957" xlink:href="#STIXGeneral-Regular-115"/>
     <use x="261.199951" xlink:href="#STIXGeneral-Regular-115"/>
     <use x="300.099945" xlink:href="#STIXGeneral-Regular-105"/>
     <use x="327.899933" xlink:href="#STIXGeneral-Regular-112"/>
     <use x="377.899918" xlink:href="#STIXGeneral-Regular-112"/>
     <use x="427.899902" xlink:href="#STIXGeneral-Regular-105"/>
    </g>
   </g>
   <g id="text_39">
    <!-- Missouri -->
    <g transform="translate(296.108494 129.565622)scale(0.144 -0.144)">
     <use xlink:href="#STIXGeneral-Regular-77"/>
     <use x="88.899994" xlink:href="#STIXGeneral-Regular-105"/>
     <use x="116.699982" xlink:href="#STIXGeneral-Regular-115"/>
     <use x="155.599976" xlink:href="#STIXGeneral-Regular-115"/>
     <use x="194.499969" xlink:href="#STIXGeneral-Regular-111"/>
     <use x="244.499954" xlink:href="#STIXGeneral-Regular-117"/>
     <use x="294.499939" xlink:href="#STIXGeneral-Regular-114"/>
     <use x="327.799927" xlink:href="#STIXGeneral-Regular-105"/>
    </g>
   </g>
   <g id="text_40">
    <!-- Montana  -->
    <g transform="translate(432.325893 145.256971)scale(0.144 -0.144)">
     <use xlink:href="#STIXGeneral-Regular-77"/>
     <use x="88.899994" xlink:href="#STIXGeneral-Regular-111"/>
     <use x="138.899979" xlink:href="#STIXGeneral-Regular-110"/>
     <use x="188.899963" xlink:href="#STIXGeneral-Regular-116"/>
     <use x="216.699951" xlink:href="#STIXGeneral-Regular-97"/>
     <use x="261.099945" xlink:href="#STIXGeneral-Regular-110"/>
     <use x="311.09993" xlink:href="#STIXGeneral-Regular-97"/>
     <use x="355.499924" xlink:href="#STIXGeneral-Regular-32"/>
    </g>
   </g>
   <g id="text_41">
    <!-- Nebraska -->
    <g transform="translate(332.426353 163.254593)scale(0.144 -0.144)">
     <defs>
      <path d="M 70.703125 66.203125 
L 70.703125 64.296875 
Q 65.59375 63.796875 64.09375 62.5 
Q 62.5 61.09375 61.84375 58.6875 
Q 61.203125 56.296875 61.203125 50.703125 
L 61.203125 -1.09375 
L 59.40625 -1.09375 
L 15.296875 53.796875 
L 15.296875 15 
Q 15.296875 7.40625 17 5.046875 
Q 18.703125 2.703125 24.59375 1.90625 
L 24.59375 0 
L 1.203125 0 
L 1.203125 1.90625 
Q 7.40625 2.59375 9.15625 4.84375 
Q 10.90625 7.09375 10.90625 15 
L 10.90625 59 
Q 8.296875 62.203125 6.5 63.25 
Q 4.703125 64.296875 1.203125 64.296875 
L 1.203125 66.203125 
L 18.203125 66.203125 
L 56.796875 17.90625 
L 56.796875 51.90625 
Q 56.796875 59.5 54.90625 61.703125 
Q 53.703125 63 52.25 63.453125 
Q 50.796875 63.90625 47 64.296875 
L 47 66.203125 
z
" id="STIXGeneral-Regular-78"/>
     </defs>
     <use xlink:href="#STIXGeneral-Regular-78"/>
     <use x="72.199982" xlink:href="#STIXGeneral-Regular-101"/>
     <use x="116.599976" xlink:href="#STIXGeneral-Regular-98"/>
     <use x="166.59996" xlink:href="#STIXGeneral-Regular-114"/>
     <use x="199.899948" xlink:href="#STIXGeneral-Regular-97"/>
     <use x="244.299942" xlink:href="#STIXGeneral-Regular-115"/>
     <use x="283.199936" xlink:href="#STIXGeneral-Regular-107"/>
     <use x="333.199921" xlink:href="#STIXGeneral-Regular-97"/>
    </g>
   </g>
   <g id="text_42">
    <!-- Nevada -->
    <g transform="translate(141.402932 205.065017)scale(0.144 -0.144)">
     <defs>
      <path d="M 47.703125 45 
L 47.703125 43.5 
Q 45.40625 43.296875 44.296875 42 
Q 43.203125 40.703125 41.203125 35.703125 
L 28.40625 3.59375 
Q 26.40625 -1.40625 25.59375 -1.40625 
Q 24.796875 -1.40625 23.796875 1.203125 
Q 23.59375 1.5 23.390625 2.203125 
Q 23.203125 2.90625 23 3.296875 
L 11 32 
Q 7.796875 39.59375 6.296875 41.4375 
Q 4.796875 43.296875 1.90625 43.5 
L 1.90625 45 
L 21.5 45 
L 21.5 43.5 
Q 18.90625 43.296875 17.90625 42.6875 
Q 16.90625 42.09375 16.90625 40.796875 
Q 16.90625 39.203125 17.796875 37 
L 28 11.40625 
L 37.90625 37.296875 
Q 38.5 38.796875 38.5 40.296875 
Q 38.5 43.09375 33.796875 43.5 
L 33.796875 45 
z
" id="STIXGeneral-Regular-118"/>
     </defs>
     <use xlink:href="#STIXGeneral-Regular-78"/>
     <use x="72.199982" xlink:href="#STIXGeneral-Regular-101"/>
     <use x="116.599976" xlink:href="#STIXGeneral-Regular-118"/>
     <use x="166.59996" xlink:href="#STIXGeneral-Regular-97"/>
     <use x="210.999954" xlink:href="#STIXGeneral-Regular-100"/>
     <use x="260.999939" xlink:href="#STIXGeneral-Regular-97"/>
    </g>
   </g>
   <g id="text_43">
    <!-- New Hampshire -->
    <g transform="translate(210.257791 168.623691)scale(0.144 -0.144)">
     <use xlink:href="#STIXGeneral-Regular-78"/>
     <use x="72.199982" xlink:href="#STIXGeneral-Regular-101"/>
     <use x="116.599976" xlink:href="#STIXGeneral-Regular-119"/>
     <use x="188.799957" xlink:href="#STIXGeneral-Regular-32"/>
     <use x="213.799942" xlink:href="#STIXGeneral-Regular-72"/>
     <use x="285.999924" xlink:href="#STIXGeneral-Regular-97"/>
     <use x="330.399918" xlink:href="#STIXGeneral-Regular-109"/>
     <use x="408.199905" xlink:href="#STIXGeneral-Regular-112"/>
     <use x="458.19989" xlink:href="#STIXGeneral-Regular-115"/>
     <use x="497.099884" xlink:href="#STIXGeneral-Regular-104"/>
     <use x="547.099869" xlink:href="#STIXGeneral-Regular-105"/>
     <use x="574.899857" xlink:href="#STIXGeneral-Regular-114"/>
     <use x="608.199844" xlink:href="#STIXGeneral-Regular-101"/>
    </g>
   </g>
   <g id="text_44">
    <!-- New Jersey -->
    <g transform="translate(187.462575 205.833293)scale(0.144 -0.144)">
     <defs>
      <path d="M 35.40625 66.203125 
L 35.40625 64.296875 
Q 29.296875 63.796875 27.75 62.25 
Q 26.203125 60.703125 26.203125 54.90625 
L 26.203125 18.5 
Q 26.203125 -1.40625 9.5 -1.40625 
Q 4.90625 -1.40625 2.15625 0.5 
Q -0.59375 2.40625 -0.59375 5.796875 
Q -0.59375 7.796875 0.84375 9.390625 
Q 2.296875 11 4.296875 11 
Q 7.59375 11 9.203125 6.796875 
Q 9.40625 6.296875 9.703125 5.4375 
Q 10 4.59375 10.140625 4.140625 
Q 10.296875 3.703125 10.59375 3.25 
Q 10.90625 2.796875 11.296875 2.59375 
Q 11.703125 2.40625 12.296875 2.40625 
Q 14.5 2.40625 15.25 3.953125 
Q 16 5.5 16 9.40625 
L 16 55 
Q 16 60.90625 14.5 62.34375 
Q 13 63.796875 6.703125 64.296875 
L 6.703125 66.203125 
z
" id="STIXGeneral-Regular-74"/>
     </defs>
     <use xlink:href="#STIXGeneral-Regular-78"/>
     <use x="72.199982" xlink:href="#STIXGeneral-Regular-101"/>
     <use x="116.599976" xlink:href="#STIXGeneral-Regular-119"/>
     <use x="188.799957" xlink:href="#STIXGeneral-Regular-32"/>
     <use x="213.799942" xlink:href="#STIXGeneral-Regular-74"/>
     <use x="251.09993" xlink:href="#STIXGeneral-Regular-101"/>
     <use x="295.499924" xlink:href="#STIXGeneral-Regular-114"/>
     <use x="328.799911" xlink:href="#STIXGeneral-Regular-115"/>
     <use x="367.699905" xlink:href="#STIXGeneral-Regular-101"/>
     <use x="412.099899" xlink:href="#STIXGeneral-Regular-121"/>
    </g>
   </g>
   <g id="text_45">
    <!-- New Mexico -->
    <g transform="translate(227.82222 113.279683)scale(0.144 -0.144)">
     <defs>
      <path d="M 47.90625 0 
L 27.796875 0 
L 27.796875 1.5 
Q 30.296875 1.703125 31.046875 2.140625 
Q 31.796875 2.59375 31.796875 3.90625 
Q 31.796875 4.796875 31.203125 5.703125 
L 22.09375 19.703125 
L 14.203125 7.40625 
Q 12.203125 4.296875 12.203125 3.296875 
Q 12.203125 1.5 16.203125 1.5 
L 16.203125 0 
L 1.703125 0 
L 1.703125 1.5 
Q 4.203125 1.703125 5.546875 2.640625 
Q 6.90625 3.59375 9 6.59375 
L 20.40625 23.09375 
L 11 37.5 
Q 8.703125 41 7.09375 42.25 
Q 5.5 43.5 3.296875 43.5 
L 2.40625 43.5 
L 2.40625 45 
L 23.09375 45 
L 23.09375 43.5 
Q 18.796875 43.40625 18.796875 41.296875 
Q 18.796875 39.203125 23.40625 32.40625 
Q 24.703125 30.59375 24.796875 30.40625 
Q 25.296875 31.09375 27.796875 34.796875 
Q 28.296875 35.703125 29 36.703125 
Q 29.703125 37.703125 30.046875 38.296875 
Q 30.40625 38.90625 30.796875 39.5 
Q 31.203125 40.09375 31.34375 40.546875 
Q 31.5 41 31.5 41.296875 
Q 31.5 43.203125 27.5 43.5 
L 27.5 45 
L 43.296875 45 
L 43.296875 43.5 
Q 38.203125 43.296875 35.203125 39.09375 
L 26.90625 27.09375 
L 39.703125 7.5 
Q 43.59375 1.5 47.90625 1.5 
z
" id="STIXGeneral-Regular-120"/>
     </defs>
     <use xlink:href="#STIXGeneral-Regular-78"/>
     <use x="72.199982" xlink:href="#STIXGeneral-Regular-101"/>
     <use x="116.599976" xlink:href="#STIXGeneral-Regular-119"/>
     <use x="188.799957" xlink:href="#STIXGeneral-Regular-32"/>
     <use x="213.799942" xlink:href="#STIXGeneral-Regular-77"/>
     <use x="302.699936" xlink:href="#STIXGeneral-Regular-101"/>
     <use x="347.09993" xlink:href="#STIXGeneral-Regular-120"/>
     <use x="397.099915" xlink:href="#STIXGeneral-Regular-105"/>
     <use x="424.899902" xlink:href="#STIXGeneral-Regular-99"/>
     <use x="469.299896" xlink:href="#STIXGeneral-Regular-111"/>
    </g>
   </g>
   <g id="text_46">
    <!-- New York -->
    <g transform="translate(242.270401 314.643393)scale(0.144 -0.144)">
     <defs>
      <path d="M 70.296875 66.203125 
L 70.296875 64.296875 
Q 65.90625 63.90625 63.34375 61.796875 
Q 60.796875 59.703125 56.5 53.09375 
L 41.703125 30.296875 
L 41.703125 11.09375 
Q 41.703125 5.40625 43.59375 3.796875 
Q 45.5 2.203125 52 1.90625 
L 52 0 
L 21.40625 0 
L 21.40625 1.90625 
Q 28.203125 2.40625 29.84375 4.046875 
Q 31.5 5.703125 31.5 12.296875 
L 31.5 29.40625 
L 18.40625 48.59375 
Q 11.59375 58.59375 8.6875 61.34375 
Q 5.796875 64.09375 2.203125 64.296875 
L 2.203125 66.203125 
L 30.09375 66.203125 
L 30.09375 64.296875 
L 27.703125 64.203125 
Q 23 64.09375 23 61.59375 
Q 23 59.5 24.796875 56.90625 
L 39.40625 34.796875 
L 53.90625 57 
Q 55.296875 59.09375 55.296875 61.203125 
Q 55.203125 62.90625 53.75 63.546875 
Q 52.296875 64.203125 48.5 64.296875 
L 48.5 66.203125 
z
" id="STIXGeneral-Regular-89"/>
     </defs>
     <use xlink:href="#STIXGeneral-Regular-78"/>
     <use x="72.199982" xlink:href="#STIXGeneral-Regular-101"/>
     <use x="116.599976" xlink:href="#STIXGeneral-Regular-119"/>
     <use x="188.799957" xlink:href="#STIXGeneral-Regular-32"/>
     <use x="213.799942" xlink:href="#STIXGeneral-Regular-89"/>
     <use x="285.999924" xlink:href="#STIXGeneral-Regular-111"/>
     <use x="335.999908" xlink:href="#STIXGeneral-Regular-114"/>
     <use x="369.299896" xlink:href="#STIXGeneral-Regular-107"/>
    </g>
   </g>
   <g id="text_47">
    <!-- North Carolina -->
    <g transform="translate(222.741833 200.069755)scale(0.144 -0.144)">
     <use xlink:href="#STIXGeneral-Regular-78"/>
     <use x="72.199982" xlink:href="#STIXGeneral-Regular-111"/>
     <use x="122.199966" xlink:href="#STIXGeneral-Regular-114"/>
     <use x="155.499954" xlink:href="#STIXGeneral-Regular-116"/>
     <use x="183.299942" xlink:href="#STIXGeneral-Regular-104"/>
     <use x="233.299927" xlink:href="#STIXGeneral-Regular-32"/>
     <use x="258.299911" xlink:href="#STIXGeneral-Regular-67"/>
     <use x="324.999908" xlink:href="#STIXGeneral-Regular-97"/>
     <use x="369.399902" xlink:href="#STIXGeneral-Regular-114"/>
     <use x="402.69989" xlink:href="#STIXGeneral-Regular-111"/>
     <use x="452.699875" xlink:href="#STIXGeneral-Regular-108"/>
     <use x="480.499863" xlink:href="#STIXGeneral-Regular-105"/>
     <use x="508.29985" xlink:href="#STIXGeneral-Regular-110"/>
     <use x="558.299835" xlink:href="#STIXGeneral-Regular-97"/>
    </g>
   </g>
   <g id="text_48">
    <!-- North Dakota -->
    <g transform="translate(271.791277 121.924849)scale(0.144 -0.144)">
     <use xlink:href="#STIXGeneral-Regular-78"/>
     <use x="72.199982" xlink:href="#STIXGeneral-Regular-111"/>
     <use x="122.199966" xlink:href="#STIXGeneral-Regular-114"/>
     <use x="155.499954" xlink:href="#STIXGeneral-Regular-116"/>
     <use x="183.299942" xlink:href="#STIXGeneral-Regular-104"/>
     <use x="233.299927" xlink:href="#STIXGeneral-Regular-32"/>
     <use x="258.299911" xlink:href="#STIXGeneral-Regular-68"/>
     <use x="330.499893" xlink:href="#STIXGeneral-Regular-97"/>
     <use x="374.899887" xlink:href="#STIXGeneral-Regular-107"/>
     <use x="424.899872" xlink:href="#STIXGeneral-Regular-111"/>
     <use x="474.899857" xlink:href="#STIXGeneral-Regular-116"/>
     <use x="502.699844" xlink:href="#STIXGeneral-Regular-97"/>
    </g>
   </g>
   <g id="text_49">
    <!-- Ohio -->
    <g transform="translate(395.020791 206.422737)scale(0.144 -0.144)">
     <defs>
      <path d="M 68.796875 33.09375 
Q 68.796875 17.703125 59.6875 8.140625 
Q 50.59375 -1.40625 36.09375 -1.40625 
Q 21.5 -1.40625 12.453125 8.1875 
Q 3.40625 17.796875 3.40625 33.40625 
Q 3.40625 48.59375 12.453125 58.09375 
Q 21.5 67.59375 36.09375 67.59375 
Q 50.703125 67.59375 59.75 57.84375 
Q 68.796875 48.09375 68.796875 33.09375 
z
M 57.40625 33.703125 
Q 57.40625 42.203125 55 48.953125 
Q 52.59375 55.703125 48.296875 59.296875 
Q 42.703125 64 36 64 
Q 27.5 64 21.703125 57.296875 
Q 18.5 53.703125 16.640625 47.046875 
Q 14.796875 40.40625 14.796875 33.203125 
Q 14.796875 15 23.796875 6.703125 
Q 28.703125 2.203125 36.203125 2.203125 
Q 44 2.203125 49.09375 7 
Q 57.40625 15 57.40625 33.703125 
z
" id="STIXGeneral-Regular-79"/>
     </defs>
     <use xlink:href="#STIXGeneral-Regular-79"/>
     <use x="72.199982" xlink:href="#STIXGeneral-Regular-104"/>
     <use x="122.199966" xlink:href="#STIXGeneral-Regular-105"/>
     <use x="149.999954" xlink:href="#STIXGeneral-Regular-111"/>
    </g>
   </g>
   <g id="text_50">
    <!-- Oklahoma -->
    <g transform="translate(274.047494 155.316846)scale(0.144 -0.144)">
     <use xlink:href="#STIXGeneral-Regular-79"/>
     <use x="72.199982" xlink:href="#STIXGeneral-Regular-107"/>
     <use x="122.199966" xlink:href="#STIXGeneral-Regular-108"/>
     <use x="149.999954" xlink:href="#STIXGeneral-Regular-97"/>
     <use x="194.399948" xlink:href="#STIXGeneral-Regular-104"/>
     <use x="244.399933" xlink:href="#STIXGeneral-Regular-111"/>
     <use x="294.399918" xlink:href="#STIXGeneral-Regular-109"/>
     <use x="372.199905" xlink:href="#STIXGeneral-Regular-97"/>
    </g>
   </g>
   <g id="text_51">
    <!-- Oregon -->
    <g transform="translate(411.123574 217.148255)scale(0.144 -0.144)">
     <use xlink:href="#STIXGeneral-Regular-79"/>
     <use x="72.199982" xlink:href="#STIXGeneral-Regular-114"/>
     <use x="105.499969" xlink:href="#STIXGeneral-Regular-101"/>
     <use x="149.899963" xlink:href="#STIXGeneral-Regular-103"/>
     <use x="199.899948" xlink:href="#STIXGeneral-Regular-111"/>
     <use x="249.899933" xlink:href="#STIXGeneral-Regular-110"/>
    </g>
   </g>
   <g id="text_52">
    <!-- Pennsylvania -->
    <g transform="translate(282.520428 140.286619)scale(0.144 -0.144)">
     <defs>
      <path d="M 1.59375 66.203125 
L 27.5 66.203125 
Q 41.703125 66.203125 49.203125 59.90625 
Q 54.203125 55.703125 54.203125 48 
Q 54.203125 40 48.5 34.90625 
Q 44.296875 31.09375 39.890625 29.9375 
Q 35.5 28.796875 27.09375 28.796875 
Q 24.203125 28.796875 20.203125 29.09375 
L 20.203125 11.203125 
Q 20.203125 5.5 21.84375 3.84375 
Q 23.5 2.203125 29.59375 1.90625 
L 29.59375 0 
L 1.59375 0 
L 1.59375 1.90625 
Q 7.40625 2.296875 8.703125 4 
Q 10 5.703125 10 12.203125 
L 10 55.09375 
Q 10 60.703125 8.546875 62.296875 
Q 7.09375 63.90625 1.59375 64.296875 
z
M 20.203125 58.90625 
L 20.203125 33.09375 
Q 23.59375 32.796875 26.296875 32.796875 
Q 34.40625 32.796875 38.84375 36.75 
Q 43.296875 40.703125 43.296875 47.5 
Q 43.296875 55.59375 38.6875 59.046875 
Q 34.09375 62.5 23.703125 62.5 
Q 21.59375 62.5 20.890625 61.75 
Q 20.203125 61 20.203125 58.90625 
z
" id="STIXGeneral-Regular-80"/>
     </defs>
     <use xlink:href="#STIXGeneral-Regular-80"/>
     <use x="55.699997" xlink:href="#STIXGeneral-Regular-101"/>
     <use x="100.099991" xlink:href="#STIXGeneral-Regular-110"/>
     <use x="150.099976" xlink:href="#STIXGeneral-Regular-110"/>
     <use x="200.09996" xlink:href="#STIXGeneral-Regular-115"/>
     <use x="238.999954" xlink:href="#STIXGeneral-Regular-121"/>
     <use x="288.999939" xlink:href="#STIXGeneral-Regular-108"/>
     <use x="316.799927" xlink:href="#STIXGeneral-Regular-118"/>
     <use x="366.799911" xlink:href="#STIXGeneral-Regular-97"/>
     <use x="411.199905" xlink:href="#STIXGeneral-Regular-110"/>
     <use x="461.19989" xlink:href="#STIXGeneral-Regular-105"/>
     <use x="488.999878" xlink:href="#STIXGeneral-Regular-97"/>
    </g>
   </g>
   <g id="text_53">
    <!-- Rhode Island -->
    <g transform="translate(134.570267 272.147903)scale(0.144 -0.144)">
     <defs>
      <path d="M 66 0 
L 49.796875 0 
L 26 30.796875 
L 20.40625 30.59375 
L 20.40625 11.203125 
Q 20.40625 5.5 21.953125 3.890625 
Q 23.5 2.296875 29.296875 1.90625 
L 29.296875 0 
L 1.703125 0 
L 1.703125 1.90625 
Q 7.40625 2.40625 8.796875 4.09375 
Q 10.203125 5.796875 10.203125 12.40625 
L 10.203125 55.09375 
Q 10.203125 60.703125 8.796875 62.296875 
Q 7.40625 63.90625 1.703125 64.296875 
L 1.703125 66.203125 
L 28.90625 66.203125 
Q 42.59375 66.203125 49.796875 60.296875 
Q 54.703125 56.296875 54.703125 48.296875 
Q 54.703125 34.703125 36.59375 31.90625 
L 56.59375 6.59375 
Q 58.703125 4 60.59375 3.09375 
Q 62.5 2.203125 66 1.90625 
z
M 20.40625 58.296875 
L 20.40625 34.296875 
Q 27.59375 34.40625 31.09375 35.09375 
Q 34.59375 35.796875 38.09375 37.703125 
Q 43.796875 40.90625 43.796875 49.09375 
Q 43.796875 62.5 25.5 62.5 
Q 22.796875 62.5 21.59375 61.640625 
Q 20.40625 60.796875 20.40625 58.296875 
z
" id="STIXGeneral-Regular-82"/>
     </defs>
     <use xlink:href="#STIXGeneral-Regular-82"/>
     <use x="66.699997" xlink:href="#STIXGeneral-Regular-104"/>
     <use x="116.699982" xlink:href="#STIXGeneral-Regular-111"/>
     <use x="166.699966" xlink:href="#STIXGeneral-Regular-100"/>
     <use x="216.699951" xlink:href="#STIXGeneral-Regular-101"/>
     <use x="261.099945" xlink:href="#STIXGeneral-Regular-32"/>
     <use x="286.09993" xlink:href="#STIXGeneral-Regular-73"/>
     <use x="319.399918" xlink:href="#STIXGeneral-Regular-115"/>
     <use x="358.299911" xlink:href="#STIXGeneral-Regular-108"/>
     <use x="386.099899" xlink:href="#STIXGeneral-Regular-97"/>
     <use x="430.499893" xlink:href="#STIXGeneral-Regular-110"/>
     <use x="480.499878" xlink:href="#STIXGeneral-Regular-100"/>
    </g>
   </g>
   <g id="text_54">
    <!-- South Carolina -->
    <g transform="translate(227.532626 204.589275)scale(0.144 -0.144)">
     <defs>
      <path d="M 46.90625 46.296875 
L 44.40625 46.296875 
Q 42.703125 52.5 40.296875 55.703125 
Q 34.203125 63.5 25.796875 63.5 
Q 21.203125 63.5 18.453125 60.84375 
Q 15.703125 58.203125 15.703125 54 
Q 15.703125 52 16.703125 50.09375 
Q 17.703125 48.203125 18.84375 46.84375 
Q 20 45.5 22.890625 43.5 
Q 25.796875 41.5 27.59375 40.453125 
Q 29.40625 39.40625 33.59375 36.90625 
Q 41.703125 32.203125 45.390625 27.546875 
Q 49.09375 22.90625 49.09375 17.296875 
Q 49.09375 9 43.296875 3.796875 
Q 37.5 -1.40625 28.703125 -1.40625 
Q 22.203125 -1.40625 16.90625 0.90625 
Q 14.296875 2 12.203125 2 
Q 11 2 10.203125 1.09375 
Q 9.40625 0.203125 9.40625 -1.296875 
L 7.203125 -1.296875 
L 4.296875 19.90625 
L 6.5 19.90625 
Q 13.203125 2.203125 27.09375 2.203125 
Q 32.40625 2.203125 35.703125 5.34375 
Q 39 8.5 39 13.40625 
Q 39 18.09375 36.09375 21.296875 
Q 31.296875 26.5 19.296875 32.90625 
Q 7.09375 39.40625 7.09375 50.09375 
Q 7.09375 58.09375 12 62.84375 
Q 16.90625 67.59375 24.5 67.59375 
Q 29.796875 67.59375 35 65.40625 
Q 37.703125 64.203125 39.40625 64.203125 
Q 42 64.203125 42.59375 67.59375 
L 44.703125 67.59375 
z
" id="STIXGeneral-Regular-83"/>
     </defs>
     <use xlink:href="#STIXGeneral-Regular-83"/>
     <use x="55.599991" xlink:href="#STIXGeneral-Regular-111"/>
     <use x="105.599976" xlink:href="#STIXGeneral-Regular-117"/>
     <use x="155.59996" xlink:href="#STIXGeneral-Regular-116"/>
     <use x="183.399948" xlink:href="#STIXGeneral-Regular-104"/>
     <use x="233.399933" xlink:href="#STIXGeneral-Regular-32"/>
     <use x="258.399918" xlink:href="#STIXGeneral-Regular-67"/>
     <use x="325.099915" xlink:href="#STIXGeneral-Regular-97"/>
     <use x="369.499908" xlink:href="#STIXGeneral-Regular-114"/>
     <use x="402.799896" xlink:href="#STIXGeneral-Regular-111"/>
     <use x="452.799881" xlink:href="#STIXGeneral-Regular-108"/>
     <use x="480.599869" xlink:href="#STIXGeneral-Regular-105"/>
     <use x="508.399857" xlink:href="#STIXGeneral-Regular-110"/>
     <use x="558.399841" xlink:href="#STIXGeneral-Regular-97"/>
    </g>
   </g>
   <g id="text_55">
    <!-- South Dakota -->
    <g transform="translate(347.112629 137.179355)scale(0.144 -0.144)">
     <use xlink:href="#STIXGeneral-Regular-83"/>
     <use x="55.599991" xlink:href="#STIXGeneral-Regular-111"/>
     <use x="105.599976" xlink:href="#STIXGeneral-Regular-117"/>
     <use x="155.59996" xlink:href="#STIXGeneral-Regular-116"/>
     <use x="183.399948" xlink:href="#STIXGeneral-Regular-104"/>
     <use x="233.399933" xlink:href="#STIXGeneral-Regular-32"/>
     <use x="258.399918" xlink:href="#STIXGeneral-Regular-68"/>
     <use x="330.599899" xlink:href="#STIXGeneral-Regular-97"/>
     <use x="374.999893" xlink:href="#STIXGeneral-Regular-107"/>
     <use x="424.999878" xlink:href="#STIXGeneral-Regular-111"/>
     <use x="474.999863" xlink:href="#STIXGeneral-Regular-116"/>
     <use x="502.79985" xlink:href="#STIXGeneral-Regular-97"/>
    </g>
   </g>
   <g id="text_56">
    <!-- Tennessee -->
    <g transform="translate(208.674565 137.036371)scale(0.144 -0.144)">
     <defs>
      <path d="M 59.296875 49.203125 
L 56.90625 49.203125 
Q 55.296875 57.40625 52.390625 59.703125 
Q 49.5 62 41.5 62 
L 35.59375 62 
L 35.59375 11.09375 
Q 35.59375 5.40625 37.296875 3.796875 
Q 39 2.203125 45.203125 1.90625 
L 45.203125 0 
L 16 0 
L 16 1.90625 
Q 22.296875 2.296875 23.84375 4 
Q 25.40625 5.703125 25.40625 12.296875 
L 25.40625 62 
L 19.40625 62 
Q 11.296875 62 8.4375 59.640625 
Q 5.59375 57.296875 4.09375 49.203125 
L 1.703125 49.203125 
L 2.40625 66.203125 
L 58.59375 66.203125 
z
" id="STIXGeneral-Regular-84"/>
     </defs>
     <use xlink:href="#STIXGeneral-Regular-84"/>
     <use x="61.099991" xlink:href="#STIXGeneral-Regular-101"/>
     <use x="105.499985" xlink:href="#STIXGeneral-Regular-110"/>
     <use x="155.499969" xlink:href="#STIXGeneral-Regular-110"/>
     <use x="205.499954" xlink:href="#STIXGeneral-Regular-101"/>
     <use x="249.899948" xlink:href="#STIXGeneral-Regular-115"/>
     <use x="288.799942" xlink:href="#STIXGeneral-Regular-115"/>
     <use x="327.699936" xlink:href="#STIXGeneral-Regular-101"/>
     <use x="372.09993" xlink:href="#STIXGeneral-Regular-101"/>
    </g>
   </g>
   <g id="text_57">
    <!-- Texas -->
    <g transform="translate(119.279533 229.450247)scale(0.144 -0.144)">
     <use xlink:href="#STIXGeneral-Regular-84"/>
     <use x="61.099991" xlink:href="#STIXGeneral-Regular-101"/>
     <use x="105.499985" xlink:href="#STIXGeneral-Regular-120"/>
     <use x="155.499969" xlink:href="#STIXGeneral-Regular-97"/>
     <use x="199.899963" xlink:href="#STIXGeneral-Regular-115"/>
    </g>
   </g>
   <g id="text_58">
    <!-- Utah -->
    <g transform="translate(402.078583 129.376664)scale(0.144 -0.144)">
     <defs>
      <path d="M 70.5 66.203125 
L 70.5 64.296875 
Q 64.40625 63.703125 62.75 61.34375 
Q 61.09375 59 61.09375 51.59375 
L 61.09375 26.09375 
Q 61.09375 18.40625 60 14 
Q 58.90625 9.59375 55.703125 5.90625 
Q 49.296875 -1.40625 35.5 -1.40625 
Q 24.59375 -1.40625 18.5 3.203125 
Q 10.40625 9.203125 10.40625 24.90625 
L 10.40625 55.90625 
Q 10.40625 60.90625 8.84375 62.40625 
Q 7.296875 63.90625 1.40625 64.296875 
L 1.40625 66.203125 
L 29.703125 66.203125 
L 29.703125 64.296875 
Q 23.703125 63.796875 22.140625 62.140625 
Q 20.59375 60.5 20.59375 54.90625 
L 20.59375 23.703125 
Q 20.59375 17.203125 21.390625 13.703125 
Q 22.203125 10.203125 25 7.5 
Q 29.703125 3 37.796875 3 
Q 47.90625 3 53 8.90625 
Q 55.296875 11.703125 56 15.046875 
Q 56.703125 18.40625 56.703125 25 
L 56.703125 51.296875 
Q 56.703125 59.09375 55 61.5 
Q 53.296875 63.90625 47.296875 64.296875 
L 47.296875 66.203125 
z
" id="STIXGeneral-Regular-85"/>
     </defs>
     <use xlink:href="#STIXGeneral-Regular-85"/>
     <use x="72.199982" xlink:href="#STIXGeneral-Regular-116"/>
     <use x="99.999969" xlink:href="#STIXGeneral-Regular-97"/>
     <use x="144.399963" xlink:href="#STIXGeneral-Regular-104"/>
    </g>
   </g>
   <g id="text_59">
    <!-- Vermont -->
    <g transform="translate(269.434708 212.090215)scale(0.144 -0.144)">
     <defs>
      <path d="M 69.703125 66.203125 
L 69.703125 64.296875 
Q 66.59375 64.203125 64.59375 62.34375 
Q 62.59375 60.5 60.5 55.203125 
L 38.296875 -1.09375 
L 36.796875 -1.09375 
L 12.40625 53.296875 
Q 9.203125 60.40625 7.296875 62.296875 
Q 5.40625 64.203125 1.59375 64.296875 
L 1.59375 66.203125 
L 28.09375 66.203125 
L 28.09375 64.296875 
L 25.296875 64.09375 
Q 20.796875 63.796875 20.796875 61 
Q 20.796875 59 24.703125 50.296875 
L 39.90625 16.09375 
L 54.59375 53 
Q 56.5 57.796875 56.5 60.203125 
Q 56.5 60.90625 56.34375 61.453125 
Q 56.203125 62 56 62.390625 
Q 55.796875 62.796875 55.25 63.09375 
Q 54.703125 63.40625 54.390625 63.546875 
Q 54.09375 63.703125 53.296875 63.84375 
Q 52.5 64 52.140625 64.046875 
Q 51.796875 64.09375 50.75 64.1875 
Q 49.703125 64.296875 49.296875 64.296875 
L 49.296875 66.203125 
z
" id="STIXGeneral-Regular-86"/>
     </defs>
     <use xlink:href="#STIXGeneral-Regular-86"/>
     <use x="72.199982" xlink:href="#STIXGeneral-Regular-101"/>
     <use x="116.599976" xlink:href="#STIXGeneral-Regular-114"/>
     <use x="149.899963" xlink:href="#STIXGeneral-Regular-109"/>
     <use x="227.699951" xlink:href="#STIXGeneral-Regular-111"/>
     <use x="277.699936" xlink:href="#STIXGeneral-Regular-110"/>
     <use x="327.699921" xlink:href="#STIXGeneral-Regular-116"/>
    </g>
   </g>
   <g id="text_60">
    <!-- Virginia -->
    <g transform="translate(145.533471 142.990092)scale(0.144 -0.144)">
     <use xlink:href="#STIXGeneral-Regular-86"/>
     <use x="72.199982" xlink:href="#STIXGeneral-Regular-105"/>
     <use x="99.999969" xlink:href="#STIXGeneral-Regular-114"/>
     <use x="133.299957" xlink:href="#STIXGeneral-Regular-103"/>
     <use x="183.299942" xlink:href="#STIXGeneral-Regular-105"/>
     <use x="211.09993" xlink:href="#STIXGeneral-Regular-110"/>
     <use x="261.099915" xlink:href="#STIXGeneral-Regular-105"/>
     <use x="288.899902" xlink:href="#STIXGeneral-Regular-97"/>
    </g>
   </g>
   <g id="text_61">
    <!-- Washington -->
    <g transform="translate(373.235807 177.739948)scale(0.144 -0.144)">
     <defs>
      <path d="M 93.203125 66.203125 
L 93.203125 64.296875 
Q 89.203125 63.5 87.75 62.34375 
Q 86.296875 61.203125 84.90625 57.296875 
Q 73.5 26.703125 64.5 -1.09375 
L 63 -1.09375 
Q 56.90625 15.796875 47 41.203125 
L 31.59375 -1.09375 
L 30.09375 -1.09375 
Q 26.703125 9 19.953125 27.390625 
Q 13.203125 45.796875 10.90625 52.296875 
Q 8.40625 59.5 6.34375 61.84375 
Q 4.296875 64.203125 0.5 64.296875 
L 0.5 66.203125 
L 24.90625 66.203125 
L 24.90625 64.296875 
Q 21.203125 64.203125 19.84375 63.5 
Q 18.5 62.796875 18.5 61.203125 
Q 18.5 59.5 19.59375 56.5 
L 34 18.90625 
L 44.40625 47.203125 
L 41.59375 54.703125 
Q 39.203125 61.203125 37.5 62.703125 
Q 35.796875 64.203125 31.40625 64.296875 
L 31.40625 66.203125 
L 57.90625 66.203125 
L 57.90625 64.296875 
Q 50.203125 64.09375 50.203125 60.796875 
Q 50.203125 59.5 51.90625 55 
L 66.203125 18.59375 
L 78.796875 52.5 
Q 80.5 57.296875 80.5 60.203125 
Q 80.5 64.203125 73.5 64.296875 
L 73.5 66.203125 
z
" id="STIXGeneral-Regular-87"/>
     </defs>
     <use xlink:href="#STIXGeneral-Regular-87"/>
     <use x="94.399994" xlink:href="#STIXGeneral-Regular-97"/>
     <use x="138.799988" xlink:href="#STIXGeneral-Regular-115"/>
     <use x="177.699982" xlink:href="#STIXGeneral-Regular-104"/>
     <use x="227.699966" xlink:href="#STIXGeneral-Regular-105"/>
     <use x="255.499954" xlink:href="#STIXGeneral-Regular-110"/>
     <use x="305.499939" xlink:href="#STIXGeneral-Regular-103"/>
     <use x="355.499924" xlink:href="#STIXGeneral-Regular-116"/>
     <use x="383.299911" xlink:href="#STIXGeneral-Regular-111"/>
     <use x="433.299896" xlink:href="#STIXGeneral-Regular-110"/>
    </g>
   </g>
   <g id="text_62">
    <!-- West Virginia -->
    <g transform="translate(151.594967 163.881788)scale(0.144 -0.144)">
     <use xlink:href="#STIXGeneral-Regular-87"/>
     <use x="94.399994" xlink:href="#STIXGeneral-Regular-101"/>
     <use x="138.799988" xlink:href="#STIXGeneral-Regular-115"/>
     <use x="177.699982" xlink:href="#STIXGeneral-Regular-116"/>
     <use x="205.499969" xlink:href="#STIXGeneral-Regular-32"/>
     <use x="230.499954" xlink:href="#STIXGeneral-Regular-86"/>
     <use x="302.699936" xlink:href="#STIXGeneral-Regular-105"/>
     <use x="330.499924" xlink:href="#STIXGeneral-Regular-114"/>
     <use x="363.799911" xlink:href="#STIXGeneral-Regular-103"/>
     <use x="413.799896" xlink:href="#STIXGeneral-Regular-105"/>
     <use x="441.599884" xlink:href="#STIXGeneral-Regular-110"/>
     <use x="491.599869" xlink:href="#STIXGeneral-Regular-105"/>
     <use x="519.399857" xlink:href="#STIXGeneral-Regular-97"/>
    </g>
   </g>
   <g id="text_63">
    <!-- Wisconsin -->
    <g transform="translate(340.740331 187.504785)scale(0.144 -0.144)">
     <use xlink:href="#STIXGeneral-Regular-87"/>
     <use x="94.399994" xlink:href="#STIXGeneral-Regular-105"/>
     <use x="122.199982" xlink:href="#STIXGeneral-Regular-115"/>
     <use x="161.099976" xlink:href="#STIXGeneral-Regular-99"/>
     <use x="205.499969" xlink:href="#STIXGeneral-Regular-111"/>
     <use x="255.499954" xlink:href="#STIXGeneral-Regular-110"/>
     <use x="305.499939" xlink:href="#STIXGeneral-Regular-115"/>
     <use x="344.399933" xlink:href="#STIXGeneral-Regular-105"/>
     <use x="372.199921" xlink:href="#STIXGeneral-Regular-110"/>
    </g>
   </g>
   <g id="text_64">
    <!-- Wyoming -->
    <g transform="translate(251.680603 128.748006)scale(0.144 -0.144)">
     <use xlink:href="#STIXGeneral-Regular-87"/>
     <use x="94.399994" xlink:href="#STIXGeneral-Regular-121"/>
     <use x="144.399979" xlink:href="#STIXGeneral-Regular-111"/>
     <use x="194.399963" xlink:href="#STIXGeneral-Regular-109"/>
     <use x="272.199951" xlink:href="#STIXGeneral-Regular-105"/>
     <use x="299.999939" xlink:href="#STIXGeneral-Regular-110"/>
     <use x="349.999924" xlink:href="#STIXGeneral-Regular-103"/>
    </g>
   </g>
   <g id="text_65">
    <!-- Partial Regression Plot -->
    <g transform="translate(296.012756 17.03475)scale(0.144 -0.144)">
     <use xlink:href="#STIXGeneral-Regular-80"/>
     <use x="55.699997" xlink:href="#STIXGeneral-Regular-97"/>
     <use x="100.099991" xlink:href="#STIXGeneral-Regular-114"/>
     <use x="133.399979" xlink:href="#STIXGeneral-Regular-116"/>
     <use x="161.199966" xlink:href="#STIXGeneral-Regular-105"/>
     <use x="188.999954" xlink:href="#STIXGeneral-Regular-97"/>
     <use x="233.399948" xlink:href="#STIXGeneral-Regular-108"/>
     <use x="261.199936" xlink:href="#STIXGeneral-Regular-32"/>
     <use x="286.199921" xlink:href="#STIXGeneral-Regular-82"/>
     <use x="352.899918" xlink:href="#STIXGeneral-Regular-101"/>
     <use x="397.299911" xlink:href="#STIXGeneral-Regular-103"/>
     <use x="447.299896" xlink:href="#STIXGeneral-Regular-114"/>
     <use x="480.599884" xlink:href="#STIXGeneral-Regular-101"/>
     <use x="524.999878" xlink:href="#STIXGeneral-Regular-115"/>
     <use x="563.899872" xlink:href="#STIXGeneral-Regular-115"/>
     <use x="602.799866" xlink:href="#STIXGeneral-Regular-105"/>
     <use x="630.599854" xlink:href="#STIXGeneral-Regular-111"/>
     <use x="680.599838" xlink:href="#STIXGeneral-Regular-110"/>
     <use x="730.599823" xlink:href="#STIXGeneral-Regular-32"/>
     <use x="755.599808" xlink:href="#STIXGeneral-Regular-80"/>
     <use x="811.299805" xlink:href="#STIXGeneral-Regular-108"/>
     <use x="839.099792" xlink:href="#STIXGeneral-Regular-111"/>
     <use x="889.099777" xlink:href="#STIXGeneral-Regular-116"/>
    </g>
   </g>
  </g>
 </g>
 <defs>
  <clipPath id="p851f211b7d">
   <rect height="318.754" width="618.662261" x="52.7" y="23.03475"/>
  </clipPath>
 </defs>
</svg>
