<?xml version="1.0" encoding="utf-8" standalone="no"?>
<!DOCTYPE svg PUBLIC "-//W3C//DTD SVG 1.1//EN"
  "http://www.w3.org/Graphics/SVG/1.1/DTD/svg11.dtd">
<!-- Created with matplotlib (https://matplotlib.org/) -->
<svg height="362.88pt" version="1.1" viewBox="0 0 686.88 362.88" width="686.88pt" xmlns="http://www.w3.org/2000/svg" xmlns:xlink="http://www.w3.org/1999/xlink">
 <metadata>
  <rdf:RDF xmlns:cc="http://creativecommons.org/ns#" xmlns:dc="http://purl.org/dc/elements/1.1/" xmlns:rdf="http://www.w3.org/1999/02/22-rdf-syntax-ns#">
   <cc:Work>
    <dc:type rdf:resource="http://purl.org/dc/dcmitype/StillImage"/>
    <dc:date>2021-02-14T11:36:46.958126</dc:date>
    <dc:format>image/svg+xml</dc:format>
    <dc:creator>
     <cc:Agent>
      <dc:title>Matplotlib v3.3.4, https://matplotlib.org/</dc:title>
     </cc:Agent>
    </dc:creator>
   </cc:Work>
  </rdf:RDF>
 </metadata>
 <defs>
  <style type="text/css">*{stroke-linecap:butt;stroke-linejoin:round;}</style>
 </defs>
 <g id="figure_1">
  <g id="patch_1">
   <path d="M 0 362.88 
L 686.88 362.88 
L 686.88 0 
L 0 0 
z
" style="fill:none;"/>
  </g>
  <g id="axes_1">
   <g id="patch_2">
    <path d="M 56.2 308.68 
L 679.68 308.68 
L 679.68 28.225312 
L 56.2 28.225312 
z
" style="fill:#ffffff;"/>
   </g>
   <g id="matplotlib.axis_1">
    <g id="xtick_1">
     <g id="line2d_1">
      <defs>
       <path d="M 0 0 
L 0 3.5 
" id="m6ebff2c45d" style="stroke:#000000;stroke-width:0.8;"/>
      </defs>
      <g>
       <use style="stroke:#000000;stroke-width:0.8;" x="111.648184" xlink:href="#m6ebff2c45d" y="308.68"/>
      </g>
     </g>
     <g id="text_1">
      <!-- −2 -->
      <g transform="translate(99.798184 329.339375)scale(0.2 -0.2)">
       <defs>
        <path d="M 62.09375 22 
L 6.40625 22 
L 6.40625 28.59375 
L 62.09375 28.59375 
z
" id="STIXGeneral-Regular-8722"/>
        <path d="M 47.40625 13.703125 
L 42 0 
L 2.90625 0 
L 2.90625 1.203125 
L 20.703125 20.09375 
Q 27.703125 27.40625 30.703125 33.5 
Q 33.703125 39.59375 33.703125 46.09375 
Q 33.703125 52.796875 30 56.5 
Q 26.296875 60.203125 19.796875 60.203125 
Q 14.40625 60.203125 11.25 57.390625 
Q 8.09375 54.59375 5.09375 47.203125 
L 3 47.703125 
Q 4.703125 57 9.84375 62.296875 
Q 15 67.59375 23.796875 67.59375 
Q 32.09375 67.59375 37.1875 62.59375 
Q 42.296875 57.59375 42.296875 50 
Q 42.296875 38.703125 29.5 25.203125 
L 13 7.59375 
L 36.40625 7.59375 
Q 39.703125 7.59375 41.640625 8.890625 
Q 43.59375 10.203125 46 14.296875 
z
" id="STIXGeneral-Regular-50"/>
       </defs>
       <use xlink:href="#STIXGeneral-Regular-8722"/>
       <use x="68.499985" xlink:href="#STIXGeneral-Regular-50"/>
      </g>
     </g>
    </g>
    <g id="xtick_2">
     <g id="line2d_2">
      <g>
       <use style="stroke:#000000;stroke-width:0.8;" x="239.794092" xlink:href="#m6ebff2c45d" y="308.68"/>
      </g>
     </g>
     <g id="text_2">
      <!-- −1 -->
      <g transform="translate(227.944092 329.339375)scale(0.2 -0.2)">
       <defs>
        <path d="M 39.40625 0 
L 11.796875 0 
L 11.796875 1.5 
Q 17.296875 1.796875 19.296875 3.546875 
Q 21.296875 5.296875 21.296875 9.5 
L 21.296875 54.40625 
Q 21.296875 59.296875 18.296875 59.296875 
Q 16.90625 59.296875 13.796875 58.09375 
L 11.09375 57.09375 
L 11.09375 58.5 
L 29 67.59375 
L 29.90625 67.296875 
L 29.90625 7.59375 
Q 29.90625 4.296875 31.90625 2.890625 
Q 33.90625 1.5 39.40625 1.5 
z
" id="STIXGeneral-Regular-49"/>
       </defs>
       <use xlink:href="#STIXGeneral-Regular-8722"/>
       <use x="68.499985" xlink:href="#STIXGeneral-Regular-49"/>
      </g>
     </g>
    </g>
    <g id="xtick_3">
     <g id="line2d_3">
      <g>
       <use style="stroke:#000000;stroke-width:0.8;" x="367.94" xlink:href="#m6ebff2c45d" y="308.68"/>
      </g>
     </g>
     <g id="text_3">
      <!-- 0 -->
      <g transform="translate(362.94 329.339375)scale(0.2 -0.2)">
       <defs>
        <path d="M 47.59375 33 
Q 47.59375 26.296875 46.296875 20.34375 
Q 45 14.40625 42.453125 9.40625 
Q 39.90625 4.40625 35.40625 1.5 
Q 30.90625 -1.40625 25 -1.40625 
Q 18.90625 -1.40625 14.296875 1.6875 
Q 9.703125 4.796875 7.203125 10 
Q 4.703125 15.203125 3.546875 21.09375 
Q 2.40625 27 2.40625 33.59375 
Q 2.40625 42.90625 4.703125 50.34375 
Q 7 57.796875 12.34375 62.6875 
Q 17.703125 67.59375 25.40625 67.59375 
Q 35.203125 67.59375 41.390625 58 
Q 47.59375 48.40625 47.59375 33 
z
M 38 32.5 
Q 38 48.296875 34.640625 56.640625 
Q 31.296875 65 24.796875 65 
Q 18.59375 65 15.296875 56.59375 
Q 12 48.203125 12 32.90625 
Q 12 17.5 15.296875 9.34375 
Q 18.59375 1.203125 25 1.203125 
Q 31.296875 1.203125 34.640625 9.34375 
Q 38 17.5 38 32.5 
z
" id="STIXGeneral-Regular-48"/>
       </defs>
       <use xlink:href="#STIXGeneral-Regular-48"/>
      </g>
     </g>
    </g>
    <g id="xtick_4">
     <g id="line2d_4">
      <g>
       <use style="stroke:#000000;stroke-width:0.8;" x="496.085908" xlink:href="#m6ebff2c45d" y="308.68"/>
      </g>
     </g>
     <g id="text_4">
      <!-- 1 -->
      <g transform="translate(491.085908 329.339375)scale(0.2 -0.2)">
       <use xlink:href="#STIXGeneral-Regular-49"/>
      </g>
     </g>
    </g>
    <g id="xtick_5">
     <g id="line2d_5">
      <g>
       <use style="stroke:#000000;stroke-width:0.8;" x="624.231816" xlink:href="#m6ebff2c45d" y="308.68"/>
      </g>
     </g>
     <g id="text_5">
      <!-- 2 -->
      <g transform="translate(619.231816 329.339375)scale(0.2 -0.2)">
       <use xlink:href="#STIXGeneral-Regular-50"/>
      </g>
     </g>
    </g>
    <g id="text_6">
     <!-- Theoretical quantiles -->
     <g transform="translate(283.788437 351.339375)scale(0.2 -0.2)">
      <defs>
       <path d="M 59.296875 49.203125 
L 56.90625 49.203125 
Q 55.296875 57.40625 52.390625 59.703125 
Q 49.5 62 41.5 62 
L 35.59375 62 
L 35.59375 11.09375 
Q 35.59375 5.40625 37.296875 3.796875 
Q 39 2.203125 45.203125 1.90625 
L 45.203125 0 
L 16 0 
L 16 1.90625 
Q 22.296875 2.296875 23.84375 4 
Q 25.40625 5.703125 25.40625 12.296875 
L 25.40625 62 
L 19.40625 62 
Q 11.296875 62 8.4375 59.640625 
Q 5.59375 57.296875 4.09375 49.203125 
L 1.703125 49.203125 
L 2.40625 66.203125 
L 58.59375 66.203125 
z
" id="STIXGeneral-Regular-84"/>
       <path d="M 48.703125 0 
L 27.5 0 
L 27.5 1.5 
Q 31.90625 2 33.09375 3.5 
Q 34.296875 5 34.296875 10.203125 
L 34.296875 30 
Q 34.296875 40.59375 26.90625 40.59375 
Q 23.90625 40.59375 21.40625 39.1875 
Q 18.90625 37.796875 15.703125 34.296875 
L 15.703125 10.203125 
Q 15.703125 5 16.890625 3.5 
Q 18.09375 2 22.5 1.5 
L 22.5 0 
L 0.90625 0 
L 0.90625 1.5 
Q 5.203125 2.09375 6.25 3.5 
Q 7.296875 4.90625 7.296875 10.203125 
L 7.296875 57.296875 
Q 7.296875 60.5 6.34375 61.453125 
Q 5.40625 62.40625 2.203125 62.40625 
Q 1.296875 62.40625 1 62.296875 
L 1 63.90625 
L 3.703125 64.703125 
Q 11.40625 67 15.203125 68.296875 
L 15.703125 68 
L 15.703125 37.59375 
Q 19.203125 42.09375 22.59375 44.046875 
Q 26 46 30.40625 46 
Q 42.703125 46 42.703125 30.09375 
L 42.703125 10.203125 
Q 42.703125 5 43.640625 3.640625 
Q 44.59375 2.296875 48.703125 1.5 
z
" id="STIXGeneral-Regular-104"/>
       <path d="M 40.796875 16.40625 
L 42.40625 15.703125 
Q 36.40625 -1 21.5 -1 
Q 12.703125 -1 7.59375 5.140625 
Q 2.5 11.296875 2.5 21.703125 
Q 2.5 32.40625 8.203125 39.203125 
Q 13.90625 46 23.203125 46 
Q 32.203125 46 37.09375 39.09375 
Q 40 35.09375 40.5 27.703125 
L 9.703125 27.703125 
Q 10.09375 21.40625 10.9375 18.09375 
Q 11.796875 14.796875 14.296875 11.40625 
Q 18.5 5.90625 25.40625 5.90625 
Q 30.296875 5.90625 33.640625 8.296875 
Q 37 10.703125 40.796875 16.40625 
z
M 9.90625 30.90625 
L 30.296875 30.90625 
Q 29.40625 37.203125 27.34375 39.796875 
Q 25.296875 42.40625 20.5 42.40625 
Q 16.296875 42.40625 13.5 39.453125 
Q 10.703125 36.5 9.90625 30.90625 
z
" id="STIXGeneral-Regular-101"/>
       <path d="M 47 23.09375 
Q 47 12.59375 40.75 5.796875 
Q 34.5 -1 24.5 -1 
Q 15.296875 -1 9.09375 5.75 
Q 2.90625 12.5 2.90625 22.796875 
Q 2.90625 33.203125 9.09375 39.59375 
Q 15.296875 46 25.40625 46 
Q 34.703125 46 40.84375 39.640625 
Q 47 33.296875 47 23.09375 
z
M 38 20.40625 
Q 38 31.796875 33 38.203125 
Q 29 43.203125 23.5 43.203125 
Q 18.296875 43.203125 15.09375 38.953125 
Q 11.90625 34.703125 11.90625 27.296875 
Q 11.90625 14.5 17.203125 6.796875 
Q 20.59375 1.796875 26.203125 1.796875 
Q 31.703125 1.796875 34.84375 6.75 
Q 38 11.703125 38 20.40625 
z
" id="STIXGeneral-Regular-111"/>
       <path d="M 16 45.796875 
L 16 36.59375 
Q 19.796875 42 22.34375 44 
Q 24.90625 46 28 46 
Q 30.59375 46 32.046875 44.59375 
Q 33.5 43.203125 33.5 40.703125 
Q 33.5 38.59375 32.453125 37.390625 
Q 31.40625 36.203125 29.59375 36.203125 
Q 27.703125 36.203125 25.59375 38.203125 
Q 24 39.703125 23 39.703125 
Q 20.90625 39.703125 18.453125 36.796875 
Q 16 33.90625 16 31.5 
L 16 9 
Q 16 4.703125 17.703125 3.203125 
Q 19.40625 1.703125 24.5 1.5 
L 24.5 0 
L 0.5 0 
L 0.5 1.5 
Q 5.296875 2.40625 6.4375 3.5 
Q 7.59375 4.59375 7.59375 8.40625 
L 7.59375 33.40625 
Q 7.59375 36.703125 6.84375 38.046875 
Q 6.09375 39.40625 4.203125 39.40625 
Q 2.59375 39.40625 0.703125 39 
L 0.703125 40.59375 
Q 7 42.59375 15.5 46 
z
" id="STIXGeneral-Regular-114"/>
       <path d="M 26.59375 7.703125 
L 27.90625 6.59375 
Q 23.09375 -1 15.796875 -1 
Q 7 -1 7 11.703125 
L 7 41.796875 
L 1.703125 41.796875 
Q 1.296875 42.09375 1.296875 42.5 
Q 1.296875 43.296875 3 44.40625 
Q 6.796875 46.59375 12.703125 55.09375 
Q 12.90625 55.40625 13.65625 56.34375 
Q 14.40625 57.296875 14.703125 57.90625 
Q 15.40625 57.90625 15.40625 56.59375 
L 15.40625 45 
L 25.5 45 
L 25.5 41.796875 
L 15.40625 41.796875 
L 15.40625 13.203125 
Q 15.40625 8.40625 16.59375 6.296875 
Q 17.796875 4.203125 20.59375 4.203125 
Q 23.59375 4.203125 26.59375 7.703125 
z
" id="STIXGeneral-Regular-116"/>
       <path d="M 18 63.203125 
Q 18 61 16.5 59.546875 
Q 15 58.09375 12.796875 58.09375 
Q 10.703125 58.09375 9.25 59.546875 
Q 7.796875 61 7.796875 63.203125 
Q 7.796875 65.296875 9.296875 66.796875 
Q 10.796875 68.296875 12.90625 68.296875 
Q 15.09375 68.296875 16.546875 66.796875 
Q 18 65.296875 18 63.203125 
z
M 25.296875 0 
L 1.59375 0 
L 1.59375 1.5 
Q 6.796875 1.796875 8.140625 3.296875 
Q 9.5 4.796875 9.5 10.40625 
L 9.5 33.09375 
Q 9.5 36.59375 8.796875 38 
Q 8.09375 39.40625 6.203125 39.40625 
Q 3.796875 39.40625 2 38.90625 
L 2 40.5 
L 17.5 46 
L 17.90625 45.59375 
L 17.90625 10.5 
Q 17.90625 4.90625 19.15625 3.40625 
Q 20.40625 1.90625 25.296875 1.5 
z
" id="STIXGeneral-Regular-105"/>
       <path d="M 39.796875 15.59375 
L 41.203125 14.703125 
Q 36.90625 6.296875 33 3.203125 
Q 27.90625 -1 21.5 -1 
Q 13.203125 -1 7.84375 5.25 
Q 2.5 11.5 2.5 21.203125 
Q 2.5 33.90625 10.90625 40.90625 
Q 17.09375 46 24.40625 46 
Q 30.703125 46 35.25 42.953125 
Q 39.796875 39.90625 39.796875 35.703125 
Q 39.796875 34 38.390625 32.75 
Q 37 31.5 35.09375 31.5 
Q 31.59375 31.5 30.296875 36.09375 
L 29.703125 38.296875 
Q 28.90625 41.09375 27.703125 42.09375 
Q 26.5 43.09375 23.796875 43.09375 
Q 17.703125 43.09375 13.953125 38.296875 
Q 10.203125 33.5 10.203125 25.703125 
Q 10.203125 17.09375 14.5 11.640625 
Q 18.796875 6.203125 25.703125 6.203125 
Q 30 6.203125 33.09375 8.25 
Q 36.203125 10.296875 39.796875 15.59375 
z
" id="STIXGeneral-Regular-99"/>
       <path d="M 44.203125 6.59375 
L 44.203125 3.796875 
Q 40.40625 -1 35.203125 -1 
Q 29.5 -1 28.796875 6.296875 
L 28.703125 6.296875 
Q 22.296875 -1 14.203125 -1 
Q 9.5 -1 6.59375 1.75 
Q 3.703125 4.5 3.703125 9.40625 
Q 3.703125 16.40625 10.703125 21.09375 
Q 15.5 24.296875 28.703125 29.203125 
L 28.703125 34.59375 
Q 28.703125 39.09375 26.546875 41.34375 
Q 24.40625 43.59375 20.90625 43.59375 
Q 17.90625 43.59375 15.90625 42.140625 
Q 13.90625 40.703125 13.90625 38.703125 
Q 13.90625 37.796875 14.203125 36.6875 
Q 14.5 35.59375 14.5 34.5 
Q 14.5 33 13.140625 31.703125 
Q 11.796875 30.40625 9.90625 30.40625 
Q 8.203125 30.40625 6.890625 31.703125 
Q 5.59375 33 5.59375 35 
Q 5.59375 39.796875 10.703125 43 
Q 15.40625 46 22.203125 46 
Q 30.296875 46 34 41.5 
Q 35.796875 39.40625 36.296875 37.25 
Q 36.796875 35.09375 36.796875 30.40625 
L 36.796875 11.296875 
Q 36.796875 4.703125 39.90625 4.703125 
Q 41.90625 4.703125 44.203125 6.59375 
z
M 28.703125 12.703125 
L 28.703125 26.796875 
Q 19.5 23.59375 15.90625 20.203125 
Q 12.5 17.09375 12.5 12.5 
Q 12.5 8.703125 14.390625 6.75 
Q 16.296875 4.796875 19.40625 4.796875 
Q 22.703125 4.796875 25.203125 6.40625 
Q 27.296875 7.90625 28 9.203125 
Q 28.703125 10.5 28.703125 12.703125 
z
" id="STIXGeneral-Regular-97"/>
       <path d="M 25.703125 0 
L 2.09375 0 
L 2.09375 1.5 
Q 6.796875 1.90625 8.296875 3.453125 
Q 9.796875 5 9.796875 9.203125 
L 9.796875 56.09375 
Q 9.796875 59.703125 8.890625 61.09375 
Q 8 62.5 5.59375 62.5 
Q 3.5 62.5 1.90625 62.296875 
L 1.90625 63.90625 
Q 11.40625 66.203125 17.703125 68.296875 
L 18.203125 67.90625 
L 18.203125 8.703125 
Q 18.203125 4.5 19.59375 3.140625 
Q 21 1.796875 25.703125 1.5 
z
" id="STIXGeneral-Regular-108"/>
       <path id="STIXGeneral-Regular-32"/>
       <path d="M 48.796875 -21.703125 
L 25.203125 -21.703125 
L 25.203125 -20 
Q 30.5 -19.59375 32.296875 -18.09375 
Q 34.09375 -16.59375 34.09375 -12.40625 
L 34.09375 6.40625 
Q 27.296875 -1 18.40625 -1 
Q 11.40625 -1 6.90625 5 
Q 2.40625 11 2.40625 20.5 
Q 2.40625 31.296875 8.75 38.640625 
Q 15.09375 46 24.40625 46 
Q 30 46 36 42.5 
L 41.40625 45.703125 
L 42.5 45.703125 
L 42.5 -14.09375 
Q 42.5 -17.296875 43.703125 -18.4375 
Q 44.90625 -19.59375 48.796875 -20 
z
M 34.09375 12.703125 
L 34.09375 33.296875 
Q 34.09375 43.09375 24.796875 43.09375 
Q 18.40625 43.09375 14.703125 38 
Q 11 32.90625 11 24.09375 
Q 11 18.90625 12.546875 14.453125 
Q 14.09375 10 16.59375 7.796875 
Q 19.59375 5.09375 24.09375 5.09375 
Q 29.40625 5.09375 32.90625 8.296875 
Q 34.09375 9.40625 34.09375 12.703125 
z
" id="STIXGeneral-Regular-113"/>
       <path d="M 48 5 
L 48 3.59375 
Q 40.203125 1.5 34.296875 -0.90625 
L 33.796875 -0.59375 
L 33.796875 7.59375 
L 33.59375 7.59375 
Q 27.296875 -1 19.296875 -1 
Q 13.59375 -1 10.34375 2.5 
Q 7.09375 6 7.09375 11.796875 
L 7.09375 36.90625 
Q 7.09375 40.59375 5.796875 42 
Q 4.5 43.40625 0.90625 43.59375 
L 0.90625 45 
L 15.5 45 
L 15.5 12.703125 
Q 15.5 9.296875 17.546875 7.046875 
Q 19.59375 4.796875 22.59375 4.796875 
Q 27.5 4.796875 31 7.90625 
Q 32.296875 9.09375 32.796875 10.140625 
Q 33.296875 11.203125 33.296875 13.703125 
L 33.296875 36.796875 
Q 33.296875 40.703125 31.890625 41.84375 
Q 30.5 43 25.90625 43.296875 
L 25.90625 45 
L 41.703125 45 
L 41.703125 10.703125 
Q 41.703125 7.203125 42.84375 6.09375 
Q 44 5 47.40625 5 
z
" id="STIXGeneral-Regular-117"/>
       <path d="M 48.5 0 
L 27.703125 0 
L 27.796875 1.5 
Q 31.5 1.796875 32.75 3.640625 
Q 34 5.5 34 10.5 
L 34 30.40625 
Q 34 40.5 26.703125 40.5 
Q 24.203125 40.5 22 39.296875 
Q 19.796875 38.09375 16.40625 34.796875 
L 16.40625 7.203125 
Q 16.40625 4.203125 17.75 3 
Q 19.09375 1.796875 22.90625 1.5 
L 22.90625 0 
L 1.796875 0 
L 1.796875 1.5 
Q 5.59375 1.796875 6.796875 3.34375 
Q 8 4.90625 8 9.40625 
L 8 33.703125 
Q 8 37.40625 7.296875 38.796875 
Q 6.59375 40.203125 4.5 40.203125 
Q 2.5 40.203125 1.59375 39.796875 
L 1.59375 41.5 
Q 8.59375 43.5 15.296875 46 
L 16.09375 45.703125 
L 16.09375 37.90625 
L 16.203125 37.90625 
Q 23.296875 46 30.59375 46 
Q 36.296875 46 39.34375 42 
Q 42.40625 38 42.40625 30.59375 
L 42.40625 8.5 
Q 42.40625 4.5 43.59375 3.203125 
Q 44.796875 1.90625 48.5 1.5 
z
" id="STIXGeneral-Regular-110"/>
       <path d="M 15.59375 30.09375 
L 26 23.796875 
Q 31 20.796875 32.890625 18.1875 
Q 34.796875 15.59375 34.796875 11.5 
Q 34.796875 6.5 30.640625 2.75 
Q 26.5 -1 20.796875 -1 
Q 16.09375 -1 13.5 -0.09375 
Q 10.796875 0.796875 8.90625 0.796875 
Q 7.203125 0.796875 6.5 -0.40625 
L 5.203125 -0.40625 
L 5.203125 15.296875 
L 6.796875 15.296875 
Q 8.40625 8 11.40625 4.59375 
Q 14.40625 1.203125 19.5 1.203125 
Q 23.203125 1.203125 25.5 3.296875 
Q 27.796875 5.40625 27.796875 8.59375 
Q 27.796875 13.203125 22.5 16.09375 
L 17.09375 19.09375 
Q 5.09375 25.796875 5.09375 33.59375 
Q 5.09375 39.40625 8.84375 42.65625 
Q 12.59375 45.90625 18.90625 45.90625 
Q 23.296875 45.90625 25.59375 44.796875 
Q 27.40625 44 28.40625 44 
Q 29.09375 44 30 45 
L 31.09375 45 
L 31.59375 31.40625 
L 30.09375 31.40625 
Q 28.40625 38.203125 25.84375 40.953125 
Q 23.296875 43.703125 18.796875 43.703125 
Q 15.40625 43.703125 13.34375 42 
Q 11.296875 40.296875 11.296875 36.90625 
Q 11.296875 35.203125 12.4375 33.25 
Q 13.59375 31.296875 15.59375 30.09375 
z
" id="STIXGeneral-Regular-115"/>
      </defs>
      <use xlink:href="#STIXGeneral-Regular-84"/>
      <use x="61.099991" xlink:href="#STIXGeneral-Regular-104"/>
      <use x="111.099976" xlink:href="#STIXGeneral-Regular-101"/>
      <use x="155.499969" xlink:href="#STIXGeneral-Regular-111"/>
      <use x="205.499954" xlink:href="#STIXGeneral-Regular-114"/>
      <use x="238.799942" xlink:href="#STIXGeneral-Regular-101"/>
      <use x="283.199936" xlink:href="#STIXGeneral-Regular-116"/>
      <use x="310.999924" xlink:href="#STIXGeneral-Regular-105"/>
      <use x="338.799911" xlink:href="#STIXGeneral-Regular-99"/>
      <use x="383.199905" xlink:href="#STIXGeneral-Regular-97"/>
      <use x="427.599899" xlink:href="#STIXGeneral-Regular-108"/>
      <use x="455.399887" xlink:href="#STIXGeneral-Regular-32"/>
      <use x="480.399872" xlink:href="#STIXGeneral-Regular-113"/>
      <use x="530.399857" xlink:href="#STIXGeneral-Regular-117"/>
      <use x="580.399841" xlink:href="#STIXGeneral-Regular-97"/>
      <use x="624.799835" xlink:href="#STIXGeneral-Regular-110"/>
      <use x="674.79982" xlink:href="#STIXGeneral-Regular-116"/>
      <use x="702.599808" xlink:href="#STIXGeneral-Regular-105"/>
      <use x="730.399796" xlink:href="#STIXGeneral-Regular-108"/>
      <use x="758.199783" xlink:href="#STIXGeneral-Regular-101"/>
      <use x="802.599777" xlink:href="#STIXGeneral-Regular-115"/>
     </g>
    </g>
   </g>
   <g id="matplotlib.axis_2">
    <g id="ytick_1">
     <g id="line2d_6">
      <defs>
       <path d="M 0 0 
L -3.5 0 
" id="m82a94f88df" style="stroke:#000000;stroke-width:0.8;"/>
      </defs>
      <g>
       <use style="stroke:#000000;stroke-width:0.8;" x="56.2" xlink:href="#m82a94f88df" y="275.897142"/>
      </g>
     </g>
     <g id="text_7">
      <!-- 0 -->
      <g transform="translate(39.2 282.72683)scale(0.2 -0.2)">
       <use xlink:href="#STIXGeneral-Regular-48"/>
      </g>
     </g>
    </g>
    <g id="ytick_2">
     <g id="line2d_7">
      <g>
       <use style="stroke:#000000;stroke-width:0.8;" x="56.2" xlink:href="#m82a94f88df" y="227.359148"/>
      </g>
     </g>
     <g id="text_8">
      <!-- 5 -->
      <g transform="translate(39.2 234.188836)scale(0.2 -0.2)">
       <defs>
        <path d="M 43.796875 68.09375 
L 40.203125 59.59375 
Q 39.59375 58.296875 37.5 58.296875 
L 18.09375 58.296875 
L 14.09375 49.796875 
Q 25.09375 47.703125 30 45.25 
Q 34.90625 42.796875 39.09375 37 
Q 42.59375 32.203125 42.59375 24.296875 
Q 42.59375 17.09375 40.25 12.1875 
Q 37.90625 7.296875 32.796875 3.5 
Q 26 -1.40625 15.796875 -1.40625 
Q 10.09375 -1.40625 6.59375 0.296875 
Q 3.09375 2 3.09375 4.796875 
Q 3.09375 8.59375 7.59375 8.59375 
Q 11.203125 8.59375 15 5.5 
Q 18.90625 2.296875 22.09375 2.296875 
Q 27.296875 2.296875 31.4375 7.5 
Q 35.59375 12.703125 35.59375 19.203125 
Q 35.59375 28.796875 28.90625 34.203125 
Q 20.203125 41.203125 7.59375 41.203125 
Q 6.40625 41.203125 6.40625 42 
L 6.5 42.5 
L 17.40625 66.203125 
L 38.09375 66.203125 
Q 39.796875 66.203125 40.75 66.703125 
Q 41.703125 67.203125 42.90625 68.796875 
z
" id="STIXGeneral-Regular-53"/>
       </defs>
       <use xlink:href="#STIXGeneral-Regular-53"/>
      </g>
     </g>
    </g>
    <g id="ytick_3">
     <g id="line2d_8">
      <g>
       <use style="stroke:#000000;stroke-width:0.8;" x="56.2" xlink:href="#m82a94f88df" y="178.821155"/>
      </g>
     </g>
     <g id="text_9">
      <!-- 10 -->
      <g transform="translate(29.2 185.650842)scale(0.2 -0.2)">
       <use xlink:href="#STIXGeneral-Regular-49"/>
       <use x="49.999985" xlink:href="#STIXGeneral-Regular-48"/>
      </g>
     </g>
    </g>
    <g id="ytick_4">
     <g id="line2d_9">
      <g>
       <use style="stroke:#000000;stroke-width:0.8;" x="56.2" xlink:href="#m82a94f88df" y="130.283161"/>
      </g>
     </g>
     <g id="text_10">
      <!-- 15 -->
      <g transform="translate(29.2 137.112849)scale(0.2 -0.2)">
       <use xlink:href="#STIXGeneral-Regular-49"/>
       <use x="49.999985" xlink:href="#STIXGeneral-Regular-53"/>
      </g>
     </g>
    </g>
    <g id="ytick_5">
     <g id="line2d_10">
      <g>
       <use style="stroke:#000000;stroke-width:0.8;" x="56.2" xlink:href="#m82a94f88df" y="81.745168"/>
      </g>
     </g>
     <g id="text_11">
      <!-- 20 -->
      <g transform="translate(29.2 88.574855)scale(0.2 -0.2)">
       <use xlink:href="#STIXGeneral-Regular-50"/>
       <use x="49.999985" xlink:href="#STIXGeneral-Regular-48"/>
      </g>
     </g>
    </g>
    <g id="ytick_6">
     <g id="line2d_11">
      <g>
       <use style="stroke:#000000;stroke-width:0.8;" x="56.2" xlink:href="#m82a94f88df" y="33.207174"/>
      </g>
     </g>
     <g id="text_12">
      <!-- 25 -->
      <g transform="translate(29.2 40.036861)scale(0.2 -0.2)">
       <use xlink:href="#STIXGeneral-Regular-50"/>
       <use x="49.999985" xlink:href="#STIXGeneral-Regular-53"/>
      </g>
     </g>
    </g>
    <g id="text_13">
     <!-- Ordered Values -->
     <g transform="translate(20.859375 231.485469)rotate(-90)scale(0.2 -0.2)">
      <defs>
       <path d="M 68.796875 33.09375 
Q 68.796875 17.703125 59.6875 8.140625 
Q 50.59375 -1.40625 36.09375 -1.40625 
Q 21.5 -1.40625 12.453125 8.1875 
Q 3.40625 17.796875 3.40625 33.40625 
Q 3.40625 48.59375 12.453125 58.09375 
Q 21.5 67.59375 36.09375 67.59375 
Q 50.703125 67.59375 59.75 57.84375 
Q 68.796875 48.09375 68.796875 33.09375 
z
M 57.40625 33.703125 
Q 57.40625 42.203125 55 48.953125 
Q 52.59375 55.703125 48.296875 59.296875 
Q 42.703125 64 36 64 
Q 27.5 64 21.703125 57.296875 
Q 18.5 53.703125 16.640625 47.046875 
Q 14.796875 40.40625 14.796875 33.203125 
Q 14.796875 15 23.796875 6.703125 
Q 28.703125 2.203125 36.203125 2.203125 
Q 44 2.203125 49.09375 7 
Q 57.40625 15 57.40625 33.703125 
z
" id="STIXGeneral-Regular-79"/>
       <path d="M 49.09375 4.203125 
L 34.40625 -1 
L 34 -0.703125 
L 34 5.703125 
Q 29.203125 -1 21.203125 -1 
Q 12.90625 -1 7.796875 4.953125 
Q 2.703125 10.90625 2.703125 20.5 
Q 2.703125 31.09375 8.796875 38.546875 
Q 14.90625 46 23.5 46 
Q 28.90625 46 34 41.703125 
L 34 57.296875 
Q 34 60.40625 33.09375 61.40625 
Q 32.203125 62.40625 29.40625 62.40625 
Q 28 62.40625 27.203125 62.296875 
L 27.203125 63.90625 
Q 36.296875 66.296875 41.90625 68.296875 
L 42.40625 68.09375 
L 42.40625 11.40625 
Q 42.40625 7.90625 43.25 6.796875 
Q 44.09375 5.703125 46.796875 5.703125 
Q 47.40625 5.703125 49.09375 5.796875 
z
M 34 10.203125 
L 34 33.203125 
Q 34 37.203125 30.953125 40.203125 
Q 27.90625 43.203125 23.796875 43.203125 
Q 18.09375 43.203125 14.6875 38.09375 
Q 11.296875 33 11.296875 24.5 
Q 11.296875 15.296875 15.046875 9.75 
Q 18.796875 4.203125 25.09375 4.203125 
Q 29.796875 4.203125 32.5 7.40625 
Q 34 9.09375 34 10.203125 
z
" id="STIXGeneral-Regular-100"/>
       <path d="M 69.703125 66.203125 
L 69.703125 64.296875 
Q 66.59375 64.203125 64.59375 62.34375 
Q 62.59375 60.5 60.5 55.203125 
L 38.296875 -1.09375 
L 36.796875 -1.09375 
L 12.40625 53.296875 
Q 9.203125 60.40625 7.296875 62.296875 
Q 5.40625 64.203125 1.59375 64.296875 
L 1.59375 66.203125 
L 28.09375 66.203125 
L 28.09375 64.296875 
L 25.296875 64.09375 
Q 20.796875 63.796875 20.796875 61 
Q 20.796875 59 24.703125 50.296875 
L 39.90625 16.09375 
L 54.59375 53 
Q 56.5 57.796875 56.5 60.203125 
Q 56.5 60.90625 56.34375 61.453125 
Q 56.203125 62 56 62.390625 
Q 55.796875 62.796875 55.25 63.09375 
Q 54.703125 63.40625 54.390625 63.546875 
Q 54.09375 63.703125 53.296875 63.84375 
Q 52.5 64 52.140625 64.046875 
Q 51.796875 64.09375 50.75 64.1875 
Q 49.703125 64.296875 49.296875 64.296875 
L 49.296875 66.203125 
z
" id="STIXGeneral-Regular-86"/>
      </defs>
      <use xlink:href="#STIXGeneral-Regular-79"/>
      <use x="72.199982" xlink:href="#STIXGeneral-Regular-114"/>
      <use x="105.499969" xlink:href="#STIXGeneral-Regular-100"/>
      <use x="155.499954" xlink:href="#STIXGeneral-Regular-101"/>
      <use x="199.899948" xlink:href="#STIXGeneral-Regular-114"/>
      <use x="233.199936" xlink:href="#STIXGeneral-Regular-101"/>
      <use x="277.59993" xlink:href="#STIXGeneral-Regular-100"/>
      <use x="327.599915" xlink:href="#STIXGeneral-Regular-32"/>
      <use x="352.599899" xlink:href="#STIXGeneral-Regular-86"/>
      <use x="424.799881" xlink:href="#STIXGeneral-Regular-97"/>
      <use x="469.199875" xlink:href="#STIXGeneral-Regular-108"/>
      <use x="496.999863" xlink:href="#STIXGeneral-Regular-117"/>
      <use x="546.999847" xlink:href="#STIXGeneral-Regular-101"/>
      <use x="591.399841" xlink:href="#STIXGeneral-Regular-115"/>
     </g>
    </g>
   </g>
   <g id="line2d_12">
    <defs>
     <path d="M 0 3 
C 0.795609 3 1.55874 2.683901 2.12132 2.12132 
C 2.683901 1.55874 3 0.795609 3 0 
C 3 -0.795609 2.683901 -1.55874 2.12132 -2.12132 
C 1.55874 -2.683901 0.795609 -3 0 -3 
C -0.795609 -3 -1.55874 -2.683901 -2.12132 -2.12132 
C -2.683901 -1.55874 -3 -0.795609 -3 0 
C -3 0.795609 -2.683901 1.55874 -2.12132 2.12132 
C -1.55874 2.683901 -0.795609 3 0 3 
z
" id="m31f88781f3" style="stroke:#0000ff;"/>
    </defs>
    <g clip-path="url(#pd70318155a)">
     <use style="fill:#0000ff;stroke:#0000ff;" x="84.54" xlink:href="#m31f88781f3" y="267.160303"/>
     <use style="fill:#0000ff;stroke:#0000ff;" x="131.927106" xlink:href="#m31f88781f3" y="263.277264"/>
     <use style="fill:#0000ff;stroke:#0000ff;" x="159.874712" xlink:href="#m31f88781f3" y="263.277264"/>
     <use style="fill:#0000ff;stroke:#0000ff;" x="180.424218" xlink:href="#m31f88781f3" y="262.306504"/>
     <use style="fill:#0000ff;stroke:#0000ff;" x="197.039775" xlink:href="#m31f88781f3" y="261.335744"/>
     <use style="fill:#0000ff;stroke:#0000ff;" x="211.193774" xlink:href="#m31f88781f3" y="261.335744"/>
     <use style="fill:#0000ff;stroke:#0000ff;" x="223.657127" xlink:href="#m31f88781f3" y="258.423464"/>
     <use style="fill:#0000ff;stroke:#0000ff;" x="234.886997" xlink:href="#m31f88781f3" y="256.481945"/>
     <use style="fill:#0000ff;stroke:#0000ff;" x="245.178231" xlink:href="#m31f88781f3" y="256.481945"/>
     <use style="fill:#0000ff;stroke:#0000ff;" x="254.732939" xlink:href="#m31f88781f3" y="256.481945"/>
     <use style="fill:#0000ff;stroke:#0000ff;" x="263.69627" xlink:href="#m31f88781f3" y="253.569665"/>
     <use style="fill:#0000ff;stroke:#0000ff;" x="272.176401" xlink:href="#m31f88781f3" y="251.628145"/>
     <use style="fill:#0000ff;stroke:#0000ff;" x="280.256454" xlink:href="#m31f88781f3" y="250.657385"/>
     <use style="fill:#0000ff;stroke:#0000ff;" x="288.001964" xlink:href="#m31f88781f3" y="249.686626"/>
     <use style="fill:#0000ff;stroke:#0000ff;" x="295.465774" xlink:href="#m31f88781f3" y="248.715866"/>
     <use style="fill:#0000ff;stroke:#0000ff;" x="302.691351" xlink:href="#m31f88781f3" y="246.774346"/>
     <use style="fill:#0000ff;stroke:#0000ff;" x="309.715107" xlink:href="#m31f88781f3" y="246.774346"/>
     <use style="fill:#0000ff;stroke:#0000ff;" x="316.568063" xlink:href="#m31f88781f3" y="244.832826"/>
     <use style="fill:#0000ff;stroke:#0000ff;" x="323.277081" xlink:href="#m31f88781f3" y="244.832826"/>
     <use style="fill:#0000ff;stroke:#0000ff;" x="329.865789" xlink:href="#m31f88781f3" y="244.832826"/>
     <use style="fill:#0000ff;stroke:#0000ff;" x="336.355295" xlink:href="#m31f88781f3" y="240.949787"/>
     <use style="fill:#0000ff;stroke:#0000ff;" x="342.764747" xlink:href="#m31f88781f3" y="239.979027"/>
     <use style="fill:#0000ff;stroke:#0000ff;" x="349.111793" xlink:href="#m31f88781f3" y="237.066747"/>
     <use style="fill:#0000ff;stroke:#0000ff;" x="355.412955" xlink:href="#m31f88781f3" y="234.154468"/>
     <use style="fill:#0000ff;stroke:#0000ff;" x="361.683955" xlink:href="#m31f88781f3" y="231.242188"/>
     <use style="fill:#0000ff;stroke:#0000ff;" x="367.94" xlink:href="#m31f88781f3" y="230.271428"/>
     <use style="fill:#0000ff;stroke:#0000ff;" x="374.196045" xlink:href="#m31f88781f3" y="230.271428"/>
     <use style="fill:#0000ff;stroke:#0000ff;" x="380.467045" xlink:href="#m31f88781f3" y="228.329908"/>
     <use style="fill:#0000ff;stroke:#0000ff;" x="386.768207" xlink:href="#m31f88781f3" y="227.359148"/>
     <use style="fill:#0000ff;stroke:#0000ff;" x="393.115253" xlink:href="#m31f88781f3" y="224.446869"/>
     <use style="fill:#0000ff;stroke:#0000ff;" x="399.524705" xlink:href="#m31f88781f3" y="223.476109"/>
     <use style="fill:#0000ff;stroke:#0000ff;" x="406.014211" xlink:href="#m31f88781f3" y="223.476109"/>
     <use style="fill:#0000ff;stroke:#0000ff;" x="412.602919" xlink:href="#m31f88781f3" y="223.476109"/>
     <use style="fill:#0000ff;stroke:#0000ff;" x="419.311937" xlink:href="#m31f88781f3" y="223.476109"/>
     <use style="fill:#0000ff;stroke:#0000ff;" x="426.164893" xlink:href="#m31f88781f3" y="222.505349"/>
     <use style="fill:#0000ff;stroke:#0000ff;" x="433.188649" xlink:href="#m31f88781f3" y="222.505349"/>
     <use style="fill:#0000ff;stroke:#0000ff;" x="440.414226" xlink:href="#m31f88781f3" y="218.62231"/>
     <use style="fill:#0000ff;stroke:#0000ff;" x="447.878036" xlink:href="#m31f88781f3" y="217.65155"/>
     <use style="fill:#0000ff;stroke:#0000ff;" x="455.623546" xlink:href="#m31f88781f3" y="214.73927"/>
     <use style="fill:#0000ff;stroke:#0000ff;" x="463.703599" xlink:href="#m31f88781f3" y="214.73927"/>
     <use style="fill:#0000ff;stroke:#0000ff;" x="472.18373" xlink:href="#m31f88781f3" y="212.79775"/>
     <use style="fill:#0000ff;stroke:#0000ff;" x="481.147061" xlink:href="#m31f88781f3" y="211.82699"/>
     <use style="fill:#0000ff;stroke:#0000ff;" x="490.701769" xlink:href="#m31f88781f3" y="210.856231"/>
     <use style="fill:#0000ff;stroke:#0000ff;" x="500.993003" xlink:href="#m31f88781f3" y="208.914711"/>
     <use style="fill:#0000ff;stroke:#0000ff;" x="512.222873" xlink:href="#m31f88781f3" y="206.973191"/>
     <use style="fill:#0000ff;stroke:#0000ff;" x="524.686226" xlink:href="#m31f88781f3" y="204.060912"/>
     <use style="fill:#0000ff;stroke:#0000ff;" x="538.840225" xlink:href="#m31f88781f3" y="201.148632"/>
     <use style="fill:#0000ff;stroke:#0000ff;" x="555.455782" xlink:href="#m31f88781f3" y="194.353313"/>
     <use style="fill:#0000ff;stroke:#0000ff;" x="576.005288" xlink:href="#m31f88781f3" y="178.821155"/>
     <use style="fill:#0000ff;stroke:#0000ff;" x="603.952894" xlink:href="#m31f88781f3" y="156.493678"/>
     <use style="fill:#0000ff;stroke:#0000ff;" x="651.34" xlink:href="#m31f88781f3" y="40.973253"/>
    </g>
   </g>
   <g id="line2d_13">
    <path clip-path="url(#pd70318155a)" d="M 84.54 295.93206 
L 131.927106 284.628354 
L 159.874712 277.96174 
L 180.424218 273.059867 
L 197.039775 269.096397 
L 211.193774 265.720106 
L 223.657127 262.747102 
L 234.886997 260.068332 
L 245.178231 257.613464 
L 254.732939 255.334287 
L 263.69627 253.196177 
L 272.176401 251.173329 
L 280.256454 249.245915 
L 288.001964 247.398304 
L 295.465774 245.617889 
L 302.691351 243.894301 
L 309.715107 242.218857 
L 316.568063 240.584155 
L 323.277081 238.983788 
L 329.865789 237.412119 
L 336.355295 235.864114 
L 342.764747 234.335206 
L 349.111793 232.821183 
L 355.412955 231.318106 
L 361.683955 229.822223 
L 367.94 228.329908 
L 374.196045 226.837593 
L 380.467045 225.341711 
L 386.768207 223.838633 
L 393.115253 222.324611 
L 399.524705 220.795702 
L 406.014211 219.247698 
L 412.602919 217.676029 
L 419.311937 216.075662 
L 426.164893 214.44096 
L 433.188649 212.765515 
L 440.414226 211.041928 
L 447.878036 209.261513 
L 455.623546 207.413901 
L 463.703599 205.486488 
L 472.18373 203.46364 
L 481.147061 201.32553 
L 490.701769 199.046353 
L 500.993003 196.591485 
L 512.222873 193.912715 
L 524.686226 190.93971 
L 538.840225 187.56342 
L 555.455782 183.59995 
L 576.005288 178.698077 
L 603.952894 172.031463 
L 651.34 160.727757 
" style="fill:none;stroke:#ff0000;stroke-linecap:square;stroke-width:4;"/>
   </g>
   <g id="patch_3">
    <path d="M 56.2 308.68 
L 56.2 28.225313 
" style="fill:none;stroke:#000000;stroke-linecap:square;stroke-linejoin:miter;stroke-width:0.8;"/>
   </g>
   <g id="patch_4">
    <path d="M 679.68 308.68 
L 679.68 28.225313 
" style="fill:none;stroke:#000000;stroke-linecap:square;stroke-linejoin:miter;stroke-width:0.8;"/>
   </g>
   <g id="patch_5">
    <path d="M 56.2 308.68 
L 679.68 308.68 
" style="fill:none;stroke:#000000;stroke-linecap:square;stroke-linejoin:miter;stroke-width:0.8;"/>
   </g>
   <g id="patch_6">
    <path d="M 56.2 28.225312 
L 679.68 28.225312 
" style="fill:none;stroke:#000000;stroke-linecap:square;stroke-linejoin:miter;stroke-width:0.8;"/>
   </g>
   <g id="text_14">
    <!-- Probability Plot -->
    <g transform="translate(298.542031 22.225312)scale(0.22 -0.22)">
     <defs>
      <path d="M 1.59375 66.203125 
L 27.5 66.203125 
Q 41.703125 66.203125 49.203125 59.90625 
Q 54.203125 55.703125 54.203125 48 
Q 54.203125 40 48.5 34.90625 
Q 44.296875 31.09375 39.890625 29.9375 
Q 35.5 28.796875 27.09375 28.796875 
Q 24.203125 28.796875 20.203125 29.09375 
L 20.203125 11.203125 
Q 20.203125 5.5 21.84375 3.84375 
Q 23.5 2.203125 29.59375 1.90625 
L 29.59375 0 
L 1.59375 0 
L 1.59375 1.90625 
Q 7.40625 2.296875 8.703125 4 
Q 10 5.703125 10 12.203125 
L 10 55.09375 
Q 10 60.703125 8.546875 62.296875 
Q 7.09375 63.90625 1.59375 64.296875 
z
M 20.203125 58.90625 
L 20.203125 33.09375 
Q 23.59375 32.796875 26.296875 32.796875 
Q 34.40625 32.796875 38.84375 36.75 
Q 43.296875 40.703125 43.296875 47.5 
Q 43.296875 55.59375 38.6875 59.046875 
Q 34.09375 62.5 23.703125 62.5 
Q 21.59375 62.5 20.890625 61.75 
Q 20.203125 61 20.203125 58.90625 
z
" id="STIXGeneral-Regular-80"/>
      <path d="M 15.296875 68.09375 
L 15.296875 37.59375 
Q 16.90625 41.40625 20.546875 43.703125 
Q 24.203125 46 28.796875 46 
Q 36.703125 46 41.75 39.703125 
Q 46.796875 33.40625 46.796875 24 
Q 46.796875 13 40.09375 6 
Q 33.40625 -1 23.40625 -1 
Q 17.296875 -1 12.09375 1.046875 
Q 6.90625 3.09375 6.90625 5.59375 
L 6.90625 56.59375 
Q 6.90625 60.296875 6 61.34375 
Q 5.09375 62.40625 2 62.40625 
Q 1.296875 62.40625 0.296875 62.203125 
L 0.296875 63.90625 
L 3.296875 64.796875 
Q 13.5 67.90625 14.796875 68.296875 
z
M 15.296875 31.796875 
L 15.296875 7.40625 
Q 15.296875 5.09375 18.140625 3.640625 
Q 21 2.203125 25 2.203125 
Q 30.90625 2.203125 34.296875 6.5 
Q 38 11.09375 38 19.703125 
Q 38 29.5 34.09375 35 
Q 30.796875 39.703125 25.203125 39.703125 
Q 21.203125 39.703125 18.25 37.34375 
Q 15.296875 35 15.296875 31.796875 
z
" id="STIXGeneral-Regular-98"/>
      <path d="M 47.5 45 
L 47.5 43.5 
Q 45.703125 43.296875 44.59375 42.1875 
Q 43.5 41.09375 42.5 38.40625 
L 27.5 -2.5 
Q 23.59375 -13.09375 19.640625 -17.4375 
Q 15.703125 -21.796875 10 -21.796875 
Q 6.796875 -21.796875 4.890625 -20.140625 
Q 3 -18.5 3 -16 
Q 3 -14.09375 4.25 -12.75 
Q 5.5 -11.40625 7.296875 -11.40625 
Q 10.203125 -11.40625 12.5 -12.703125 
Q 13.796875 -13.40625 15.09375 -13.40625 
Q 17.203125 -13.40625 20.09375 -9 
Q 21.5 -7 22.796875 -3.296875 
Q 24.09375 0.40625 24.09375 1.796875 
Q 24.09375 3.09375 19.90625 11.90625 
L 6.703125 40.09375 
Q 5.40625 43 1.40625 43.59375 
L 1.40625 45 
L 21.90625 45 
L 21.90625 43.5 
Q 18.703125 43.40625 17.453125 42.796875 
Q 16.203125 42.203125 16.203125 40.796875 
Q 16.203125 39.703125 17.5 36.703125 
L 28.703125 11.703125 
L 38.40625 39.296875 
Q 38.796875 40.203125 38.796875 41.09375 
Q 38.796875 43.5 34.203125 43.5 
L 34.203125 45 
z
" id="STIXGeneral-Regular-121"/>
     </defs>
     <use xlink:href="#STIXGeneral-Regular-80"/>
     <use x="55.699997" xlink:href="#STIXGeneral-Regular-114"/>
     <use x="88.999985" xlink:href="#STIXGeneral-Regular-111"/>
     <use x="138.999969" xlink:href="#STIXGeneral-Regular-98"/>
     <use x="188.999954" xlink:href="#STIXGeneral-Regular-97"/>
     <use x="233.399948" xlink:href="#STIXGeneral-Regular-98"/>
     <use x="283.399933" xlink:href="#STIXGeneral-Regular-105"/>
     <use x="311.199921" xlink:href="#STIXGeneral-Regular-108"/>
     <use x="338.999908" xlink:href="#STIXGeneral-Regular-105"/>
     <use x="366.799896" xlink:href="#STIXGeneral-Regular-116"/>
     <use x="394.599884" xlink:href="#STIXGeneral-Regular-121"/>
     <use x="444.599869" xlink:href="#STIXGeneral-Regular-32"/>
     <use x="469.599854" xlink:href="#STIXGeneral-Regular-80"/>
     <use x="525.29985" xlink:href="#STIXGeneral-Regular-108"/>
     <use x="553.099838" xlink:href="#STIXGeneral-Regular-111"/>
     <use x="603.099823" xlink:href="#STIXGeneral-Regular-116"/>
    </g>
   </g>
  </g>
 </g>
 <defs>
  <clipPath id="pd70318155a">
   <rect height="280.454687" width="623.48" x="56.2" y="28.225312"/>
  </clipPath>
 </defs>
</svg>
