<?xml version="1.0" encoding="utf-8" standalone="no"?>
<!DOCTYPE svg PUBLIC "-//W3C//DTD SVG 1.1//EN"
  "http://www.w3.org/Graphics/SVG/1.1/DTD/svg11.dtd">
<!-- Created with matplotlib (https://matplotlib.org/) -->
<svg height="363.974813pt" version="1.1" viewBox="0 0 686.630818 363.974813" width="686.630818pt" xmlns="http://www.w3.org/2000/svg" xmlns:xlink="http://www.w3.org/1999/xlink">
 <metadata>
  <rdf:RDF xmlns:cc="http://creativecommons.org/ns#" xmlns:dc="http://purl.org/dc/elements/1.1/" xmlns:rdf="http://www.w3.org/1999/02/22-rdf-syntax-ns#">
   <cc:Work>
    <dc:type rdf:resource="http://purl.org/dc/dcmitype/StillImage"/>
    <dc:date>2021-02-14T00:49:39.841574</dc:date>
    <dc:format>image/svg+xml</dc:format>
    <dc:creator>
     <cc:Agent>
      <dc:title>Matplotlib v3.3.4, https://matplotlib.org/</dc:title>
     </cc:Agent>
    </dc:creator>
   </cc:Work>
  </rdf:RDF>
 </metadata>
 <defs>
  <style type="text/css">*{stroke-linecap:butt;stroke-linejoin:round;}</style>
 </defs>
 <g id="figure_1">
  <g id="patch_1">
   <path d="M 0 363.974813 
L 686.630818 363.974813 
L 686.630818 0 
L 0 0 
z
" style="fill:#ffffff;"/>
  </g>
  <g id="axes_1">
   <g id="patch_2">
    <path d="M 56.3 313.374813 
L 619.782012 313.374813 
L 619.782012 38.480688 
L 56.3 38.480688 
z
" style="fill:#e5e5e5;"/>
   </g>
   <g id="matplotlib.axis_1">
    <g id="xtick_1">
     <g id="line2d_1">
      <path clip-path="url(#p584896f3b2)" d="M 66.375114 313.374813 
L 66.375114 38.480688 
" style="fill:none;stroke:#ffffff;stroke-linecap:square;stroke-width:0.8;"/>
     </g>
     <g id="line2d_2">
      <defs>
       <path d="M 0 0 
L 0 3.5 
" id="m3f77237fa7" style="stroke:#555555;stroke-width:0.8;"/>
      </defs>
      <g>
       <use style="fill:#555555;stroke:#555555;stroke-width:0.8;" x="66.375114" xlink:href="#m3f77237fa7" y="313.374813"/>
      </g>
     </g>
     <g id="text_1">
      <!-- 0.0 -->
      <g style="fill:#555555;" transform="translate(53.875114 334.034188)scale(0.2 -0.2)">
       <defs>
        <path d="M 47.59375 33 
Q 47.59375 26.296875 46.296875 20.34375 
Q 45 14.40625 42.453125 9.40625 
Q 39.90625 4.40625 35.40625 1.5 
Q 30.90625 -1.40625 25 -1.40625 
Q 18.90625 -1.40625 14.296875 1.6875 
Q 9.703125 4.796875 7.203125 10 
Q 4.703125 15.203125 3.546875 21.09375 
Q 2.40625 27 2.40625 33.59375 
Q 2.40625 42.90625 4.703125 50.34375 
Q 7 57.796875 12.34375 62.6875 
Q 17.703125 67.59375 25.40625 67.59375 
Q 35.203125 67.59375 41.390625 58 
Q 47.59375 48.40625 47.59375 33 
z
M 38 32.5 
Q 38 48.296875 34.640625 56.640625 
Q 31.296875 65 24.796875 65 
Q 18.59375 65 15.296875 56.59375 
Q 12 48.203125 12 32.90625 
Q 12 17.5 15.296875 9.34375 
Q 18.59375 1.203125 25 1.203125 
Q 31.296875 1.203125 34.640625 9.34375 
Q 38 17.5 38 32.5 
z
" id="STIXGeneral-Regular-48"/>
        <path d="M 18.09375 4.296875 
Q 18.09375 2.09375 16.4375 0.5 
Q 14.796875 -1.09375 12.5 -1.09375 
Q 10.203125 -1.09375 8.59375 0.5 
Q 7 2.09375 7 4.390625 
Q 7 6.703125 8.640625 8.34375 
Q 10.296875 10 12.59375 10 
Q 14.796875 10 16.4375 8.296875 
Q 18.09375 6.59375 18.09375 4.296875 
z
" id="STIXGeneral-Regular-46"/>
       </defs>
       <use xlink:href="#STIXGeneral-Regular-48"/>
       <use x="49.999985" xlink:href="#STIXGeneral-Regular-46"/>
       <use x="74.999969" xlink:href="#STIXGeneral-Regular-48"/>
      </g>
     </g>
    </g>
    <g id="xtick_2">
     <g id="line2d_3">
      <path clip-path="url(#p584896f3b2)" d="M 137.430957 313.374813 
L 137.430957 38.480688 
" style="fill:none;stroke:#ffffff;stroke-linecap:square;stroke-width:0.8;"/>
     </g>
     <g id="line2d_4">
      <g>
       <use style="fill:#555555;stroke:#555555;stroke-width:0.8;" x="137.430957" xlink:href="#m3f77237fa7" y="313.374813"/>
      </g>
     </g>
     <g id="text_2">
      <!-- 0.1 -->
      <g style="fill:#555555;" transform="translate(124.930957 334.034188)scale(0.2 -0.2)">
       <defs>
        <path d="M 39.40625 0 
L 11.796875 0 
L 11.796875 1.5 
Q 17.296875 1.796875 19.296875 3.546875 
Q 21.296875 5.296875 21.296875 9.5 
L 21.296875 54.40625 
Q 21.296875 59.296875 18.296875 59.296875 
Q 16.90625 59.296875 13.796875 58.09375 
L 11.09375 57.09375 
L 11.09375 58.5 
L 29 67.59375 
L 29.90625 67.296875 
L 29.90625 7.59375 
Q 29.90625 4.296875 31.90625 2.890625 
Q 33.90625 1.5 39.40625 1.5 
z
" id="STIXGeneral-Regular-49"/>
       </defs>
       <use xlink:href="#STIXGeneral-Regular-48"/>
       <use x="49.999985" xlink:href="#STIXGeneral-Regular-46"/>
       <use x="74.999969" xlink:href="#STIXGeneral-Regular-49"/>
      </g>
     </g>
    </g>
    <g id="xtick_3">
     <g id="line2d_5">
      <path clip-path="url(#p584896f3b2)" d="M 208.486799 313.374813 
L 208.486799 38.480688 
" style="fill:none;stroke:#ffffff;stroke-linecap:square;stroke-width:0.8;"/>
     </g>
     <g id="line2d_6">
      <g>
       <use style="fill:#555555;stroke:#555555;stroke-width:0.8;" x="208.486799" xlink:href="#m3f77237fa7" y="313.374813"/>
      </g>
     </g>
     <g id="text_3">
      <!-- 0.2 -->
      <g style="fill:#555555;" transform="translate(195.986799 334.034188)scale(0.2 -0.2)">
       <defs>
        <path d="M 47.40625 13.703125 
L 42 0 
L 2.90625 0 
L 2.90625 1.203125 
L 20.703125 20.09375 
Q 27.703125 27.40625 30.703125 33.5 
Q 33.703125 39.59375 33.703125 46.09375 
Q 33.703125 52.796875 30 56.5 
Q 26.296875 60.203125 19.796875 60.203125 
Q 14.40625 60.203125 11.25 57.390625 
Q 8.09375 54.59375 5.09375 47.203125 
L 3 47.703125 
Q 4.703125 57 9.84375 62.296875 
Q 15 67.59375 23.796875 67.59375 
Q 32.09375 67.59375 37.1875 62.59375 
Q 42.296875 57.59375 42.296875 50 
Q 42.296875 38.703125 29.5 25.203125 
L 13 7.59375 
L 36.40625 7.59375 
Q 39.703125 7.59375 41.640625 8.890625 
Q 43.59375 10.203125 46 14.296875 
z
" id="STIXGeneral-Regular-50"/>
       </defs>
       <use xlink:href="#STIXGeneral-Regular-48"/>
       <use x="49.999985" xlink:href="#STIXGeneral-Regular-46"/>
       <use x="74.999969" xlink:href="#STIXGeneral-Regular-50"/>
      </g>
     </g>
    </g>
    <g id="xtick_4">
     <g id="line2d_7">
      <path clip-path="url(#p584896f3b2)" d="M 279.542642 313.374813 
L 279.542642 38.480688 
" style="fill:none;stroke:#ffffff;stroke-linecap:square;stroke-width:0.8;"/>
     </g>
     <g id="line2d_8">
      <g>
       <use style="fill:#555555;stroke:#555555;stroke-width:0.8;" x="279.542642" xlink:href="#m3f77237fa7" y="313.374813"/>
      </g>
     </g>
     <g id="text_4">
      <!-- 0.3 -->
      <g style="fill:#555555;" transform="translate(267.042642 334.034188)scale(0.2 -0.2)">
       <defs>
        <path d="M 6.09375 51 
L 4.5 51.40625 
Q 6.796875 58.90625 11.6875 63.25 
Q 16.59375 67.59375 24.09375 67.59375 
Q 31.09375 67.59375 35.390625 63.796875 
Q 39.703125 60 39.703125 53.90625 
Q 39.703125 45.703125 30.40625 40.09375 
Q 35.90625 37.703125 38.703125 34.796875 
Q 43.09375 29.90625 43.09375 21.90625 
Q 43.09375 13.90625 38.5 7.90625 
Q 35.09375 3.296875 28.75 0.9375 
Q 22.40625 -1.40625 15.296875 -1.40625 
Q 4.09375 -1.40625 4.09375 4.296875 
Q 4.09375 5.90625 5.296875 6.90625 
Q 6.5 7.90625 8.203125 7.90625 
Q 10.703125 7.90625 14.296875 5.296875 
Q 18.703125 2.203125 22.90625 2.203125 
Q 28.40625 2.203125 32.15625 6.640625 
Q 35.90625 11.09375 35.90625 17.5 
Q 35.90625 29 25.5 32 
Q 22.40625 33 15.296875 33 
L 15.296875 34.40625 
Q 20.90625 36.296875 23.703125 38 
Q 31.796875 42.59375 31.796875 51.40625 
Q 31.796875 56.40625 28.9375 59 
Q 26.09375 61.59375 21 61.59375 
Q 12 61.59375 6.09375 51 
z
" id="STIXGeneral-Regular-51"/>
       </defs>
       <use xlink:href="#STIXGeneral-Regular-48"/>
       <use x="49.999985" xlink:href="#STIXGeneral-Regular-46"/>
       <use x="74.999969" xlink:href="#STIXGeneral-Regular-51"/>
      </g>
     </g>
    </g>
    <g id="xtick_5">
     <g id="line2d_9">
      <path clip-path="url(#p584896f3b2)" d="M 350.598485 313.374813 
L 350.598485 38.480688 
" style="fill:none;stroke:#ffffff;stroke-linecap:square;stroke-width:0.8;"/>
     </g>
     <g id="line2d_10">
      <g>
       <use style="fill:#555555;stroke:#555555;stroke-width:0.8;" x="350.598485" xlink:href="#m3f77237fa7" y="313.374813"/>
      </g>
     </g>
     <g id="text_5">
      <!-- 0.4 -->
      <g style="fill:#555555;" transform="translate(338.098485 334.034188)scale(0.2 -0.2)">
       <defs>
        <path d="M 47.296875 16.703125 
L 37 16.703125 
L 37 0 
L 29.203125 0 
L 29.203125 16.703125 
L 1.203125 16.703125 
L 1.203125 23.09375 
L 32.59375 67.59375 
L 37 67.59375 
L 37 23.09375 
L 47.296875 23.09375 
z
M 29.203125 23.09375 
L 29.203125 57.40625 
L 5.203125 23.09375 
z
" id="STIXGeneral-Regular-52"/>
       </defs>
       <use xlink:href="#STIXGeneral-Regular-48"/>
       <use x="49.999985" xlink:href="#STIXGeneral-Regular-46"/>
       <use x="74.999969" xlink:href="#STIXGeneral-Regular-52"/>
      </g>
     </g>
    </g>
    <g id="xtick_6">
     <g id="line2d_11">
      <path clip-path="url(#p584896f3b2)" d="M 421.654327 313.374813 
L 421.654327 38.480688 
" style="fill:none;stroke:#ffffff;stroke-linecap:square;stroke-width:0.8;"/>
     </g>
     <g id="line2d_12">
      <g>
       <use style="fill:#555555;stroke:#555555;stroke-width:0.8;" x="421.654327" xlink:href="#m3f77237fa7" y="313.374813"/>
      </g>
     </g>
     <g id="text_6">
      <!-- 0.5 -->
      <g style="fill:#555555;" transform="translate(409.154327 334.034188)scale(0.2 -0.2)">
       <defs>
        <path d="M 43.796875 68.09375 
L 40.203125 59.59375 
Q 39.59375 58.296875 37.5 58.296875 
L 18.09375 58.296875 
L 14.09375 49.796875 
Q 25.09375 47.703125 30 45.25 
Q 34.90625 42.796875 39.09375 37 
Q 42.59375 32.203125 42.59375 24.296875 
Q 42.59375 17.09375 40.25 12.1875 
Q 37.90625 7.296875 32.796875 3.5 
Q 26 -1.40625 15.796875 -1.40625 
Q 10.09375 -1.40625 6.59375 0.296875 
Q 3.09375 2 3.09375 4.796875 
Q 3.09375 8.59375 7.59375 8.59375 
Q 11.203125 8.59375 15 5.5 
Q 18.90625 2.296875 22.09375 2.296875 
Q 27.296875 2.296875 31.4375 7.5 
Q 35.59375 12.703125 35.59375 19.203125 
Q 35.59375 28.796875 28.90625 34.203125 
Q 20.203125 41.203125 7.59375 41.203125 
Q 6.40625 41.203125 6.40625 42 
L 6.5 42.5 
L 17.40625 66.203125 
L 38.09375 66.203125 
Q 39.796875 66.203125 40.75 66.703125 
Q 41.703125 67.203125 42.90625 68.796875 
z
" id="STIXGeneral-Regular-53"/>
       </defs>
       <use xlink:href="#STIXGeneral-Regular-48"/>
       <use x="49.999985" xlink:href="#STIXGeneral-Regular-46"/>
       <use x="74.999969" xlink:href="#STIXGeneral-Regular-53"/>
      </g>
     </g>
    </g>
    <g id="xtick_7">
     <g id="line2d_13">
      <path clip-path="url(#p584896f3b2)" d="M 492.71017 313.374813 
L 492.71017 38.480688 
" style="fill:none;stroke:#ffffff;stroke-linecap:square;stroke-width:0.8;"/>
     </g>
     <g id="line2d_14">
      <g>
       <use style="fill:#555555;stroke:#555555;stroke-width:0.8;" x="492.71017" xlink:href="#m3f77237fa7" y="313.374813"/>
      </g>
     </g>
     <g id="text_7">
      <!-- 0.6 -->
      <g style="fill:#555555;" transform="translate(480.21017 334.034188)scale(0.2 -0.2)">
       <defs>
        <path d="M 44.59375 68.40625 
L 44.796875 66.796875 
Q 33 64.90625 25.09375 57.25 
Q 17.203125 49.59375 15.203125 38.296875 
Q 21 42.796875 27.90625 42.796875 
Q 36.703125 42.796875 41.75 37.1875 
Q 46.796875 31.59375 46.796875 21.90625 
Q 46.796875 12.09375 41.703125 5.90625 
Q 35.796875 -1.40625 25.796875 -1.40625 
Q 13.59375 -1.40625 8.09375 8.703125 
Q 3.40625 17.296875 3.40625 27.90625 
Q 3.40625 44.296875 14.296875 55.5 
Q 20.5 61.90625 27.046875 64.546875 
Q 33.59375 67.203125 44.59375 68.40625 
z
M 37.796875 18.796875 
Q 37.796875 38.203125 24.296875 38.203125 
Q 19.296875 38.203125 16 35.546875 
Q 12.703125 32.90625 12.703125 26.59375 
Q 12.703125 14.90625 16.34375 8.15625 
Q 20 1.40625 26.90625 1.40625 
Q 32.203125 1.40625 35 6.15625 
Q 37.796875 10.90625 37.796875 18.796875 
z
" id="STIXGeneral-Regular-54"/>
       </defs>
       <use xlink:href="#STIXGeneral-Regular-48"/>
       <use x="49.999985" xlink:href="#STIXGeneral-Regular-46"/>
       <use x="74.999969" xlink:href="#STIXGeneral-Regular-54"/>
      </g>
     </g>
    </g>
    <g id="xtick_8">
     <g id="line2d_15">
      <path clip-path="url(#p584896f3b2)" d="M 563.766013 313.374813 
L 563.766013 38.480688 
" style="fill:none;stroke:#ffffff;stroke-linecap:square;stroke-width:0.8;"/>
     </g>
     <g id="line2d_16">
      <g>
       <use style="fill:#555555;stroke:#555555;stroke-width:0.8;" x="563.766013" xlink:href="#m3f77237fa7" y="313.374813"/>
      </g>
     </g>
     <g id="text_8">
      <!-- 0.7 -->
      <g style="fill:#555555;" transform="translate(551.266013 334.034188)scale(0.2 -0.2)">
       <defs>
        <path d="M 44.90625 64.59375 
L 23.703125 -0.796875 
L 17.203125 -0.796875 
L 37 58.796875 
L 15.5 58.796875 
Q 11.203125 58.796875 9.09375 57.296875 
Q 7 55.796875 3.796875 50.59375 
L 2 51.5 
L 8 66.203125 
L 44.90625 66.203125 
z
" id="STIXGeneral-Regular-55"/>
       </defs>
       <use xlink:href="#STIXGeneral-Regular-48"/>
       <use x="49.999985" xlink:href="#STIXGeneral-Regular-46"/>
       <use x="74.999969" xlink:href="#STIXGeneral-Regular-55"/>
      </g>
     </g>
    </g>
    <g id="text_9">
     <!-- H Leverage -->
     <g transform="translate(300.503506 353.287313)scale(0.16 -0.16)">
      <defs>
       <path d="M 70.296875 0 
L 42.40625 0 
L 42.40625 1.90625 
Q 48.203125 2.296875 49.703125 4.140625 
Q 51.203125 6 51.203125 12.40625 
L 51.203125 31.5 
L 20.90625 31.5 
L 20.90625 11.296875 
Q 20.90625 5.796875 22.5 4 
Q 24.09375 2.203125 29.59375 1.90625 
L 29.703125 0 
L 1.796875 0 
L 1.796875 1.90625 
Q 7.703125 2.296875 9.203125 4.046875 
Q 10.703125 5.796875 10.703125 12.203125 
L 10.703125 54.796875 
Q 10.703125 60.59375 9.140625 62.1875 
Q 7.59375 63.796875 1.796875 64.296875 
L 1.796875 66.203125 
L 29.796875 66.203125 
L 29.796875 64.296875 
Q 24.203125 63.796875 22.546875 62.140625 
Q 20.90625 60.5 20.90625 54.796875 
L 20.90625 35.90625 
L 51.203125 35.90625 
L 51.203125 54.796875 
Q 51.203125 60.59375 49.640625 62.1875 
Q 48.09375 63.796875 42.296875 64.296875 
L 42.296875 66.203125 
L 70.296875 66.203125 
L 70.296875 64.296875 
Q 64.703125 63.796875 63.046875 62.140625 
Q 61.40625 60.5 61.40625 54.796875 
L 61.40625 11.09375 
Q 61.40625 5.796875 63.046875 4.046875 
Q 64.703125 2.296875 70.296875 1.90625 
z
" id="STIXGeneral-Regular-72"/>
       <path id="STIXGeneral-Regular-32"/>
       <path d="M 59.796875 17.40625 
L 55 0 
L 1.203125 0 
L 1.203125 1.90625 
Q 6.703125 2.203125 8.296875 4 
Q 9.90625 5.796875 9.90625 11.5 
L 9.90625 54.59375 
Q 9.90625 60.5 8.453125 62.203125 
Q 7 63.90625 1.203125 64.296875 
L 1.203125 66.203125 
L 29.5 66.203125 
L 29.5 64.296875 
Q 23.40625 63.90625 21.75 62.25 
Q 20.09375 60.59375 20.09375 54.796875 
L 20.09375 8.40625 
Q 20.09375 5.59375 21.84375 4.75 
Q 23.59375 3.90625 29.09375 3.90625 
L 36.09375 3.90625 
Q 48.203125 3.90625 53 10 
Q 55 12.703125 57.203125 17.40625 
z
" id="STIXGeneral-Regular-76"/>
       <path d="M 40.796875 16.40625 
L 42.40625 15.703125 
Q 36.40625 -1 21.5 -1 
Q 12.703125 -1 7.59375 5.140625 
Q 2.5 11.296875 2.5 21.703125 
Q 2.5 32.40625 8.203125 39.203125 
Q 13.90625 46 23.203125 46 
Q 32.203125 46 37.09375 39.09375 
Q 40 35.09375 40.5 27.703125 
L 9.703125 27.703125 
Q 10.09375 21.40625 10.9375 18.09375 
Q 11.796875 14.796875 14.296875 11.40625 
Q 18.5 5.90625 25.40625 5.90625 
Q 30.296875 5.90625 33.640625 8.296875 
Q 37 10.703125 40.796875 16.40625 
z
M 9.90625 30.90625 
L 30.296875 30.90625 
Q 29.40625 37.203125 27.34375 39.796875 
Q 25.296875 42.40625 20.5 42.40625 
Q 16.296875 42.40625 13.5 39.453125 
Q 10.703125 36.5 9.90625 30.90625 
z
" id="STIXGeneral-Regular-101"/>
       <path d="M 47.703125 45 
L 47.703125 43.5 
Q 45.40625 43.296875 44.296875 42 
Q 43.203125 40.703125 41.203125 35.703125 
L 28.40625 3.59375 
Q 26.40625 -1.40625 25.59375 -1.40625 
Q 24.796875 -1.40625 23.796875 1.203125 
Q 23.59375 1.5 23.390625 2.203125 
Q 23.203125 2.90625 23 3.296875 
L 11 32 
Q 7.796875 39.59375 6.296875 41.4375 
Q 4.796875 43.296875 1.90625 43.5 
L 1.90625 45 
L 21.5 45 
L 21.5 43.5 
Q 18.90625 43.296875 17.90625 42.6875 
Q 16.90625 42.09375 16.90625 40.796875 
Q 16.90625 39.203125 17.796875 37 
L 28 11.40625 
L 37.90625 37.296875 
Q 38.5 38.796875 38.5 40.296875 
Q 38.5 43.09375 33.796875 43.5 
L 33.796875 45 
z
" id="STIXGeneral-Regular-118"/>
       <path d="M 16 45.796875 
L 16 36.59375 
Q 19.796875 42 22.34375 44 
Q 24.90625 46 28 46 
Q 30.59375 46 32.046875 44.59375 
Q 33.5 43.203125 33.5 40.703125 
Q 33.5 38.59375 32.453125 37.390625 
Q 31.40625 36.203125 29.59375 36.203125 
Q 27.703125 36.203125 25.59375 38.203125 
Q 24 39.703125 23 39.703125 
Q 20.90625 39.703125 18.453125 36.796875 
Q 16 33.90625 16 31.5 
L 16 9 
Q 16 4.703125 17.703125 3.203125 
Q 19.40625 1.703125 24.5 1.5 
L 24.5 0 
L 0.5 0 
L 0.5 1.5 
Q 5.296875 2.40625 6.4375 3.5 
Q 7.59375 4.59375 7.59375 8.40625 
L 7.59375 33.40625 
Q 7.59375 36.703125 6.84375 38.046875 
Q 6.09375 39.40625 4.203125 39.40625 
Q 2.59375 39.40625 0.703125 39 
L 0.703125 40.59375 
Q 7 42.59375 15.5 46 
z
" id="STIXGeneral-Regular-114"/>
       <path d="M 44.203125 6.59375 
L 44.203125 3.796875 
Q 40.40625 -1 35.203125 -1 
Q 29.5 -1 28.796875 6.296875 
L 28.703125 6.296875 
Q 22.296875 -1 14.203125 -1 
Q 9.5 -1 6.59375 1.75 
Q 3.703125 4.5 3.703125 9.40625 
Q 3.703125 16.40625 10.703125 21.09375 
Q 15.5 24.296875 28.703125 29.203125 
L 28.703125 34.59375 
Q 28.703125 39.09375 26.546875 41.34375 
Q 24.40625 43.59375 20.90625 43.59375 
Q 17.90625 43.59375 15.90625 42.140625 
Q 13.90625 40.703125 13.90625 38.703125 
Q 13.90625 37.796875 14.203125 36.6875 
Q 14.5 35.59375 14.5 34.5 
Q 14.5 33 13.140625 31.703125 
Q 11.796875 30.40625 9.90625 30.40625 
Q 8.203125 30.40625 6.890625 31.703125 
Q 5.59375 33 5.59375 35 
Q 5.59375 39.796875 10.703125 43 
Q 15.40625 46 22.203125 46 
Q 30.296875 46 34 41.5 
Q 35.796875 39.40625 36.296875 37.25 
Q 36.796875 35.09375 36.796875 30.40625 
L 36.796875 11.296875 
Q 36.796875 4.703125 39.90625 4.703125 
Q 41.90625 4.703125 44.203125 6.59375 
z
M 28.703125 12.703125 
L 28.703125 26.796875 
Q 19.5 23.59375 15.90625 20.203125 
Q 12.5 17.09375 12.5 12.5 
Q 12.5 8.703125 14.390625 6.75 
Q 16.296875 4.796875 19.40625 4.796875 
Q 22.703125 4.796875 25.203125 6.40625 
Q 27.296875 7.90625 28 9.203125 
Q 28.703125 10.5 28.703125 12.703125 
z
" id="STIXGeneral-Regular-97"/>
       <path d="M 47 38.796875 
L 38.703125 38.796875 
Q 40.59375 34.5 40.59375 30.40625 
Q 40.59375 22.703125 35.390625 18.796875 
Q 30.203125 14.90625 25 14.90625 
Q 23.90625 14.90625 21.203125 15.203125 
L 19.296875 15.40625 
Q 17.296875 14.796875 15.296875 12.6875 
Q 13.296875 10.59375 13.296875 9.09375 
Q 13.296875 6.796875 21.09375 6.40625 
L 34 5.796875 
Q 39.5 5.59375 42.796875 2.6875 
Q 46.09375 -0.203125 46.09375 -4.90625 
Q 46.09375 -10.703125 40.09375 -15.40625 
Q 31.796875 -21.796875 20.09375 -21.796875 
Q 12.90625 -21.796875 7.84375 -18.9375 
Q 2.796875 -16.09375 2.796875 -12.09375 
Q 2.796875 -9.296875 5 -6.546875 
Q 7.203125 -3.796875 12.59375 0.09375 
Q 9.40625 1.59375 8.34375 2.6875 
Q 7.296875 3.796875 7.296875 5.40625 
Q 7.296875 8.296875 11.90625 12.296875 
Q 14.203125 14.296875 16.203125 16.296875 
Q 11.203125 18.796875 9.046875 21.890625 
Q 6.90625 25 6.90625 29.703125 
Q 6.90625 36.5 11.75 41.25 
Q 16.59375 46 23.59375 46 
Q 27.59375 46 31.59375 44.5 
L 33.796875 43.703125 
Q 36.703125 42.703125 39.296875 42.703125 
L 47 42.703125 
z
M 15.203125 33.796875 
L 15.203125 33.5 
Q 15.203125 26.296875 18.046875 21.84375 
Q 20.90625 17.40625 25.5 17.40625 
Q 28.90625 17.40625 30.90625 19.84375 
Q 32.90625 22.296875 32.90625 26.40625 
Q 32.90625 33 29.90625 38.5 
Q 27.40625 43.203125 22.59375 43.203125 
Q 19.09375 43.203125 17.140625 40.703125 
Q 15.203125 38.203125 15.203125 33.796875 
z
M 43.296875 -6.40625 
Q 43.296875 -3.59375 40.546875 -2.546875 
Q 37.796875 -1.5 30.90625 -1.5 
Q 21 -1.5 14.703125 -0.203125 
Q 11.703125 -3.796875 10.75 -5.4375 
Q 9.796875 -7.09375 9.796875 -8.796875 
Q 9.796875 -12.09375 13.75 -14.09375 
Q 17.703125 -16.09375 24.296875 -16.09375 
Q 32.796875 -16.09375 38.046875 -13.4375 
Q 43.296875 -10.796875 43.296875 -6.40625 
z
" id="STIXGeneral-Regular-103"/>
      </defs>
      <use xlink:href="#STIXGeneral-Regular-72"/>
      <use x="72.199982" xlink:href="#STIXGeneral-Regular-32"/>
      <use x="97.199966" xlink:href="#STIXGeneral-Regular-76"/>
      <use x="158.299957" xlink:href="#STIXGeneral-Regular-101"/>
      <use x="202.699951" xlink:href="#STIXGeneral-Regular-118"/>
      <use x="252.699936" xlink:href="#STIXGeneral-Regular-101"/>
      <use x="297.09993" xlink:href="#STIXGeneral-Regular-114"/>
      <use x="330.399918" xlink:href="#STIXGeneral-Regular-97"/>
      <use x="374.799911" xlink:href="#STIXGeneral-Regular-103"/>
      <use x="424.799896" xlink:href="#STIXGeneral-Regular-101"/>
     </g>
    </g>
   </g>
   <g id="matplotlib.axis_2">
    <g id="ytick_1">
     <g id="line2d_17">
      <path clip-path="url(#p584896f3b2)" d="M 56.3 266.263844 
L 619.782012 266.263844 
" style="fill:none;stroke:#ffffff;stroke-linecap:square;stroke-width:0.8;"/>
     </g>
     <g id="line2d_18">
      <defs>
       <path d="M 0 0 
L -3.5 0 
" id="m91401de087" style="stroke:#555555;stroke-width:0.8;"/>
      </defs>
      <g>
       <use style="fill:#555555;stroke:#555555;stroke-width:0.8;" x="56.3" xlink:href="#m91401de087" y="266.263844"/>
      </g>
     </g>
     <g id="text_10">
      <!-- −2 -->
      <g style="fill:#555555;" transform="translate(25.6 273.093531)scale(0.2 -0.2)">
       <defs>
        <path d="M 62.09375 22 
L 6.40625 22 
L 6.40625 28.59375 
L 62.09375 28.59375 
z
" id="STIXGeneral-Regular-8722"/>
       </defs>
       <use xlink:href="#STIXGeneral-Regular-8722"/>
       <use x="68.499985" xlink:href="#STIXGeneral-Regular-50"/>
      </g>
     </g>
    </g>
    <g id="ytick_2">
     <g id="line2d_19">
      <path clip-path="url(#p584896f3b2)" d="M 56.3 182.345537 
L 619.782012 182.345537 
" style="fill:none;stroke:#ffffff;stroke-linecap:square;stroke-width:0.8;"/>
     </g>
     <g id="line2d_20">
      <g>
       <use style="fill:#555555;stroke:#555555;stroke-width:0.8;" x="56.3" xlink:href="#m91401de087" y="182.345537"/>
      </g>
     </g>
     <g id="text_11">
      <!-- 0 -->
      <g style="fill:#555555;" transform="translate(39.3 189.175224)scale(0.2 -0.2)">
       <use xlink:href="#STIXGeneral-Regular-48"/>
      </g>
     </g>
    </g>
    <g id="ytick_3">
     <g id="line2d_21">
      <path clip-path="url(#p584896f3b2)" d="M 56.3 98.427229 
L 619.782012 98.427229 
" style="fill:none;stroke:#ffffff;stroke-linecap:square;stroke-width:0.8;"/>
     </g>
     <g id="line2d_22">
      <g>
       <use style="fill:#555555;stroke:#555555;stroke-width:0.8;" x="56.3" xlink:href="#m91401de087" y="98.427229"/>
      </g>
     </g>
     <g id="text_12">
      <!-- 2 -->
      <g style="fill:#555555;" transform="translate(39.3 105.256917)scale(0.2 -0.2)">
       <use xlink:href="#STIXGeneral-Regular-50"/>
      </g>
     </g>
    </g>
    <g id="text_13">
     <!-- Studentized Residuals -->
     <g transform="translate(18.1275 246.81775)rotate(-90)scale(0.16 -0.16)">
      <defs>
       <path d="M 46.90625 46.296875 
L 44.40625 46.296875 
Q 42.703125 52.5 40.296875 55.703125 
Q 34.203125 63.5 25.796875 63.5 
Q 21.203125 63.5 18.453125 60.84375 
Q 15.703125 58.203125 15.703125 54 
Q 15.703125 52 16.703125 50.09375 
Q 17.703125 48.203125 18.84375 46.84375 
Q 20 45.5 22.890625 43.5 
Q 25.796875 41.5 27.59375 40.453125 
Q 29.40625 39.40625 33.59375 36.90625 
Q 41.703125 32.203125 45.390625 27.546875 
Q 49.09375 22.90625 49.09375 17.296875 
Q 49.09375 9 43.296875 3.796875 
Q 37.5 -1.40625 28.703125 -1.40625 
Q 22.203125 -1.40625 16.90625 0.90625 
Q 14.296875 2 12.203125 2 
Q 11 2 10.203125 1.09375 
Q 9.40625 0.203125 9.40625 -1.296875 
L 7.203125 -1.296875 
L 4.296875 19.90625 
L 6.5 19.90625 
Q 13.203125 2.203125 27.09375 2.203125 
Q 32.40625 2.203125 35.703125 5.34375 
Q 39 8.5 39 13.40625 
Q 39 18.09375 36.09375 21.296875 
Q 31.296875 26.5 19.296875 32.90625 
Q 7.09375 39.40625 7.09375 50.09375 
Q 7.09375 58.09375 12 62.84375 
Q 16.90625 67.59375 24.5 67.59375 
Q 29.796875 67.59375 35 65.40625 
Q 37.703125 64.203125 39.40625 64.203125 
Q 42 64.203125 42.59375 67.59375 
L 44.703125 67.59375 
z
" id="STIXGeneral-Regular-83"/>
       <path d="M 26.59375 7.703125 
L 27.90625 6.59375 
Q 23.09375 -1 15.796875 -1 
Q 7 -1 7 11.703125 
L 7 41.796875 
L 1.703125 41.796875 
Q 1.296875 42.09375 1.296875 42.5 
Q 1.296875 43.296875 3 44.40625 
Q 6.796875 46.59375 12.703125 55.09375 
Q 12.90625 55.40625 13.65625 56.34375 
Q 14.40625 57.296875 14.703125 57.90625 
Q 15.40625 57.90625 15.40625 56.59375 
L 15.40625 45 
L 25.5 45 
L 25.5 41.796875 
L 15.40625 41.796875 
L 15.40625 13.203125 
Q 15.40625 8.40625 16.59375 6.296875 
Q 17.796875 4.203125 20.59375 4.203125 
Q 23.59375 4.203125 26.59375 7.703125 
z
" id="STIXGeneral-Regular-116"/>
       <path d="M 48 5 
L 48 3.59375 
Q 40.203125 1.5 34.296875 -0.90625 
L 33.796875 -0.59375 
L 33.796875 7.59375 
L 33.59375 7.59375 
Q 27.296875 -1 19.296875 -1 
Q 13.59375 -1 10.34375 2.5 
Q 7.09375 6 7.09375 11.796875 
L 7.09375 36.90625 
Q 7.09375 40.59375 5.796875 42 
Q 4.5 43.40625 0.90625 43.59375 
L 0.90625 45 
L 15.5 45 
L 15.5 12.703125 
Q 15.5 9.296875 17.546875 7.046875 
Q 19.59375 4.796875 22.59375 4.796875 
Q 27.5 4.796875 31 7.90625 
Q 32.296875 9.09375 32.796875 10.140625 
Q 33.296875 11.203125 33.296875 13.703125 
L 33.296875 36.796875 
Q 33.296875 40.703125 31.890625 41.84375 
Q 30.5 43 25.90625 43.296875 
L 25.90625 45 
L 41.703125 45 
L 41.703125 10.703125 
Q 41.703125 7.203125 42.84375 6.09375 
Q 44 5 47.40625 5 
z
" id="STIXGeneral-Regular-117"/>
       <path d="M 49.09375 4.203125 
L 34.40625 -1 
L 34 -0.703125 
L 34 5.703125 
Q 29.203125 -1 21.203125 -1 
Q 12.90625 -1 7.796875 4.953125 
Q 2.703125 10.90625 2.703125 20.5 
Q 2.703125 31.09375 8.796875 38.546875 
Q 14.90625 46 23.5 46 
Q 28.90625 46 34 41.703125 
L 34 57.296875 
Q 34 60.40625 33.09375 61.40625 
Q 32.203125 62.40625 29.40625 62.40625 
Q 28 62.40625 27.203125 62.296875 
L 27.203125 63.90625 
Q 36.296875 66.296875 41.90625 68.296875 
L 42.40625 68.09375 
L 42.40625 11.40625 
Q 42.40625 7.90625 43.25 6.796875 
Q 44.09375 5.703125 46.796875 5.703125 
Q 47.40625 5.703125 49.09375 5.796875 
z
M 34 10.203125 
L 34 33.203125 
Q 34 37.203125 30.953125 40.203125 
Q 27.90625 43.203125 23.796875 43.203125 
Q 18.09375 43.203125 14.6875 38.09375 
Q 11.296875 33 11.296875 24.5 
Q 11.296875 15.296875 15.046875 9.75 
Q 18.796875 4.203125 25.09375 4.203125 
Q 29.796875 4.203125 32.5 7.40625 
Q 34 9.09375 34 10.203125 
z
" id="STIXGeneral-Regular-100"/>
       <path d="M 48.5 0 
L 27.703125 0 
L 27.796875 1.5 
Q 31.5 1.796875 32.75 3.640625 
Q 34 5.5 34 10.5 
L 34 30.40625 
Q 34 40.5 26.703125 40.5 
Q 24.203125 40.5 22 39.296875 
Q 19.796875 38.09375 16.40625 34.796875 
L 16.40625 7.203125 
Q 16.40625 4.203125 17.75 3 
Q 19.09375 1.796875 22.90625 1.5 
L 22.90625 0 
L 1.796875 0 
L 1.796875 1.5 
Q 5.59375 1.796875 6.796875 3.34375 
Q 8 4.90625 8 9.40625 
L 8 33.703125 
Q 8 37.40625 7.296875 38.796875 
Q 6.59375 40.203125 4.5 40.203125 
Q 2.5 40.203125 1.59375 39.796875 
L 1.59375 41.5 
Q 8.59375 43.5 15.296875 46 
L 16.09375 45.703125 
L 16.09375 37.90625 
L 16.203125 37.90625 
Q 23.296875 46 30.59375 46 
Q 36.296875 46 39.34375 42 
Q 42.40625 38 42.40625 30.59375 
L 42.40625 8.5 
Q 42.40625 4.5 43.59375 3.203125 
Q 44.796875 1.90625 48.5 1.5 
z
" id="STIXGeneral-Regular-110"/>
       <path d="M 18 63.203125 
Q 18 61 16.5 59.546875 
Q 15 58.09375 12.796875 58.09375 
Q 10.703125 58.09375 9.25 59.546875 
Q 7.796875 61 7.796875 63.203125 
Q 7.796875 65.296875 9.296875 66.796875 
Q 10.796875 68.296875 12.90625 68.296875 
Q 15.09375 68.296875 16.546875 66.796875 
Q 18 65.296875 18 63.203125 
z
M 25.296875 0 
L 1.59375 0 
L 1.59375 1.5 
Q 6.796875 1.796875 8.140625 3.296875 
Q 9.5 4.796875 9.5 10.40625 
L 9.5 33.09375 
Q 9.5 36.59375 8.796875 38 
Q 8.09375 39.40625 6.203125 39.40625 
Q 3.796875 39.40625 2 38.90625 
L 2 40.5 
L 17.5 46 
L 17.90625 45.59375 
L 17.90625 10.5 
Q 17.90625 4.90625 19.15625 3.40625 
Q 20.40625 1.90625 25.296875 1.5 
z
" id="STIXGeneral-Regular-105"/>
       <path d="M 41.796875 13.59375 
L 40.296875 0 
L 2.703125 0 
L 2.703125 1.5 
L 29.296875 42 
L 15.796875 42 
Q 11.09375 42 9.4375 40.34375 
Q 7.796875 38.703125 7.09375 33.203125 
L 5.296875 33.203125 
L 5.703125 45 
L 40.296875 45 
L 40.296875 43.5 
L 13.40625 3 
L 26.703125 3 
Q 35.09375 3 37.296875 5.703125 
Q 38.703125 7.40625 40 14 
z
" id="STIXGeneral-Regular-122"/>
       <path d="M 66 0 
L 49.796875 0 
L 26 30.796875 
L 20.40625 30.59375 
L 20.40625 11.203125 
Q 20.40625 5.5 21.953125 3.890625 
Q 23.5 2.296875 29.296875 1.90625 
L 29.296875 0 
L 1.703125 0 
L 1.703125 1.90625 
Q 7.40625 2.40625 8.796875 4.09375 
Q 10.203125 5.796875 10.203125 12.40625 
L 10.203125 55.09375 
Q 10.203125 60.703125 8.796875 62.296875 
Q 7.40625 63.90625 1.703125 64.296875 
L 1.703125 66.203125 
L 28.90625 66.203125 
Q 42.59375 66.203125 49.796875 60.296875 
Q 54.703125 56.296875 54.703125 48.296875 
Q 54.703125 34.703125 36.59375 31.90625 
L 56.59375 6.59375 
Q 58.703125 4 60.59375 3.09375 
Q 62.5 2.203125 66 1.90625 
z
M 20.40625 58.296875 
L 20.40625 34.296875 
Q 27.59375 34.40625 31.09375 35.09375 
Q 34.59375 35.796875 38.09375 37.703125 
Q 43.796875 40.90625 43.796875 49.09375 
Q 43.796875 62.5 25.5 62.5 
Q 22.796875 62.5 21.59375 61.640625 
Q 20.40625 60.796875 20.40625 58.296875 
z
" id="STIXGeneral-Regular-82"/>
       <path d="M 15.59375 30.09375 
L 26 23.796875 
Q 31 20.796875 32.890625 18.1875 
Q 34.796875 15.59375 34.796875 11.5 
Q 34.796875 6.5 30.640625 2.75 
Q 26.5 -1 20.796875 -1 
Q 16.09375 -1 13.5 -0.09375 
Q 10.796875 0.796875 8.90625 0.796875 
Q 7.203125 0.796875 6.5 -0.40625 
L 5.203125 -0.40625 
L 5.203125 15.296875 
L 6.796875 15.296875 
Q 8.40625 8 11.40625 4.59375 
Q 14.40625 1.203125 19.5 1.203125 
Q 23.203125 1.203125 25.5 3.296875 
Q 27.796875 5.40625 27.796875 8.59375 
Q 27.796875 13.203125 22.5 16.09375 
L 17.09375 19.09375 
Q 5.09375 25.796875 5.09375 33.59375 
Q 5.09375 39.40625 8.84375 42.65625 
Q 12.59375 45.90625 18.90625 45.90625 
Q 23.296875 45.90625 25.59375 44.796875 
Q 27.40625 44 28.40625 44 
Q 29.09375 44 30 45 
L 31.09375 45 
L 31.59375 31.40625 
L 30.09375 31.40625 
Q 28.40625 38.203125 25.84375 40.953125 
Q 23.296875 43.703125 18.796875 43.703125 
Q 15.40625 43.703125 13.34375 42 
Q 11.296875 40.296875 11.296875 36.90625 
Q 11.296875 35.203125 12.4375 33.25 
Q 13.59375 31.296875 15.59375 30.09375 
z
" id="STIXGeneral-Regular-115"/>
       <path d="M 25.703125 0 
L 2.09375 0 
L 2.09375 1.5 
Q 6.796875 1.90625 8.296875 3.453125 
Q 9.796875 5 9.796875 9.203125 
L 9.796875 56.09375 
Q 9.796875 59.703125 8.890625 61.09375 
Q 8 62.5 5.59375 62.5 
Q 3.5 62.5 1.90625 62.296875 
L 1.90625 63.90625 
Q 11.40625 66.203125 17.703125 68.296875 
L 18.203125 67.90625 
L 18.203125 8.703125 
Q 18.203125 4.5 19.59375 3.140625 
Q 21 1.796875 25.703125 1.5 
z
" id="STIXGeneral-Regular-108"/>
      </defs>
      <use xlink:href="#STIXGeneral-Regular-83"/>
      <use x="55.599991" xlink:href="#STIXGeneral-Regular-116"/>
      <use x="83.399979" xlink:href="#STIXGeneral-Regular-117"/>
      <use x="133.399963" xlink:href="#STIXGeneral-Regular-100"/>
      <use x="183.399948" xlink:href="#STIXGeneral-Regular-101"/>
      <use x="227.799942" xlink:href="#STIXGeneral-Regular-110"/>
      <use x="277.799927" xlink:href="#STIXGeneral-Regular-116"/>
      <use x="305.599915" xlink:href="#STIXGeneral-Regular-105"/>
      <use x="333.399902" xlink:href="#STIXGeneral-Regular-122"/>
      <use x="377.799896" xlink:href="#STIXGeneral-Regular-101"/>
      <use x="422.19989" xlink:href="#STIXGeneral-Regular-100"/>
      <use x="472.199875" xlink:href="#STIXGeneral-Regular-32"/>
      <use x="497.19986" xlink:href="#STIXGeneral-Regular-82"/>
      <use x="563.899857" xlink:href="#STIXGeneral-Regular-101"/>
      <use x="608.29985" xlink:href="#STIXGeneral-Regular-115"/>
      <use x="647.199844" xlink:href="#STIXGeneral-Regular-105"/>
      <use x="674.999832" xlink:href="#STIXGeneral-Regular-100"/>
      <use x="724.999817" xlink:href="#STIXGeneral-Regular-117"/>
      <use x="774.999802" xlink:href="#STIXGeneral-Regular-97"/>
      <use x="819.399796" xlink:href="#STIXGeneral-Regular-108"/>
      <use x="847.199783" xlink:href="#STIXGeneral-Regular-115"/>
     </g>
    </g>
   </g>
   <g id="PathCollection_1">
    <path clip-path="url(#p584896f3b2)" d="M 123.237446 190.045041 
C 124.298797 190.045041 125.316821 189.623362 126.06731 188.872873 
C 126.817798 188.122385 127.239477 187.104361 127.239477 186.04301 
C 127.239477 184.981659 126.817798 183.963636 126.06731 183.213147 
C 125.316821 182.462659 124.298797 182.040979 123.237446 182.040979 
C 122.176095 182.040979 121.158072 182.462659 120.407583 183.213147 
C 119.657095 183.963636 119.235416 184.981659 119.235416 186.04301 
C 119.235416 187.104361 119.657095 188.122385 120.407583 188.872873 
C 121.158072 189.623362 122.176095 190.045041 123.237446 190.045041 
z
" style="fill:#e24a33;fill-opacity:0.75;stroke:#e24a33;stroke-opacity:0.75;stroke-width:0.5;"/>
    <path clip-path="url(#p584896f3b2)" d="M 192.411553 217.667213 
C 193.561415 217.667213 194.664337 217.210367 195.477413 216.397292 
C 196.290488 215.584216 196.747333 214.481295 196.747333 213.331432 
C 196.747333 212.18157 196.290488 211.078648 195.477413 210.265572 
C 194.664337 209.452497 193.561415 208.995652 192.411553 208.995652 
C 191.261691 208.995652 190.158769 209.452497 189.345693 210.265572 
C 188.532618 211.078648 188.075773 212.18157 188.075773 213.331432 
C 188.075773 214.481295 188.532618 215.584216 189.345693 216.397292 
C 190.158769 217.210367 191.261691 217.667213 192.411553 217.667213 
z
" style="fill:#e24a33;fill-opacity:0.75;stroke:#e24a33;stroke-opacity:0.75;stroke-width:0.5;"/>
    <path clip-path="url(#p584896f3b2)" d="M 133.527608 191.912289 
C 134.589883 191.912289 135.608792 191.490243 136.359934 190.739102 
C 137.111075 189.98796 137.533121 188.969051 137.533121 187.906776 
C 137.533121 186.844502 137.111075 185.825592 136.359934 185.074451 
C 135.608792 184.323309 134.589883 183.901263 133.527608 183.901263 
C 132.465334 183.901263 131.446424 184.323309 130.695283 185.074451 
C 129.944141 185.825592 129.522095 186.844502 129.522095 187.906776 
C 129.522095 188.969051 129.944141 189.98796 130.695283 190.739102 
C 131.446424 191.490243 132.465334 191.912289 133.527608 191.912289 
z
" style="fill:#e24a33;fill-opacity:0.75;stroke:#e24a33;stroke-opacity:0.75;stroke-width:0.5;"/>
    <path clip-path="url(#p584896f3b2)" d="M 130.580586 179.672143 
C 131.643406 179.672143 132.662839 179.24988 133.414366 178.498352 
C 134.165894 177.746825 134.588157 176.727392 134.588157 175.664572 
C 134.588157 174.601752 134.165894 173.582319 133.414366 172.830792 
C 132.662839 172.079265 131.643406 171.657002 130.580586 171.657002 
C 129.517766 171.657002 128.498333 172.079265 127.746806 172.830792 
C 126.995279 173.582319 126.573016 174.601752 126.573016 175.664572 
C 126.573016 176.727392 126.995279 177.746825 127.746806 178.498352 
C 128.498333 179.24988 129.517766 179.672143 130.580586 179.672143 
z
" style="fill:#e24a33;fill-opacity:0.75;stroke:#e24a33;stroke-opacity:0.75;stroke-width:0.5;"/>
    <path clip-path="url(#p584896f3b2)" d="M 185.125518 178.166389 
C 186.192431 178.166389 187.215789 177.7425 187.970211 176.988078 
C 188.724632 176.233657 189.148521 175.210299 189.148521 174.143386 
C 189.148521 173.076473 188.724632 172.053115 187.970211 171.298694 
C 187.215789 170.544273 186.192431 170.120384 185.125518 170.120384 
C 184.058606 170.120384 183.035247 170.544273 182.280826 171.298694 
C 181.526405 172.053115 181.102516 173.076473 181.102516 174.143386 
C 181.102516 175.210299 181.526405 176.233657 182.280826 176.988078 
C 183.035247 177.7425 184.058606 178.166389 185.125518 178.166389 
z
" style="fill:#e24a33;fill-opacity:0.75;stroke:#e24a33;stroke-opacity:0.75;stroke-width:0.5;"/>
    <path clip-path="url(#p584896f3b2)" d="M 138.918369 181.291225 
C 139.9805 181.291225 140.999271 180.869236 141.750311 180.118197 
C 142.501351 179.367157 142.92334 178.348385 142.92334 177.286254 
C 142.92334 176.224124 142.501351 175.205352 141.750311 174.454312 
C 140.999271 173.703272 139.9805 173.281283 138.918369 173.281283 
C 137.856238 173.281283 136.837467 173.703272 136.086427 174.454312 
C 135.335387 175.205352 134.913398 176.224124 134.913398 177.286254 
C 134.913398 178.348385 135.335387 179.367157 136.086427 180.118197 
C 136.837467 180.869236 137.856238 181.291225 138.918369 181.291225 
z
" style="fill:#e24a33;fill-opacity:0.75;stroke:#e24a33;stroke-opacity:0.75;stroke-width:0.5;"/>
    <path clip-path="url(#p584896f3b2)" d="M 124.743171 205.827567 
C 125.819121 205.827567 126.851148 205.400088 127.611959 204.639276 
C 128.372771 203.878465 128.80025 202.846438 128.80025 201.770488 
C 128.80025 200.694538 128.372771 199.662512 127.611959 198.9017 
C 126.851148 198.140889 125.819121 197.713409 124.743171 197.713409 
C 123.667222 197.713409 122.635195 198.140889 121.874384 198.9017 
C 121.113572 199.662512 120.686093 200.694538 120.686093 201.770488 
C 120.686093 202.846438 121.113572 203.878465 121.874384 204.639276 
C 122.635195 205.400088 123.667222 205.827567 124.743171 205.827567 
z
" style="fill:#e24a33;fill-opacity:0.75;stroke:#e24a33;stroke-opacity:0.75;stroke-width:0.5;"/>
    <path clip-path="url(#p584896f3b2)" d="M 126.623064 208.310759 
C 127.703708 208.310759 128.740237 207.881414 129.504368 207.117284 
C 130.268499 206.353153 130.697843 205.316624 130.697843 204.23598 
C 130.697843 203.155336 130.268499 202.118807 129.504368 201.354676 
C 128.740237 200.590545 127.703708 200.161201 126.623064 200.161201 
C 125.54242 200.161201 124.505891 200.590545 123.74176 201.354676 
C 122.97763 202.118807 122.548285 203.155336 122.548285 204.23598 
C 122.548285 205.316624 122.97763 206.353153 123.74176 207.117284 
C 124.505891 207.881414 125.54242 208.310759 126.623064 208.310759 
z
" style="fill:#e24a33;fill-opacity:0.75;stroke:#e24a33;stroke-opacity:0.75;stroke-width:0.5;"/>
    <path clip-path="url(#p584896f3b2)" d="M 594.169193 74.975875 
C 600.534068 74.975875 606.63911 72.447084 611.139756 67.946438 
C 615.640402 63.445792 618.169193 57.34075 618.169193 50.975875 
C 618.169193 44.611001 615.640402 38.505959 611.139756 34.005313 
C 606.63911 29.504667 600.534068 26.975875 594.169193 26.975875 
C 587.804319 26.975875 581.699276 29.504667 577.19863 34.005313 
C 572.697985 38.505959 570.169193 44.611001 570.169193 50.975875 
C 570.169193 57.34075 572.697985 63.445792 577.19863 67.946438 
C 581.699276 72.447084 587.804319 74.975875 594.169193 74.975875 
z
" style="fill:#e24a33;fill-opacity:0.75;stroke:#e24a33;stroke-opacity:0.75;stroke-width:0.5;"/>
    <path clip-path="url(#p584896f3b2)" d="M 121.0536 200.601905 
C 122.122021 200.601905 123.146825 200.177417 123.902312 199.42193 
C 124.6578 198.666443 125.082287 197.641638 125.082287 196.573218 
C 125.082287 195.504798 124.6578 194.479994 123.902312 193.724506 
C 123.146825 192.969019 122.122021 192.544531 121.0536 192.544531 
C 119.98518 192.544531 118.960376 192.969019 118.204889 193.724506 
C 117.449401 194.479994 117.024913 195.504798 117.024913 196.573218 
C 117.024913 197.641638 117.449401 198.666443 118.204889 199.42193 
C 118.960376 200.177417 119.98518 200.601905 121.0536 200.601905 
z
" style="fill:#e24a33;fill-opacity:0.75;stroke:#e24a33;stroke-opacity:0.75;stroke-width:0.5;"/>
    <path clip-path="url(#p584896f3b2)" d="M 94.911072 232.265984 
C 96.009949 232.265984 97.063967 231.829396 97.84099 231.052372 
C 98.618014 230.275349 99.054602 229.221331 99.054602 228.122454 
C 99.054602 227.023577 98.618014 225.96956 97.84099 225.192536 
C 97.063967 224.415513 96.009949 223.978924 94.911072 223.978924 
C 93.812195 223.978924 92.758178 224.415513 91.981154 225.192536 
C 91.204131 225.96956 90.767543 227.023577 90.767543 228.122454 
C 90.767543 229.221331 91.204131 230.275349 91.981154 231.052372 
C 92.758178 231.829396 93.812195 232.265984 94.911072 232.265984 
z
" style="fill:#e24a33;fill-opacity:0.75;stroke:#e24a33;stroke-opacity:0.75;stroke-width:0.5;"/>
    <path clip-path="url(#p584896f3b2)" d="M 115.595006 286.78578 
C 116.919797 286.78578 118.190505 286.259435 119.127274 285.322667 
C 120.064042 284.385898 120.590387 283.11519 120.590387 281.790399 
C 120.590387 280.465609 120.064042 279.1949 119.127274 278.258132 
C 118.190505 277.321364 116.919797 276.795019 115.595006 276.795019 
C 114.270216 276.795019 112.999507 277.321364 112.062739 278.258132 
C 111.125971 279.1949 110.599626 280.465609 110.599626 281.790399 
C 110.599626 283.11519 111.125971 284.385898 112.062739 285.322667 
C 112.999507 286.259435 114.270216 286.78578 115.595006 286.78578 
z
" style="fill:#e24a33;fill-opacity:0.75;stroke:#e24a33;stroke-opacity:0.75;stroke-width:0.5;"/>
    <path clip-path="url(#p584896f3b2)" d="M 125.603051 186.222476 
C 126.663863 186.222476 127.68137 185.801011 128.431478 185.050903 
C 129.181585 184.300796 129.603051 183.283288 129.603051 182.222476 
C 129.603051 181.161664 129.181585 180.144157 128.431478 179.394049 
C 127.68137 178.643941 126.663863 178.222476 125.603051 178.222476 
C 124.542238 178.222476 123.524731 178.643941 122.774624 179.394049 
C 122.024516 180.144157 121.603051 181.161664 121.603051 182.222476 
C 121.603051 183.283288 122.024516 184.300796 122.774624 185.050903 
C 123.524731 185.801011 124.542238 186.222476 125.603051 186.222476 
z
" style="fill:#e24a33;fill-opacity:0.75;stroke:#e24a33;stroke-opacity:0.75;stroke-width:0.5;"/>
    <path clip-path="url(#p584896f3b2)" d="M 94.008097 102.113492 
C 95.183384 102.113492 96.310692 101.646545 97.141746 100.815492 
C 97.972799 99.984438 98.439746 98.85713 98.439746 97.681842 
C 98.439746 96.506555 97.972799 95.379247 97.141746 94.548193 
C 96.310692 93.71714 95.183384 93.250193 94.008097 93.250193 
C 92.832809 93.250193 91.705501 93.71714 90.874447 94.548193 
C 90.043394 95.379247 89.576447 96.506555 89.576447 97.681842 
C 89.576447 98.85713 90.043394 99.984438 90.874447 100.815492 
C 91.705501 101.646545 92.832809 102.113492 94.008097 102.113492 
z
" style="fill:#e24a33;fill-opacity:0.75;stroke:#e24a33;stroke-opacity:0.75;stroke-width:0.5;"/>
    <path clip-path="url(#p584896f3b2)" d="M 82.091468 168.072773 
C 83.155691 168.072773 84.176469 167.649952 84.928988 166.897433 
C 85.681507 166.144914 86.104327 165.124136 86.104327 164.059914 
C 86.104327 162.995691 85.681507 161.974913 84.928988 161.222394 
C 84.176469 160.469875 83.155691 160.047055 82.091468 160.047055 
C 81.027246 160.047055 80.006467 160.469875 79.253948 161.222394 
C 78.501429 161.974913 78.078609 162.995691 78.078609 164.059914 
C 78.078609 165.124136 78.501429 166.144914 79.253948 166.897433 
C 80.006467 167.649952 81.027246 168.072773 82.091468 168.072773 
z
" style="fill:#e24a33;fill-opacity:0.75;stroke:#e24a33;stroke-opacity:0.75;stroke-width:0.5;"/>
    <path clip-path="url(#p584896f3b2)" d="M 105.359823 200.405146 
C 106.4258 200.405146 107.448262 199.981629 108.202021 199.227869 
C 108.955781 198.474109 109.379298 197.451648 109.379298 196.385671 
C 109.379298 195.319694 108.955781 194.297232 108.202021 193.543473 
C 107.448262 192.789713 106.4258 192.366196 105.359823 192.366196 
C 104.293846 192.366196 103.271385 192.789713 102.517625 193.543473 
C 101.763865 194.297232 101.340348 195.319694 101.340348 196.385671 
C 101.340348 197.451648 101.763865 198.474109 102.517625 199.227869 
C 103.271385 199.981629 104.293846 200.405146 105.359823 200.405146 
z
" style="fill:#e24a33;fill-opacity:0.75;stroke:#e24a33;stroke-opacity:0.75;stroke-width:0.5;"/>
    <path clip-path="url(#p584896f3b2)" d="M 97.639891 166.702449 
C 98.708714 166.702449 99.733904 166.277801 100.489676 165.522029 
C 101.245448 164.766257 101.670096 163.741066 101.670096 162.672243 
C 101.670096 161.60342 101.245448 160.57823 100.489676 159.822458 
C 99.733904 159.066686 98.708714 158.642038 97.639891 158.642038 
C 96.571068 158.642038 95.545877 159.066686 94.790105 159.822458 
C 94.034333 160.57823 93.609685 161.60342 93.609685 162.672243 
C 93.609685 163.741066 94.034333 164.766257 94.790105 165.522029 
C 95.545877 166.277801 96.571068 166.702449 97.639891 166.702449 
z
" style="fill:#e24a33;fill-opacity:0.75;stroke:#e24a33;stroke-opacity:0.75;stroke-width:0.5;"/>
    <path clip-path="url(#p584896f3b2)" d="M 139.88312 210.378673 
C 140.973267 210.378673 142.018911 209.945553 142.789761 209.174703 
C 143.560611 208.403853 143.993731 207.358209 143.993731 206.268062 
C 143.993731 205.177915 143.560611 204.132271 142.789761 203.361421 
C 142.018911 202.590571 140.973267 202.157451 139.88312 202.157451 
C 138.792973 202.157451 137.747329 202.590571 136.976479 203.361421 
C 136.205629 204.132271 135.772509 205.177915 135.772509 206.268062 
C 135.772509 207.358209 136.205629 208.403853 136.976479 209.174703 
C 137.747329 209.945553 138.792973 210.378673 139.88312 210.378673 
z
" style="fill:#e24a33;fill-opacity:0.75;stroke:#e24a33;stroke-opacity:0.75;stroke-width:0.5;"/>
    <path clip-path="url(#p584896f3b2)" d="M 118.287889 91.915446 
C 119.608757 91.915446 120.875702 91.39066 121.809697 90.456666 
C 122.743691 89.522671 123.268477 88.255725 123.268477 86.934858 
C 123.268477 85.613991 122.743691 84.347045 121.809697 83.41305 
C 120.875702 82.479056 119.608757 81.95427 118.287889 81.95427 
C 116.967022 81.95427 115.700076 82.479056 114.766082 83.41305 
C 113.832087 84.347045 113.307301 85.613991 113.307301 86.934858 
C 113.307301 88.255725 113.832087 89.522671 114.766082 90.456666 
C 115.700076 91.39066 116.967022 91.915446 118.287889 91.915446 
z
" style="fill:#e24a33;fill-opacity:0.75;stroke:#e24a33;stroke-opacity:0.75;stroke-width:0.5;"/>
    <path clip-path="url(#p584896f3b2)" d="M 137.665521 209.676778 
C 138.75311 209.676778 139.7963 209.244674 140.565342 208.475633 
C 141.334383 207.706591 141.766487 206.663401 141.766487 205.575812 
C 141.766487 204.488223 141.334383 203.445033 140.565342 202.675991 
C 139.7963 201.90695 138.75311 201.474846 137.665521 201.474846 
C 136.577932 201.474846 135.534742 201.90695 134.7657 202.675991 
C 133.996659 203.445033 133.564555 204.488223 133.564555 205.575812 
C 133.564555 206.663401 133.996659 207.706591 134.7657 208.475633 
C 135.534742 209.244674 136.577932 209.676778 137.665521 209.676778 
z
" style="fill:#e24a33;fill-opacity:0.75;stroke:#e24a33;stroke-opacity:0.75;stroke-width:0.5;"/>
    <path clip-path="url(#p584896f3b2)" d="M 148.375417 110.599777 
C 149.722637 110.599777 151.014859 110.06452 151.967488 109.111892 
C 152.920116 108.159264 153.455372 106.867041 153.455372 105.519822 
C 153.455372 104.172602 152.920116 102.880379 151.967488 101.927751 
C 151.014859 100.975123 149.722637 100.439867 148.375417 100.439867 
C 147.028197 100.439867 145.735975 100.975123 144.783346 101.927751 
C 143.830718 102.880379 143.295462 104.172602 143.295462 105.519822 
C 143.295462 106.867041 143.830718 108.159264 144.783346 109.111892 
C 145.735975 110.06452 147.028197 110.599777 148.375417 110.599777 
z
" style="fill:#e24a33;fill-opacity:0.75;stroke:#e24a33;stroke-opacity:0.75;stroke-width:0.5;"/>
    <path clip-path="url(#p584896f3b2)" d="M 121.755153 228.830399 
C 122.880885 228.830399 123.960662 228.383141 124.756675 227.587128 
C 125.552688 226.791115 125.999946 225.711338 125.999946 224.585606 
C 125.999946 223.459873 125.552688 222.380096 124.756675 221.584083 
C 123.960662 220.78807 122.880885 220.340812 121.755153 220.340812 
C 120.62942 220.340812 119.549644 220.78807 118.753631 221.584083 
C 117.957618 222.380096 117.510359 223.459873 117.510359 224.585606 
C 117.510359 225.711338 117.957618 226.791115 118.753631 227.587128 
C 119.549644 228.383141 120.62942 228.830399 121.755153 228.830399 
z
" style="fill:#e24a33;fill-opacity:0.75;stroke:#e24a33;stroke-opacity:0.75;stroke-width:0.5;"/>
    <path clip-path="url(#p584896f3b2)" d="M 137.748511 191.807656 
C 138.810829 191.807656 139.82978 191.385592 140.580953 190.63442 
C 141.332125 189.883248 141.754189 188.864296 141.754189 187.801978 
C 141.754189 186.73966 141.332125 185.720708 140.580953 184.969536 
C 139.82978 184.218363 138.810829 183.7963 137.748511 183.7963 
C 136.686192 183.7963 135.667241 184.218363 134.916069 184.969536 
C 134.164896 185.720708 133.742833 186.73966 133.742833 187.801978 
C 133.742833 188.864296 134.164896 189.883248 134.916069 190.63442 
C 135.667241 191.385592 136.686192 191.807656 137.748511 191.807656 
z
" style="fill:#e24a33;fill-opacity:0.75;stroke:#e24a33;stroke-opacity:0.75;stroke-width:0.5;"/>
    <path clip-path="url(#p584896f3b2)" d="M 112.087581 197.599884 
C 113.152319 197.599884 114.173592 197.176859 114.926476 196.423975 
C 115.67936 195.671092 116.102385 194.649819 116.102385 193.58508 
C 116.102385 192.520342 115.67936 191.499069 114.926476 190.746186 
C 114.173592 189.993302 113.152319 189.570277 112.087581 189.570277 
C 111.022843 189.570277 110.00157 189.993302 109.248686 190.746186 
C 108.495802 191.499069 108.072777 192.520342 108.072777 193.58508 
C 108.072777 194.649819 108.495802 195.671092 109.248686 196.423975 
C 110.00157 197.176859 111.022843 197.599884 112.087581 197.599884 
z
" style="fill:#e24a33;fill-opacity:0.75;stroke:#e24a33;stroke-opacity:0.75;stroke-width:0.5;"/>
    <path clip-path="url(#p584896f3b2)" d="M 220.45785 308.703762 
C 222.532835 308.703762 224.523114 307.879361 225.99035 306.412125 
C 227.457586 304.944889 228.281986 302.95461 228.281986 300.879625 
C 228.281986 298.80464 227.457586 296.814361 225.99035 295.347125 
C 224.523114 293.879889 222.532835 293.055489 220.45785 293.055489 
C 218.382864 293.055489 216.392586 293.879889 214.92535 295.347125 
C 213.458114 296.814361 212.633713 298.80464 212.633713 300.879625 
C 212.633713 302.95461 213.458114 304.944889 214.92535 306.412125 
C 216.392586 307.879361 218.382864 308.703762 220.45785 308.703762 
z
" style="fill:#e24a33;fill-opacity:0.75;stroke:#e24a33;stroke-opacity:0.75;stroke-width:0.5;"/>
    <path clip-path="url(#p584896f3b2)" d="M 81.912819 150.63806 
C 82.986314 150.63806 84.015986 150.211556 84.775061 149.45248 
C 85.534137 148.693404 85.960641 147.663732 85.960641 146.590237 
C 85.960641 145.516742 85.534137 144.48707 84.775061 143.727995 
C 84.015986 142.968919 82.986314 142.542415 81.912819 142.542415 
C 80.839324 142.542415 79.809652 142.968919 79.050576 143.727995 
C 78.2915 144.48707 77.864996 145.516742 77.864996 146.590237 
C 77.864996 147.663732 78.2915 148.693404 79.050576 149.45248 
C 79.809652 150.211556 80.839324 150.63806 81.912819 150.63806 
z
" style="fill:#e24a33;fill-opacity:0.75;stroke:#e24a33;stroke-opacity:0.75;stroke-width:0.5;"/>
    <path clip-path="url(#p584896f3b2)" d="M 158.384827 184.351909 
C 159.445907 184.351909 160.463671 183.930337 161.213968 183.18004 
C 161.964265 182.429743 162.385837 181.41198 162.385837 180.350899 
C 162.385837 179.289819 161.964265 178.272055 161.213968 177.521758 
C 160.463671 176.771461 159.445907 176.34989 158.384827 176.34989 
C 157.323747 176.34989 156.305983 176.771461 155.555686 177.521758 
C 154.805389 178.272055 154.383817 179.289819 154.383817 180.350899 
C 154.383817 181.41198 154.805389 182.429743 155.555686 183.18004 
C 156.305983 183.930337 157.323747 184.351909 158.384827 184.351909 
z
" style="fill:#e24a33;fill-opacity:0.75;stroke:#e24a33;stroke-opacity:0.75;stroke-width:0.5;"/>
    <path clip-path="url(#p584896f3b2)" d="M 96.287536 182.370017 
C 97.348663 182.370017 98.366471 181.948427 99.116801 181.198097 
C 99.867131 180.447767 100.288722 179.429958 100.288722 178.368831 
C 100.288722 177.307704 99.867131 176.289895 99.116801 175.539565 
C 98.366471 174.789235 97.348663 174.367645 96.287536 174.367645 
C 95.226409 174.367645 94.2086 174.789235 93.45827 175.539565 
C 92.70794 176.289895 92.28635 177.307704 92.28635 178.368831 
C 92.28635 179.429958 92.70794 180.447767 93.45827 181.198097 
C 94.2086 181.948427 95.226409 182.370017 96.287536 182.370017 
z
" style="fill:#e24a33;fill-opacity:0.75;stroke:#e24a33;stroke-opacity:0.75;stroke-width:0.5;"/>
    <path clip-path="url(#p584896f3b2)" d="M 134.596946 183.228055 
C 135.658226 183.228055 136.676182 182.806404 137.426621 182.055966 
C 138.177059 181.305527 138.59871 180.287571 138.59871 179.226291 
C 138.59871 178.16501 138.177059 177.147054 137.426621 176.396616 
C 136.676182 175.646177 135.658226 175.224526 134.596946 175.224526 
C 133.535665 175.224526 132.517709 175.646177 131.767271 176.396616 
C 131.016832 177.147054 130.595181 178.16501 130.595181 179.226291 
C 130.595181 180.287571 131.016832 181.305527 131.767271 182.055966 
C 132.517709 182.806404 133.535665 183.228055 134.596946 183.228055 
z
" style="fill:#e24a33;fill-opacity:0.75;stroke:#e24a33;stroke-opacity:0.75;stroke-width:0.5;"/>
    <path clip-path="url(#p584896f3b2)" d="M 140.740081 169.717679 
C 141.815498 169.717679 142.847014 169.290411 143.607449 168.529976 
C 144.367884 167.769541 144.795152 166.738025 144.795152 165.662607 
C 144.795152 164.58719 144.367884 163.555674 143.607449 162.795239 
C 142.847014 162.034804 141.815498 161.607536 140.740081 161.607536 
C 139.664663 161.607536 138.633148 162.034804 137.872713 162.795239 
C 137.112278 163.555674 136.68501 164.58719 136.68501 165.662607 
C 136.68501 166.738025 137.112278 167.769541 137.872713 168.529976 
C 138.633148 169.290411 139.664663 169.717679 140.740081 169.717679 
z
" style="fill:#e24a33;fill-opacity:0.75;stroke:#e24a33;stroke-opacity:0.75;stroke-width:0.5;"/>
    <path clip-path="url(#p584896f3b2)" d="M 143.07512 193.26858 
C 144.138551 193.26858 145.158569 192.846075 145.910527 192.094116 
C 146.662486 191.342157 147.084992 190.322139 147.084992 189.258709 
C 147.084992 188.195279 146.662486 187.17526 145.910527 186.423302 
C 145.158569 185.671343 144.138551 185.248837 143.07512 185.248837 
C 142.01169 185.248837 140.991672 185.671343 140.239713 186.423302 
C 139.487754 187.17526 139.065249 188.195279 139.065249 189.258709 
C 139.065249 190.322139 139.487754 191.342157 140.239713 192.094116 
C 140.991672 192.846075 142.01169 193.26858 143.07512 193.26858 
z
" style="fill:#e24a33;fill-opacity:0.75;stroke:#e24a33;stroke-opacity:0.75;stroke-width:0.5;"/>
    <path clip-path="url(#p584896f3b2)" d="M 108.998923 127.585219 
C 110.152547 127.585219 111.259078 127.126879 112.074813 126.311143 
C 112.890549 125.495407 113.348889 124.388877 113.348889 123.235252 
C 113.348889 122.081627 112.890549 120.975097 112.074813 120.159361 
C 111.259078 119.343625 110.152547 118.885285 108.998923 118.885285 
C 107.845298 118.885285 106.738768 119.343625 105.923032 120.159361 
C 105.107296 120.975097 104.648956 122.081627 104.648956 123.235252 
C 104.648956 124.388877 105.107296 125.495407 105.923032 126.311143 
C 106.738768 127.126879 107.845298 127.585219 108.998923 127.585219 
z
" style="fill:#e24a33;fill-opacity:0.75;stroke:#e24a33;stroke-opacity:0.75;stroke-width:0.5;"/>
    <path clip-path="url(#p584896f3b2)" d="M 104.18261 292.880525 
C 105.468995 292.880525 106.702866 292.369439 107.612478 291.459827 
C 108.52209 290.550215 109.033176 289.316344 109.033176 288.029958 
C 109.033176 286.743573 108.52209 285.509702 107.612478 284.60009 
C 106.702866 283.690478 105.468995 283.179392 104.18261 283.179392 
C 102.896224 283.179392 101.662353 283.690478 100.752741 284.60009 
C 99.84313 285.509702 99.332043 286.743573 99.332043 288.029958 
C 99.332043 289.316344 99.84313 290.550215 100.752741 291.459827 
C 101.662353 292.369439 102.896224 292.880525 104.18261 292.880525 
z
" style="fill:#e24a33;fill-opacity:0.75;stroke:#e24a33;stroke-opacity:0.75;stroke-width:0.5;"/>
    <path clip-path="url(#p584896f3b2)" d="M 91.641968 195.765017 
C 92.704259 195.765017 93.723185 195.342964 94.474338 194.591811 
C 95.225491 193.840658 95.647544 192.821732 95.647544 191.759441 
C 95.647544 190.697149 95.225491 189.678224 94.474338 188.92707 
C 93.723185 188.175917 92.704259 187.753864 91.641968 187.753864 
C 90.579676 187.753864 89.560751 188.175917 88.809597 188.92707 
C 88.058444 189.678224 87.636391 190.697149 87.636391 191.759441 
C 87.636391 192.821732 88.058444 193.840658 88.809597 194.591811 
C 89.560751 195.342964 90.579676 195.765017 91.641968 195.765017 
z
" style="fill:#e24a33;fill-opacity:0.75;stroke:#e24a33;stroke-opacity:0.75;stroke-width:0.5;"/>
    <path clip-path="url(#p584896f3b2)" d="M 113.776126 142.084242 
C 114.897809 142.084242 115.973702 141.638593 116.766852 140.845443 
C 117.560001 140.052294 118.00565 138.976401 118.00565 137.854718 
C 118.00565 136.733035 117.560001 135.657143 116.766852 134.863993 
C 115.973702 134.070843 114.897809 133.625194 113.776126 133.625194 
C 112.654444 133.625194 111.578551 134.070843 110.785401 134.863993 
C 109.992252 135.657143 109.546602 136.733035 109.546602 137.854718 
C 109.546602 138.976401 109.992252 140.052294 110.785401 140.845443 
C 111.578551 141.638593 112.654444 142.084242 113.776126 142.084242 
z
" style="fill:#e24a33;fill-opacity:0.75;stroke:#e24a33;stroke-opacity:0.75;stroke-width:0.5;"/>
    <path clip-path="url(#p584896f3b2)" d="M 101.218849 223.982565 
C 102.311531 223.982565 103.359607 223.548437 104.132251 222.775794 
C 104.904894 222.003151 105.339021 220.955075 105.339021 219.862392 
C 105.339021 218.76971 104.904894 217.721633 104.132251 216.94899 
C 103.359607 216.176347 102.311531 215.74222 101.218849 215.74222 
C 100.126166 215.74222 99.07809 216.176347 98.305447 216.94899 
C 97.532804 217.721633 97.098676 218.76971 97.098676 219.862392 
C 97.098676 220.955075 97.532804 222.003151 98.305447 222.775794 
C 99.07809 223.548437 100.126166 223.982565 101.218849 223.982565 
z
" style="fill:#e24a33;fill-opacity:0.75;stroke:#e24a33;stroke-opacity:0.75;stroke-width:0.5;"/>
    <path clip-path="url(#p584896f3b2)" d="M 93.35872 167.481572 
C 94.425873 167.481572 95.449461 167.057588 96.204052 166.302997 
C 96.958643 165.548406 97.382627 164.524818 97.382627 163.457666 
C 97.382627 162.390513 96.958643 161.366925 96.204052 160.612334 
C 95.449461 159.857743 94.425873 159.433759 93.35872 159.433759 
C 92.291568 159.433759 91.26798 159.857743 90.513389 160.612334 
C 89.758798 161.366925 89.334814 162.390513 89.334814 163.457666 
C 89.334814 164.524818 89.758798 165.548406 90.513389 166.302997 
C 91.26798 167.057588 92.291568 167.481572 93.35872 167.481572 
z
" style="fill:#e24a33;fill-opacity:0.75;stroke:#e24a33;stroke-opacity:0.75;stroke-width:0.5;"/>
    <path clip-path="url(#p584896f3b2)" d="M 117.589803 237.234911 
C 118.734592 237.234911 119.832647 236.780082 120.642135 235.970594 
C 121.451623 235.161106 121.906452 234.063051 121.906452 232.918262 
C 121.906452 231.773474 121.451623 230.675418 120.642135 229.865931 
C 119.832647 229.056443 118.734592 228.601613 117.589803 228.601613 
C 116.445014 228.601613 115.346959 229.056443 114.537471 229.865931 
C 113.727983 230.675418 113.273154 231.773474 113.273154 232.918262 
C 113.273154 234.063051 113.727983 235.161106 114.537471 235.970594 
C 115.346959 236.780082 116.445014 237.234911 117.589803 237.234911 
z
" style="fill:#e24a33;fill-opacity:0.75;stroke:#e24a33;stroke-opacity:0.75;stroke-width:0.5;"/>
    <path clip-path="url(#p584896f3b2)" d="M 86.336648 158.720519 
C 87.407351 158.720519 88.434345 158.295124 89.191446 157.538023 
C 89.948547 156.780921 90.373942 155.753927 90.373942 154.683224 
C 90.373942 153.612521 89.948547 152.585527 89.191446 151.828426 
C 88.434345 151.071324 87.407351 150.645929 86.336648 150.645929 
C 85.265945 150.645929 84.238951 151.071324 83.481849 151.828426 
C 82.724748 152.585527 82.299353 153.612521 82.299353 154.683224 
C 82.299353 155.753927 82.724748 156.780921 83.481849 157.538023 
C 84.238951 158.295124 85.265945 158.720519 86.336648 158.720519 
z
" style="fill:#e24a33;fill-opacity:0.75;stroke:#e24a33;stroke-opacity:0.75;stroke-width:0.5;"/>
    <path clip-path="url(#p584896f3b2)" d="M 138.425962 239.272832 
C 139.615077 239.272832 140.755649 238.800392 141.59648 237.959561 
C 142.437311 237.118729 142.909751 235.978157 142.909751 234.789043 
C 142.909751 233.599928 142.437311 232.459356 141.59648 231.618524 
C 140.755649 230.777693 139.615077 230.305253 138.425962 230.305253 
C 137.236847 230.305253 136.096275 230.777693 135.255444 231.618524 
C 134.414612 232.459356 133.942172 233.599928 133.942172 234.789043 
C 133.942172 235.978157 134.414612 237.118729 135.255444 237.959561 
C 136.096275 238.800392 137.236847 239.272832 138.425962 239.272832 
z
" style="fill:#e24a33;fill-opacity:0.75;stroke:#e24a33;stroke-opacity:0.75;stroke-width:0.5;"/>
    <path clip-path="url(#p584896f3b2)" d="M 98.282411 200.067016 
C 99.347213 200.067016 100.368546 199.643966 101.121475 198.891038 
C 101.874403 198.138109 102.297453 197.116776 102.297453 196.051974 
C 102.297453 194.987173 101.874403 193.965839 101.121475 193.212911 
C 100.368546 192.459982 99.347213 192.036932 98.282411 192.036932 
C 97.21761 192.036932 96.196276 192.459982 95.443348 193.212911 
C 94.69042 193.965839 94.267369 194.987173 94.267369 196.051974 
C 94.267369 197.116776 94.69042 198.138109 95.443348 198.891038 
C 96.196276 199.643966 97.21761 200.067016 98.282411 200.067016 
z
" style="fill:#e24a33;fill-opacity:0.75;stroke:#e24a33;stroke-opacity:0.75;stroke-width:0.5;"/>
    <path clip-path="url(#p584896f3b2)" d="M 122.811892 166.239823 
C 123.888421 166.239823 124.921003 165.812113 125.682224 165.050893 
C 126.443445 164.289672 126.871154 163.25709 126.871154 162.180561 
C 126.871154 161.104032 126.443445 160.07145 125.682224 159.310229 
C 124.921003 158.549008 123.888421 158.121299 122.811892 158.121299 
C 121.735363 158.121299 120.702781 158.549008 119.941561 159.310229 
C 119.18034 160.07145 118.75263 161.104032 118.75263 162.180561 
C 118.75263 163.25709 119.18034 164.289672 119.941561 165.050893 
C 120.702781 165.812113 121.735363 166.239823 122.811892 166.239823 
z
" style="fill:#e24a33;fill-opacity:0.75;stroke:#e24a33;stroke-opacity:0.75;stroke-width:0.5;"/>
    <path clip-path="url(#p584896f3b2)" d="M 103.706209 142.465028 
C 104.813652 142.465028 105.875886 142.025036 106.658966 141.241956 
C 107.442046 140.458876 107.882038 139.396642 107.882038 138.289199 
C 107.882038 137.181757 107.442046 136.119523 106.658966 135.336443 
C 105.875886 134.553362 104.813652 134.113371 103.706209 134.113371 
C 102.598766 134.113371 101.536533 134.553362 100.753452 135.336443 
C 99.970372 136.119523 99.530381 137.181757 99.530381 138.289199 
C 99.530381 139.396642 99.970372 140.458876 100.753452 141.241956 
C 101.536533 142.025036 102.598766 142.465028 103.706209 142.465028 
z
" style="fill:#e24a33;fill-opacity:0.75;stroke:#e24a33;stroke-opacity:0.75;stroke-width:0.5;"/>
    <path clip-path="url(#p584896f3b2)" d="M 158.086593 198.359439 
C 159.156989 198.359439 160.183688 197.934166 160.940573 197.177282 
C 161.697457 196.420398 162.122729 195.393698 162.122729 194.323302 
C 162.122729 193.252907 161.697457 192.226207 160.940573 191.469323 
C 160.183688 190.712439 159.156989 190.287166 158.086593 190.287166 
C 157.016197 190.287166 155.989498 190.712439 155.232614 191.469323 
C 154.47573 192.226207 154.050457 193.252907 154.050457 194.323302 
C 154.050457 195.393698 154.47573 196.420398 155.232614 197.177282 
C 155.989498 197.934166 157.016197 198.359439 158.086593 198.359439 
z
" style="fill:#e24a33;fill-opacity:0.75;stroke:#e24a33;stroke-opacity:0.75;stroke-width:0.5;"/>
    <path clip-path="url(#p584896f3b2)" d="M 193.132755 163.768502 
C 194.243117 163.768502 195.308151 163.32735 196.093296 162.542206 
C 196.87844 161.757061 197.319592 160.692027 197.319592 159.581665 
C 197.319592 158.471303 196.87844 157.406269 196.093296 156.621125 
C 195.308151 155.83598 194.243117 155.394829 193.132755 155.394829 
C 192.022393 155.394829 190.957359 155.83598 190.172215 156.621125 
C 189.38707 157.406269 188.945919 158.471303 188.945919 159.581665 
C 188.945919 160.692027 189.38707 161.757061 190.172215 162.542206 
C 190.957359 163.32735 192.022393 163.768502 193.132755 163.768502 
z
" style="fill:#e24a33;fill-opacity:0.75;stroke:#e24a33;stroke-opacity:0.75;stroke-width:0.5;"/>
    <path clip-path="url(#p584896f3b2)" d="M 181.113288 211.491343 
C 182.226738 211.491343 183.294734 211.048965 184.082062 210.261637 
C 184.86939 209.474309 185.311768 208.406313 185.311768 207.292863 
C 185.311768 206.179413 184.86939 205.111417 184.082062 204.324089 
C 183.294734 203.536761 182.226738 203.094383 181.113288 203.094383 
C 179.999838 203.094383 178.931842 203.536761 178.144514 204.324089 
C 177.357186 205.111417 176.914808 206.179413 176.914808 207.292863 
C 176.914808 208.406313 177.357186 209.474309 178.144514 210.261637 
C 178.931842 211.048965 179.999838 211.491343 181.113288 211.491343 
z
" style="fill:#e24a33;fill-opacity:0.75;stroke:#e24a33;stroke-opacity:0.75;stroke-width:0.5;"/>
    <path clip-path="url(#p584896f3b2)" d="M 124.782861 135.122779 
C 125.943619 135.122779 127.056993 134.661605 127.877773 133.840824 
C 128.698554 133.020044 129.159728 131.90667 129.159728 130.745911 
C 129.159728 129.585153 128.698554 128.471779 127.877773 127.650999 
C 127.056993 126.830218 125.943619 126.369044 124.782861 126.369044 
C 123.622102 126.369044 122.508728 126.830218 121.687948 127.650999 
C 120.867168 128.471779 120.405993 129.585153 120.405993 130.745911 
C 120.405993 131.90667 120.867168 133.020044 121.687948 133.840824 
C 122.508728 134.661605 123.622102 135.122779 124.782861 135.122779 
z
" style="fill:#e24a33;fill-opacity:0.75;stroke:#e24a33;stroke-opacity:0.75;stroke-width:0.5;"/>
    <path clip-path="url(#p584896f3b2)" d="M 119.128387 201.486771 
C 120.197449 201.486771 121.222868 201.062028 121.978809 200.306087 
C 122.73475 199.550146 123.159493 198.524726 123.159493 197.455665 
C 123.159493 196.386603 122.73475 195.361183 121.978809 194.605242 
C 121.222868 193.849301 120.197449 193.424559 119.128387 193.424559 
C 118.059325 193.424559 117.033905 193.849301 116.277964 194.605242 
C 115.522024 195.361183 115.097281 196.386603 115.097281 197.455665 
C 115.097281 198.524726 115.522024 199.550146 116.277964 200.306087 
C 117.033905 201.062028 118.059325 201.486771 119.128387 201.486771 
z
" style="fill:#e24a33;fill-opacity:0.75;stroke:#e24a33;stroke-opacity:0.75;stroke-width:0.5;"/>
    <path clip-path="url(#p584896f3b2)" d="M 142.811258 155.212637 
C 143.923817 155.212637 144.990957 154.770613 145.777655 153.983915 
C 146.564352 153.197218 147.006376 152.130077 147.006376 151.017519 
C 147.006376 149.904961 146.564352 148.83782 145.777655 148.051123 
C 144.990957 147.264425 143.923817 146.822401 142.811258 146.822401 
C 141.6987 146.822401 140.63156 147.264425 139.844862 148.051123 
C 139.058165 148.83782 138.61614 149.904961 138.61614 151.017519 
C 138.61614 152.130077 139.058165 153.197218 139.844862 153.983915 
C 140.63156 154.770613 141.6987 155.212637 142.811258 155.212637 
z
" style="fill:#e24a33;fill-opacity:0.75;stroke:#e24a33;stroke-opacity:0.75;stroke-width:0.5;"/>
    <path clip-path="url(#p584896f3b2)" d="M 92.975411 202.812893 
C 94.04097 202.812893 95.06303 202.389543 95.816493 201.636079 
C 96.569957 200.882615 96.993308 199.860555 96.993308 198.794997 
C 96.993308 197.729438 96.569957 196.707378 95.816493 195.953915 
C 95.06303 195.200451 94.04097 194.7771 92.975411 194.7771 
C 91.909853 194.7771 90.887793 195.200451 90.134329 195.953915 
C 89.380866 196.707378 88.957515 197.729438 88.957515 198.794997 
C 88.957515 199.860555 89.380866 200.882615 90.134329 201.636079 
C 90.887793 202.389543 91.909853 202.812893 92.975411 202.812893 
z
" style="fill:#e24a33;fill-opacity:0.75;stroke:#e24a33;stroke-opacity:0.75;stroke-width:0.5;"/>
    <path clip-path="url(#p584896f3b2)" d="M 168.705392 140.805424 
C 169.913865 140.805424 171.073005 140.325292 171.927524 139.470773 
C 172.782044 138.616253 173.262175 137.457113 173.262175 136.24864 
C 173.262175 135.040167 172.782044 133.881027 171.927524 133.026507 
C 171.073005 132.171988 169.913865 131.691856 168.705392 131.691856 
C 167.496918 131.691856 166.337778 132.171988 165.483259 133.026507 
C 164.628739 133.881027 164.148608 135.040167 164.148608 136.24864 
C 164.148608 137.457113 164.628739 138.616253 165.483259 139.470773 
C 166.337778 140.325292 167.496918 140.805424 168.705392 140.805424 
z
" style="fill:#e24a33;fill-opacity:0.75;stroke:#e24a33;stroke-opacity:0.75;stroke-width:0.5;"/>
   </g>
   <g id="patch_3">
    <path d="M 56.3 313.374813 
L 56.3 38.480688 
" style="fill:none;stroke:#ffffff;stroke-linecap:square;stroke-linejoin:miter;"/>
   </g>
   <g id="patch_4">
    <path d="M 619.782012 313.374813 
L 619.782012 38.480688 
" style="fill:none;stroke:#ffffff;stroke-linecap:square;stroke-linejoin:miter;"/>
   </g>
   <g id="patch_5">
    <path d="M 56.3 313.374813 
L 619.782012 313.374813 
" style="fill:none;stroke:#ffffff;stroke-linecap:square;stroke-linejoin:miter;"/>
   </g>
   <g id="patch_6">
    <path d="M 56.3 38.480688 
L 619.782012 38.480688 
" style="fill:none;stroke:#ffffff;stroke-linecap:square;stroke-linejoin:miter;"/>
   </g>
   <g id="text_14">
    <!-- District of Columbia -->
    <g transform="translate(560.228068 17.03475)scale(0.144 -0.144)">
     <defs>
      <path d="M 1.59375 66.203125 
L 28.59375 66.203125 
Q 48.09375 66.203125 58.59375 57.09375 
Q 68.5 48.59375 68.5 33.40625 
Q 68.5 15.09375 54.90625 6.40625 
Q 45 0 29.703125 0 
L 1.59375 0 
L 1.59375 1.90625 
Q 7.40625 2.296875 8.90625 3.9375 
Q 10.40625 5.59375 10.40625 11.5 
L 10.40625 55 
Q 10.40625 60.796875 8.90625 62.34375 
Q 7.40625 63.90625 1.59375 64.296875 
z
M 20.59375 58.296875 
L 20.59375 8.40625 
Q 20.59375 5.703125 21.546875 4.703125 
Q 22.5 3.703125 25.40625 3.703125 
Q 33.203125 3.703125 38 4.796875 
Q 42.796875 5.90625 47.203125 8.90625 
Q 57.59375 15.90625 57.59375 32.796875 
Q 57.59375 47.296875 48.09375 55.59375 
Q 43.796875 59.40625 38.6875 60.953125 
Q 33.59375 62.5 25.90625 62.5 
Q 23 62.5 21.796875 61.59375 
Q 20.59375 60.703125 20.59375 58.296875 
z
" id="STIXGeneral-Regular-68"/>
      <path d="M 39.796875 15.59375 
L 41.203125 14.703125 
Q 36.90625 6.296875 33 3.203125 
Q 27.90625 -1 21.5 -1 
Q 13.203125 -1 7.84375 5.25 
Q 2.5 11.5 2.5 21.203125 
Q 2.5 33.90625 10.90625 40.90625 
Q 17.09375 46 24.40625 46 
Q 30.703125 46 35.25 42.953125 
Q 39.796875 39.90625 39.796875 35.703125 
Q 39.796875 34 38.390625 32.75 
Q 37 31.5 35.09375 31.5 
Q 31.59375 31.5 30.296875 36.09375 
L 29.703125 38.296875 
Q 28.90625 41.09375 27.703125 42.09375 
Q 26.5 43.09375 23.796875 43.09375 
Q 17.703125 43.09375 13.953125 38.296875 
Q 10.203125 33.5 10.203125 25.703125 
Q 10.203125 17.09375 14.5 11.640625 
Q 18.796875 6.203125 25.703125 6.203125 
Q 30 6.203125 33.09375 8.25 
Q 36.203125 10.296875 39.796875 15.59375 
z
" id="STIXGeneral-Regular-99"/>
      <path d="M 47 23.09375 
Q 47 12.59375 40.75 5.796875 
Q 34.5 -1 24.5 -1 
Q 15.296875 -1 9.09375 5.75 
Q 2.90625 12.5 2.90625 22.796875 
Q 2.90625 33.203125 9.09375 39.59375 
Q 15.296875 46 25.40625 46 
Q 34.703125 46 40.84375 39.640625 
Q 47 33.296875 47 23.09375 
z
M 38 20.40625 
Q 38 31.796875 33 38.203125 
Q 29 43.203125 23.5 43.203125 
Q 18.296875 43.203125 15.09375 38.953125 
Q 11.90625 34.703125 11.90625 27.296875 
Q 11.90625 14.5 17.203125 6.796875 
Q 20.59375 1.796875 26.203125 1.796875 
Q 31.703125 1.796875 34.84375 6.75 
Q 38 11.703125 38 20.40625 
z
" id="STIXGeneral-Regular-111"/>
      <path d="M 2.09375 45 
L 10.296875 45 
Q 10.40625 51 11.09375 54.34375 
Q 11.796875 57.703125 13.796875 61.09375 
Q 18 68.296875 27.90625 68.296875 
Q 32.40625 68.296875 35.34375 66.546875 
Q 38.296875 64.796875 38.296875 62.09375 
Q 38.296875 60.40625 37.09375 59.203125 
Q 35.90625 58 34.09375 58 
Q 31.703125 58 29.59375 61.59375 
Q 27.203125 65.5 24.296875 65.5 
Q 18.703125 65.5 18.703125 56.59375 
L 18.703125 45 
L 30.90625 45 
L 30.90625 41.796875 
L 18.703125 41.796875 
L 18.703125 10.40625 
Q 18.703125 4.796875 20.296875 3.25 
Q 21.90625 1.703125 28 1.5 
L 28 0 
L 2 0 
L 2 1.5 
Q 7.40625 1.796875 8.84375 3.34375 
Q 10.296875 4.90625 10.296875 10.40625 
L 10.296875 41.796875 
L 2.09375 41.796875 
z
" id="STIXGeneral-Regular-102"/>
      <path d="M 61.40625 13.09375 
L 63.296875 11.296875 
Q 54.40625 -1.40625 36 -1.40625 
Q 21.5 -1.40625 12.40625 7.5 
Q 2.796875 16.90625 2.796875 32.5 
Q 2.796875 47.09375 11.796875 57.203125 
Q 21.203125 67.59375 36.09375 67.59375 
Q 42.5 67.59375 48 66.09375 
Q 54.296875 64.296875 54.90625 64.296875 
Q 58.203125 64.296875 59.09375 67.59375 
L 61.09375 67.59375 
L 62 44.90625 
L 59.703125 44.90625 
Q 58.09375 52.09375 54.5 56 
Q 47.40625 63.59375 38.40625 63.59375 
Q 27.296875 63.59375 20.84375 55.4375 
Q 14.40625 47.296875 14.40625 34.09375 
Q 14.40625 18 21.59375 10.203125 
Q 28.296875 3 39.40625 3 
Q 46 3 50.796875 5.296875 
Q 55.59375 7.59375 61.40625 13.09375 
z
" id="STIXGeneral-Regular-67"/>
      <path d="M 77.5 0 
L 55.703125 0 
L 55.703125 1.5 
Q 59.90625 1.90625 61.046875 3.25 
Q 62.203125 4.59375 62.203125 9 
L 62.203125 29.59375 
Q 62.203125 35.59375 60.453125 38.1875 
Q 58.703125 40.796875 54.5 40.796875 
Q 51 40.796875 48.546875 39.390625 
Q 46.09375 38 43.796875 34.703125 
L 43.796875 9.5 
Q 43.796875 4.703125 45.25 3.140625 
Q 46.703125 1.59375 51 1.5 
L 51 0 
L 28.59375 0 
L 28.59375 1.5 
Q 33 1.796875 34.203125 2.9375 
Q 35.40625 4.09375 35.40625 8.59375 
L 35.40625 29.703125 
Q 35.40625 40.796875 28.90625 40.796875 
Q 26.09375 40.796875 22.9375 39.546875 
Q 19.796875 38.296875 18.296875 36.5 
Q 17 35 17 34.796875 
L 17 7 
Q 17 3.796875 18.390625 2.75 
Q 19.796875 1.703125 23.796875 1.5 
L 23.796875 0 
L 1.59375 0 
L 1.59375 1.5 
Q 5.796875 1.59375 7.1875 3.046875 
Q 8.59375 4.5 8.59375 8.796875 
L 8.59375 33.59375 
Q 8.59375 37.296875 7.796875 38.75 
Q 7 40.203125 5.09375 40.203125 
Q 3.59375 40.203125 1.90625 39.796875 
L 1.90625 41.5 
Q 8.703125 43.40625 15.796875 46 
L 16.59375 45.703125 
L 16.59375 38.296875 
L 16.796875 38.296875 
Q 21.296875 43 24.75 44.5 
Q 28.203125 46 32.09375 46 
Q 40 46 42.703125 37.59375 
Q 50.5 46 59 46 
Q 70.59375 46 70.59375 28 
L 70.59375 7.703125 
Q 70.59375 4.40625 71.59375 3.15625 
Q 72.59375 1.90625 74.90625 1.703125 
L 77.5 1.5 
z
" id="STIXGeneral-Regular-109"/>
      <path d="M 15.296875 68.09375 
L 15.296875 37.59375 
Q 16.90625 41.40625 20.546875 43.703125 
Q 24.203125 46 28.796875 46 
Q 36.703125 46 41.75 39.703125 
Q 46.796875 33.40625 46.796875 24 
Q 46.796875 13 40.09375 6 
Q 33.40625 -1 23.40625 -1 
Q 17.296875 -1 12.09375 1.046875 
Q 6.90625 3.09375 6.90625 5.59375 
L 6.90625 56.59375 
Q 6.90625 60.296875 6 61.34375 
Q 5.09375 62.40625 2 62.40625 
Q 1.296875 62.40625 0.296875 62.203125 
L 0.296875 63.90625 
L 3.296875 64.796875 
Q 13.5 67.90625 14.796875 68.296875 
z
M 15.296875 31.796875 
L 15.296875 7.40625 
Q 15.296875 5.09375 18.140625 3.640625 
Q 21 2.203125 25 2.203125 
Q 30.90625 2.203125 34.296875 6.5 
Q 38 11.09375 38 19.703125 
Q 38 29.5 34.09375 35 
Q 30.796875 39.703125 25.203125 39.703125 
Q 21.203125 39.703125 18.25 37.34375 
Q 15.296875 35 15.296875 31.796875 
z
" id="STIXGeneral-Regular-98"/>
     </defs>
     <use xlink:href="#STIXGeneral-Regular-68"/>
     <use x="72.199982" xlink:href="#STIXGeneral-Regular-105"/>
     <use x="99.999969" xlink:href="#STIXGeneral-Regular-115"/>
     <use x="138.899963" xlink:href="#STIXGeneral-Regular-116"/>
     <use x="166.699951" xlink:href="#STIXGeneral-Regular-114"/>
     <use x="199.999939" xlink:href="#STIXGeneral-Regular-105"/>
     <use x="227.799927" xlink:href="#STIXGeneral-Regular-99"/>
     <use x="272.199921" xlink:href="#STIXGeneral-Regular-116"/>
     <use x="299.999908" xlink:href="#STIXGeneral-Regular-32"/>
     <use x="324.999893" xlink:href="#STIXGeneral-Regular-111"/>
     <use x="374.999878" xlink:href="#STIXGeneral-Regular-102"/>
     <use x="408.299866" xlink:href="#STIXGeneral-Regular-32"/>
     <use x="433.29985" xlink:href="#STIXGeneral-Regular-67"/>
     <use x="499.999847" xlink:href="#STIXGeneral-Regular-111"/>
     <use x="549.999832" xlink:href="#STIXGeneral-Regular-108"/>
     <use x="577.79982" xlink:href="#STIXGeneral-Regular-117"/>
     <use x="627.799805" xlink:href="#STIXGeneral-Regular-109"/>
     <use x="705.599792" xlink:href="#STIXGeneral-Regular-98"/>
     <use x="755.599777" xlink:href="#STIXGeneral-Regular-105"/>
     <use x="783.399765" xlink:href="#STIXGeneral-Regular-97"/>
    </g>
   </g>
   <g id="text_15">
    <!-- Hawaii -->
    <g transform="translate(108.530471 274.725864)scale(0.144 -0.144)">
     <defs>
      <path d="M 69.40625 45 
L 69.40625 43.5 
Q 67.90625 43 67.203125 42.046875 
Q 66.5 41.09375 65.296875 38.09375 
L 51.5 3.5 
Q 49.5 -1.40625 48.703125 -1.40625 
Q 48.203125 -1.40625 47.84375 -0.75 
Q 47.5 -0.09375 46.296875 2.90625 
L 37.203125 26.5 
L 26 2.5 
Q 24.203125 -1.40625 23.5 -1.40625 
Q 22.59375 -1.40625 20.90625 3 
L 7.40625 37.203125 
Q 5.90625 41.09375 4.90625 42.1875 
Q 3.90625 43.296875 2.09375 43.5 
L 2.09375 45 
L 20.09375 45 
L 20.09375 43.5 
Q 17.5 43.203125 16.5 42.5 
Q 15.5 41.796875 15.5 40.203125 
Q 15.5 38.703125 16.09375 37.203125 
L 26 11.09375 
L 35.09375 31 
L 33.09375 36.59375 
Q 31.703125 40.59375 30.34375 41.890625 
Q 29 43.203125 26.203125 43.5 
L 26.203125 45 
L 46.5 45 
L 46.5 43.5 
Q 43 43 41.84375 42.296875 
Q 40.703125 41.59375 40.703125 40 
Q 40.703125 38.40625 42.40625 34 
L 50.796875 11.59375 
L 59.796875 33.796875 
Q 61.5 38 61.5 40.5 
Q 61.5 41.703125 60.546875 42.34375 
Q 59.59375 43 57.09375 43.5 
L 57.09375 45 
z
" id="STIXGeneral-Regular-119"/>
     </defs>
     <use xlink:href="#STIXGeneral-Regular-72"/>
     <use x="72.199982" xlink:href="#STIXGeneral-Regular-97"/>
     <use x="116.599976" xlink:href="#STIXGeneral-Regular-119"/>
     <use x="188.799957" xlink:href="#STIXGeneral-Regular-97"/>
     <use x="233.199951" xlink:href="#STIXGeneral-Regular-105"/>
     <use x="260.999939" xlink:href="#STIXGeneral-Regular-105"/>
    </g>
   </g>
   <g id="text_16">
    <!-- Illinois -->
    <g transform="translate(87.740798 91.414544)scale(0.144 -0.144)">
     <defs>
      <path d="M 31.5 0 
L 1.796875 0 
L 1.796875 1.90625 
Q 8.09375 2.09375 9.796875 3.75 
Q 11.5 5.40625 11.5 11.203125 
L 11.5 55.09375 
Q 11.5 60.90625 9.890625 62.40625 
Q 8.296875 63.90625 1.796875 64.296875 
L 1.796875 66.203125 
L 31.5 66.203125 
L 31.5 64.296875 
Q 25.203125 64 23.453125 62.390625 
Q 21.703125 60.796875 21.703125 55.09375 
L 21.703125 11.203125 
Q 21.703125 5.59375 23.5 3.84375 
Q 25.296875 2.09375 31.5 1.90625 
z
" id="STIXGeneral-Regular-73"/>
     </defs>
     <use xlink:href="#STIXGeneral-Regular-73"/>
     <use x="33.299988" xlink:href="#STIXGeneral-Regular-108"/>
     <use x="61.099976" xlink:href="#STIXGeneral-Regular-108"/>
     <use x="88.899963" xlink:href="#STIXGeneral-Regular-105"/>
     <use x="116.699951" xlink:href="#STIXGeneral-Regular-110"/>
     <use x="166.699936" xlink:href="#STIXGeneral-Regular-111"/>
     <use x="216.699921" xlink:href="#STIXGeneral-Regular-105"/>
     <use x="244.499908" xlink:href="#STIXGeneral-Regular-115"/>
    </g>
   </g>
   <g id="text_17">
    <!-- Louisiana -->
    <g transform="translate(111.244274 79.891243)scale(0.144 -0.144)">
     <use xlink:href="#STIXGeneral-Regular-76"/>
     <use x="61.099991" xlink:href="#STIXGeneral-Regular-111"/>
     <use x="111.099976" xlink:href="#STIXGeneral-Regular-117"/>
     <use x="161.09996" xlink:href="#STIXGeneral-Regular-105"/>
     <use x="188.899948" xlink:href="#STIXGeneral-Regular-115"/>
     <use x="227.799942" xlink:href="#STIXGeneral-Regular-105"/>
     <use x="255.59993" xlink:href="#STIXGeneral-Regular-97"/>
     <use x="299.999924" xlink:href="#STIXGeneral-Regular-110"/>
     <use x="349.999908" xlink:href="#STIXGeneral-Regular-97"/>
    </g>
   </g>
   <g id="text_18">
    <!-- Mississippi -->
    <g transform="translate(209.39285 289.814625)scale(0.144 -0.144)">
     <defs>
      <path d="M 86.40625 0 
L 58.40625 0 
L 58.40625 1.90625 
Q 64.296875 2.296875 65.84375 4.140625 
Q 67.40625 6 67.40625 12.296875 
L 67.40625 57.203125 
L 41.90625 0 
L 40.5 0 
L 15.296875 54.90625 
L 15.296875 15.09375 
Q 15.296875 7 17 4.59375 
Q 18.703125 2.203125 24.59375 1.90625 
L 24.59375 0 
L 1.203125 0 
L 1.203125 1.90625 
Q 5.59375 2.203125 7.5 3.203125 
Q 9.40625 4.203125 10.15625 6.75 
Q 10.90625 9.296875 10.90625 15.09375 
L 10.90625 54.90625 
Q 10.90625 60.59375 9.203125 62.25 
Q 7.5 63.90625 1.40625 64.296875 
L 1.40625 66.203125 
L 21.203125 66.203125 
L 44.296875 16 
L 66.40625 66.203125 
L 86.296875 66.203125 
L 86.296875 64.296875 
Q 80.90625 64.203125 79.25 62.390625 
Q 77.59375 60.59375 77.59375 55 
L 77.59375 11.203125 
Q 77.59375 5.90625 79.25 4.09375 
Q 80.90625 2.296875 86.40625 1.90625 
z
" id="STIXGeneral-Regular-77"/>
      <path d="M 15.90625 45.796875 
L 15.90625 38.09375 
Q 22.203125 46 30.296875 46 
Q 37.59375 46 42.296875 40 
Q 47 34 47 24.703125 
Q 47 13.796875 40.953125 6.390625 
Q 34.90625 -1 26 -1 
Q 22.90625 -1 20.75 -0.09375 
Q 18.59375 0.796875 15.90625 3.296875 
L 15.90625 -12.40625 
Q 15.90625 -17.09375 17.5 -18.4375 
Q 19.09375 -19.796875 24.703125 -19.90625 
L 24.703125 -21.703125 
L 0.5 -21.703125 
L 0.5 -20 
Q 4.90625 -19.59375 6.203125 -18.296875 
Q 7.5 -17 7.5 -13.09375 
L 7.5 33.703125 
Q 7.5 37.203125 6.703125 38.296875 
Q 5.90625 39.40625 3.40625 39.40625 
Q 1.796875 39.40625 0.90625 39.296875 
L 0.90625 40.90625 
Q 7.90625 43 15.296875 46 
z
M 15.90625 33.40625 
L 15.90625 8.796875 
Q 15.90625 6.59375 19.34375 4.390625 
Q 22.796875 2.203125 26.296875 2.203125 
Q 31.703125 2.203125 35.046875 7.296875 
Q 38.40625 12.40625 38.40625 20.703125 
Q 38.40625 29.5 35.046875 34.75 
Q 31.703125 40 26.09375 40 
Q 22.59375 40 19.25 37.796875 
Q 15.90625 35.59375 15.90625 33.40625 
z
" id="STIXGeneral-Regular-112"/>
     </defs>
     <use xlink:href="#STIXGeneral-Regular-77"/>
     <use x="88.899994" xlink:href="#STIXGeneral-Regular-105"/>
     <use x="116.699982" xlink:href="#STIXGeneral-Regular-115"/>
     <use x="155.599976" xlink:href="#STIXGeneral-Regular-115"/>
     <use x="194.499969" xlink:href="#STIXGeneral-Regular-105"/>
     <use x="222.299957" xlink:href="#STIXGeneral-Regular-115"/>
     <use x="261.199951" xlink:href="#STIXGeneral-Regular-115"/>
     <use x="300.099945" xlink:href="#STIXGeneral-Regular-105"/>
     <use x="327.899933" xlink:href="#STIXGeneral-Regular-112"/>
     <use x="377.899918" xlink:href="#STIXGeneral-Regular-112"/>
     <use x="427.899902" xlink:href="#STIXGeneral-Regular-105"/>
    </g>
   </g>
   <g id="text_19">
    <!-- New York -->
    <g transform="translate(97.322873 281.170222)scale(0.144 -0.144)">
     <defs>
      <path d="M 70.703125 66.203125 
L 70.703125 64.296875 
Q 65.59375 63.796875 64.09375 62.5 
Q 62.5 61.09375 61.84375 58.6875 
Q 61.203125 56.296875 61.203125 50.703125 
L 61.203125 -1.09375 
L 59.40625 -1.09375 
L 15.296875 53.796875 
L 15.296875 15 
Q 15.296875 7.40625 17 5.046875 
Q 18.703125 2.703125 24.59375 1.90625 
L 24.59375 0 
L 1.203125 0 
L 1.203125 1.90625 
Q 7.40625 2.59375 9.15625 4.84375 
Q 10.90625 7.09375 10.90625 15 
L 10.90625 59 
Q 8.296875 62.203125 6.5 63.25 
Q 4.703125 64.296875 1.203125 64.296875 
L 1.203125 66.203125 
L 18.203125 66.203125 
L 56.796875 17.90625 
L 56.796875 51.90625 
Q 56.796875 59.5 54.90625 61.703125 
Q 53.703125 63 52.25 63.453125 
Q 50.796875 63.90625 47 64.296875 
L 47 66.203125 
z
" id="STIXGeneral-Regular-78"/>
      <path d="M 70.296875 66.203125 
L 70.296875 64.296875 
Q 65.90625 63.90625 63.34375 61.796875 
Q 60.796875 59.703125 56.5 53.09375 
L 41.703125 30.296875 
L 41.703125 11.09375 
Q 41.703125 5.40625 43.59375 3.796875 
Q 45.5 2.203125 52 1.90625 
L 52 0 
L 21.40625 0 
L 21.40625 1.90625 
Q 28.203125 2.40625 29.84375 4.046875 
Q 31.5 5.703125 31.5 12.296875 
L 31.5 29.40625 
L 18.40625 48.59375 
Q 11.59375 58.59375 8.6875 61.34375 
Q 5.796875 64.09375 2.203125 64.296875 
L 2.203125 66.203125 
L 30.09375 66.203125 
L 30.09375 64.296875 
L 27.703125 64.203125 
Q 23 64.09375 23 61.59375 
Q 23 59.5 24.796875 56.90625 
L 39.40625 34.796875 
L 53.90625 57 
Q 55.296875 59.09375 55.296875 61.203125 
Q 55.203125 62.90625 53.75 63.546875 
Q 52.296875 64.203125 48.5 64.296875 
L 48.5 66.203125 
z
" id="STIXGeneral-Regular-89"/>
      <path d="M 50.5 0 
L 28.703125 0 
L 28.703125 1.5 
L 30.59375 1.5 
Q 32.703125 1.5 32.703125 3 
Q 32.703125 3.90625 31.59375 5.296875 
L 16.59375 25.09375 
L 16.59375 6.703125 
Q 16.59375 4.09375 17.84375 2.890625 
Q 19.09375 1.703125 22.09375 1.59375 
L 24.09375 1.5 
L 24.09375 0 
L 0.703125 0 
L 0.703125 1.5 
Q 6.09375 2.40625 7.140625 3.34375 
Q 8.203125 4.296875 8.203125 8.203125 
L 8.203125 56.40625 
Q 8.203125 60 7.296875 61.25 
Q 6.40625 62.5 3.90625 62.5 
Q 3.296875 62.5 0.703125 62.296875 
L 0.703125 63.90625 
L 3.703125 64.703125 
Q 9.703125 66.296875 16.203125 68.296875 
L 16.59375 68.09375 
L 16.59375 26.09375 
L 30.296875 38.296875 
Q 32.59375 40.40625 32.59375 41.796875 
Q 32.59375 42.796875 31.546875 43.140625 
Q 30.5 43.5 27.59375 43.59375 
L 27.59375 45 
L 48 45 
L 48 43.5 
Q 43 43.5 39.140625 41.34375 
Q 35.296875 39.203125 26.40625 30.90625 
L 23.5 28.203125 
L 38.796875 8.796875 
Q 44.203125 1.90625 50.5 1.5 
z
" id="STIXGeneral-Regular-107"/>
     </defs>
     <use xlink:href="#STIXGeneral-Regular-78"/>
     <use x="72.199982" xlink:href="#STIXGeneral-Regular-101"/>
     <use x="116.599976" xlink:href="#STIXGeneral-Regular-119"/>
     <use x="188.799957" xlink:href="#STIXGeneral-Regular-32"/>
     <use x="213.799942" xlink:href="#STIXGeneral-Regular-89"/>
     <use x="285.999924" xlink:href="#STIXGeneral-Regular-111"/>
     <use x="335.999908" xlink:href="#STIXGeneral-Regular-114"/>
     <use x="369.299896" xlink:href="#STIXGeneral-Regular-107"/>
    </g>
   </g>
   <g id="text_20">
    <!-- Influence Plot -->
    <g transform="translate(292.928506 32.480688)scale(0.16 -0.16)">
     <defs>
      <path d="M 1.59375 66.203125 
L 27.5 66.203125 
Q 41.703125 66.203125 49.203125 59.90625 
Q 54.203125 55.703125 54.203125 48 
Q 54.203125 40 48.5 34.90625 
Q 44.296875 31.09375 39.890625 29.9375 
Q 35.5 28.796875 27.09375 28.796875 
Q 24.203125 28.796875 20.203125 29.09375 
L 20.203125 11.203125 
Q 20.203125 5.5 21.84375 3.84375 
Q 23.5 2.203125 29.59375 1.90625 
L 29.59375 0 
L 1.59375 0 
L 1.59375 1.90625 
Q 7.40625 2.296875 8.703125 4 
Q 10 5.703125 10 12.203125 
L 10 55.09375 
Q 10 60.703125 8.546875 62.296875 
Q 7.09375 63.90625 1.59375 64.296875 
z
M 20.203125 58.90625 
L 20.203125 33.09375 
Q 23.59375 32.796875 26.296875 32.796875 
Q 34.40625 32.796875 38.84375 36.75 
Q 43.296875 40.703125 43.296875 47.5 
Q 43.296875 55.59375 38.6875 59.046875 
Q 34.09375 62.5 23.703125 62.5 
Q 21.59375 62.5 20.890625 61.75 
Q 20.203125 61 20.203125 58.90625 
z
" id="STIXGeneral-Regular-80"/>
     </defs>
     <use xlink:href="#STIXGeneral-Regular-73"/>
     <use x="33.299988" xlink:href="#STIXGeneral-Regular-110"/>
     <use x="83.299973" xlink:href="#STIXGeneral-Regular-102"/>
     <use x="116.59996" xlink:href="#STIXGeneral-Regular-108"/>
     <use x="144.399948" xlink:href="#STIXGeneral-Regular-117"/>
     <use x="194.399933" xlink:href="#STIXGeneral-Regular-101"/>
     <use x="238.799927" xlink:href="#STIXGeneral-Regular-110"/>
     <use x="288.799911" xlink:href="#STIXGeneral-Regular-99"/>
     <use x="333.199905" xlink:href="#STIXGeneral-Regular-101"/>
     <use x="377.599899" xlink:href="#STIXGeneral-Regular-32"/>
     <use x="402.599884" xlink:href="#STIXGeneral-Regular-80"/>
     <use x="458.299881" xlink:href="#STIXGeneral-Regular-108"/>
     <use x="486.099869" xlink:href="#STIXGeneral-Regular-111"/>
     <use x="536.099854" xlink:href="#STIXGeneral-Regular-116"/>
    </g>
   </g>
  </g>
 </g>
 <defs>
  <clipPath id="p584896f3b2">
   <rect height="274.894125" width="563.482012" x="56.3" y="38.480688"/>
  </clipPath>
 </defs>
</svg>
