<?xml version="1.0" encoding="utf-8" standalone="no"?>
<!DOCTYPE svg PUBLIC "-//W3C//DTD SVG 1.1//EN"
  "http://www.w3.org/Graphics/SVG/1.1/DTD/svg11.dtd">
<!-- Created with matplotlib (https://matplotlib.org/) -->
<svg height="362.88pt" version="1.1" viewBox="0 0 686.88 362.88" width="686.88pt" xmlns="http://www.w3.org/2000/svg" xmlns:xlink="http://www.w3.org/1999/xlink">
 <metadata>
  <rdf:RDF xmlns:cc="http://creativecommons.org/ns#" xmlns:dc="http://purl.org/dc/elements/1.1/" xmlns:rdf="http://www.w3.org/1999/02/22-rdf-syntax-ns#">
   <cc:Work>
    <dc:type rdf:resource="http://purl.org/dc/dcmitype/StillImage"/>
    <dc:date>2021-02-12T16:48:54.314329</dc:date>
    <dc:format>image/svg+xml</dc:format>
    <dc:creator>
     <cc:Agent>
      <dc:title>Matplotlib v3.3.4, https://matplotlib.org/</dc:title>
     </cc:Agent>
    </dc:creator>
   </cc:Work>
  </rdf:RDF>
 </metadata>
 <defs>
  <style type="text/css">*{stroke-linecap:butt;stroke-linejoin:round;}</style>
 </defs>
 <g id="figure_1">
  <g id="patch_1">
   <path d="M 0 362.88 
L 686.88 362.88 
L 686.88 0 
L 0 0 
z
" style="fill:none;"/>
  </g>
  <g id="axes_1">
   <g id="patch_2">
    <path d="M 76.2 308.66125 
L 679.68 308.66125 
L 679.68 28.225312 
L 76.2 28.225312 
z
" style="fill:#ffffff;"/>
   </g>
   <g id="PathCollection_1">
    <defs>
     <path d="M 0 7.905694 
C 2.096615 7.905694 4.10764 7.0727 5.59017 5.59017 
C 7.0727 4.10764 7.905694 2.096615 7.905694 0 
C 7.905694 -2.096615 7.0727 -4.10764 5.59017 -5.59017 
C 4.10764 -7.0727 2.096615 -7.905694 0 -7.905694 
C -2.096615 -7.905694 -4.10764 -7.0727 -5.59017 -5.59017 
C -7.0727 -4.10764 -7.905694 -2.096615 -7.905694 0 
C -7.905694 2.096615 -7.0727 4.10764 -5.59017 5.59017 
C -4.10764 7.0727 -2.096615 7.905694 0 7.905694 
z
" id="meabe5702c0" style="stroke:#ffffff;stroke-opacity:0.6;stroke-width:1.264911;"/>
    </defs>
    <g clip-path="url(#p6e7b31f8e5)">
     <use style="fill:#1f77b4;fill-opacity:0.6;stroke:#ffffff;stroke-opacity:0.6;stroke-width:1.264911;" x="449.782857" xlink:href="#meabe5702c0" y="284.144699"/>
     <use style="fill:#1f77b4;fill-opacity:0.6;stroke:#ffffff;stroke-opacity:0.6;stroke-width:1.264911;" x="433.454935" xlink:href="#meabe5702c0" y="284.524359"/>
     <use style="fill:#1f77b4;fill-opacity:0.6;stroke:#ffffff;stroke-opacity:0.6;stroke-width:1.264911;" x="201.598442" xlink:href="#meabe5702c0" y="292.687051"/>
     <use style="fill:#1f77b4;fill-opacity:0.6;stroke:#ffffff;stroke-opacity:0.6;stroke-width:1.264911;" x="547.75039" xlink:href="#meabe5702c0" y="272.944726"/>
     <use style="fill:#1f77b4;fill-opacity:0.6;stroke:#ffffff;stroke-opacity:0.6;stroke-width:1.264911;" x="377.94" xlink:href="#meabe5702c0" y="289.45994"/>
     <use style="fill:#1f77b4;fill-opacity:0.6;stroke:#ffffff;stroke-opacity:0.6;stroke-width:1.264911;" x="469.376364" xlink:href="#meabe5702c0" y="275.982006"/>
     <use style="fill:#1f77b4;fill-opacity:0.6;stroke:#ffffff;stroke-opacity:0.6;stroke-width:1.264911;" x="426.923766" xlink:href="#meabe5702c0" y="284.524359"/>
     <use style="fill:#1f77b4;fill-opacity:0.6;stroke:#ffffff;stroke-opacity:0.6;stroke-width:1.264911;" x="204.864026" xlink:href="#meabe5702c0" y="292.687051"/>
     <use style="fill:#1f77b4;fill-opacity:0.6;stroke:#ffffff;stroke-opacity:0.6;stroke-width:1.264911;" x="485.704286" xlink:href="#meabe5702c0" y="282.815888"/>
     <use style="fill:#1f77b4;fill-opacity:0.6;stroke:#ffffff;stroke-opacity:0.6;stroke-width:1.264911;" x="482.438701" xlink:href="#meabe5702c0" y="284.144699"/>
     <use style="fill:#1f77b4;fill-opacity:0.6;stroke:#ffffff;stroke-opacity:0.6;stroke-width:1.264911;" x="502.032208" xlink:href="#meabe5702c0" y="282.815888"/>
     <use style="fill:#1f77b4;fill-opacity:0.6;stroke:#ffffff;stroke-opacity:0.6;stroke-width:1.264911;" x="632.655584" xlink:href="#meabe5702c0" y="277.500647"/>
     <use style="fill:#1f77b4;fill-opacity:0.6;stroke:#ffffff;stroke-opacity:0.6;stroke-width:1.264911;" x="475.907532" xlink:href="#meabe5702c0" y="283.575208"/>
     <use style="fill:#1f77b4;fill-opacity:0.6;stroke:#ffffff;stroke-opacity:0.6;stroke-width:1.264911;" x="453.048442" xlink:href="#meabe5702c0" y="284.714189"/>
     <use style="fill:#1f77b4;fill-opacity:0.6;stroke:#ffffff;stroke-opacity:0.6;stroke-width:1.264911;" x="459.57961" xlink:href="#meabe5702c0" y="40.972401"/>
     <use style="fill:#1f77b4;fill-opacity:0.6;stroke:#ffffff;stroke-opacity:0.6;stroke-width:1.264911;" x="443.251688" xlink:href="#meabe5702c0" y="284.144699"/>
     <use style="fill:#1f77b4;fill-opacity:0.6;stroke:#ffffff;stroke-opacity:0.6;stroke-width:1.264911;" x="475.907532" xlink:href="#meabe5702c0" y="277.880307"/>
     <use style="fill:#1f77b4;fill-opacity:0.6;stroke:#ffffff;stroke-opacity:0.6;stroke-width:1.264911;" x="103.630909" xlink:href="#meabe5702c0" y="295.534502"/>
     <use style="fill:#1f77b4;fill-opacity:0.6;stroke:#ffffff;stroke-opacity:0.6;stroke-width:1.264911;" x="443.251688" xlink:href="#meabe5702c0" y="284.524359"/>
     <use style="fill:#1f77b4;fill-opacity:0.6;stroke:#ffffff;stroke-opacity:0.6;stroke-width:1.264911;" x="485.704286" xlink:href="#meabe5702c0" y="283.916903"/>
     <use style="fill:#1f77b4;fill-opacity:0.6;stroke:#ffffff;stroke-opacity:0.6;stroke-width:1.264911;" x="541.219221" xlink:href="#meabe5702c0" y="272.185405"/>
     <use style="fill:#1f77b4;fill-opacity:0.6;stroke:#ffffff;stroke-opacity:0.6;stroke-width:1.264911;" x="508.563377" xlink:href="#meabe5702c0" y="277.310817"/>
     <use style="fill:#1f77b4;fill-opacity:0.6;stroke:#ffffff;stroke-opacity:0.6;stroke-width:1.264911;" x="466.110779" xlink:href="#meabe5702c0" y="283.765039"/>
     <use style="fill:#1f77b4;fill-opacity:0.6;stroke:#ffffff;stroke-opacity:0.6;stroke-width:1.264911;" x="459.57961" xlink:href="#meabe5702c0" y="283.765039"/>
     <use style="fill:#1f77b4;fill-opacity:0.6;stroke:#ffffff;stroke-opacity:0.6;stroke-width:1.264911;" x="475.907532" xlink:href="#meabe5702c0" y="283.005718"/>
     <use style="fill:#1f77b4;fill-opacity:0.6;stroke:#ffffff;stroke-opacity:0.6;stroke-width:1.264911;" x="175.473766" xlink:href="#meabe5702c0" y="294.965012"/>
     <use style="fill:#1f77b4;fill-opacity:0.6;stroke:#ffffff;stroke-opacity:0.6;stroke-width:1.264911;" x="410.595844" xlink:href="#meabe5702c0" y="285.853169"/>
     <use style="fill:#1f77b4;fill-opacity:0.6;stroke:#ffffff;stroke-opacity:0.6;stroke-width:1.264911;" x="518.36013" xlink:href="#meabe5702c0" y="281.866738"/>
     <use style="fill:#1f77b4;fill-opacity:0.6;stroke:#ffffff;stroke-opacity:0.6;stroke-width:1.264911;" x="511.828961" xlink:href="#meabe5702c0" y="281.676908"/>
     <use style="fill:#1f77b4;fill-opacity:0.6;stroke:#ffffff;stroke-opacity:0.6;stroke-width:1.264911;" x="528.156883" xlink:href="#meabe5702c0" y="286.232829"/>
     <use style="fill:#1f77b4;fill-opacity:0.6;stroke:#ffffff;stroke-opacity:0.6;stroke-width:1.264911;" x="619.593247" xlink:href="#meabe5702c0" y="283.195548"/>
     <use style="fill:#1f77b4;fill-opacity:0.6;stroke:#ffffff;stroke-opacity:0.6;stroke-width:1.264911;" x="253.847792" xlink:href="#meabe5702c0" y="291.168411"/>
     <use style="fill:#1f77b4;fill-opacity:0.6;stroke:#ffffff;stroke-opacity:0.6;stroke-width:1.264911;" x="459.57961" xlink:href="#meabe5702c0" y="283.575208"/>
     <use style="fill:#1f77b4;fill-opacity:0.6;stroke:#ffffff;stroke-opacity:0.6;stroke-width:1.264911;" x="469.376364" xlink:href="#meabe5702c0" y="288.32096"/>
     <use style="fill:#1f77b4;fill-opacity:0.6;stroke:#ffffff;stroke-opacity:0.6;stroke-width:1.264911;" x="195.067273" xlink:href="#meabe5702c0" y="290.21926"/>
     <use style="fill:#1f77b4;fill-opacity:0.6;stroke:#ffffff;stroke-opacity:0.6;stroke-width:1.264911;" x="420.392597" xlink:href="#meabe5702c0" y="286.422659"/>
     <use style="fill:#1f77b4;fill-opacity:0.6;stroke:#ffffff;stroke-opacity:0.6;stroke-width:1.264911;" x="502.032208" xlink:href="#meabe5702c0" y="282.815888"/>
     <use style="fill:#1f77b4;fill-opacity:0.6;stroke:#ffffff;stroke-opacity:0.6;stroke-width:1.264911;" x="534.688052" xlink:href="#meabe5702c0" y="283.195548"/>
     <use style="fill:#1f77b4;fill-opacity:0.6;stroke:#ffffff;stroke-opacity:0.6;stroke-width:1.264911;" x="528.156883" xlink:href="#meabe5702c0" y="282.246398"/>
     <use style="fill:#1f77b4;fill-opacity:0.6;stroke:#ffffff;stroke-opacity:0.6;stroke-width:1.264911;" x="488.96987" xlink:href="#meabe5702c0" y="289.27011"/>
     <use style="fill:#1f77b4;fill-opacity:0.6;stroke:#ffffff;stroke-opacity:0.6;stroke-width:1.264911;" x="502.032208" xlink:href="#meabe5702c0" y="283.575208"/>
     <use style="fill:#1f77b4;fill-opacity:0.6;stroke:#ffffff;stroke-opacity:0.6;stroke-width:1.264911;" x="492.235455" xlink:href="#meabe5702c0" y="282.626058"/>
     <use style="fill:#1f77b4;fill-opacity:0.6;stroke:#ffffff;stroke-opacity:0.6;stroke-width:1.264911;" x="485.704286" xlink:href="#meabe5702c0" y="283.575208"/>
     <use style="fill:#1f77b4;fill-opacity:0.6;stroke:#ffffff;stroke-opacity:0.6;stroke-width:1.264911;" x="443.251688" xlink:href="#meabe5702c0" y="288.093164"/>
     <use style="fill:#1f77b4;fill-opacity:0.6;stroke:#ffffff;stroke-opacity:0.6;stroke-width:1.264911;" x="430.189351" xlink:href="#meabe5702c0" y="289.27011"/>
     <use style="fill:#1f77b4;fill-opacity:0.6;stroke:#ffffff;stroke-opacity:0.6;stroke-width:1.264911;" x="518.36013" xlink:href="#meabe5702c0" y="283.575208"/>
     <use style="fill:#1f77b4;fill-opacity:0.6;stroke:#ffffff;stroke-opacity:0.6;stroke-width:1.264911;" x="485.704286" xlink:href="#meabe5702c0" y="283.765039"/>
     <use style="fill:#1f77b4;fill-opacity:0.6;stroke:#ffffff;stroke-opacity:0.6;stroke-width:1.264911;" x="436.720519" xlink:href="#meabe5702c0" y="288.32096"/>
     <use style="fill:#1f77b4;fill-opacity:0.6;stroke:#ffffff;stroke-opacity:0.6;stroke-width:1.264911;" x="534.688052" xlink:href="#meabe5702c0" y="279.398947"/>
     <use style="fill:#1f77b4;fill-opacity:0.6;stroke:#ffffff;stroke-opacity:0.6;stroke-width:1.264911;" x="635.921169" xlink:href="#meabe5702c0" y="282.056568"/>
     <use style="fill:#1f77b4;fill-opacity:0.6;stroke:#ffffff;stroke-opacity:0.6;stroke-width:1.264911;" x="146.083506" xlink:href="#meabe5702c0" y="295.914162"/>
     <use style="fill:#1f77b4;fill-opacity:0.6;stroke:#ffffff;stroke-opacity:0.6;stroke-width:1.264911;" x="518.36013" xlink:href="#meabe5702c0" y="289.64977"/>
     <use style="fill:#1f77b4;fill-opacity:0.6;stroke:#ffffff;stroke-opacity:0.6;stroke-width:1.264911;" x="469.376364" xlink:href="#meabe5702c0" y="287.9413"/>
     <use style="fill:#1f77b4;fill-opacity:0.6;stroke:#ffffff;stroke-opacity:0.6;stroke-width:1.264911;" x="593.468571" xlink:href="#meabe5702c0" y="268.578634"/>
     <use style="fill:#1f77b4;fill-opacity:0.6;stroke:#ffffff;stroke-opacity:0.6;stroke-width:1.264911;" x="652.249091" xlink:href="#meabe5702c0" y="272.944726"/>
     <use style="fill:#1f77b4;fill-opacity:0.6;stroke:#ffffff;stroke-opacity:0.6;stroke-width:1.264911;" x="502.032208" xlink:href="#meabe5702c0" y="283.765039"/>
     <use style="fill:#1f77b4;fill-opacity:0.6;stroke:#ffffff;stroke-opacity:0.6;stroke-width:1.264911;" x="469.376364" xlink:href="#meabe5702c0" y="289.64977"/>
     <use style="fill:#1f77b4;fill-opacity:0.6;stroke:#ffffff;stroke-opacity:0.6;stroke-width:1.264911;" x="560.812727" xlink:href="#meabe5702c0" y="283.575208"/>
     <use style="fill:#1f77b4;fill-opacity:0.6;stroke:#ffffff;stroke-opacity:0.6;stroke-width:1.264911;" x="426.923766" xlink:href="#meabe5702c0" y="290.21926"/>
    </g>
   </g>
   <g id="matplotlib.axis_1">
    <g id="xtick_1">
     <g id="line2d_1">
      <defs>
       <path d="M 0 0 
L 0 3.5 
" id="md75c947657" style="stroke:#000000;stroke-width:0.8;"/>
      </defs>
      <g>
       <use style="stroke:#000000;stroke-width:0.8;" x="133.021169" xlink:href="#md75c947657" y="308.66125"/>
      </g>
     </g>
     <g id="text_1">
      <!-- 75 -->
      <g transform="translate(123.021169 329.320625)scale(0.2 -0.2)">
       <defs>
        <path d="M 44.90625 64.59375 
L 23.703125 -0.796875 
L 17.203125 -0.796875 
L 37 58.796875 
L 15.5 58.796875 
Q 11.203125 58.796875 9.09375 57.296875 
Q 7 55.796875 3.796875 50.59375 
L 2 51.5 
L 8 66.203125 
L 44.90625 66.203125 
z
" id="STIXGeneral-Regular-55"/>
        <path d="M 43.796875 68.09375 
L 40.203125 59.59375 
Q 39.59375 58.296875 37.5 58.296875 
L 18.09375 58.296875 
L 14.09375 49.796875 
Q 25.09375 47.703125 30 45.25 
Q 34.90625 42.796875 39.09375 37 
Q 42.59375 32.203125 42.59375 24.296875 
Q 42.59375 17.09375 40.25 12.1875 
Q 37.90625 7.296875 32.796875 3.5 
Q 26 -1.40625 15.796875 -1.40625 
Q 10.09375 -1.40625 6.59375 0.296875 
Q 3.09375 2 3.09375 4.796875 
Q 3.09375 8.59375 7.59375 8.59375 
Q 11.203125 8.59375 15 5.5 
Q 18.90625 2.296875 22.09375 2.296875 
Q 27.296875 2.296875 31.4375 7.5 
Q 35.59375 12.703125 35.59375 19.203125 
Q 35.59375 28.796875 28.90625 34.203125 
Q 20.203125 41.203125 7.59375 41.203125 
Q 6.40625 41.203125 6.40625 42 
L 6.5 42.5 
L 17.40625 66.203125 
L 38.09375 66.203125 
Q 39.796875 66.203125 40.75 66.703125 
Q 41.703125 67.203125 42.90625 68.796875 
z
" id="STIXGeneral-Regular-53"/>
       </defs>
       <use xlink:href="#STIXGeneral-Regular-55"/>
       <use x="49.999985" xlink:href="#STIXGeneral-Regular-53"/>
      </g>
     </g>
    </g>
    <g id="xtick_2">
     <g id="line2d_2">
      <g>
       <use style="stroke:#000000;stroke-width:0.8;" x="214.660779" xlink:href="#md75c947657" y="308.66125"/>
      </g>
     </g>
     <g id="text_2">
      <!-- 100 -->
      <g transform="translate(199.660779 329.320625)scale(0.2 -0.2)">
       <defs>
        <path d="M 39.40625 0 
L 11.796875 0 
L 11.796875 1.5 
Q 17.296875 1.796875 19.296875 3.546875 
Q 21.296875 5.296875 21.296875 9.5 
L 21.296875 54.40625 
Q 21.296875 59.296875 18.296875 59.296875 
Q 16.90625 59.296875 13.796875 58.09375 
L 11.09375 57.09375 
L 11.09375 58.5 
L 29 67.59375 
L 29.90625 67.296875 
L 29.90625 7.59375 
Q 29.90625 4.296875 31.90625 2.890625 
Q 33.90625 1.5 39.40625 1.5 
z
" id="STIXGeneral-Regular-49"/>
        <path d="M 47.59375 33 
Q 47.59375 26.296875 46.296875 20.34375 
Q 45 14.40625 42.453125 9.40625 
Q 39.90625 4.40625 35.40625 1.5 
Q 30.90625 -1.40625 25 -1.40625 
Q 18.90625 -1.40625 14.296875 1.6875 
Q 9.703125 4.796875 7.203125 10 
Q 4.703125 15.203125 3.546875 21.09375 
Q 2.40625 27 2.40625 33.59375 
Q 2.40625 42.90625 4.703125 50.34375 
Q 7 57.796875 12.34375 62.6875 
Q 17.703125 67.59375 25.40625 67.59375 
Q 35.203125 67.59375 41.390625 58 
Q 47.59375 48.40625 47.59375 33 
z
M 38 32.5 
Q 38 48.296875 34.640625 56.640625 
Q 31.296875 65 24.796875 65 
Q 18.59375 65 15.296875 56.59375 
Q 12 48.203125 12 32.90625 
Q 12 17.5 15.296875 9.34375 
Q 18.59375 1.203125 25 1.203125 
Q 31.296875 1.203125 34.640625 9.34375 
Q 38 17.5 38 32.5 
z
" id="STIXGeneral-Regular-48"/>
       </defs>
       <use xlink:href="#STIXGeneral-Regular-49"/>
       <use x="49.999985" xlink:href="#STIXGeneral-Regular-48"/>
       <use x="99.999969" xlink:href="#STIXGeneral-Regular-48"/>
      </g>
     </g>
    </g>
    <g id="xtick_3">
     <g id="line2d_3">
      <g>
       <use style="stroke:#000000;stroke-width:0.8;" x="296.30039" xlink:href="#md75c947657" y="308.66125"/>
      </g>
     </g>
     <g id="text_3">
      <!-- 125 -->
      <g transform="translate(281.30039 329.320625)scale(0.2 -0.2)">
       <defs>
        <path d="M 47.40625 13.703125 
L 42 0 
L 2.90625 0 
L 2.90625 1.203125 
L 20.703125 20.09375 
Q 27.703125 27.40625 30.703125 33.5 
Q 33.703125 39.59375 33.703125 46.09375 
Q 33.703125 52.796875 30 56.5 
Q 26.296875 60.203125 19.796875 60.203125 
Q 14.40625 60.203125 11.25 57.390625 
Q 8.09375 54.59375 5.09375 47.203125 
L 3 47.703125 
Q 4.703125 57 9.84375 62.296875 
Q 15 67.59375 23.796875 67.59375 
Q 32.09375 67.59375 37.1875 62.59375 
Q 42.296875 57.59375 42.296875 50 
Q 42.296875 38.703125 29.5 25.203125 
L 13 7.59375 
L 36.40625 7.59375 
Q 39.703125 7.59375 41.640625 8.890625 
Q 43.59375 10.203125 46 14.296875 
z
" id="STIXGeneral-Regular-50"/>
       </defs>
       <use xlink:href="#STIXGeneral-Regular-49"/>
       <use x="49.999985" xlink:href="#STIXGeneral-Regular-50"/>
       <use x="99.999969" xlink:href="#STIXGeneral-Regular-53"/>
      </g>
     </g>
    </g>
    <g id="xtick_4">
     <g id="line2d_4">
      <g>
       <use style="stroke:#000000;stroke-width:0.8;" x="377.94" xlink:href="#md75c947657" y="308.66125"/>
      </g>
     </g>
     <g id="text_4">
      <!-- 150 -->
      <g transform="translate(362.94 329.320625)scale(0.2 -0.2)">
       <use xlink:href="#STIXGeneral-Regular-49"/>
       <use x="49.999985" xlink:href="#STIXGeneral-Regular-53"/>
       <use x="99.999969" xlink:href="#STIXGeneral-Regular-48"/>
      </g>
     </g>
    </g>
    <g id="xtick_5">
     <g id="line2d_5">
      <g>
       <use style="stroke:#000000;stroke-width:0.8;" x="459.57961" xlink:href="#md75c947657" y="308.66125"/>
      </g>
     </g>
     <g id="text_5">
      <!-- 175 -->
      <g transform="translate(444.57961 329.320625)scale(0.2 -0.2)">
       <use xlink:href="#STIXGeneral-Regular-49"/>
       <use x="49.999985" xlink:href="#STIXGeneral-Regular-55"/>
       <use x="99.999969" xlink:href="#STIXGeneral-Regular-53"/>
      </g>
     </g>
    </g>
    <g id="xtick_6">
     <g id="line2d_6">
      <g>
       <use style="stroke:#000000;stroke-width:0.8;" x="541.219221" xlink:href="#md75c947657" y="308.66125"/>
      </g>
     </g>
     <g id="text_6">
      <!-- 200 -->
      <g transform="translate(526.219221 329.320625)scale(0.2 -0.2)">
       <use xlink:href="#STIXGeneral-Regular-50"/>
       <use x="49.999985" xlink:href="#STIXGeneral-Regular-48"/>
       <use x="99.999969" xlink:href="#STIXGeneral-Regular-48"/>
      </g>
     </g>
    </g>
    <g id="xtick_7">
     <g id="line2d_7">
      <g>
       <use style="stroke:#000000;stroke-width:0.8;" x="622.858831" xlink:href="#md75c947657" y="308.66125"/>
      </g>
     </g>
     <g id="text_7">
      <!-- 225 -->
      <g transform="translate(607.858831 329.320625)scale(0.2 -0.2)">
       <use xlink:href="#STIXGeneral-Regular-50"/>
       <use x="49.999985" xlink:href="#STIXGeneral-Regular-50"/>
       <use x="99.999969" xlink:href="#STIXGeneral-Regular-53"/>
      </g>
     </g>
    </g>
    <g id="text_8">
     <!-- height -->
     <g transform="translate(352.94 351.320625)scale(0.2 -0.2)">
      <defs>
       <path d="M 48.703125 0 
L 27.5 0 
L 27.5 1.5 
Q 31.90625 2 33.09375 3.5 
Q 34.296875 5 34.296875 10.203125 
L 34.296875 30 
Q 34.296875 40.59375 26.90625 40.59375 
Q 23.90625 40.59375 21.40625 39.1875 
Q 18.90625 37.796875 15.703125 34.296875 
L 15.703125 10.203125 
Q 15.703125 5 16.890625 3.5 
Q 18.09375 2 22.5 1.5 
L 22.5 0 
L 0.90625 0 
L 0.90625 1.5 
Q 5.203125 2.09375 6.25 3.5 
Q 7.296875 4.90625 7.296875 10.203125 
L 7.296875 57.296875 
Q 7.296875 60.5 6.34375 61.453125 
Q 5.40625 62.40625 2.203125 62.40625 
Q 1.296875 62.40625 1 62.296875 
L 1 63.90625 
L 3.703125 64.703125 
Q 11.40625 67 15.203125 68.296875 
L 15.703125 68 
L 15.703125 37.59375 
Q 19.203125 42.09375 22.59375 44.046875 
Q 26 46 30.40625 46 
Q 42.703125 46 42.703125 30.09375 
L 42.703125 10.203125 
Q 42.703125 5 43.640625 3.640625 
Q 44.59375 2.296875 48.703125 1.5 
z
" id="STIXGeneral-Regular-104"/>
       <path d="M 40.796875 16.40625 
L 42.40625 15.703125 
Q 36.40625 -1 21.5 -1 
Q 12.703125 -1 7.59375 5.140625 
Q 2.5 11.296875 2.5 21.703125 
Q 2.5 32.40625 8.203125 39.203125 
Q 13.90625 46 23.203125 46 
Q 32.203125 46 37.09375 39.09375 
Q 40 35.09375 40.5 27.703125 
L 9.703125 27.703125 
Q 10.09375 21.40625 10.9375 18.09375 
Q 11.796875 14.796875 14.296875 11.40625 
Q 18.5 5.90625 25.40625 5.90625 
Q 30.296875 5.90625 33.640625 8.296875 
Q 37 10.703125 40.796875 16.40625 
z
M 9.90625 30.90625 
L 30.296875 30.90625 
Q 29.40625 37.203125 27.34375 39.796875 
Q 25.296875 42.40625 20.5 42.40625 
Q 16.296875 42.40625 13.5 39.453125 
Q 10.703125 36.5 9.90625 30.90625 
z
" id="STIXGeneral-Regular-101"/>
       <path d="M 18 63.203125 
Q 18 61 16.5 59.546875 
Q 15 58.09375 12.796875 58.09375 
Q 10.703125 58.09375 9.25 59.546875 
Q 7.796875 61 7.796875 63.203125 
Q 7.796875 65.296875 9.296875 66.796875 
Q 10.796875 68.296875 12.90625 68.296875 
Q 15.09375 68.296875 16.546875 66.796875 
Q 18 65.296875 18 63.203125 
z
M 25.296875 0 
L 1.59375 0 
L 1.59375 1.5 
Q 6.796875 1.796875 8.140625 3.296875 
Q 9.5 4.796875 9.5 10.40625 
L 9.5 33.09375 
Q 9.5 36.59375 8.796875 38 
Q 8.09375 39.40625 6.203125 39.40625 
Q 3.796875 39.40625 2 38.90625 
L 2 40.5 
L 17.5 46 
L 17.90625 45.59375 
L 17.90625 10.5 
Q 17.90625 4.90625 19.15625 3.40625 
Q 20.40625 1.90625 25.296875 1.5 
z
" id="STIXGeneral-Regular-105"/>
       <path d="M 47 38.796875 
L 38.703125 38.796875 
Q 40.59375 34.5 40.59375 30.40625 
Q 40.59375 22.703125 35.390625 18.796875 
Q 30.203125 14.90625 25 14.90625 
Q 23.90625 14.90625 21.203125 15.203125 
L 19.296875 15.40625 
Q 17.296875 14.796875 15.296875 12.6875 
Q 13.296875 10.59375 13.296875 9.09375 
Q 13.296875 6.796875 21.09375 6.40625 
L 34 5.796875 
Q 39.5 5.59375 42.796875 2.6875 
Q 46.09375 -0.203125 46.09375 -4.90625 
Q 46.09375 -10.703125 40.09375 -15.40625 
Q 31.796875 -21.796875 20.09375 -21.796875 
Q 12.90625 -21.796875 7.84375 -18.9375 
Q 2.796875 -16.09375 2.796875 -12.09375 
Q 2.796875 -9.296875 5 -6.546875 
Q 7.203125 -3.796875 12.59375 0.09375 
Q 9.40625 1.59375 8.34375 2.6875 
Q 7.296875 3.796875 7.296875 5.40625 
Q 7.296875 8.296875 11.90625 12.296875 
Q 14.203125 14.296875 16.203125 16.296875 
Q 11.203125 18.796875 9.046875 21.890625 
Q 6.90625 25 6.90625 29.703125 
Q 6.90625 36.5 11.75 41.25 
Q 16.59375 46 23.59375 46 
Q 27.59375 46 31.59375 44.5 
L 33.796875 43.703125 
Q 36.703125 42.703125 39.296875 42.703125 
L 47 42.703125 
z
M 15.203125 33.796875 
L 15.203125 33.5 
Q 15.203125 26.296875 18.046875 21.84375 
Q 20.90625 17.40625 25.5 17.40625 
Q 28.90625 17.40625 30.90625 19.84375 
Q 32.90625 22.296875 32.90625 26.40625 
Q 32.90625 33 29.90625 38.5 
Q 27.40625 43.203125 22.59375 43.203125 
Q 19.09375 43.203125 17.140625 40.703125 
Q 15.203125 38.203125 15.203125 33.796875 
z
M 43.296875 -6.40625 
Q 43.296875 -3.59375 40.546875 -2.546875 
Q 37.796875 -1.5 30.90625 -1.5 
Q 21 -1.5 14.703125 -0.203125 
Q 11.703125 -3.796875 10.75 -5.4375 
Q 9.796875 -7.09375 9.796875 -8.796875 
Q 9.796875 -12.09375 13.75 -14.09375 
Q 17.703125 -16.09375 24.296875 -16.09375 
Q 32.796875 -16.09375 38.046875 -13.4375 
Q 43.296875 -10.796875 43.296875 -6.40625 
z
" id="STIXGeneral-Regular-103"/>
       <path d="M 26.59375 7.703125 
L 27.90625 6.59375 
Q 23.09375 -1 15.796875 -1 
Q 7 -1 7 11.703125 
L 7 41.796875 
L 1.703125 41.796875 
Q 1.296875 42.09375 1.296875 42.5 
Q 1.296875 43.296875 3 44.40625 
Q 6.796875 46.59375 12.703125 55.09375 
Q 12.90625 55.40625 13.65625 56.34375 
Q 14.40625 57.296875 14.703125 57.90625 
Q 15.40625 57.90625 15.40625 56.59375 
L 15.40625 45 
L 25.5 45 
L 25.5 41.796875 
L 15.40625 41.796875 
L 15.40625 13.203125 
Q 15.40625 8.40625 16.59375 6.296875 
Q 17.796875 4.203125 20.59375 4.203125 
Q 23.59375 4.203125 26.59375 7.703125 
z
" id="STIXGeneral-Regular-116"/>
      </defs>
      <use xlink:href="#STIXGeneral-Regular-104"/>
      <use x="49.999985" xlink:href="#STIXGeneral-Regular-101"/>
      <use x="94.399979" xlink:href="#STIXGeneral-Regular-105"/>
      <use x="122.199966" xlink:href="#STIXGeneral-Regular-103"/>
      <use x="172.199951" xlink:href="#STIXGeneral-Regular-104"/>
      <use x="222.199936" xlink:href="#STIXGeneral-Regular-116"/>
     </g>
    </g>
   </g>
   <g id="matplotlib.axis_2">
    <g id="ytick_1">
     <g id="line2d_8">
      <defs>
       <path d="M 0 0 
L -3.5 0 
" id="me059baf61f" style="stroke:#000000;stroke-width:0.8;"/>
      </defs>
      <g>
       <use style="stroke:#000000;stroke-width:0.8;" x="76.2" xlink:href="#me059baf61f" y="298.761613"/>
      </g>
     </g>
     <g id="text_9">
      <!-- 0 -->
      <g transform="translate(59.2 305.5913)scale(0.2 -0.2)">
       <use xlink:href="#STIXGeneral-Regular-48"/>
      </g>
     </g>
    </g>
    <g id="ytick_2">
     <g id="line2d_9">
      <g>
       <use style="stroke:#000000;stroke-width:0.8;" x="76.2" xlink:href="#me059baf61f" y="251.304099"/>
      </g>
     </g>
     <g id="text_10">
      <!-- 250 -->
      <g transform="translate(39.2 258.133787)scale(0.2 -0.2)">
       <use xlink:href="#STIXGeneral-Regular-50"/>
       <use x="49.999985" xlink:href="#STIXGeneral-Regular-53"/>
       <use x="99.999969" xlink:href="#STIXGeneral-Regular-48"/>
      </g>
     </g>
    </g>
    <g id="ytick_3">
     <g id="line2d_10">
      <g>
       <use style="stroke:#000000;stroke-width:0.8;" x="76.2" xlink:href="#me059baf61f" y="203.846586"/>
      </g>
     </g>
     <g id="text_11">
      <!-- 500 -->
      <g transform="translate(39.2 210.676274)scale(0.2 -0.2)">
       <use xlink:href="#STIXGeneral-Regular-53"/>
       <use x="49.999985" xlink:href="#STIXGeneral-Regular-48"/>
       <use x="99.999969" xlink:href="#STIXGeneral-Regular-48"/>
      </g>
     </g>
    </g>
    <g id="ytick_4">
     <g id="line2d_11">
      <g>
       <use style="stroke:#000000;stroke-width:0.8;" x="76.2" xlink:href="#me059baf61f" y="156.389073"/>
      </g>
     </g>
     <g id="text_12">
      <!-- 750 -->
      <g transform="translate(39.2 163.21876)scale(0.2 -0.2)">
       <use xlink:href="#STIXGeneral-Regular-55"/>
       <use x="49.999985" xlink:href="#STIXGeneral-Regular-53"/>
       <use x="99.999969" xlink:href="#STIXGeneral-Regular-48"/>
      </g>
     </g>
    </g>
    <g id="ytick_5">
     <g id="line2d_12">
      <g>
       <use style="stroke:#000000;stroke-width:0.8;" x="76.2" xlink:href="#me059baf61f" y="108.93156"/>
      </g>
     </g>
     <g id="text_13">
      <!-- 1000 -->
      <g transform="translate(29.2 115.761247)scale(0.2 -0.2)">
       <use xlink:href="#STIXGeneral-Regular-49"/>
       <use x="49.999985" xlink:href="#STIXGeneral-Regular-48"/>
       <use x="99.999969" xlink:href="#STIXGeneral-Regular-48"/>
       <use x="149.999954" xlink:href="#STIXGeneral-Regular-48"/>
      </g>
     </g>
    </g>
    <g id="ytick_6">
     <g id="line2d_13">
      <g>
       <use style="stroke:#000000;stroke-width:0.8;" x="76.2" xlink:href="#me059baf61f" y="61.474046"/>
      </g>
     </g>
     <g id="text_14">
      <!-- 1250 -->
      <g transform="translate(29.2 68.303734)scale(0.2 -0.2)">
       <use xlink:href="#STIXGeneral-Regular-49"/>
       <use x="49.999985" xlink:href="#STIXGeneral-Regular-50"/>
       <use x="99.999969" xlink:href="#STIXGeneral-Regular-53"/>
       <use x="149.999954" xlink:href="#STIXGeneral-Regular-48"/>
      </g>
     </g>
    </g>
    <g id="text_15">
     <!-- mass -->
     <g transform="translate(20.859375 188.444844)rotate(-90)scale(0.2 -0.2)">
      <defs>
       <path d="M 77.5 0 
L 55.703125 0 
L 55.703125 1.5 
Q 59.90625 1.90625 61.046875 3.25 
Q 62.203125 4.59375 62.203125 9 
L 62.203125 29.59375 
Q 62.203125 35.59375 60.453125 38.1875 
Q 58.703125 40.796875 54.5 40.796875 
Q 51 40.796875 48.546875 39.390625 
Q 46.09375 38 43.796875 34.703125 
L 43.796875 9.5 
Q 43.796875 4.703125 45.25 3.140625 
Q 46.703125 1.59375 51 1.5 
L 51 0 
L 28.59375 0 
L 28.59375 1.5 
Q 33 1.796875 34.203125 2.9375 
Q 35.40625 4.09375 35.40625 8.59375 
L 35.40625 29.703125 
Q 35.40625 40.796875 28.90625 40.796875 
Q 26.09375 40.796875 22.9375 39.546875 
Q 19.796875 38.296875 18.296875 36.5 
Q 17 35 17 34.796875 
L 17 7 
Q 17 3.796875 18.390625 2.75 
Q 19.796875 1.703125 23.796875 1.5 
L 23.796875 0 
L 1.59375 0 
L 1.59375 1.5 
Q 5.796875 1.59375 7.1875 3.046875 
Q 8.59375 4.5 8.59375 8.796875 
L 8.59375 33.59375 
Q 8.59375 37.296875 7.796875 38.75 
Q 7 40.203125 5.09375 40.203125 
Q 3.59375 40.203125 1.90625 39.796875 
L 1.90625 41.5 
Q 8.703125 43.40625 15.796875 46 
L 16.59375 45.703125 
L 16.59375 38.296875 
L 16.796875 38.296875 
Q 21.296875 43 24.75 44.5 
Q 28.203125 46 32.09375 46 
Q 40 46 42.703125 37.59375 
Q 50.5 46 59 46 
Q 70.59375 46 70.59375 28 
L 70.59375 7.703125 
Q 70.59375 4.40625 71.59375 3.15625 
Q 72.59375 1.90625 74.90625 1.703125 
L 77.5 1.5 
z
" id="STIXGeneral-Regular-109"/>
       <path d="M 44.203125 6.59375 
L 44.203125 3.796875 
Q 40.40625 -1 35.203125 -1 
Q 29.5 -1 28.796875 6.296875 
L 28.703125 6.296875 
Q 22.296875 -1 14.203125 -1 
Q 9.5 -1 6.59375 1.75 
Q 3.703125 4.5 3.703125 9.40625 
Q 3.703125 16.40625 10.703125 21.09375 
Q 15.5 24.296875 28.703125 29.203125 
L 28.703125 34.59375 
Q 28.703125 39.09375 26.546875 41.34375 
Q 24.40625 43.59375 20.90625 43.59375 
Q 17.90625 43.59375 15.90625 42.140625 
Q 13.90625 40.703125 13.90625 38.703125 
Q 13.90625 37.796875 14.203125 36.6875 
Q 14.5 35.59375 14.5 34.5 
Q 14.5 33 13.140625 31.703125 
Q 11.796875 30.40625 9.90625 30.40625 
Q 8.203125 30.40625 6.890625 31.703125 
Q 5.59375 33 5.59375 35 
Q 5.59375 39.796875 10.703125 43 
Q 15.40625 46 22.203125 46 
Q 30.296875 46 34 41.5 
Q 35.796875 39.40625 36.296875 37.25 
Q 36.796875 35.09375 36.796875 30.40625 
L 36.796875 11.296875 
Q 36.796875 4.703125 39.90625 4.703125 
Q 41.90625 4.703125 44.203125 6.59375 
z
M 28.703125 12.703125 
L 28.703125 26.796875 
Q 19.5 23.59375 15.90625 20.203125 
Q 12.5 17.09375 12.5 12.5 
Q 12.5 8.703125 14.390625 6.75 
Q 16.296875 4.796875 19.40625 4.796875 
Q 22.703125 4.796875 25.203125 6.40625 
Q 27.296875 7.90625 28 9.203125 
Q 28.703125 10.5 28.703125 12.703125 
z
" id="STIXGeneral-Regular-97"/>
       <path d="M 15.59375 30.09375 
L 26 23.796875 
Q 31 20.796875 32.890625 18.1875 
Q 34.796875 15.59375 34.796875 11.5 
Q 34.796875 6.5 30.640625 2.75 
Q 26.5 -1 20.796875 -1 
Q 16.09375 -1 13.5 -0.09375 
Q 10.796875 0.796875 8.90625 0.796875 
Q 7.203125 0.796875 6.5 -0.40625 
L 5.203125 -0.40625 
L 5.203125 15.296875 
L 6.796875 15.296875 
Q 8.40625 8 11.40625 4.59375 
Q 14.40625 1.203125 19.5 1.203125 
Q 23.203125 1.203125 25.5 3.296875 
Q 27.796875 5.40625 27.796875 8.59375 
Q 27.796875 13.203125 22.5 16.09375 
L 17.09375 19.09375 
Q 5.09375 25.796875 5.09375 33.59375 
Q 5.09375 39.40625 8.84375 42.65625 
Q 12.59375 45.90625 18.90625 45.90625 
Q 23.296875 45.90625 25.59375 44.796875 
Q 27.40625 44 28.40625 44 
Q 29.09375 44 30 45 
L 31.09375 45 
L 31.59375 31.40625 
L 30.09375 31.40625 
Q 28.40625 38.203125 25.84375 40.953125 
Q 23.296875 43.703125 18.796875 43.703125 
Q 15.40625 43.703125 13.34375 42 
Q 11.296875 40.296875 11.296875 36.90625 
Q 11.296875 35.203125 12.4375 33.25 
Q 13.59375 31.296875 15.59375 30.09375 
z
" id="STIXGeneral-Regular-115"/>
      </defs>
      <use xlink:href="#STIXGeneral-Regular-109"/>
      <use x="77.799988" xlink:href="#STIXGeneral-Regular-97"/>
      <use x="122.199982" xlink:href="#STIXGeneral-Regular-115"/>
      <use x="161.099976" xlink:href="#STIXGeneral-Regular-115"/>
     </g>
    </g>
   </g>
   <g id="patch_3">
    <path d="M 76.2 308.66125 
L 76.2 28.225312 
" style="fill:none;stroke:#000000;stroke-linecap:square;stroke-linejoin:miter;stroke-width:0.8;"/>
   </g>
   <g id="patch_4">
    <path d="M 679.68 308.66125 
L 679.68 28.225312 
" style="fill:none;stroke:#000000;stroke-linecap:square;stroke-linejoin:miter;stroke-width:0.8;"/>
   </g>
   <g id="patch_5">
    <path d="M 76.2 308.66125 
L 679.68 308.66125 
" style="fill:none;stroke:#000000;stroke-linecap:square;stroke-linejoin:miter;stroke-width:0.8;"/>
   </g>
   <g id="patch_6">
    <path d="M 76.2 28.225312 
L 679.68 28.225312 
" style="fill:none;stroke:#000000;stroke-linecap:square;stroke-linejoin:miter;stroke-width:0.8;"/>
   </g>
   <g id="patch_7">
    <path d="M 514.093092 70.091187 
L 511.927298 74.702598 
Q 498.125942 49.915109 468.325354 43.374528 
L 469.447288 46.711108 
Q 465.734816 44.640839 461.572249 41.143369 
Q 466.395453 38.507239 471.121066 38.071753 
L 468.774722 40.773054 
Q 499.940258 44.763526 519.257454 69.833427 
L 514.093092 70.091187 
z
" style="stroke:#000000;stroke-linecap:round;"/>
   </g>
   <g id="text_16">
    <!-- Jabba the Hutt -->
    <g transform="translate(459.57961 90.972401)scale(0.22 -0.22)">
     <defs>
      <path d="M 35.40625 66.203125 
L 35.40625 64.296875 
Q 29.296875 63.796875 27.75 62.25 
Q 26.203125 60.703125 26.203125 54.90625 
L 26.203125 18.5 
Q 26.203125 -1.40625 9.5 -1.40625 
Q 4.90625 -1.40625 2.15625 0.5 
Q -0.59375 2.40625 -0.59375 5.796875 
Q -0.59375 7.796875 0.84375 9.390625 
Q 2.296875 11 4.296875 11 
Q 7.59375 11 9.203125 6.796875 
Q 9.40625 6.296875 9.703125 5.4375 
Q 10 4.59375 10.140625 4.140625 
Q 10.296875 3.703125 10.59375 3.25 
Q 10.90625 2.796875 11.296875 2.59375 
Q 11.703125 2.40625 12.296875 2.40625 
Q 14.5 2.40625 15.25 3.953125 
Q 16 5.5 16 9.40625 
L 16 55 
Q 16 60.90625 14.5 62.34375 
Q 13 63.796875 6.703125 64.296875 
L 6.703125 66.203125 
z
" id="STIXGeneral-Regular-74"/>
      <path d="M 15.296875 68.09375 
L 15.296875 37.59375 
Q 16.90625 41.40625 20.546875 43.703125 
Q 24.203125 46 28.796875 46 
Q 36.703125 46 41.75 39.703125 
Q 46.796875 33.40625 46.796875 24 
Q 46.796875 13 40.09375 6 
Q 33.40625 -1 23.40625 -1 
Q 17.296875 -1 12.09375 1.046875 
Q 6.90625 3.09375 6.90625 5.59375 
L 6.90625 56.59375 
Q 6.90625 60.296875 6 61.34375 
Q 5.09375 62.40625 2 62.40625 
Q 1.296875 62.40625 0.296875 62.203125 
L 0.296875 63.90625 
L 3.296875 64.796875 
Q 13.5 67.90625 14.796875 68.296875 
z
M 15.296875 31.796875 
L 15.296875 7.40625 
Q 15.296875 5.09375 18.140625 3.640625 
Q 21 2.203125 25 2.203125 
Q 30.90625 2.203125 34.296875 6.5 
Q 38 11.09375 38 19.703125 
Q 38 29.5 34.09375 35 
Q 30.796875 39.703125 25.203125 39.703125 
Q 21.203125 39.703125 18.25 37.34375 
Q 15.296875 35 15.296875 31.796875 
z
" id="STIXGeneral-Regular-98"/>
      <path id="STIXGeneral-Regular-32"/>
      <path d="M 70.296875 0 
L 42.40625 0 
L 42.40625 1.90625 
Q 48.203125 2.296875 49.703125 4.140625 
Q 51.203125 6 51.203125 12.40625 
L 51.203125 31.5 
L 20.90625 31.5 
L 20.90625 11.296875 
Q 20.90625 5.796875 22.5 4 
Q 24.09375 2.203125 29.59375 1.90625 
L 29.703125 0 
L 1.796875 0 
L 1.796875 1.90625 
Q 7.703125 2.296875 9.203125 4.046875 
Q 10.703125 5.796875 10.703125 12.203125 
L 10.703125 54.796875 
Q 10.703125 60.59375 9.140625 62.1875 
Q 7.59375 63.796875 1.796875 64.296875 
L 1.796875 66.203125 
L 29.796875 66.203125 
L 29.796875 64.296875 
Q 24.203125 63.796875 22.546875 62.140625 
Q 20.90625 60.5 20.90625 54.796875 
L 20.90625 35.90625 
L 51.203125 35.90625 
L 51.203125 54.796875 
Q 51.203125 60.59375 49.640625 62.1875 
Q 48.09375 63.796875 42.296875 64.296875 
L 42.296875 66.203125 
L 70.296875 66.203125 
L 70.296875 64.296875 
Q 64.703125 63.796875 63.046875 62.140625 
Q 61.40625 60.5 61.40625 54.796875 
L 61.40625 11.09375 
Q 61.40625 5.796875 63.046875 4.046875 
Q 64.703125 2.296875 70.296875 1.90625 
z
" id="STIXGeneral-Regular-72"/>
      <path d="M 48 5 
L 48 3.59375 
Q 40.203125 1.5 34.296875 -0.90625 
L 33.796875 -0.59375 
L 33.796875 7.59375 
L 33.59375 7.59375 
Q 27.296875 -1 19.296875 -1 
Q 13.59375 -1 10.34375 2.5 
Q 7.09375 6 7.09375 11.796875 
L 7.09375 36.90625 
Q 7.09375 40.59375 5.796875 42 
Q 4.5 43.40625 0.90625 43.59375 
L 0.90625 45 
L 15.5 45 
L 15.5 12.703125 
Q 15.5 9.296875 17.546875 7.046875 
Q 19.59375 4.796875 22.59375 4.796875 
Q 27.5 4.796875 31 7.90625 
Q 32.296875 9.09375 32.796875 10.140625 
Q 33.296875 11.203125 33.296875 13.703125 
L 33.296875 36.796875 
Q 33.296875 40.703125 31.890625 41.84375 
Q 30.5 43 25.90625 43.296875 
L 25.90625 45 
L 41.703125 45 
L 41.703125 10.703125 
Q 41.703125 7.203125 42.84375 6.09375 
Q 44 5 47.40625 5 
z
" id="STIXGeneral-Regular-117"/>
     </defs>
     <use xlink:href="#STIXGeneral-Regular-74"/>
     <use x="37.299988" xlink:href="#STIXGeneral-Regular-97"/>
     <use x="81.699982" xlink:href="#STIXGeneral-Regular-98"/>
     <use x="131.699966" xlink:href="#STIXGeneral-Regular-98"/>
     <use x="181.699951" xlink:href="#STIXGeneral-Regular-97"/>
     <use x="226.099945" xlink:href="#STIXGeneral-Regular-32"/>
     <use x="251.09993" xlink:href="#STIXGeneral-Regular-116"/>
     <use x="278.899918" xlink:href="#STIXGeneral-Regular-104"/>
     <use x="328.899902" xlink:href="#STIXGeneral-Regular-101"/>
     <use x="373.299896" xlink:href="#STIXGeneral-Regular-32"/>
     <use x="398.299881" xlink:href="#STIXGeneral-Regular-72"/>
     <use x="470.499863" xlink:href="#STIXGeneral-Regular-117"/>
     <use x="520.499847" xlink:href="#STIXGeneral-Regular-116"/>
     <use x="548.299835" xlink:href="#STIXGeneral-Regular-116"/>
    </g>
   </g>
   <g id="text_17">
    <!-- Always look for outliers! -->
    <g transform="translate(76.2 22.225312)scale(0.22 -0.22)">
     <defs>
      <path d="M 70.703125 0 
L 45.203125 0 
L 45.203125 1.90625 
Q 49.203125 1.90625 50.703125 2.796875 
Q 52.09375 3.5 52.09375 5.203125 
Q 52.09375 7.796875 50.203125 12.203125 
L 46.09375 21.59375 
L 19.90625 21.59375 
L 15.296875 10.203125 
Q 14.40625 7.90625 14.40625 6 
Q 14.40625 3.703125 16.046875 2.796875 
Q 17.703125 1.90625 21.40625 1.90625 
L 21.40625 0 
L 1.5 0 
L 1.5 1.90625 
Q 5.703125 2.296875 7.59375 4.9375 
Q 9.5 7.59375 14.09375 18.59375 
L 34.703125 67.40625 
L 36.703125 67.40625 
L 61.296875 11.09375 
Q 63.5 5.90625 65.25 4.09375 
Q 67 2.296875 70.703125 1.90625 
z
M 44.703125 25.703125 
L 33.09375 53.203125 
L 21.59375 25.703125 
z
" id="STIXGeneral-Regular-65"/>
      <path d="M 25.703125 0 
L 2.09375 0 
L 2.09375 1.5 
Q 6.796875 1.90625 8.296875 3.453125 
Q 9.796875 5 9.796875 9.203125 
L 9.796875 56.09375 
Q 9.796875 59.703125 8.890625 61.09375 
Q 8 62.5 5.59375 62.5 
Q 3.5 62.5 1.90625 62.296875 
L 1.90625 63.90625 
Q 11.40625 66.203125 17.703125 68.296875 
L 18.203125 67.90625 
L 18.203125 8.703125 
Q 18.203125 4.5 19.59375 3.140625 
Q 21 1.796875 25.703125 1.5 
z
" id="STIXGeneral-Regular-108"/>
      <path d="M 69.40625 45 
L 69.40625 43.5 
Q 67.90625 43 67.203125 42.046875 
Q 66.5 41.09375 65.296875 38.09375 
L 51.5 3.5 
Q 49.5 -1.40625 48.703125 -1.40625 
Q 48.203125 -1.40625 47.84375 -0.75 
Q 47.5 -0.09375 46.296875 2.90625 
L 37.203125 26.5 
L 26 2.5 
Q 24.203125 -1.40625 23.5 -1.40625 
Q 22.59375 -1.40625 20.90625 3 
L 7.40625 37.203125 
Q 5.90625 41.09375 4.90625 42.1875 
Q 3.90625 43.296875 2.09375 43.5 
L 2.09375 45 
L 20.09375 45 
L 20.09375 43.5 
Q 17.5 43.203125 16.5 42.5 
Q 15.5 41.796875 15.5 40.203125 
Q 15.5 38.703125 16.09375 37.203125 
L 26 11.09375 
L 35.09375 31 
L 33.09375 36.59375 
Q 31.703125 40.59375 30.34375 41.890625 
Q 29 43.203125 26.203125 43.5 
L 26.203125 45 
L 46.5 45 
L 46.5 43.5 
Q 43 43 41.84375 42.296875 
Q 40.703125 41.59375 40.703125 40 
Q 40.703125 38.40625 42.40625 34 
L 50.796875 11.59375 
L 59.796875 33.796875 
Q 61.5 38 61.5 40.5 
Q 61.5 41.703125 60.546875 42.34375 
Q 59.59375 43 57.09375 43.5 
L 57.09375 45 
z
" id="STIXGeneral-Regular-119"/>
      <path d="M 47.5 45 
L 47.5 43.5 
Q 45.703125 43.296875 44.59375 42.1875 
Q 43.5 41.09375 42.5 38.40625 
L 27.5 -2.5 
Q 23.59375 -13.09375 19.640625 -17.4375 
Q 15.703125 -21.796875 10 -21.796875 
Q 6.796875 -21.796875 4.890625 -20.140625 
Q 3 -18.5 3 -16 
Q 3 -14.09375 4.25 -12.75 
Q 5.5 -11.40625 7.296875 -11.40625 
Q 10.203125 -11.40625 12.5 -12.703125 
Q 13.796875 -13.40625 15.09375 -13.40625 
Q 17.203125 -13.40625 20.09375 -9 
Q 21.5 -7 22.796875 -3.296875 
Q 24.09375 0.40625 24.09375 1.796875 
Q 24.09375 3.09375 19.90625 11.90625 
L 6.703125 40.09375 
Q 5.40625 43 1.40625 43.59375 
L 1.40625 45 
L 21.90625 45 
L 21.90625 43.5 
Q 18.703125 43.40625 17.453125 42.796875 
Q 16.203125 42.203125 16.203125 40.796875 
Q 16.203125 39.703125 17.5 36.703125 
L 28.703125 11.703125 
L 38.40625 39.296875 
Q 38.796875 40.203125 38.796875 41.09375 
Q 38.796875 43.5 34.203125 43.5 
L 34.203125 45 
z
" id="STIXGeneral-Regular-121"/>
      <path d="M 47 23.09375 
Q 47 12.59375 40.75 5.796875 
Q 34.5 -1 24.5 -1 
Q 15.296875 -1 9.09375 5.75 
Q 2.90625 12.5 2.90625 22.796875 
Q 2.90625 33.203125 9.09375 39.59375 
Q 15.296875 46 25.40625 46 
Q 34.703125 46 40.84375 39.640625 
Q 47 33.296875 47 23.09375 
z
M 38 20.40625 
Q 38 31.796875 33 38.203125 
Q 29 43.203125 23.5 43.203125 
Q 18.296875 43.203125 15.09375 38.953125 
Q 11.90625 34.703125 11.90625 27.296875 
Q 11.90625 14.5 17.203125 6.796875 
Q 20.59375 1.796875 26.203125 1.796875 
Q 31.703125 1.796875 34.84375 6.75 
Q 38 11.703125 38 20.40625 
z
" id="STIXGeneral-Regular-111"/>
      <path d="M 50.5 0 
L 28.703125 0 
L 28.703125 1.5 
L 30.59375 1.5 
Q 32.703125 1.5 32.703125 3 
Q 32.703125 3.90625 31.59375 5.296875 
L 16.59375 25.09375 
L 16.59375 6.703125 
Q 16.59375 4.09375 17.84375 2.890625 
Q 19.09375 1.703125 22.09375 1.59375 
L 24.09375 1.5 
L 24.09375 0 
L 0.703125 0 
L 0.703125 1.5 
Q 6.09375 2.40625 7.140625 3.34375 
Q 8.203125 4.296875 8.203125 8.203125 
L 8.203125 56.40625 
Q 8.203125 60 7.296875 61.25 
Q 6.40625 62.5 3.90625 62.5 
Q 3.296875 62.5 0.703125 62.296875 
L 0.703125 63.90625 
L 3.703125 64.703125 
Q 9.703125 66.296875 16.203125 68.296875 
L 16.59375 68.09375 
L 16.59375 26.09375 
L 30.296875 38.296875 
Q 32.59375 40.40625 32.59375 41.796875 
Q 32.59375 42.796875 31.546875 43.140625 
Q 30.5 43.5 27.59375 43.59375 
L 27.59375 45 
L 48 45 
L 48 43.5 
Q 43 43.5 39.140625 41.34375 
Q 35.296875 39.203125 26.40625 30.90625 
L 23.5 28.203125 
L 38.796875 8.796875 
Q 44.203125 1.90625 50.5 1.5 
z
" id="STIXGeneral-Regular-107"/>
      <path d="M 2.09375 45 
L 10.296875 45 
Q 10.40625 51 11.09375 54.34375 
Q 11.796875 57.703125 13.796875 61.09375 
Q 18 68.296875 27.90625 68.296875 
Q 32.40625 68.296875 35.34375 66.546875 
Q 38.296875 64.796875 38.296875 62.09375 
Q 38.296875 60.40625 37.09375 59.203125 
Q 35.90625 58 34.09375 58 
Q 31.703125 58 29.59375 61.59375 
Q 27.203125 65.5 24.296875 65.5 
Q 18.703125 65.5 18.703125 56.59375 
L 18.703125 45 
L 30.90625 45 
L 30.90625 41.796875 
L 18.703125 41.796875 
L 18.703125 10.40625 
Q 18.703125 4.796875 20.296875 3.25 
Q 21.90625 1.703125 28 1.5 
L 28 0 
L 2 0 
L 2 1.5 
Q 7.40625 1.796875 8.84375 3.34375 
Q 10.296875 4.90625 10.296875 10.40625 
L 10.296875 41.796875 
L 2.09375 41.796875 
z
" id="STIXGeneral-Regular-102"/>
      <path d="M 16 45.796875 
L 16 36.59375 
Q 19.796875 42 22.34375 44 
Q 24.90625 46 28 46 
Q 30.59375 46 32.046875 44.59375 
Q 33.5 43.203125 33.5 40.703125 
Q 33.5 38.59375 32.453125 37.390625 
Q 31.40625 36.203125 29.59375 36.203125 
Q 27.703125 36.203125 25.59375 38.203125 
Q 24 39.703125 23 39.703125 
Q 20.90625 39.703125 18.453125 36.796875 
Q 16 33.90625 16 31.5 
L 16 9 
Q 16 4.703125 17.703125 3.203125 
Q 19.40625 1.703125 24.5 1.5 
L 24.5 0 
L 0.5 0 
L 0.5 1.5 
Q 5.296875 2.40625 6.4375 3.5 
Q 7.59375 4.59375 7.59375 8.40625 
L 7.59375 33.40625 
Q 7.59375 36.703125 6.84375 38.046875 
Q 6.09375 39.40625 4.203125 39.40625 
Q 2.59375 39.40625 0.703125 39 
L 0.703125 40.59375 
Q 7 42.59375 15.5 46 
z
" id="STIXGeneral-Regular-114"/>
      <path d="M 17.5 17.59375 
L 13.296875 55.703125 
Q 13 58.703125 13 60 
Q 13 67.59375 18.296875 67.59375 
Q 20.796875 67.59375 22.1875 65.390625 
Q 23.59375 63.203125 23.59375 59.5 
Q 23.59375 57.90625 23.40625 55.703125 
L 18.90625 17.59375 
z
M 23.59375 4.203125 
Q 23.59375 2 22.046875 0.546875 
Q 20.5 -0.90625 18.203125 -0.90625 
Q 16 -0.90625 14.5 0.546875 
Q 13 2 13 4.296875 
Q 13 6.59375 14.546875 8.140625 
Q 16.09375 9.703125 18.296875 9.703125 
Q 20.5 9.703125 22.046875 8.09375 
Q 23.59375 6.5 23.59375 4.203125 
z
" id="STIXGeneral-Regular-33"/>
     </defs>
     <use xlink:href="#STIXGeneral-Regular-65"/>
     <use x="72.199982" xlink:href="#STIXGeneral-Regular-108"/>
     <use x="99.999969" xlink:href="#STIXGeneral-Regular-119"/>
     <use x="172.199951" xlink:href="#STIXGeneral-Regular-97"/>
     <use x="216.599945" xlink:href="#STIXGeneral-Regular-121"/>
     <use x="266.59993" xlink:href="#STIXGeneral-Regular-115"/>
     <use x="305.499924" xlink:href="#STIXGeneral-Regular-32"/>
     <use x="330.499908" xlink:href="#STIXGeneral-Regular-108"/>
     <use x="358.299896" xlink:href="#STIXGeneral-Regular-111"/>
     <use x="408.299881" xlink:href="#STIXGeneral-Regular-111"/>
     <use x="458.299866" xlink:href="#STIXGeneral-Regular-107"/>
     <use x="508.29985" xlink:href="#STIXGeneral-Regular-32"/>
     <use x="533.299835" xlink:href="#STIXGeneral-Regular-102"/>
     <use x="566.599823" xlink:href="#STIXGeneral-Regular-111"/>
     <use x="616.599808" xlink:href="#STIXGeneral-Regular-114"/>
     <use x="649.899796" xlink:href="#STIXGeneral-Regular-32"/>
     <use x="674.89978" xlink:href="#STIXGeneral-Regular-111"/>
     <use x="724.899765" xlink:href="#STIXGeneral-Regular-117"/>
     <use x="774.89975" xlink:href="#STIXGeneral-Regular-116"/>
     <use x="802.699738" xlink:href="#STIXGeneral-Regular-108"/>
     <use x="830.499725" xlink:href="#STIXGeneral-Regular-105"/>
     <use x="858.299713" xlink:href="#STIXGeneral-Regular-101"/>
     <use x="902.699707" xlink:href="#STIXGeneral-Regular-114"/>
     <use x="935.999695" xlink:href="#STIXGeneral-Regular-115"/>
     <use x="974.899689" xlink:href="#STIXGeneral-Regular-33"/>
    </g>
   </g>
  </g>
 </g>
 <defs>
  <clipPath id="p6e7b31f8e5">
   <rect height="280.435937" width="603.48" x="76.2" y="28.225312"/>
  </clipPath>
 </defs>
</svg>
