<?xml version="1.0" encoding="utf-8" standalone="no"?>
<!DOCTYPE svg PUBLIC "-//W3C//DTD SVG 1.1//EN"
  "http://www.w3.org/Graphics/SVG/1.1/DTD/svg11.dtd">
<!-- Created with matplotlib (https://matplotlib.org/) -->
<svg height="312.441198pt" version="1.1" viewBox="0 0 427.68 312.441198" width="427.68pt" xmlns="http://www.w3.org/2000/svg" xmlns:xlink="http://www.w3.org/1999/xlink">
 <metadata>
  <rdf:RDF xmlns:cc="http://creativecommons.org/ns#" xmlns:dc="http://purl.org/dc/elements/1.1/" xmlns:rdf="http://www.w3.org/1999/02/22-rdf-syntax-ns#">
   <cc:Work>
    <dc:type rdf:resource="http://purl.org/dc/dcmitype/StillImage"/>
    <dc:date>2021-02-14T11:43:51.967078</dc:date>
    <dc:format>image/svg+xml</dc:format>
    <dc:creator>
     <cc:Agent>
      <dc:title>Matplotlib v3.3.4, https://matplotlib.org/</dc:title>
     </cc:Agent>
    </dc:creator>
   </cc:Work>
  </rdf:RDF>
 </metadata>
 <defs>
  <style type="text/css">*{stroke-linecap:butt;stroke-linejoin:round;}</style>
 </defs>
 <g id="figure_1">
  <g id="patch_1">
   <path d="M 0 312.441198 
L 427.68 312.441198 
L 427.68 0 
L 0 0 
z
" style="fill:#ffffff;stroke:#ffffff;stroke-linejoin:miter;"/>
  </g>
  <g id="axes_1">
   <g id="patch_2">
    <path d="M 38.393938 276.422573 
L 420.48 276.422573 
L 420.48 7.604205 
L 38.393938 7.604205 
z
" style="fill:#ebebeb;"/>
   </g>
   <g id="matplotlib.axis_1">
    <g id="xtick_1">
     <g id="line2d_1">
      <path clip-path="url(#p15f432e5a8)" d="M 58.680401 276.422573 
L 58.680401 7.604205 
" style="fill:none;stroke:#ffffff;"/>
     </g>
     <g id="line2d_2">
      <path d="M 58.680401 276.422573 
" style="fill:none;stroke:#333333;stroke-width:4;"/>
      <defs>
       <path d="M 0 0 
L 0 2.75 
" id="m4d63f187b9" style="stroke:#000000;"/>
      </defs>
      <g>
       <use style="fill:#333333;stroke:#000000;" x="58.680401" xlink:href="#m4d63f187b9" y="276.422573"/>
      </g>
     </g>
     <g id="text_1">
      <!-- 80 -->
      <g style="fill:#4d4d4d;" transform="translate(53.081401 288.059198)scale(0.088 -0.088)">
       <defs>
        <path d="M 31.78125 34.625 
Q 24.75 34.625 20.71875 30.859375 
Q 16.703125 27.09375 16.703125 20.515625 
Q 16.703125 13.921875 20.71875 10.15625 
Q 24.75 6.390625 31.78125 6.390625 
Q 38.8125 6.390625 42.859375 10.171875 
Q 46.921875 13.96875 46.921875 20.515625 
Q 46.921875 27.09375 42.890625 30.859375 
Q 38.875 34.625 31.78125 34.625 
z
M 21.921875 38.8125 
Q 15.578125 40.375 12.03125 44.71875 
Q 8.5 49.078125 8.5 55.328125 
Q 8.5 64.0625 14.71875 69.140625 
Q 20.953125 74.21875 31.78125 74.21875 
Q 42.671875 74.21875 48.875 69.140625 
Q 55.078125 64.0625 55.078125 55.328125 
Q 55.078125 49.078125 51.53125 44.71875 
Q 48 40.375 41.703125 38.8125 
Q 48.828125 37.15625 52.796875 32.3125 
Q 56.78125 27.484375 56.78125 20.515625 
Q 56.78125 9.90625 50.3125 4.234375 
Q 43.84375 -1.421875 31.78125 -1.421875 
Q 19.734375 -1.421875 13.25 4.234375 
Q 6.78125 9.90625 6.78125 20.515625 
Q 6.78125 27.484375 10.78125 32.3125 
Q 14.796875 37.15625 21.921875 38.8125 
z
M 18.3125 54.390625 
Q 18.3125 48.734375 21.84375 45.5625 
Q 25.390625 42.390625 31.78125 42.390625 
Q 38.140625 42.390625 41.71875 45.5625 
Q 45.3125 48.734375 45.3125 54.390625 
Q 45.3125 60.0625 41.71875 63.234375 
Q 38.140625 66.40625 31.78125 66.40625 
Q 25.390625 66.40625 21.84375 63.234375 
Q 18.3125 60.0625 18.3125 54.390625 
z
" id="DejaVuSans-56"/>
        <path d="M 31.78125 66.40625 
Q 24.171875 66.40625 20.328125 58.90625 
Q 16.5 51.421875 16.5 36.375 
Q 16.5 21.390625 20.328125 13.890625 
Q 24.171875 6.390625 31.78125 6.390625 
Q 39.453125 6.390625 43.28125 13.890625 
Q 47.125 21.390625 47.125 36.375 
Q 47.125 51.421875 43.28125 58.90625 
Q 39.453125 66.40625 31.78125 66.40625 
z
M 31.78125 74.21875 
Q 44.046875 74.21875 50.515625 64.515625 
Q 56.984375 54.828125 56.984375 36.375 
Q 56.984375 17.96875 50.515625 8.265625 
Q 44.046875 -1.421875 31.78125 -1.421875 
Q 19.53125 -1.421875 13.0625 8.265625 
Q 6.59375 17.96875 6.59375 36.375 
Q 6.59375 54.828125 13.0625 64.515625 
Q 19.53125 74.21875 31.78125 74.21875 
z
" id="DejaVuSans-48"/>
       </defs>
       <use xlink:href="#DejaVuSans-56"/>
       <use x="63.623047" xlink:href="#DejaVuSans-48"/>
      </g>
     </g>
    </g>
    <g id="xtick_2">
     <g id="line2d_3">
      <path clip-path="url(#p15f432e5a8)" d="M 131.653293 276.422573 
L 131.653293 7.604205 
" style="fill:none;stroke:#ffffff;"/>
     </g>
     <g id="line2d_4">
      <path d="M 131.653293 276.422573 
" style="fill:none;stroke:#333333;stroke-width:4;"/>
      <g>
       <use style="fill:#333333;stroke:#000000;" x="131.653293" xlink:href="#m4d63f187b9" y="276.422573"/>
      </g>
     </g>
     <g id="text_2">
      <!-- 82.5 -->
      <g style="fill:#4d4d4d;" transform="translate(121.856418 288.059198)scale(0.088 -0.088)">
       <defs>
        <path d="M 19.1875 8.296875 
L 53.609375 8.296875 
L 53.609375 0 
L 7.328125 0 
L 7.328125 8.296875 
Q 12.9375 14.109375 22.625 23.890625 
Q 32.328125 33.6875 34.8125 36.53125 
Q 39.546875 41.84375 41.421875 45.53125 
Q 43.3125 49.21875 43.3125 52.78125 
Q 43.3125 58.59375 39.234375 62.25 
Q 35.15625 65.921875 28.609375 65.921875 
Q 23.96875 65.921875 18.8125 64.3125 
Q 13.671875 62.703125 7.8125 59.421875 
L 7.8125 69.390625 
Q 13.765625 71.78125 18.9375 73 
Q 24.125 74.21875 28.421875 74.21875 
Q 39.75 74.21875 46.484375 68.546875 
Q 53.21875 62.890625 53.21875 53.421875 
Q 53.21875 48.921875 51.53125 44.890625 
Q 49.859375 40.875 45.40625 35.40625 
Q 44.1875 33.984375 37.640625 27.21875 
Q 31.109375 20.453125 19.1875 8.296875 
z
" id="DejaVuSans-50"/>
        <path d="M 10.6875 12.40625 
L 21 12.40625 
L 21 0 
L 10.6875 0 
z
" id="DejaVuSans-46"/>
        <path d="M 10.796875 72.90625 
L 49.515625 72.90625 
L 49.515625 64.59375 
L 19.828125 64.59375 
L 19.828125 46.734375 
Q 21.96875 47.46875 24.109375 47.828125 
Q 26.265625 48.1875 28.421875 48.1875 
Q 40.625 48.1875 47.75 41.5 
Q 54.890625 34.8125 54.890625 23.390625 
Q 54.890625 11.625 47.5625 5.09375 
Q 40.234375 -1.421875 26.90625 -1.421875 
Q 22.3125 -1.421875 17.546875 -0.640625 
Q 12.796875 0.140625 7.71875 1.703125 
L 7.71875 11.625 
Q 12.109375 9.234375 16.796875 8.0625 
Q 21.484375 6.890625 26.703125 6.890625 
Q 35.15625 6.890625 40.078125 11.328125 
Q 45.015625 15.765625 45.015625 23.390625 
Q 45.015625 31 40.078125 35.4375 
Q 35.15625 39.890625 26.703125 39.890625 
Q 22.75 39.890625 18.8125 39.015625 
Q 14.890625 38.140625 10.796875 36.28125 
z
" id="DejaVuSans-53"/>
       </defs>
       <use xlink:href="#DejaVuSans-56"/>
       <use x="63.623047" xlink:href="#DejaVuSans-50"/>
       <use x="127.246094" xlink:href="#DejaVuSans-46"/>
       <use x="159.033203" xlink:href="#DejaVuSans-53"/>
      </g>
     </g>
    </g>
    <g id="xtick_3">
     <g id="line2d_5">
      <path clip-path="url(#p15f432e5a8)" d="M 204.626185 276.422573 
L 204.626185 7.604205 
" style="fill:none;stroke:#ffffff;"/>
     </g>
     <g id="line2d_6">
      <path d="M 204.626185 276.422573 
" style="fill:none;stroke:#333333;stroke-width:4;"/>
      <g>
       <use style="fill:#333333;stroke:#000000;" x="204.626185" xlink:href="#m4d63f187b9" y="276.422573"/>
      </g>
     </g>
     <g id="text_3">
      <!-- 85 -->
      <g style="fill:#4d4d4d;" transform="translate(199.027185 288.059198)scale(0.088 -0.088)">
       <use xlink:href="#DejaVuSans-56"/>
       <use x="63.623047" xlink:href="#DejaVuSans-53"/>
      </g>
     </g>
    </g>
    <g id="xtick_4">
     <g id="line2d_7">
      <path clip-path="url(#p15f432e5a8)" d="M 277.599077 276.422573 
L 277.599077 7.604205 
" style="fill:none;stroke:#ffffff;"/>
     </g>
     <g id="line2d_8">
      <path d="M 277.599077 276.422573 
" style="fill:none;stroke:#333333;stroke-width:4;"/>
      <g>
       <use style="fill:#333333;stroke:#000000;" x="277.599077" xlink:href="#m4d63f187b9" y="276.422573"/>
      </g>
     </g>
     <g id="text_4">
      <!-- 87.5 -->
      <g style="fill:#4d4d4d;" transform="translate(267.802202 288.059198)scale(0.088 -0.088)">
       <defs>
        <path d="M 8.203125 72.90625 
L 55.078125 72.90625 
L 55.078125 68.703125 
L 28.609375 0 
L 18.3125 0 
L 43.21875 64.59375 
L 8.203125 64.59375 
z
" id="DejaVuSans-55"/>
       </defs>
       <use xlink:href="#DejaVuSans-56"/>
       <use x="63.623047" xlink:href="#DejaVuSans-55"/>
       <use x="127.246094" xlink:href="#DejaVuSans-46"/>
       <use x="159.033203" xlink:href="#DejaVuSans-53"/>
      </g>
     </g>
    </g>
    <g id="xtick_5">
     <g id="line2d_9">
      <path clip-path="url(#p15f432e5a8)" d="M 350.571969 276.422573 
L 350.571969 7.604205 
" style="fill:none;stroke:#ffffff;"/>
     </g>
     <g id="line2d_10">
      <path d="M 350.571969 276.422573 
" style="fill:none;stroke:#333333;stroke-width:4;"/>
      <g>
       <use style="fill:#333333;stroke:#000000;" x="350.571969" xlink:href="#m4d63f187b9" y="276.422573"/>
      </g>
     </g>
     <g id="text_5">
      <!-- 90 -->
      <g style="fill:#4d4d4d;" transform="translate(344.972969 288.059198)scale(0.088 -0.088)">
       <defs>
        <path d="M 10.984375 1.515625 
L 10.984375 10.5 
Q 14.703125 8.734375 18.5 7.8125 
Q 22.3125 6.890625 25.984375 6.890625 
Q 35.75 6.890625 40.890625 13.453125 
Q 46.046875 20.015625 46.78125 33.40625 
Q 43.953125 29.203125 39.59375 26.953125 
Q 35.25 24.703125 29.984375 24.703125 
Q 19.046875 24.703125 12.671875 31.3125 
Q 6.296875 37.9375 6.296875 49.421875 
Q 6.296875 60.640625 12.9375 67.421875 
Q 19.578125 74.21875 30.609375 74.21875 
Q 43.265625 74.21875 49.921875 64.515625 
Q 56.59375 54.828125 56.59375 36.375 
Q 56.59375 19.140625 48.40625 8.859375 
Q 40.234375 -1.421875 26.421875 -1.421875 
Q 22.703125 -1.421875 18.890625 -0.6875 
Q 15.09375 0.046875 10.984375 1.515625 
z
M 30.609375 32.421875 
Q 37.25 32.421875 41.125 36.953125 
Q 45.015625 41.5 45.015625 49.421875 
Q 45.015625 57.28125 41.125 61.84375 
Q 37.25 66.40625 30.609375 66.40625 
Q 23.96875 66.40625 20.09375 61.84375 
Q 16.21875 57.28125 16.21875 49.421875 
Q 16.21875 41.5 20.09375 36.953125 
Q 23.96875 32.421875 30.609375 32.421875 
z
" id="DejaVuSans-57"/>
       </defs>
       <use xlink:href="#DejaVuSans-57"/>
       <use x="63.623047" xlink:href="#DejaVuSans-48"/>
      </g>
     </g>
    </g>
    <g id="xtick_6">
     <g id="line2d_11">
      <path clip-path="url(#p15f432e5a8)" d="M 95.166847 276.422573 
L 95.166847 7.604205 
" style="fill:none;stroke:#ffffff;stroke-width:0.5;"/>
     </g>
    </g>
    <g id="xtick_7">
     <g id="line2d_12">
      <path clip-path="url(#p15f432e5a8)" d="M 168.139739 276.422573 
L 168.139739 7.604205 
" style="fill:none;stroke:#ffffff;stroke-width:0.5;"/>
     </g>
    </g>
    <g id="xtick_8">
     <g id="line2d_13">
      <path clip-path="url(#p15f432e5a8)" d="M 241.112631 276.422573 
L 241.112631 7.604205 
" style="fill:none;stroke:#ffffff;stroke-width:0.5;"/>
     </g>
    </g>
    <g id="xtick_9">
     <g id="line2d_14">
      <path clip-path="url(#p15f432e5a8)" d="M 314.085523 276.422573 
L 314.085523 7.604205 
" style="fill:none;stroke:#ffffff;stroke-width:0.5;"/>
     </g>
    </g>
    <g id="xtick_10">
     <g id="line2d_15">
      <path clip-path="url(#p15f432e5a8)" d="M 387.058415 276.422573 
L 387.058415 7.604205 
" style="fill:none;stroke:#ffffff;stroke-width:0.5;"/>
     </g>
    </g>
    <g id="text_6">
     <!-- hs_grad -->
     <g transform="translate(192.124453 302.647604)scale(0.11 -0.11)">
      <defs>
       <path d="M 54.890625 33.015625 
L 54.890625 0 
L 45.90625 0 
L 45.90625 32.71875 
Q 45.90625 40.484375 42.875 44.328125 
Q 39.84375 48.1875 33.796875 48.1875 
Q 26.515625 48.1875 22.3125 43.546875 
Q 18.109375 38.921875 18.109375 30.90625 
L 18.109375 0 
L 9.078125 0 
L 9.078125 75.984375 
L 18.109375 75.984375 
L 18.109375 46.1875 
Q 21.34375 51.125 25.703125 53.5625 
Q 30.078125 56 35.796875 56 
Q 45.21875 56 50.046875 50.171875 
Q 54.890625 44.34375 54.890625 33.015625 
z
" id="DejaVuSans-104"/>
       <path d="M 44.28125 53.078125 
L 44.28125 44.578125 
Q 40.484375 46.53125 36.375 47.5 
Q 32.28125 48.484375 27.875 48.484375 
Q 21.1875 48.484375 17.84375 46.4375 
Q 14.5 44.390625 14.5 40.28125 
Q 14.5 37.15625 16.890625 35.375 
Q 19.28125 33.59375 26.515625 31.984375 
L 29.59375 31.296875 
Q 39.15625 29.25 43.1875 25.515625 
Q 47.21875 21.78125 47.21875 15.09375 
Q 47.21875 7.46875 41.1875 3.015625 
Q 35.15625 -1.421875 24.609375 -1.421875 
Q 20.21875 -1.421875 15.453125 -0.5625 
Q 10.6875 0.296875 5.421875 2 
L 5.421875 11.28125 
Q 10.40625 8.6875 15.234375 7.390625 
Q 20.0625 6.109375 24.8125 6.109375 
Q 31.15625 6.109375 34.5625 8.28125 
Q 37.984375 10.453125 37.984375 14.40625 
Q 37.984375 18.0625 35.515625 20.015625 
Q 33.0625 21.96875 24.703125 23.78125 
L 21.578125 24.515625 
Q 13.234375 26.265625 9.515625 29.90625 
Q 5.8125 33.546875 5.8125 39.890625 
Q 5.8125 47.609375 11.28125 51.796875 
Q 16.75 56 26.8125 56 
Q 31.78125 56 36.171875 55.265625 
Q 40.578125 54.546875 44.28125 53.078125 
z
" id="DejaVuSans-115"/>
       <path d="M 50.984375 -16.609375 
L 50.984375 -23.578125 
L -0.984375 -23.578125 
L -0.984375 -16.609375 
z
" id="DejaVuSans-95"/>
       <path d="M 45.40625 27.984375 
Q 45.40625 37.75 41.375 43.109375 
Q 37.359375 48.484375 30.078125 48.484375 
Q 22.859375 48.484375 18.828125 43.109375 
Q 14.796875 37.75 14.796875 27.984375 
Q 14.796875 18.265625 18.828125 12.890625 
Q 22.859375 7.515625 30.078125 7.515625 
Q 37.359375 7.515625 41.375 12.890625 
Q 45.40625 18.265625 45.40625 27.984375 
z
M 54.390625 6.78125 
Q 54.390625 -7.171875 48.1875 -13.984375 
Q 42 -20.796875 29.203125 -20.796875 
Q 24.46875 -20.796875 20.265625 -20.09375 
Q 16.0625 -19.390625 12.109375 -17.921875 
L 12.109375 -9.1875 
Q 16.0625 -11.328125 19.921875 -12.34375 
Q 23.78125 -13.375 27.78125 -13.375 
Q 36.625 -13.375 41.015625 -8.765625 
Q 45.40625 -4.15625 45.40625 5.171875 
L 45.40625 9.625 
Q 42.625 4.78125 38.28125 2.390625 
Q 33.9375 0 27.875 0 
Q 17.828125 0 11.671875 7.65625 
Q 5.515625 15.328125 5.515625 27.984375 
Q 5.515625 40.671875 11.671875 48.328125 
Q 17.828125 56 27.875 56 
Q 33.9375 56 38.28125 53.609375 
Q 42.625 51.21875 45.40625 46.390625 
L 45.40625 54.6875 
L 54.390625 54.6875 
z
" id="DejaVuSans-103"/>
       <path d="M 41.109375 46.296875 
Q 39.59375 47.171875 37.8125 47.578125 
Q 36.03125 48 33.890625 48 
Q 26.265625 48 22.1875 43.046875 
Q 18.109375 38.09375 18.109375 28.8125 
L 18.109375 0 
L 9.078125 0 
L 9.078125 54.6875 
L 18.109375 54.6875 
L 18.109375 46.1875 
Q 20.953125 51.171875 25.484375 53.578125 
Q 30.03125 56 36.53125 56 
Q 37.453125 56 38.578125 55.875 
Q 39.703125 55.765625 41.0625 55.515625 
z
" id="DejaVuSans-114"/>
       <path d="M 34.28125 27.484375 
Q 23.390625 27.484375 19.1875 25 
Q 14.984375 22.515625 14.984375 16.5 
Q 14.984375 11.71875 18.140625 8.90625 
Q 21.296875 6.109375 26.703125 6.109375 
Q 34.1875 6.109375 38.703125 11.40625 
Q 43.21875 16.703125 43.21875 25.484375 
L 43.21875 27.484375 
z
M 52.203125 31.203125 
L 52.203125 0 
L 43.21875 0 
L 43.21875 8.296875 
Q 40.140625 3.328125 35.546875 0.953125 
Q 30.953125 -1.421875 24.3125 -1.421875 
Q 15.921875 -1.421875 10.953125 3.296875 
Q 6 8.015625 6 15.921875 
Q 6 25.140625 12.171875 29.828125 
Q 18.359375 34.515625 30.609375 34.515625 
L 43.21875 34.515625 
L 43.21875 35.40625 
Q 43.21875 41.609375 39.140625 45 
Q 35.0625 48.390625 27.6875 48.390625 
Q 23 48.390625 18.546875 47.265625 
Q 14.109375 46.140625 10.015625 43.890625 
L 10.015625 52.203125 
Q 14.9375 54.109375 19.578125 55.046875 
Q 24.21875 56 28.609375 56 
Q 40.484375 56 46.34375 49.84375 
Q 52.203125 43.703125 52.203125 31.203125 
z
" id="DejaVuSans-97"/>
       <path d="M 45.40625 46.390625 
L 45.40625 75.984375 
L 54.390625 75.984375 
L 54.390625 0 
L 45.40625 0 
L 45.40625 8.203125 
Q 42.578125 3.328125 38.25 0.953125 
Q 33.9375 -1.421875 27.875 -1.421875 
Q 17.96875 -1.421875 11.734375 6.484375 
Q 5.515625 14.40625 5.515625 27.296875 
Q 5.515625 40.1875 11.734375 48.09375 
Q 17.96875 56 27.875 56 
Q 33.9375 56 38.25 53.625 
Q 42.578125 51.265625 45.40625 46.390625 
z
M 14.796875 27.296875 
Q 14.796875 17.390625 18.875 11.75 
Q 22.953125 6.109375 30.078125 6.109375 
Q 37.203125 6.109375 41.296875 11.75 
Q 45.40625 17.390625 45.40625 27.296875 
Q 45.40625 37.203125 41.296875 42.84375 
Q 37.203125 48.484375 30.078125 48.484375 
Q 22.953125 48.484375 18.875 42.84375 
Q 14.796875 37.203125 14.796875 27.296875 
z
" id="DejaVuSans-100"/>
      </defs>
      <use xlink:href="#DejaVuSans-104"/>
      <use x="63.378906" xlink:href="#DejaVuSans-115"/>
      <use x="115.478516" xlink:href="#DejaVuSans-95"/>
      <use x="165.478516" xlink:href="#DejaVuSans-103"/>
      <use x="228.955078" xlink:href="#DejaVuSans-114"/>
      <use x="270.068359" xlink:href="#DejaVuSans-97"/>
      <use x="331.347656" xlink:href="#DejaVuSans-100"/>
     </g>
    </g>
   </g>
   <g id="matplotlib.axis_2">
    <g id="ytick_1">
     <g id="line2d_16">
      <path clip-path="url(#p15f432e5a8)" d="M 38.393938 272.85984 
L 420.48 272.85984 
" style="fill:none;stroke:#ffffff;"/>
     </g>
     <g id="line2d_17">
      <path d="M 38.393938 272.85984 
" style="fill:none;stroke:#333333;stroke-width:4;"/>
      <defs>
       <path d="M 0 0 
L -2.75 0 
" id="md09e20320d" style="stroke:#000000;"/>
      </defs>
      <g>
       <use style="fill:#333333;stroke:#000000;" x="38.393938" xlink:href="#md09e20320d" y="272.85984"/>
      </g>
     </g>
     <g id="text_7">
      <!-- 0 -->
      <g style="fill:#4d4d4d;" transform="translate(27.844938 275.28809)scale(0.088 -0.088)">
       <use xlink:href="#DejaVuSans-48"/>
      </g>
     </g>
    </g>
    <g id="ytick_2">
     <g id="line2d_18">
      <path clip-path="url(#p15f432e5a8)" d="M 38.393938 220.579547 
L 420.48 220.579547 
" style="fill:none;stroke:#ffffff;"/>
     </g>
     <g id="line2d_19">
      <path d="M 38.393938 220.579547 
" style="fill:none;stroke:#333333;stroke-width:4;"/>
      <g>
       <use style="fill:#333333;stroke:#000000;" x="38.393938" xlink:href="#md09e20320d" y="220.579547"/>
      </g>
     </g>
     <g id="text_8">
      <!-- 5 -->
      <g style="fill:#4d4d4d;" transform="translate(27.844938 223.007797)scale(0.088 -0.088)">
       <use xlink:href="#DejaVuSans-53"/>
      </g>
     </g>
    </g>
    <g id="ytick_3">
     <g id="line2d_20">
      <path clip-path="url(#p15f432e5a8)" d="M 38.393938 168.299254 
L 420.48 168.299254 
" style="fill:none;stroke:#ffffff;"/>
     </g>
     <g id="line2d_21">
      <path d="M 38.393938 168.299254 
" style="fill:none;stroke:#333333;stroke-width:4;"/>
      <g>
       <use style="fill:#333333;stroke:#000000;" x="38.393938" xlink:href="#md09e20320d" y="168.299254"/>
      </g>
     </g>
     <g id="text_9">
      <!-- 10 -->
      <g style="fill:#4d4d4d;" transform="translate(22.245938 170.727504)scale(0.088 -0.088)">
       <defs>
        <path d="M 12.40625 8.296875 
L 28.515625 8.296875 
L 28.515625 63.921875 
L 10.984375 60.40625 
L 10.984375 69.390625 
L 28.421875 72.90625 
L 38.28125 72.90625 
L 38.28125 8.296875 
L 54.390625 8.296875 
L 54.390625 0 
L 12.40625 0 
z
" id="DejaVuSans-49"/>
       </defs>
       <use xlink:href="#DejaVuSans-49"/>
       <use x="63.623047" xlink:href="#DejaVuSans-48"/>
      </g>
     </g>
    </g>
    <g id="ytick_4">
     <g id="line2d_22">
      <path clip-path="url(#p15f432e5a8)" d="M 38.393938 116.018961 
L 420.48 116.018961 
" style="fill:none;stroke:#ffffff;"/>
     </g>
     <g id="line2d_23">
      <path d="M 38.393938 116.018961 
" style="fill:none;stroke:#333333;stroke-width:4;"/>
      <g>
       <use style="fill:#333333;stroke:#000000;" x="38.393938" xlink:href="#md09e20320d" y="116.018961"/>
      </g>
     </g>
     <g id="text_10">
      <!-- 15 -->
      <g style="fill:#4d4d4d;" transform="translate(22.245938 118.447211)scale(0.088 -0.088)">
       <use xlink:href="#DejaVuSans-49"/>
       <use x="63.623047" xlink:href="#DejaVuSans-53"/>
      </g>
     </g>
    </g>
    <g id="ytick_5">
     <g id="line2d_24">
      <path clip-path="url(#p15f432e5a8)" d="M 38.393938 63.738668 
L 420.48 63.738668 
" style="fill:none;stroke:#ffffff;"/>
     </g>
     <g id="line2d_25">
      <path d="M 38.393938 63.738668 
" style="fill:none;stroke:#333333;stroke-width:4;"/>
      <g>
       <use style="fill:#333333;stroke:#000000;" x="38.393938" xlink:href="#md09e20320d" y="63.738668"/>
      </g>
     </g>
     <g id="text_11">
      <!-- 20 -->
      <g style="fill:#4d4d4d;" transform="translate(22.245938 66.166918)scale(0.088 -0.088)">
       <use xlink:href="#DejaVuSans-50"/>
       <use x="63.623047" xlink:href="#DejaVuSans-48"/>
      </g>
     </g>
    </g>
    <g id="ytick_6">
     <g id="line2d_26">
      <path clip-path="url(#p15f432e5a8)" d="M 38.393938 11.458375 
L 420.48 11.458375 
" style="fill:none;stroke:#ffffff;"/>
     </g>
     <g id="line2d_27">
      <path d="M 38.393938 11.458375 
" style="fill:none;stroke:#333333;stroke-width:4;"/>
      <g>
       <use style="fill:#333333;stroke:#000000;" x="38.393938" xlink:href="#md09e20320d" y="11.458375"/>
      </g>
     </g>
     <g id="text_12">
      <!-- 25 -->
      <g style="fill:#4d4d4d;" transform="translate(22.245938 13.886625)scale(0.088 -0.088)">
       <use xlink:href="#DejaVuSans-50"/>
       <use x="63.623047" xlink:href="#DejaVuSans-53"/>
      </g>
     </g>
    </g>
    <g id="ytick_7">
     <g id="line2d_28">
      <path clip-path="url(#p15f432e5a8)" d="M 38.393938 246.719694 
L 420.48 246.719694 
" style="fill:none;stroke:#ffffff;stroke-width:0.5;"/>
     </g>
    </g>
    <g id="ytick_8">
     <g id="line2d_29">
      <path clip-path="url(#p15f432e5a8)" d="M 38.393938 194.439401 
L 420.48 194.439401 
" style="fill:none;stroke:#ffffff;stroke-width:0.5;"/>
     </g>
    </g>
    <g id="ytick_9">
     <g id="line2d_30">
      <path clip-path="url(#p15f432e5a8)" d="M 38.393938 142.159108 
L 420.48 142.159108 
" style="fill:none;stroke:#ffffff;stroke-width:0.5;"/>
     </g>
    </g>
    <g id="ytick_10">
     <g id="line2d_31">
      <path clip-path="url(#p15f432e5a8)" d="M 38.393938 89.878815 
L 420.48 89.878815 
" style="fill:none;stroke:#ffffff;stroke-width:0.5;"/>
     </g>
    </g>
    <g id="ytick_11">
     <g id="line2d_32">
      <path clip-path="url(#p15f432e5a8)" d="M 38.393938 37.598522 
L 420.48 37.598522 
" style="fill:none;stroke:#ffffff;stroke-width:0.5;"/>
     </g>
    </g>
    <g id="text_13">
     <!-- murder -->
     <g transform="translate(15.558281 176.345807)rotate(-90)scale(0.11 -0.11)">
      <defs>
       <path d="M 52 44.1875 
Q 55.375 50.25 60.0625 53.125 
Q 64.75 56 71.09375 56 
Q 79.640625 56 84.28125 50.015625 
Q 88.921875 44.046875 88.921875 33.015625 
L 88.921875 0 
L 79.890625 0 
L 79.890625 32.71875 
Q 79.890625 40.578125 77.09375 44.375 
Q 74.3125 48.1875 68.609375 48.1875 
Q 61.625 48.1875 57.5625 43.546875 
Q 53.515625 38.921875 53.515625 30.90625 
L 53.515625 0 
L 44.484375 0 
L 44.484375 32.71875 
Q 44.484375 40.625 41.703125 44.40625 
Q 38.921875 48.1875 33.109375 48.1875 
Q 26.21875 48.1875 22.15625 43.53125 
Q 18.109375 38.875 18.109375 30.90625 
L 18.109375 0 
L 9.078125 0 
L 9.078125 54.6875 
L 18.109375 54.6875 
L 18.109375 46.1875 
Q 21.1875 51.21875 25.484375 53.609375 
Q 29.78125 56 35.6875 56 
Q 41.65625 56 45.828125 52.96875 
Q 50 49.953125 52 44.1875 
z
" id="DejaVuSans-109"/>
       <path d="M 8.5 21.578125 
L 8.5 54.6875 
L 17.484375 54.6875 
L 17.484375 21.921875 
Q 17.484375 14.15625 20.5 10.265625 
Q 23.53125 6.390625 29.59375 6.390625 
Q 36.859375 6.390625 41.078125 11.03125 
Q 45.3125 15.671875 45.3125 23.6875 
L 45.3125 54.6875 
L 54.296875 54.6875 
L 54.296875 0 
L 45.3125 0 
L 45.3125 8.40625 
Q 42.046875 3.421875 37.71875 1 
Q 33.40625 -1.421875 27.6875 -1.421875 
Q 18.265625 -1.421875 13.375 4.4375 
Q 8.5 10.296875 8.5 21.578125 
z
M 31.109375 56 
z
" id="DejaVuSans-117"/>
       <path d="M 56.203125 29.59375 
L 56.203125 25.203125 
L 14.890625 25.203125 
Q 15.484375 15.921875 20.484375 11.0625 
Q 25.484375 6.203125 34.421875 6.203125 
Q 39.59375 6.203125 44.453125 7.46875 
Q 49.3125 8.734375 54.109375 11.28125 
L 54.109375 2.78125 
Q 49.265625 0.734375 44.1875 -0.34375 
Q 39.109375 -1.421875 33.890625 -1.421875 
Q 20.796875 -1.421875 13.15625 6.1875 
Q 5.515625 13.8125 5.515625 26.8125 
Q 5.515625 40.234375 12.765625 48.109375 
Q 20.015625 56 32.328125 56 
Q 43.359375 56 49.78125 48.890625 
Q 56.203125 41.796875 56.203125 29.59375 
z
M 47.21875 32.234375 
Q 47.125 39.59375 43.09375 43.984375 
Q 39.0625 48.390625 32.421875 48.390625 
Q 24.90625 48.390625 20.390625 44.140625 
Q 15.875 39.890625 15.1875 32.171875 
z
" id="DejaVuSans-101"/>
      </defs>
      <use xlink:href="#DejaVuSans-109"/>
      <use x="97.412109" xlink:href="#DejaVuSans-117"/>
      <use x="160.791016" xlink:href="#DejaVuSans-114"/>
      <use x="200.154297" xlink:href="#DejaVuSans-100"/>
      <use x="263.630859" xlink:href="#DejaVuSans-101"/>
      <use x="325.154297" xlink:href="#DejaVuSans-114"/>
     </g>
    </g>
   </g>
   <g id="PathCollection_1">
    <path clip-path="url(#p15f432e5a8)" d="M 119.977631 200.394278 
C 120.447691 200.394278 120.898562 200.207521 121.230945 199.875138 
C 121.563328 199.542756 121.750085 199.091884 121.750085 198.621824 
C 121.750085 198.151764 121.563328 197.700893 121.230945 197.36851 
C 120.898562 197.036127 120.447691 196.84937 119.977631 196.84937 
C 119.50757 196.84937 119.056699 197.036127 118.724317 197.36851 
C 118.391934 197.700893 118.205177 198.151764 118.205177 198.621824 
C 118.205177 199.091884 118.391934 199.542756 118.724317 199.875138 
C 119.056699 200.207521 119.50757 200.394278 119.977631 200.394278 
z
" style="stroke:#000000;stroke-width:0.886227;"/>
    <path clip-path="url(#p15f432e5a8)" d="M 391.436789 241.172907 
C 391.906849 241.172907 392.35772 240.98615 392.690103 240.653767 
C 393.022486 240.321384 393.209243 239.870513 393.209243 239.400453 
C 393.209243 238.930392 393.022486 238.479521 392.690103 238.147139 
C 392.35772 237.814756 391.906849 237.627999 391.436789 237.627999 
C 390.966729 237.627999 390.515858 237.814756 390.183475 238.147139 
C 389.851092 238.479521 389.664335 238.930392 389.664335 239.400453 
C 389.664335 239.870513 389.851092 240.321384 390.183475 240.653767 
C 390.515858 240.98615 390.966729 241.172907 391.436789 241.172907 
z
" style="stroke:#000000;stroke-width:0.886227;"/>
    <path clip-path="url(#p15f432e5a8)" d="M 181.27486 217.123972 
C 181.74492 217.123972 182.195791 216.937215 182.528174 216.604832 
C 182.860557 216.272449 183.047314 215.821578 183.047314 215.351518 
C 183.047314 214.881458 182.860557 214.430587 182.528174 214.098204 
C 182.195791 213.765821 181.74492 213.579064 181.27486 213.579064 
C 180.8048 213.579064 180.353929 213.765821 180.021546 214.098204 
C 179.689163 214.430587 179.502406 214.881458 179.502406 215.351518 
C 179.502406 215.821578 179.689163 216.272449 180.021546 216.604832 
C 180.353929 216.937215 180.8048 217.123972 181.27486 217.123972 
z
" style="stroke:#000000;stroke-width:0.886227;"/>
    <path clip-path="url(#p15f432e5a8)" d="M 128.734378 208.759125 
C 129.204438 208.759125 129.655309 208.572368 129.987692 208.239985 
C 130.320075 207.907602 130.506832 207.456731 130.506832 206.986671 
C 130.506832 206.516611 130.320075 206.06574 129.987692 205.733357 
C 129.655309 205.400974 129.204438 205.214217 128.734378 205.214217 
C 128.264318 205.214217 127.813446 205.400974 127.481064 205.733357 
C 127.148681 206.06574 126.961924 206.516611 126.961924 206.986671 
C 126.961924 207.456731 127.148681 207.907602 127.481064 208.239985 
C 127.813446 208.572368 128.264318 208.759125 128.734378 208.759125 
z
" style="stroke:#000000;stroke-width:0.886227;"/>
    <path clip-path="url(#p15f432e5a8)" d="M 76.193896 218.169578 
C 76.663956 218.169578 77.114827 217.982821 77.44721 217.650438 
C 77.779592 217.318055 77.966349 216.867184 77.966349 216.397124 
C 77.966349 215.927064 77.779592 215.476192 77.44721 215.14381 
C 77.114827 214.811427 76.663956 214.62467 76.193896 214.62467 
C 75.723835 214.62467 75.272964 214.811427 74.940581 215.14381 
C 74.608199 215.476192 74.421442 215.927064 74.421442 216.397124 
C 74.421442 216.867184 74.608199 217.318055 74.940581 217.650438 
C 75.272964 217.982821 75.723835 218.169578 76.193896 218.169578 
z
" style="stroke:#000000;stroke-width:0.886227;"/>
    <path clip-path="url(#p15f432e5a8)" d="M 330.13956 241.172907 
C 330.60962 241.172907 331.060491 240.98615 331.392874 240.653767 
C 331.725257 240.321384 331.912014 239.870513 331.912014 239.400453 
C 331.912014 238.930392 331.725257 238.479521 331.392874 238.147139 
C 331.060491 237.814756 330.60962 237.627999 330.13956 237.627999 
C 329.669499 237.627999 329.218628 237.814756 328.886246 238.147139 
C 328.553863 238.479521 328.367106 238.930392 328.367106 239.400453 
C 328.367106 239.870513 328.553863 240.321384 328.886246 240.653767 
C 329.218628 240.98615 329.669499 241.172907 330.13956 241.172907 
z
" style="stroke:#000000;stroke-width:0.886227;"/>
    <path clip-path="url(#p15f432e5a8)" d="M 309.70715 243.264118 
C 310.17721 243.264118 310.628081 243.077361 310.960464 242.744979 
C 311.292847 242.412596 311.479604 241.961725 311.479604 241.491664 
C 311.479604 241.021604 311.292847 240.570733 310.960464 240.23835 
C 310.628081 239.905968 310.17721 239.719211 309.70715 239.719211 
C 309.23709 239.719211 308.786219 239.905968 308.453836 240.23835 
C 308.121453 240.570733 307.934696 241.021604 307.934696 241.491664 
C 307.934696 241.961725 308.121453 242.412596 308.453836 242.744979 
C 308.786219 243.077361 309.23709 243.264118 309.70715 243.264118 
z
" style="stroke:#000000;stroke-width:0.886227;"/>
    <path clip-path="url(#p15f432e5a8)" d="M 274.680162 226.534425 
C 275.150222 226.534425 275.601093 226.347668 275.933476 226.015285 
C 276.265859 225.682902 276.452616 225.232031 276.452616 224.761971 
C 276.452616 224.29191 276.265859 223.841039 275.933476 223.508657 
C 275.601093 223.176274 275.150222 222.989517 274.680162 222.989517 
C 274.210102 222.989517 273.75923 223.176274 273.426848 223.508657 
C 273.094465 223.841039 272.907708 224.29191 272.907708 224.761971 
C 272.907708 225.232031 273.094465 225.682902 273.426848 226.015285 
C 273.75923 226.347668 274.210102 226.534425 274.680162 226.534425 
z
" style="stroke:#000000;stroke-width:0.886227;"/>
    <path clip-path="url(#p15f432e5a8)" d="M 265.923415 21.595676 
C 266.393475 21.595676 266.844346 21.408919 267.176729 21.076536 
C 267.509112 20.744153 267.695869 20.293282 267.695869 19.823222 
C 267.695869 19.353162 267.509112 18.902291 267.176729 18.569908 
C 266.844346 18.237525 266.393475 18.050768 265.923415 18.050768 
C 265.453354 18.050768 265.002483 18.237525 264.670101 18.569908 
C 264.337718 18.902291 264.150961 19.353162 264.150961 19.823222 
C 264.150961 20.293282 264.337718 20.744153 264.670101 21.076536 
C 265.002483 21.408919 265.453354 21.595676 265.923415 21.595676 
z
" style="stroke:#000000;stroke-width:0.886227;"/>
    <path clip-path="url(#p15f432e5a8)" d="M 213.382933 217.123972 
C 213.852993 217.123972 214.303864 216.937215 214.636247 216.604832 
C 214.968629 216.272449 215.155386 215.821578 215.155386 215.351518 
C 215.155386 214.881458 214.968629 214.430587 214.636247 214.098204 
C 214.303864 213.765821 213.852993 213.579064 213.382933 213.579064 
C 212.912872 213.579064 212.462001 213.765821 212.129618 214.098204 
C 211.797236 214.430587 211.610479 214.881458 211.610479 215.351518 
C 211.610479 215.821578 211.797236 216.272449 212.129618 216.604832 
C 212.462001 216.937215 212.912872 217.123972 213.382933 217.123972 
z
" style="stroke:#000000;stroke-width:0.886227;"/>
    <path clip-path="url(#p15f432e5a8)" d="M 172.518113 211.895942 
C 172.988173 211.895942 173.439044 211.709186 173.771427 211.376803 
C 174.10381 211.04442 174.290567 210.593549 174.290567 210.123489 
C 174.290567 209.653428 174.10381 209.202557 173.771427 208.870174 
C 173.439044 208.537792 172.988173 208.351035 172.518113 208.351035 
C 172.048053 208.351035 171.597182 208.537792 171.264799 208.870174 
C 170.932416 209.202557 170.745659 209.653428 170.745659 210.123489 
C 170.745659 210.593549 170.932416 211.04442 171.264799 211.376803 
C 171.597182 211.709186 172.048053 211.895942 172.518113 211.895942 
z
" style="stroke:#000000;stroke-width:0.886227;"/>
    <path clip-path="url(#p15f432e5a8)" d="M 362.247632 255.811389 
C 362.717692 255.811389 363.168564 255.624632 363.500946 255.292249 
C 363.833329 254.959866 364.020086 254.508995 364.020086 254.038935 
C 364.020086 253.568875 363.833329 253.118003 363.500946 252.785621 
C 363.168564 252.453238 362.717692 252.266481 362.247632 252.266481 
C 361.777572 252.266481 361.326701 252.453238 360.994318 252.785621 
C 360.661935 253.118003 360.475178 253.568875 360.475178 254.038935 
C 360.475178 254.508995 360.661935 254.959866 360.994318 255.292249 
C 361.326701 255.624632 361.777572 255.811389 362.247632 255.811389 
z
" style="stroke:#000000;stroke-width:0.886227;"/>
    <path clip-path="url(#p15f432e5a8)" d="M 303.869319 258.948206 
C 304.339379 258.948206 304.79025 258.761449 305.122633 258.429067 
C 305.455016 258.096684 305.641772 257.645813 305.641772 257.175752 
C 305.641772 256.705692 305.455016 256.254821 305.122633 255.922438 
C 304.79025 255.590055 304.339379 255.403299 303.869319 255.403299 
C 303.399258 255.403299 302.948387 255.590055 302.616004 255.922438 
C 302.283622 256.254821 302.096865 256.705692 302.096865 257.175752 
C 302.096865 257.645813 302.283622 258.096684 302.616004 258.429067 
C 302.948387 258.761449 303.399258 258.948206 303.869319 258.948206 
z
" style="stroke:#000000;stroke-width:0.886227;"/>
    <path clip-path="url(#p15f432e5a8)" d="M 245.491005 186.801402 
C 245.961065 186.801402 246.411936 186.614645 246.744319 186.282262 
C 247.076702 185.949879 247.263459 185.499008 247.263459 185.028948 
C 247.263459 184.558888 247.076702 184.108017 246.744319 183.775634 
C 246.411936 183.443251 245.961065 183.256494 245.491005 183.256494 
C 245.020945 183.256494 244.570074 183.443251 244.237691 183.775634 
C 243.905308 184.108017 243.718551 184.558888 243.718551 185.028948 
C 243.718551 185.499008 243.905308 185.949879 244.237691 186.282262 
C 244.570074 186.614645 245.020945 186.801402 245.491005 186.801402 
z
" style="stroke:#000000;stroke-width:0.886227;"/>
    <path clip-path="url(#p15f432e5a8)" d="M 251.328836 219.215184 
C 251.798897 219.215184 252.249768 219.028427 252.58215 218.696044 
C 252.914533 218.363661 253.10129 217.91279 253.10129 217.44273 
C 253.10129 216.972669 252.914533 216.521798 252.58215 216.189416 
C 252.249768 215.857033 251.798897 215.670276 251.328836 215.670276 
C 250.858776 215.670276 250.407905 215.857033 250.075522 216.189416 
C 249.743139 216.521798 249.556382 216.972669 249.556382 217.44273 
C 249.556382 217.91279 249.743139 218.363661 250.075522 218.696044 
C 250.407905 219.028427 250.858776 219.215184 251.328836 219.215184 
z
" style="stroke:#000000;stroke-width:0.886227;"/>
    <path clip-path="url(#p15f432e5a8)" d="M 365.166548 261.039418 
C 365.636608 261.039418 366.087479 260.852661 366.419862 260.520278 
C 366.752245 260.187895 366.939002 259.737024 366.939002 259.266964 
C 366.939002 258.796904 366.752245 258.346033 366.419862 258.01365 
C 366.087479 257.681267 365.636608 257.49451 365.166548 257.49451 
C 364.696488 257.49451 364.245617 257.681267 363.913234 258.01365 
C 363.580851 258.346033 363.394094 258.796904 363.394094 259.266964 
C 363.394094 259.737024 363.580851 260.187895 363.913234 260.520278 
C 364.245617 260.852661 364.696488 261.039418 365.166548 261.039418 
z
" style="stroke:#000000;stroke-width:0.886227;"/>
    <path clip-path="url(#p15f432e5a8)" d="M 341.815222 225.488819 
C 342.285283 225.488819 342.736154 225.302062 343.068537 224.969679 
C 343.400919 224.637296 343.587676 224.186425 343.587676 223.716365 
C 343.587676 223.246305 343.400919 222.795433 343.068537 222.463051 
C 342.736154 222.130668 342.285283 221.943911 341.815222 221.943911 
C 341.345162 221.943911 340.894291 222.130668 340.561908 222.463051 
C 340.229525 222.795433 340.042769 223.246305 340.042769 223.716365 
C 340.042769 224.186425 340.229525 224.637296 340.561908 224.969679 
C 340.894291 225.302062 341.345162 225.488819 341.815222 225.488819 
z
" style="stroke:#000000;stroke-width:0.886227;"/>
    <path clip-path="url(#p15f432e5a8)" d="M 108.301968 229.671242 
C 108.772028 229.671242 109.222899 229.484485 109.555282 229.152102 
C 109.887665 228.81972 110.074422 228.368849 110.074422 227.898788 
C 110.074422 227.428728 109.887665 226.977857 109.555282 226.645474 
C 109.222899 226.313091 108.772028 226.126334 108.301968 226.126334 
C 107.831908 226.126334 107.381037 226.313091 107.048654 226.645474 
C 106.716271 226.977857 106.529514 227.428728 106.529514 227.898788 
C 106.529514 228.368849 106.716271 228.81972 107.048654 229.152102 
C 107.381037 229.484485 107.831908 229.671242 108.301968 229.671242 
z
" style="stroke:#000000;stroke-width:0.886227;"/>
    <path clip-path="url(#p15f432e5a8)" d="M 122.896546 146.022773 
C 123.366607 146.022773 123.817478 145.836016 124.149861 145.503634 
C 124.482243 145.171251 124.669 144.72038 124.669 144.250319 
C 124.669 143.780259 124.482243 143.329388 124.149861 142.997005 
C 123.817478 142.664622 123.366607 142.477866 122.896546 142.477866 
C 122.426486 142.477866 121.975615 142.664622 121.643232 142.997005 
C 121.31085 143.329388 121.124093 143.780259 121.124093 144.250319 
C 121.124093 144.72038 121.31085 145.171251 121.643232 145.503634 
C 121.975615 145.836016 122.426486 146.022773 122.896546 146.022773 
z
" style="stroke:#000000;stroke-width:0.886227;"/>
    <path clip-path="url(#p15f432e5a8)" d="M 356.409801 253.720177 
C 356.879861 253.720177 357.330732 253.53342 357.663115 253.201037 
C 357.995498 252.868654 358.182255 252.417783 358.182255 251.947723 
C 358.182255 251.477663 357.995498 251.026792 357.663115 250.694409 
C 357.330732 250.362026 356.879861 250.175269 356.409801 250.175269 
C 355.939741 250.175269 355.488869 250.362026 355.156487 250.694409 
C 354.824104 251.026792 354.637347 251.477663 354.637347 251.947723 
C 354.637347 252.417783 354.824104 252.868654 355.156487 253.201037 
C 355.488869 253.53342 355.939741 253.720177 356.409801 253.720177 
z
" style="stroke:#000000;stroke-width:0.886227;"/>
    <path clip-path="url(#p15f432e5a8)" d="M 298.031487 194.120643 
C 298.501547 194.120643 298.952419 193.933886 299.284801 193.601503 
C 299.617184 193.26912 299.803941 192.818249 299.803941 192.348189 
C 299.803941 191.878129 299.617184 191.427258 299.284801 191.094875 
C 298.952419 190.762492 298.501547 190.575735 298.031487 190.575735 
C 297.561427 190.575735 297.110556 190.762492 296.778173 191.094875 
C 296.44579 191.427258 296.259033 191.878129 296.259033 192.348189 
C 296.259033 192.818249 296.44579 193.26912 296.778173 193.601503 
C 297.110556 193.933886 297.561427 194.120643 298.031487 194.120643 
z
" style="stroke:#000000;stroke-width:0.886227;"/>
    <path clip-path="url(#p15f432e5a8)" d="M 321.382813 246.400936 
C 321.852873 246.400936 322.303744 246.214179 322.636127 245.881796 
C 322.96851 245.549413 323.155267 245.098542 323.155267 244.628482 
C 323.155267 244.158422 322.96851 243.707551 322.636127 243.375168 
C 322.303744 243.042785 321.852873 242.856028 321.382813 242.856028 
C 320.912752 242.856028 320.461881 243.042785 320.129499 243.375168 
C 319.797116 243.707551 319.610359 244.158422 319.610359 244.628482 
C 319.610359 245.098542 319.797116 245.549413 320.129499 245.881796 
C 320.461881 246.214179 320.912752 246.400936 321.382813 246.400936 
z
" style="stroke:#000000;stroke-width:0.886227;"/>
    <path clip-path="url(#p15f432e5a8)" d="M 289.27474 208.759125 
C 289.7448 208.759125 290.195672 208.572368 290.528054 208.239985 
C 290.860437 207.907602 291.047194 207.456731 291.047194 206.986671 
C 291.047194 206.516611 290.860437 206.06574 290.528054 205.733357 
C 290.195672 205.400974 289.7448 205.214217 289.27474 205.214217 
C 288.80468 205.214217 288.353809 205.400974 288.021426 205.733357 
C 287.689043 206.06574 287.502286 206.516611 287.502286 206.986671 
C 287.502286 207.456731 287.689043 207.907602 288.021426 208.239985 
C 288.353809 208.572368 288.80468 208.759125 289.27474 208.759125 
z
" style="stroke:#000000;stroke-width:0.886227;"/>
    <path clip-path="url(#p15f432e5a8)" d="M 394.355705 258.948206 
C 394.825765 258.948206 395.276636 258.761449 395.609019 258.429067 
C 395.941402 258.096684 396.128159 257.645813 396.128159 257.175752 
C 396.128159 256.705692 395.941402 256.254821 395.609019 255.922438 
C 395.276636 255.590055 394.825765 255.403299 394.355705 255.403299 
C 393.885644 255.403299 393.434773 255.590055 393.102391 255.922438 
C 392.770008 256.254821 392.583251 256.705692 392.583251 257.175752 
C 392.583251 257.645813 392.770008 258.096684 393.102391 258.429067 
C 393.434773 258.761449 393.885644 258.948206 394.355705 258.948206 
z
" style="stroke:#000000;stroke-width:0.886227;"/>
    <path clip-path="url(#p15f432e5a8)" d="M 70.356064 202.48549 
C 70.826124 202.48549 71.276996 202.298733 71.609378 201.96635 
C 71.941761 201.633967 72.128518 201.183096 72.128518 200.713036 
C 72.128518 200.242976 71.941761 199.792105 71.609378 199.459722 
C 71.276996 199.127339 70.826124 198.940582 70.356064 198.940582 
C 69.886004 198.940582 69.435133 199.127339 69.10275 199.459722 
C 68.770367 199.792105 68.58361 200.242976 68.58361 200.713036 
C 68.58361 201.183096 68.770367 201.633967 69.10275 201.96635 
C 69.435133 202.298733 69.886004 202.48549 70.356064 202.48549 
z
" style="stroke:#000000;stroke-width:0.886227;"/>
    <path clip-path="url(#p15f432e5a8)" d="M 257.166668 205.622307 
C 257.636728 205.622307 258.087599 205.43555 258.419982 205.103168 
C 258.752365 204.770785 258.939122 204.319914 258.939122 203.849853 
C 258.939122 203.379793 258.752365 202.928922 258.419982 202.596539 
C 258.087599 202.264157 257.636728 202.0774 257.166668 202.0774 
C 256.696607 202.0774 256.245736 202.264157 255.913354 202.596539 
C 255.580971 202.928922 255.394214 203.379793 255.394214 203.849853 
C 255.394214 204.319914 255.580971 204.770785 255.913354 205.103168 
C 256.245736 205.43555 256.696607 205.622307 257.166668 205.622307 
z
" style="stroke:#000000;stroke-width:0.886227;"/>
    <path clip-path="url(#p15f432e5a8)" d="M 373.923295 241.172907 
C 374.393355 241.172907 374.844226 240.98615 375.176609 240.653767 
C 375.508992 240.321384 375.695749 239.870513 375.695749 239.400453 
C 375.695749 238.930392 375.508992 238.479521 375.176609 238.147139 
C 374.844226 237.814756 374.393355 237.627999 373.923295 237.627999 
C 373.453235 237.627999 373.002364 237.814756 372.669981 238.147139 
C 372.337598 238.479521 372.150841 238.930392 372.150841 239.400453 
C 372.150841 239.870513 372.337598 240.321384 372.669981 240.653767 
C 373.002364 240.98615 373.453235 241.172907 373.923295 241.172907 
z
" style="stroke:#000000;stroke-width:0.886227;"/>
    <path clip-path="url(#p15f432e5a8)" d="M 344.734138 248.492148 
C 345.204198 248.492148 345.655069 248.305391 345.987452 247.973008 
C 346.319835 247.640625 346.506592 247.189754 346.506592 246.719694 
C 346.506592 246.249634 346.319835 245.798762 345.987452 245.46638 
C 345.655069 245.133997 345.204198 244.94724 344.734138 244.94724 
C 344.264078 244.94724 343.813207 245.133997 343.480824 245.46638 
C 343.148441 245.798762 342.961684 246.249634 342.961684 246.719694 
C 342.961684 247.189754 343.148441 247.640625 343.480824 247.973008 
C 343.813207 248.305391 344.264078 248.492148 344.734138 248.492148 
z
" style="stroke:#000000;stroke-width:0.886227;"/>
    <path clip-path="url(#p15f432e5a8)" d="M 172.518113 212.941548 
C 172.988173 212.941548 173.439044 212.754791 173.771427 212.422409 
C 174.10381 212.090026 174.290567 211.639155 174.290567 211.169094 
C 174.290567 210.699034 174.10381 210.248163 173.771427 209.91578 
C 173.439044 209.583398 172.988173 209.396641 172.518113 209.396641 
C 172.048053 209.396641 171.597182 209.583398 171.264799 209.91578 
C 170.932416 210.248163 170.745659 210.699034 170.745659 211.169094 
C 170.745659 211.639155 170.932416 212.090026 171.264799 212.422409 
C 171.597182 212.754791 172.048053 212.941548 172.518113 212.941548 
z
" style="stroke:#000000;stroke-width:0.886227;"/>
    <path clip-path="url(#p15f432e5a8)" d="M 388.517873 265.221841 
C 388.987934 265.221841 389.438805 265.035084 389.771187 264.702702 
C 390.10357 264.370319 390.290327 263.919448 390.290327 263.449388 
C 390.290327 262.979327 390.10357 262.528456 389.771187 262.196073 
C 389.438805 261.863691 388.987934 261.676934 388.517873 261.676934 
C 388.047813 261.676934 387.596942 261.863691 387.264559 262.196073 
C 386.932176 262.528456 386.745419 262.979327 386.745419 263.449388 
C 386.745419 263.919448 386.932176 264.370319 387.264559 264.702702 
C 387.596942 265.035084 388.047813 265.221841 388.517873 265.221841 
z
" style="stroke:#000000;stroke-width:0.886227;"/>
    <path clip-path="url(#p15f432e5a8)" d="M 274.680162 235.944877 
C 275.150222 235.944877 275.601093 235.75812 275.933476 235.425738 
C 276.265859 235.093355 276.452616 234.642484 276.452616 234.172423 
C 276.452616 233.702363 276.265859 233.251492 275.933476 232.919109 
C 275.601093 232.586727 275.150222 232.39997 274.680162 232.39997 
C 274.210102 232.39997 273.75923 232.586727 273.426848 232.919109 
C 273.094465 233.251492 272.907708 233.702363 272.907708 234.172423 
C 272.907708 234.642484 273.094465 235.093355 273.426848 235.425738 
C 273.75923 235.75812 274.210102 235.944877 274.680162 235.944877 
z
" style="stroke:#000000;stroke-width:0.886227;"/>
    <path clip-path="url(#p15f432e5a8)" d="M 140.410041 170.071708 
C 140.880101 170.071708 141.330972 169.884951 141.663355 169.552568 
C 141.995737 169.220186 142.182494 168.769314 142.182494 168.299254 
C 142.182494 167.829194 141.995737 167.378323 141.663355 167.04594 
C 141.330972 166.713557 140.880101 166.5268 140.410041 166.5268 
C 139.93998 166.5268 139.489109 166.713557 139.156726 167.04594 
C 138.824344 167.378323 138.637587 167.829194 138.637587 168.299254 
C 138.637587 168.769314 138.824344 169.220186 139.156726 169.552568 
C 139.489109 169.884951 139.93998 170.071708 140.410041 170.071708 
z
" style="stroke:#000000;stroke-width:0.886227;"/>
    <path clip-path="url(#p15f432e5a8)" d="M 195.869438 232.80806 
C 196.339499 232.80806 196.79037 232.621303 197.122753 232.28892 
C 197.455135 231.956537 197.641892 231.505666 197.641892 231.035606 
C 197.641892 230.565546 197.455135 230.114675 197.122753 229.782292 
C 196.79037 229.449909 196.339499 229.263152 195.869438 229.263152 
C 195.399378 229.263152 194.948507 229.449909 194.616124 229.782292 
C 194.283741 230.114675 194.096985 230.565546 194.096985 231.035606 
C 194.096985 231.505666 194.283741 231.956537 194.616124 232.28892 
C 194.948507 232.621303 195.399378 232.80806 195.869438 232.80806 
z
" style="stroke:#000000;stroke-width:0.886227;"/>
    <path clip-path="url(#p15f432e5a8)" d="M 184.193776 218.169578 
C 184.663836 218.169578 185.114707 217.982821 185.44709 217.650438 
C 185.779473 217.318055 185.96623 216.867184 185.96623 216.397124 
C 185.96623 215.927064 185.779473 215.476192 185.44709 215.14381 
C 185.114707 214.811427 184.663836 214.62467 184.193776 214.62467 
C 183.723715 214.62467 183.272844 214.811427 182.940462 215.14381 
C 182.608079 215.476192 182.421322 215.927064 182.421322 216.397124 
C 182.421322 216.867184 182.608079 217.318055 182.940462 217.650438 
C 183.272844 217.982821 183.723715 218.169578 184.193776 218.169578 
z
" style="stroke:#000000;stroke-width:0.886227;"/>
    <path clip-path="url(#p15f432e5a8)" d="M 353.490885 253.720177 
C 353.960945 253.720177 354.411816 253.53342 354.744199 253.201037 
C 355.076582 252.868654 355.263339 252.417783 355.263339 251.947723 
C 355.263339 251.477663 355.076582 251.026792 354.744199 250.694409 
C 354.411816 250.362026 353.960945 250.175269 353.490885 250.175269 
C 353.020825 250.175269 352.569954 250.362026 352.237571 250.694409 
C 351.905188 251.026792 351.718431 251.477663 351.718431 251.947723 
C 351.718431 252.417783 351.905188 252.868654 352.237571 253.201037 
C 352.569954 253.53342 353.020825 253.720177 353.490885 253.720177 
z
" style="stroke:#000000;stroke-width:0.886227;"/>
    <path clip-path="url(#p15f432e5a8)" d="M 280.517993 222.352001 
C 280.988053 222.352001 281.438924 222.165244 281.771307 221.832861 
C 282.10369 221.500479 282.290447 221.049608 282.290447 220.579547 
C 282.290447 220.109487 282.10369 219.658616 281.771307 219.326233 
C 281.438924 218.99385 280.988053 218.807093 280.517993 218.807093 
C 280.047933 218.807093 279.597062 218.99385 279.264679 219.326233 
C 278.932296 219.658616 278.745539 220.109487 278.745539 220.579547 
C 278.745539 221.049608 278.932296 221.500479 279.264679 221.832861 
C 279.597062 222.165244 280.047933 222.352001 280.517993 222.352001 
z
" style="stroke:#000000;stroke-width:0.886227;"/>
    <path clip-path="url(#p15f432e5a8)" d="M 222.13968 206.667913 
C 222.60974 206.667913 223.060611 206.481156 223.392994 206.148773 
C 223.725376 205.816391 223.912133 205.36552 223.912133 204.895459 
C 223.912133 204.425399 223.725376 203.974528 223.392994 203.642145 
C 223.060611 203.309762 222.60974 203.123005 222.13968 203.123005 
C 221.669619 203.123005 221.218748 203.309762 220.886365 203.642145 
C 220.553983 203.974528 220.367226 204.425399 220.367226 204.895459 
C 220.367226 205.36552 220.553983 205.816391 220.886365 206.148773 
C 221.218748 206.481156 221.669619 206.667913 222.13968 206.667913 
z
" style="stroke:#000000;stroke-width:0.886227;"/>
    <path clip-path="url(#p15f432e5a8)" d="M 324.301728 250.583359 
C 324.771789 250.583359 325.22266 250.396602 325.555042 250.06422 
C 325.887425 249.731837 326.074182 249.280966 326.074182 248.810905 
C 326.074182 248.340845 325.887425 247.889974 325.555042 247.557591 
C 325.22266 247.225209 324.771789 247.038452 324.301728 247.038452 
C 323.831668 247.038452 323.380797 247.225209 323.048414 247.557591 
C 322.716031 247.889974 322.529274 248.340845 322.529274 248.810905 
C 322.529274 249.280966 322.716031 249.731837 323.048414 250.06422 
C 323.380797 250.396602 323.831668 250.583359 324.301728 250.583359 
z
" style="stroke:#000000;stroke-width:0.886227;"/>
    <path clip-path="url(#p15f432e5a8)" d="M 289.27474 218.169578 
C 289.7448 218.169578 290.195672 217.982821 290.528054 217.650438 
C 290.860437 217.318055 291.047194 216.867184 291.047194 216.397124 
C 291.047194 215.927064 290.860437 215.476192 290.528054 215.14381 
C 290.195672 214.811427 289.7448 214.62467 289.27474 214.62467 
C 288.80468 214.62467 288.353809 214.811427 288.021426 215.14381 
C 287.689043 215.476192 287.502286 215.927064 287.502286 216.397124 
C 287.502286 216.867184 287.689043 217.318055 288.021426 217.650438 
C 288.353809 217.982821 288.80468 218.169578 289.27474 218.169578 
z
" style="stroke:#000000;stroke-width:0.886227;"/>
    <path clip-path="url(#p15f432e5a8)" d="M 195.869438 243.264118 
C 196.339499 243.264118 196.79037 243.077361 197.122753 242.744979 
C 197.455135 242.412596 197.641892 241.961725 197.641892 241.491664 
C 197.641892 241.021604 197.455135 240.570733 197.122753 240.23835 
C 196.79037 239.905968 196.339499 239.719211 195.869438 239.719211 
C 195.399378 239.719211 194.948507 239.905968 194.616124 240.23835 
C 194.283741 240.570733 194.096985 241.021604 194.096985 241.491664 
C 194.096985 241.961725 194.283741 242.412596 194.616124 242.744979 
C 194.948507 243.077361 195.399378 243.264118 195.869438 243.264118 
z
" style="stroke:#000000;stroke-width:0.886227;"/>
    <path clip-path="url(#p15f432e5a8)" d="M 163.761366 204.576701 
C 164.231426 204.576701 164.682297 204.389945 165.01468 204.057562 
C 165.347063 203.725179 165.53382 203.274308 165.53382 202.804248 
C 165.53382 202.334187 165.347063 201.883316 165.01468 201.550933 
C 164.682297 201.218551 164.231426 201.031794 163.761366 201.031794 
C 163.291306 201.031794 162.840435 201.218551 162.508052 201.550933 
C 162.175669 201.883316 161.988912 202.334187 161.988912 202.804248 
C 161.988912 203.274308 162.175669 203.725179 162.508052 204.057562 
C 162.840435 204.389945 163.291306 204.576701 163.761366 204.576701 
z
" style="stroke:#000000;stroke-width:0.886227;"/>
    <path clip-path="url(#p15f432e5a8)" d="M 347.653054 236.990483 
C 348.123114 236.990483 348.573985 236.803726 348.906368 236.471343 
C 349.238751 236.138961 349.425508 235.68809 349.425508 235.218029 
C 349.425508 234.747969 349.238751 234.297098 348.906368 233.964715 
C 348.573985 233.632332 348.123114 233.445575 347.653054 233.445575 
C 347.182994 233.445575 346.732122 233.632332 346.39974 233.964715 
C 346.067357 234.297098 345.8806 234.747969 345.8806 235.218029 
C 345.8806 235.68809 346.067357 236.138961 346.39974 236.471343 
C 346.732122 236.803726 347.182994 236.990483 347.653054 236.990483 
z
" style="stroke:#000000;stroke-width:0.886227;"/>
    <path clip-path="url(#p15f432e5a8)" d="M 149.166788 197.25746 
C 149.636848 197.25746 150.087719 197.070704 150.420102 196.738321 
C 150.752484 196.405938 150.939241 195.955067 150.939241 195.485007 
C 150.939241 195.014946 150.752484 194.564075 150.420102 194.231692 
C 150.087719 193.89931 149.636848 193.712553 149.166788 193.712553 
C 148.696727 193.712553 148.245856 193.89931 147.913473 194.231692 
C 147.581091 194.564075 147.394334 195.014946 147.394334 195.485007 
C 147.394334 195.955067 147.581091 196.405938 147.913473 196.738321 
C 148.245856 197.070704 148.696727 197.25746 149.166788 197.25746 
z
" style="stroke:#000000;stroke-width:0.886227;"/>
    <path clip-path="url(#p15f432e5a8)" d="M 55.761486 218.169578 
C 56.231546 218.169578 56.682417 217.982821 57.0148 217.650438 
C 57.347183 217.318055 57.53394 216.867184 57.53394 216.397124 
C 57.53394 215.927064 57.347183 215.476192 57.0148 215.14381 
C 56.682417 214.811427 56.231546 214.62467 55.761486 214.62467 
C 55.291426 214.62467 54.840554 214.811427 54.508172 215.14381 
C 54.175789 215.476192 53.989032 215.927064 53.989032 216.397124 
C 53.989032 216.867184 54.175789 217.318055 54.508172 217.650438 
C 54.840554 217.982821 55.291426 218.169578 55.761486 218.169578 
z
" style="stroke:#000000;stroke-width:0.886227;"/>
    <path clip-path="url(#p15f432e5a8)" d="M 362.247632 259.993812 
C 362.717692 259.993812 363.168564 259.807055 363.500946 259.474672 
C 363.833329 259.14229 364.020086 258.691419 364.020086 258.221358 
C 364.020086 257.751298 363.833329 257.300427 363.500946 256.968044 
C 363.168564 256.635661 362.717692 256.448904 362.247632 256.448904 
C 361.777572 256.448904 361.326701 256.635661 360.994318 256.968044 
C 360.661935 257.300427 360.475178 257.751298 360.475178 258.221358 
C 360.475178 258.691419 360.661935 259.14229 360.994318 259.474672 
C 361.326701 259.807055 361.777572 259.993812 362.247632 259.993812 
z
" style="stroke:#000000;stroke-width:0.886227;"/>
    <path clip-path="url(#p15f432e5a8)" d="M 379.761126 261.039418 
C 380.231187 261.039418 380.682058 260.852661 381.01444 260.520278 
C 381.346823 260.187895 381.53358 259.737024 381.53358 259.266964 
C 381.53358 258.796904 381.346823 258.346033 381.01444 258.01365 
C 380.682058 257.681267 380.231187 257.49451 379.761126 257.49451 
C 379.291066 257.49451 378.840195 257.681267 378.507812 258.01365 
C 378.175429 258.346033 377.988672 258.796904 377.988672 259.266964 
C 377.988672 259.737024 378.175429 260.187895 378.507812 260.520278 
C 378.840195 260.852661 379.291066 261.039418 379.761126 261.039418 
z
" style="stroke:#000000;stroke-width:0.886227;"/>
    <path clip-path="url(#p15f432e5a8)" d="M 251.328836 225.488819 
C 251.798897 225.488819 252.249768 225.302062 252.58215 224.969679 
C 252.914533 224.637296 253.10129 224.186425 253.10129 223.716365 
C 253.10129 223.246305 252.914533 222.795433 252.58215 222.463051 
C 252.249768 222.130668 251.798897 221.943911 251.328836 221.943911 
C 250.858776 221.943911 250.407905 222.130668 250.075522 222.463051 
C 249.743139 222.795433 249.556382 223.246305 249.556382 223.716365 
C 249.556382 224.186425 249.743139 224.637296 250.075522 224.969679 
C 250.407905 225.302062 250.858776 225.488819 251.328836 225.488819 
z
" style="stroke:#000000;stroke-width:0.886227;"/>
    <path clip-path="url(#p15f432e5a8)" d="M 341.815222 245.35533 
C 342.285283 245.35533 342.736154 245.168573 343.068537 244.83619 
C 343.400919 244.503808 343.587676 244.052936 343.587676 243.582876 
C 343.587676 243.112816 343.400919 242.661945 343.068537 242.329562 
C 342.736154 241.997179 342.285283 241.810422 341.815222 241.810422 
C 341.345162 241.810422 340.894291 241.997179 340.561908 242.329562 
C 340.229525 242.661945 340.042769 243.112816 340.042769 243.582876 
C 340.042769 244.052936 340.229525 244.503808 340.561908 244.83619 
C 340.894291 245.168573 341.345162 245.35533 341.815222 245.35533 
z
" style="stroke:#000000;stroke-width:0.886227;"/>
    <path clip-path="url(#p15f432e5a8)" d="M 140.410041 223.397607 
C 140.880101 223.397607 141.330972 223.21085 141.663355 222.878467 
C 141.995737 222.546084 142.182494 222.095213 142.182494 221.625153 
C 142.182494 221.155093 141.995737 220.704222 141.663355 220.371839 
C 141.330972 220.039456 140.880101 219.852699 140.410041 219.852699 
C 139.93998 219.852699 139.489109 220.039456 139.156726 220.371839 
C 138.824344 220.704222 138.637587 221.155093 138.637587 221.625153 
C 138.637587 222.095213 138.824344 222.546084 139.156726 222.878467 
C 139.489109 223.21085 139.93998 223.397607 140.410041 223.397607 
z
" style="stroke:#000000;stroke-width:0.886227;"/>
    <path clip-path="url(#p15f432e5a8)" d="M 344.734138 247.446542 
C 345.204198 247.446542 345.655069 247.259785 345.987452 246.927402 
C 346.319835 246.595019 346.506592 246.144148 346.506592 245.674088 
C 346.506592 245.204028 346.319835 244.753157 345.987452 244.420774 
C 345.655069 244.088391 345.204198 243.901634 344.734138 243.901634 
C 344.264078 243.901634 343.813207 244.088391 343.480824 244.420774 
C 343.148441 244.753157 342.961684 245.204028 342.961684 245.674088 
C 342.961684 246.144148 343.148441 246.595019 343.480824 246.927402 
C 343.813207 247.259785 344.264078 247.446542 344.734138 247.446542 
z
" style="stroke:#000000;stroke-width:0.886227;"/>
    <path clip-path="url(#p15f432e5a8)" d="M 403.112452 253.720177 
C 403.582512 253.720177 404.033383 253.53342 404.365766 253.201037 
C 404.698149 252.868654 404.884906 252.417783 404.884906 251.947723 
C 404.884906 251.477663 404.698149 251.026792 404.365766 250.694409 
C 404.033383 250.362026 403.582512 250.175269 403.112452 250.175269 
C 402.642391 250.175269 402.19152 250.362026 401.859138 250.694409 
C 401.526755 251.026792 401.339998 251.477663 401.339998 251.947723 
C 401.339998 252.417783 401.526755 252.868654 401.859138 253.201037 
C 402.19152 253.53342 402.642391 253.720177 403.112452 253.720177 
z
" style="stroke:#000000;stroke-width:0.886227;"/>
   </g>
   <g id="PolyCollection_1">
    <path clip-path="url(#p15f432e5a8)" d="M 55.761486 163.264842 
L 55.761486 207.845662 
L 60.158333 208.233774 
L 64.555181 208.623551 
L 68.952029 209.015084 
L 73.348876 209.408471 
L 77.745724 209.803817 
L 82.142572 210.201236 
L 86.539419 210.600847 
L 90.936267 211.002782 
L 95.333115 211.407179 
L 99.729962 211.814187 
L 104.12681 212.223968 
L 108.523658 212.636695 
L 112.920506 213.052553 
L 117.317353 213.471744 
L 121.714201 213.894481 
L 126.111049 214.320999 
L 130.507896 214.751546 
L 134.904744 215.186393 
L 139.301592 215.625829 
L 143.698439 216.070167 
L 148.095287 216.519744 
L 152.492135 216.97492 
L 156.888982 217.436086 
L 161.28583 217.903658 
L 165.682678 218.378084 
L 170.079525 218.859843 
L 174.476373 219.349446 
L 178.873221 219.847438 
L 183.270068 220.354395 
L 187.666916 220.87093 
L 192.063764 221.397686 
L 196.460611 221.935335 
L 200.857459 222.484579 
L 205.254307 223.046142 
L 209.651154 223.620766 
L 214.048002 224.209202 
L 218.44485 224.812205 
L 222.841697 225.43052 
L 227.238545 226.064874 
L 231.635393 226.715959 
L 236.03224 227.384421 
L 240.429088 228.070845 
L 244.825936 228.775741 
L 249.222783 229.49953 
L 253.619631 230.242535 
L 258.016479 231.004968 
L 262.413326 231.786927 
L 266.810174 232.588391 
L 271.207022 233.409222 
L 275.603869 234.24917 
L 280.000717 235.107877 
L 284.397565 235.984888 
L 288.794412 236.879668 
L 293.19126 237.791608 
L 297.588108 238.720044 
L 301.984955 239.664271 
L 306.381803 240.623555 
L 310.778651 241.597146 
L 315.175498 242.584289 
L 319.572346 243.584235 
L 323.969194 244.596247 
L 328.366041 245.61961 
L 332.762889 246.653631 
L 337.159737 247.697646 
L 341.556584 248.751025 
L 345.953432 249.813166 
L 350.35028 250.883505 
L 354.747127 251.961507 
L 359.143975 253.046672 
L 363.540823 254.138534 
L 367.93767 255.236655 
L 372.334518 256.340628 
L 376.731366 257.450073 
L 381.128213 258.564637 
L 385.525061 259.683993 
L 389.921909 260.807835 
L 394.318756 261.935882 
L 398.715604 263.06787 
L 403.112452 264.203556 
L 403.112452 229.923655 
L 403.112452 229.923655 
L 398.715604 229.502168 
L 394.318756 229.076982 
L 389.921909 228.647855 
L 385.525061 228.214525 
L 381.128213 227.776707 
L 376.731366 227.334098 
L 372.334518 226.886369 
L 367.93767 226.433168 
L 363.540823 225.974115 
L 359.143975 225.508804 
L 354.747127 225.036796 
L 350.35028 224.557624 
L 345.953432 224.070789 
L 341.556584 223.575757 
L 337.159737 223.071962 
L 332.762889 222.558804 
L 328.366041 222.035652 
L 323.969194 221.501841 
L 319.572346 220.95668 
L 315.175498 220.399452 
L 310.778651 219.829422 
L 306.381803 219.245839 
L 301.984955 218.647949 
L 297.588108 218.035003 
L 293.19126 217.406266 
L 288.794412 216.761032 
L 284.397565 216.098638 
L 280.000717 215.418476 
L 275.603869 214.720009 
L 271.207022 214.002783 
L 266.810174 213.266441 
L 262.413326 212.510732 
L 258.016479 211.735517 
L 253.619631 210.940777 
L 249.222783 210.126608 
L 244.825936 209.293224 
L 240.429088 208.440946 
L 236.03224 207.570197 
L 231.635393 206.681485 
L 227.238545 205.775396 
L 222.841697 204.852577 
L 218.44485 203.913719 
L 214.048002 202.959548 
L 209.651154 201.990811 
L 205.254307 201.008261 
L 200.857459 200.01265 
L 196.460611 199.004721 
L 192.063764 197.985197 
L 187.666916 196.954779 
L 183.270068 195.91414 
L 178.873221 194.863924 
L 174.476373 193.804742 
L 170.079525 192.737172 
L 165.682678 191.661757 
L 161.28583 190.579009 
L 156.888982 189.489408 
L 152.492135 188.3934 
L 148.095287 187.291403 
L 143.698439 186.183806 
L 139.301592 185.070971 
L 134.904744 183.953234 
L 130.507896 182.830907 
L 126.111049 181.704281 
L 121.714201 180.573625 
L 117.317353 179.439189 
L 112.920506 178.301206 
L 108.523658 177.15989 
L 104.12681 176.015444 
L 99.729962 174.868051 
L 95.333115 173.717886 
L 90.936267 172.56511 
L 86.539419 171.409871 
L 82.142572 170.252309 
L 77.745724 169.092554 
L 73.348876 167.930727 
L 68.952029 166.76694 
L 64.555181 165.601299 
L 60.158333 164.433903 
L 55.761486 163.264842 
z
" style="fill:#999999;fill-opacity:0.4;"/>
   </g>
   <g id="line2d_33">
    <path clip-path="url(#p15f432e5a8)" d="M 55.761486 185.555252 
L 60.158333 186.333838 
L 64.555181 187.112425 
L 68.952029 187.891012 
L 73.348876 188.669599 
L 77.745724 189.448186 
L 82.142572 190.226772 
L 86.539419 191.005359 
L 90.936267 191.783946 
L 95.333115 192.562533 
L 99.729962 193.341119 
L 104.12681 194.119706 
L 108.523658 194.898293 
L 112.920506 195.67688 
L 117.317353 196.455466 
L 121.714201 197.234053 
L 126.111049 198.01264 
L 130.507896 198.791227 
L 134.904744 199.569813 
L 139.301592 200.3484 
L 143.698439 201.126987 
L 148.095287 201.905574 
L 152.492135 202.68416 
L 156.888982 203.462747 
L 161.28583 204.241334 
L 165.682678 205.019921 
L 170.079525 205.798507 
L 174.476373 206.577094 
L 178.873221 207.355681 
L 183.270068 208.134268 
L 187.666916 208.912854 
L 192.063764 209.691441 
L 196.460611 210.470028 
L 200.857459 211.248615 
L 205.254307 212.027201 
L 209.651154 212.805788 
L 214.048002 213.584375 
L 218.44485 214.362962 
L 222.841697 215.141549 
L 227.238545 215.920135 
L 231.635393 216.698722 
L 236.03224 217.477309 
L 240.429088 218.255896 
L 244.825936 219.034482 
L 249.222783 219.813069 
L 253.619631 220.591656 
L 258.016479 221.370243 
L 262.413326 222.148829 
L 266.810174 222.927416 
L 271.207022 223.706003 
L 275.603869 224.48459 
L 280.000717 225.263176 
L 284.397565 226.041763 
L 288.794412 226.82035 
L 293.19126 227.598937 
L 297.588108 228.377523 
L 301.984955 229.15611 
L 306.381803 229.934697 
L 310.778651 230.713284 
L 315.175498 231.49187 
L 319.572346 232.270457 
L 323.969194 233.049044 
L 328.366041 233.827631 
L 332.762889 234.606217 
L 337.159737 235.384804 
L 341.556584 236.163391 
L 345.953432 236.941978 
L 350.35028 237.720565 
L 354.747127 238.499151 
L 359.143975 239.277738 
L 363.540823 240.056325 
L 367.93767 240.834912 
L 372.334518 241.613498 
L 376.731366 242.392085 
L 381.128213 243.170672 
L 385.525061 243.949259 
L 389.921909 244.727845 
L 394.318756 245.506432 
L 398.715604 246.285019 
L 403.112452 247.063606 
" style="fill:none;stroke:#000000;stroke-linejoin:miter;stroke-width:1.772454;"/>
   </g>
  </g>
 </g>
 <defs>
  <clipPath id="p15f432e5a8">
   <rect height="268.818367" width="382.086062" x="38.393938" y="7.604205"/>
  </clipPath>
 </defs>
</svg>
