<?xml version="1.0" encoding="utf-8" standalone="no"?>
<!DOCTYPE svg PUBLIC "-//W3C//DTD SVG 1.1//EN"
  "http://www.w3.org/Graphics/SVG/1.1/DTD/svg11.dtd">
<!-- Created with matplotlib (https://matplotlib.org/) -->
<svg height="362.88pt" version="1.1" viewBox="0 0 686.88 362.88" width="686.88pt" xmlns="http://www.w3.org/2000/svg" xmlns:xlink="http://www.w3.org/1999/xlink">
 <metadata>
  <rdf:RDF xmlns:cc="http://creativecommons.org/ns#" xmlns:dc="http://purl.org/dc/elements/1.1/" xmlns:rdf="http://www.w3.org/1999/02/22-rdf-syntax-ns#">
   <cc:Work>
    <dc:type rdf:resource="http://purl.org/dc/dcmitype/StillImage"/>
    <dc:date>2021-01-22T18:13:29.095676</dc:date>
    <dc:format>image/svg+xml</dc:format>
    <dc:creator>
     <cc:Agent>
      <dc:title>Matplotlib v3.3.3, https://matplotlib.org/</dc:title>
     </cc:Agent>
    </dc:creator>
   </cc:Work>
  </rdf:RDF>
 </metadata>
 <defs>
  <style type="text/css">*{stroke-linecap:butt;stroke-linejoin:round;}</style>
 </defs>
 <g id="figure_1">
  <g id="patch_1">
   <path d="M 0 362.88 
L 686.88 362.88 
L 686.88 0 
L 0 0 
z
" style="fill:none;"/>
  </g>
  <g id="axes_1">
   <g id="patch_2">
    <path d="M 61.2 308.68 
L 674.68 308.68 
L 674.68 14.029687 
L 61.2 14.029687 
z
" style="fill:#ffffff;"/>
   </g>
   <g id="matplotlib.axis_1">
    <g id="xtick_1">
     <g id="line2d_1">
      <defs>
       <path d="M 0 0 
L 0 3.5 
" id="m877472598c" style="stroke:#000000;stroke-width:0.8;"/>
      </defs>
      <g>
       <use style="stroke:#000000;stroke-width:0.8;" x="61.2" xlink:href="#m877472598c" y="308.68"/>
      </g>
     </g>
     <g id="text_1">
      <!-- 0 -->
      <g transform="translate(56.2 329.339375)scale(0.2 -0.2)">
       <defs>
        <path d="M 47.59375 33 
Q 47.59375 26.296875 46.296875 20.34375 
Q 45 14.40625 42.453125 9.40625 
Q 39.90625 4.40625 35.40625 1.5 
Q 30.90625 -1.40625 25 -1.40625 
Q 18.90625 -1.40625 14.296875 1.6875 
Q 9.703125 4.796875 7.203125 10 
Q 4.703125 15.203125 3.546875 21.09375 
Q 2.40625 27 2.40625 33.59375 
Q 2.40625 42.90625 4.703125 50.34375 
Q 7 57.796875 12.34375 62.6875 
Q 17.703125 67.59375 25.40625 67.59375 
Q 35.203125 67.59375 41.390625 58 
Q 47.59375 48.40625 47.59375 33 
z
M 38 32.5 
Q 38 48.296875 34.640625 56.640625 
Q 31.296875 65 24.796875 65 
Q 18.59375 65 15.296875 56.59375 
Q 12 48.203125 12 32.90625 
Q 12 17.5 15.296875 9.34375 
Q 18.59375 1.203125 25 1.203125 
Q 31.296875 1.203125 34.640625 9.34375 
Q 38 17.5 38 32.5 
z
" id="STIXGeneral-Regular-48"/>
       </defs>
       <use xlink:href="#STIXGeneral-Regular-48"/>
      </g>
     </g>
    </g>
    <g id="xtick_2">
     <g id="line2d_2">
      <g>
       <use style="stroke:#000000;stroke-width:0.8;" x="163.446667" xlink:href="#m877472598c" y="308.68"/>
      </g>
     </g>
     <g id="text_2">
      <!-- 1 -->
      <g transform="translate(158.446667 329.339375)scale(0.2 -0.2)">
       <defs>
        <path d="M 39.40625 0 
L 11.796875 0 
L 11.796875 1.5 
Q 17.296875 1.796875 19.296875 3.546875 
Q 21.296875 5.296875 21.296875 9.5 
L 21.296875 54.40625 
Q 21.296875 59.296875 18.296875 59.296875 
Q 16.90625 59.296875 13.796875 58.09375 
L 11.09375 57.09375 
L 11.09375 58.5 
L 29 67.59375 
L 29.90625 67.296875 
L 29.90625 7.59375 
Q 29.90625 4.296875 31.90625 2.890625 
Q 33.90625 1.5 39.40625 1.5 
z
" id="STIXGeneral-Regular-49"/>
       </defs>
       <use xlink:href="#STIXGeneral-Regular-49"/>
      </g>
     </g>
    </g>
    <g id="xtick_3">
     <g id="line2d_3">
      <g>
       <use style="stroke:#000000;stroke-width:0.8;" x="265.693333" xlink:href="#m877472598c" y="308.68"/>
      </g>
     </g>
     <g id="text_3">
      <!-- 2 -->
      <g transform="translate(260.693333 329.339375)scale(0.2 -0.2)">
       <defs>
        <path d="M 47.40625 13.703125 
L 42 0 
L 2.90625 0 
L 2.90625 1.203125 
L 20.703125 20.09375 
Q 27.703125 27.40625 30.703125 33.5 
Q 33.703125 39.59375 33.703125 46.09375 
Q 33.703125 52.796875 30 56.5 
Q 26.296875 60.203125 19.796875 60.203125 
Q 14.40625 60.203125 11.25 57.390625 
Q 8.09375 54.59375 5.09375 47.203125 
L 3 47.703125 
Q 4.703125 57 9.84375 62.296875 
Q 15 67.59375 23.796875 67.59375 
Q 32.09375 67.59375 37.1875 62.59375 
Q 42.296875 57.59375 42.296875 50 
Q 42.296875 38.703125 29.5 25.203125 
L 13 7.59375 
L 36.40625 7.59375 
Q 39.703125 7.59375 41.640625 8.890625 
Q 43.59375 10.203125 46 14.296875 
z
" id="STIXGeneral-Regular-50"/>
       </defs>
       <use xlink:href="#STIXGeneral-Regular-50"/>
      </g>
     </g>
    </g>
    <g id="xtick_4">
     <g id="line2d_4">
      <g>
       <use style="stroke:#000000;stroke-width:0.8;" x="367.94" xlink:href="#m877472598c" y="308.68"/>
      </g>
     </g>
     <g id="text_4">
      <!-- 3 -->
      <g transform="translate(362.94 329.339375)scale(0.2 -0.2)">
       <defs>
        <path d="M 6.09375 51 
L 4.5 51.40625 
Q 6.796875 58.90625 11.6875 63.25 
Q 16.59375 67.59375 24.09375 67.59375 
Q 31.09375 67.59375 35.390625 63.796875 
Q 39.703125 60 39.703125 53.90625 
Q 39.703125 45.703125 30.40625 40.09375 
Q 35.90625 37.703125 38.703125 34.796875 
Q 43.09375 29.90625 43.09375 21.90625 
Q 43.09375 13.90625 38.5 7.90625 
Q 35.09375 3.296875 28.75 0.9375 
Q 22.40625 -1.40625 15.296875 -1.40625 
Q 4.09375 -1.40625 4.09375 4.296875 
Q 4.09375 5.90625 5.296875 6.90625 
Q 6.5 7.90625 8.203125 7.90625 
Q 10.703125 7.90625 14.296875 5.296875 
Q 18.703125 2.203125 22.90625 2.203125 
Q 28.40625 2.203125 32.15625 6.640625 
Q 35.90625 11.09375 35.90625 17.5 
Q 35.90625 29 25.5 32 
Q 22.40625 33 15.296875 33 
L 15.296875 34.40625 
Q 20.90625 36.296875 23.703125 38 
Q 31.796875 42.59375 31.796875 51.40625 
Q 31.796875 56.40625 28.9375 59 
Q 26.09375 61.59375 21 61.59375 
Q 12 61.59375 6.09375 51 
z
" id="STIXGeneral-Regular-51"/>
       </defs>
       <use xlink:href="#STIXGeneral-Regular-51"/>
      </g>
     </g>
    </g>
    <g id="xtick_5">
     <g id="line2d_5">
      <g>
       <use style="stroke:#000000;stroke-width:0.8;" x="470.186667" xlink:href="#m877472598c" y="308.68"/>
      </g>
     </g>
     <g id="text_5">
      <!-- 4 -->
      <g transform="translate(465.186667 329.339375)scale(0.2 -0.2)">
       <defs>
        <path d="M 47.296875 16.703125 
L 37 16.703125 
L 37 0 
L 29.203125 0 
L 29.203125 16.703125 
L 1.203125 16.703125 
L 1.203125 23.09375 
L 32.59375 67.59375 
L 37 67.59375 
L 37 23.09375 
L 47.296875 23.09375 
z
M 29.203125 23.09375 
L 29.203125 57.40625 
L 5.203125 23.09375 
z
" id="STIXGeneral-Regular-52"/>
       </defs>
       <use xlink:href="#STIXGeneral-Regular-52"/>
      </g>
     </g>
    </g>
    <g id="xtick_6">
     <g id="line2d_6">
      <g>
       <use style="stroke:#000000;stroke-width:0.8;" x="572.433333" xlink:href="#m877472598c" y="308.68"/>
      </g>
     </g>
     <g id="text_6">
      <!-- 5 -->
      <g transform="translate(567.433333 329.339375)scale(0.2 -0.2)">
       <defs>
        <path d="M 43.796875 68.09375 
L 40.203125 59.59375 
Q 39.59375 58.296875 37.5 58.296875 
L 18.09375 58.296875 
L 14.09375 49.796875 
Q 25.09375 47.703125 30 45.25 
Q 34.90625 42.796875 39.09375 37 
Q 42.59375 32.203125 42.59375 24.296875 
Q 42.59375 17.09375 40.25 12.1875 
Q 37.90625 7.296875 32.796875 3.5 
Q 26 -1.40625 15.796875 -1.40625 
Q 10.09375 -1.40625 6.59375 0.296875 
Q 3.09375 2 3.09375 4.796875 
Q 3.09375 8.59375 7.59375 8.59375 
Q 11.203125 8.59375 15 5.5 
Q 18.90625 2.296875 22.09375 2.296875 
Q 27.296875 2.296875 31.4375 7.5 
Q 35.59375 12.703125 35.59375 19.203125 
Q 35.59375 28.796875 28.90625 34.203125 
Q 20.203125 41.203125 7.59375 41.203125 
Q 6.40625 41.203125 6.40625 42 
L 6.5 42.5 
L 17.40625 66.203125 
L 38.09375 66.203125 
Q 39.796875 66.203125 40.75 66.703125 
Q 41.703125 67.203125 42.90625 68.796875 
z
" id="STIXGeneral-Regular-53"/>
       </defs>
       <use xlink:href="#STIXGeneral-Regular-53"/>
      </g>
     </g>
    </g>
    <g id="xtick_7">
     <g id="line2d_7">
      <g>
       <use style="stroke:#000000;stroke-width:0.8;" x="674.68" xlink:href="#m877472598c" y="308.68"/>
      </g>
     </g>
     <g id="text_7">
      <!-- 6 -->
      <g transform="translate(669.68 329.339375)scale(0.2 -0.2)">
       <defs>
        <path d="M 44.59375 68.40625 
L 44.796875 66.796875 
Q 33 64.90625 25.09375 57.25 
Q 17.203125 49.59375 15.203125 38.296875 
Q 21 42.796875 27.90625 42.796875 
Q 36.703125 42.796875 41.75 37.1875 
Q 46.796875 31.59375 46.796875 21.90625 
Q 46.796875 12.09375 41.703125 5.90625 
Q 35.796875 -1.40625 25.796875 -1.40625 
Q 13.59375 -1.40625 8.09375 8.703125 
Q 3.40625 17.296875 3.40625 27.90625 
Q 3.40625 44.296875 14.296875 55.5 
Q 20.5 61.90625 27.046875 64.546875 
Q 33.59375 67.203125 44.59375 68.40625 
z
M 37.796875 18.796875 
Q 37.796875 38.203125 24.296875 38.203125 
Q 19.296875 38.203125 16 35.546875 
Q 12.703125 32.90625 12.703125 26.59375 
Q 12.703125 14.90625 16.34375 8.15625 
Q 20 1.40625 26.90625 1.40625 
Q 32.203125 1.40625 35 6.15625 
Q 37.796875 10.90625 37.796875 18.796875 
z
" id="STIXGeneral-Regular-54"/>
       </defs>
       <use xlink:href="#STIXGeneral-Regular-54"/>
      </g>
     </g>
    </g>
    <g id="text_8">
     <!-- x -->
     <g transform="translate(362.94 351.339375)scale(0.2 -0.2)">
      <defs>
       <path d="M 47.90625 0 
L 27.796875 0 
L 27.796875 1.5 
Q 30.296875 1.703125 31.046875 2.140625 
Q 31.796875 2.59375 31.796875 3.90625 
Q 31.796875 4.796875 31.203125 5.703125 
L 22.09375 19.703125 
L 14.203125 7.40625 
Q 12.203125 4.296875 12.203125 3.296875 
Q 12.203125 1.5 16.203125 1.5 
L 16.203125 0 
L 1.703125 0 
L 1.703125 1.5 
Q 4.203125 1.703125 5.546875 2.640625 
Q 6.90625 3.59375 9 6.59375 
L 20.40625 23.09375 
L 11 37.5 
Q 8.703125 41 7.09375 42.25 
Q 5.5 43.5 3.296875 43.5 
L 2.40625 43.5 
L 2.40625 45 
L 23.09375 45 
L 23.09375 43.5 
Q 18.796875 43.40625 18.796875 41.296875 
Q 18.796875 39.203125 23.40625 32.40625 
Q 24.703125 30.59375 24.796875 30.40625 
Q 25.296875 31.09375 27.796875 34.796875 
Q 28.296875 35.703125 29 36.703125 
Q 29.703125 37.703125 30.046875 38.296875 
Q 30.40625 38.90625 30.796875 39.5 
Q 31.203125 40.09375 31.34375 40.546875 
Q 31.5 41 31.5 41.296875 
Q 31.5 43.203125 27.5 43.5 
L 27.5 45 
L 43.296875 45 
L 43.296875 43.5 
Q 38.203125 43.296875 35.203125 39.09375 
L 26.90625 27.09375 
L 39.703125 7.5 
Q 43.59375 1.5 47.90625 1.5 
z
" id="STIXGeneral-Regular-120"/>
      </defs>
      <use xlink:href="#STIXGeneral-Regular-120"/>
     </g>
    </g>
   </g>
   <g id="matplotlib.axis_2">
    <g id="ytick_1">
     <g id="line2d_8">
      <defs>
       <path d="M 0 0 
L -3.5 0 
" id="m75d6e4982f" style="stroke:#000000;stroke-width:0.8;"/>
      </defs>
      <g>
       <use style="stroke:#000000;stroke-width:0.8;" x="61.2" xlink:href="#m75d6e4982f" y="308.68"/>
      </g>
     </g>
     <g id="text_9">
      <!-- 0.0 -->
      <g transform="translate(29.2 315.509687)scale(0.2 -0.2)">
       <defs>
        <path d="M 18.09375 4.296875 
Q 18.09375 2.09375 16.4375 0.5 
Q 14.796875 -1.09375 12.5 -1.09375 
Q 10.203125 -1.09375 8.59375 0.5 
Q 7 2.09375 7 4.390625 
Q 7 6.703125 8.640625 8.34375 
Q 10.296875 10 12.59375 10 
Q 14.796875 10 16.4375 8.296875 
Q 18.09375 6.59375 18.09375 4.296875 
z
" id="STIXGeneral-Regular-46"/>
       </defs>
       <use xlink:href="#STIXGeneral-Regular-48"/>
       <use x="49.999985" xlink:href="#STIXGeneral-Regular-46"/>
       <use x="74.999969" xlink:href="#STIXGeneral-Regular-48"/>
      </g>
     </g>
    </g>
    <g id="ytick_2">
     <g id="line2d_9">
      <g>
       <use style="stroke:#000000;stroke-width:0.8;" x="61.2" xlink:href="#m75d6e4982f" y="249.749937"/>
      </g>
     </g>
     <g id="text_10">
      <!-- 0.2 -->
      <g transform="translate(29.2 256.579625)scale(0.2 -0.2)">
       <use xlink:href="#STIXGeneral-Regular-48"/>
       <use x="49.999985" xlink:href="#STIXGeneral-Regular-46"/>
       <use x="74.999969" xlink:href="#STIXGeneral-Regular-50"/>
      </g>
     </g>
    </g>
    <g id="ytick_3">
     <g id="line2d_10">
      <g>
       <use style="stroke:#000000;stroke-width:0.8;" x="61.2" xlink:href="#m75d6e4982f" y="190.819875"/>
      </g>
     </g>
     <g id="text_11">
      <!-- 0.4 -->
      <g transform="translate(29.2 197.649562)scale(0.2 -0.2)">
       <use xlink:href="#STIXGeneral-Regular-48"/>
       <use x="49.999985" xlink:href="#STIXGeneral-Regular-46"/>
       <use x="74.999969" xlink:href="#STIXGeneral-Regular-52"/>
      </g>
     </g>
    </g>
    <g id="ytick_4">
     <g id="line2d_11">
      <g>
       <use style="stroke:#000000;stroke-width:0.8;" x="61.2" xlink:href="#m75d6e4982f" y="131.889812"/>
      </g>
     </g>
     <g id="text_12">
      <!-- 0.6 -->
      <g transform="translate(29.2 138.7195)scale(0.2 -0.2)">
       <use xlink:href="#STIXGeneral-Regular-48"/>
       <use x="49.999985" xlink:href="#STIXGeneral-Regular-46"/>
       <use x="74.999969" xlink:href="#STIXGeneral-Regular-54"/>
      </g>
     </g>
    </g>
    <g id="ytick_5">
     <g id="line2d_12">
      <g>
       <use style="stroke:#000000;stroke-width:0.8;" x="61.2" xlink:href="#m75d6e4982f" y="72.95975"/>
      </g>
     </g>
     <g id="text_13">
      <!-- 0.8 -->
      <g transform="translate(29.2 79.789437)scale(0.2 -0.2)">
       <defs>
        <path d="M 44.5 15.5 
Q 44.5 7.796875 39.140625 3.1875 
Q 33.796875 -1.40625 24.796875 -1.40625 
Q 16.40625 -1.40625 11 3.1875 
Q 5.59375 7.796875 5.59375 14.90625 
Q 5.59375 20.203125 8.1875 23.953125 
Q 10.796875 27.703125 18.59375 33.203125 
Q 11.09375 39.40625 8.640625 43.203125 
Q 6.203125 47 6.203125 52 
Q 6.203125 59.09375 11.640625 63.34375 
Q 17.09375 67.59375 25.59375 67.59375 
Q 32.90625 67.59375 37.65625 63.4375 
Q 42.40625 59.296875 42.40625 53.296875 
Q 42.40625 47.796875 39.546875 44.5 
Q 36.703125 41.203125 29 37.09375 
Q 38 31.09375 41.25 26.390625 
Q 44.5 21.703125 44.5 15.5 
z
M 35.5 53.296875 
Q 35.5 58.5 32.59375 61.640625 
Q 29.703125 64.796875 24.59375 64.796875 
Q 19.5 64.796875 16.546875 62.140625 
Q 13.59375 59.5 13.59375 54.890625 
Q 13.59375 50.296875 16.546875 46.546875 
Q 19.5 42.796875 26.09375 38.90625 
Q 31.203125 41.90625 33.34375 45.25 
Q 35.5 48.59375 35.5 53.296875 
z
M 27.09375 27.203125 
L 21.203125 31.203125 
Q 16.796875 27.59375 15 24.140625 
Q 13.203125 20.703125 13.203125 15.796875 
Q 13.203125 9 16.640625 5.203125 
Q 20.09375 1.40625 25.90625 1.40625 
Q 30.796875 1.40625 33.84375 4.453125 
Q 36.90625 7.5 36.90625 12.40625 
Q 36.90625 16.90625 34.59375 20.296875 
Q 32.296875 23.703125 27.09375 27.203125 
z
" id="STIXGeneral-Regular-56"/>
       </defs>
       <use xlink:href="#STIXGeneral-Regular-48"/>
       <use x="49.999985" xlink:href="#STIXGeneral-Regular-46"/>
       <use x="74.999969" xlink:href="#STIXGeneral-Regular-56"/>
      </g>
     </g>
    </g>
    <g id="ytick_6">
     <g id="line2d_13">
      <g>
       <use style="stroke:#000000;stroke-width:0.8;" x="61.2" xlink:href="#m75d6e4982f" y="14.029687"/>
      </g>
     </g>
     <g id="text_14">
      <!-- 1.0 -->
      <g transform="translate(29.2 20.859375)scale(0.2 -0.2)">
       <use xlink:href="#STIXGeneral-Regular-49"/>
       <use x="49.999985" xlink:href="#STIXGeneral-Regular-46"/>
       <use x="74.999969" xlink:href="#STIXGeneral-Regular-48"/>
      </g>
     </g>
    </g>
    <g id="text_15">
     <!-- PDF -->
     <g transform="translate(20.859375 179.704844)rotate(-90)scale(0.2 -0.2)">
      <defs>
       <path d="M 1.59375 66.203125 
L 27.5 66.203125 
Q 41.703125 66.203125 49.203125 59.90625 
Q 54.203125 55.703125 54.203125 48 
Q 54.203125 40 48.5 34.90625 
Q 44.296875 31.09375 39.890625 29.9375 
Q 35.5 28.796875 27.09375 28.796875 
Q 24.203125 28.796875 20.203125 29.09375 
L 20.203125 11.203125 
Q 20.203125 5.5 21.84375 3.84375 
Q 23.5 2.203125 29.59375 1.90625 
L 29.59375 0 
L 1.59375 0 
L 1.59375 1.90625 
Q 7.40625 2.296875 8.703125 4 
Q 10 5.703125 10 12.203125 
L 10 55.09375 
Q 10 60.703125 8.546875 62.296875 
Q 7.09375 63.90625 1.59375 64.296875 
z
M 20.203125 58.90625 
L 20.203125 33.09375 
Q 23.59375 32.796875 26.296875 32.796875 
Q 34.40625 32.796875 38.84375 36.75 
Q 43.296875 40.703125 43.296875 47.5 
Q 43.296875 55.59375 38.6875 59.046875 
Q 34.09375 62.5 23.703125 62.5 
Q 21.59375 62.5 20.890625 61.75 
Q 20.203125 61 20.203125 58.90625 
z
" id="STIXGeneral-Regular-80"/>
       <path d="M 1.59375 66.203125 
L 28.59375 66.203125 
Q 48.09375 66.203125 58.59375 57.09375 
Q 68.5 48.59375 68.5 33.40625 
Q 68.5 15.09375 54.90625 6.40625 
Q 45 0 29.703125 0 
L 1.59375 0 
L 1.59375 1.90625 
Q 7.40625 2.296875 8.90625 3.9375 
Q 10.40625 5.59375 10.40625 11.5 
L 10.40625 55 
Q 10.40625 60.796875 8.90625 62.34375 
Q 7.40625 63.90625 1.59375 64.296875 
z
M 20.59375 58.296875 
L 20.59375 8.40625 
Q 20.59375 5.703125 21.546875 4.703125 
Q 22.5 3.703125 25.40625 3.703125 
Q 33.203125 3.703125 38 4.796875 
Q 42.796875 5.90625 47.203125 8.90625 
Q 57.59375 15.90625 57.59375 32.796875 
Q 57.59375 47.296875 48.09375 55.59375 
Q 43.796875 59.40625 38.6875 60.953125 
Q 33.59375 62.5 25.90625 62.5 
Q 23 62.5 21.796875 61.59375 
Q 20.59375 60.703125 20.59375 58.296875 
z
" id="STIXGeneral-Regular-68"/>
       <path d="M 54.59375 51.90625 
L 52.09375 51.90625 
Q 51 58.703125 48.34375 60.546875 
Q 45.703125 62.40625 36.703125 62.40625 
L 23.5 62.40625 
Q 21.40625 62.40625 20.75 61.65625 
Q 20.09375 60.90625 20.09375 58.5 
L 20.09375 36.796875 
L 34.296875 36.796875 
Q 40.59375 36.796875 42.75 38.59375 
Q 44.90625 40.40625 45.59375 46.296875 
L 47.90625 46.296875 
L 47.90625 23 
L 45.59375 23 
Q 45 29.09375 42.890625 30.890625 
Q 40.796875 32.703125 34.296875 32.703125 
L 20.09375 32.703125 
L 20.09375 11.203125 
Q 20.09375 5.5 21.75 3.84375 
Q 23.40625 2.203125 29.203125 1.90625 
L 29.203125 0 
L 1.09375 0 
L 1.09375 1.90625 
Q 6.796875 2.296875 8.34375 4.046875 
Q 9.90625 5.796875 9.90625 12.296875 
L 9.90625 55.09375 
Q 9.90625 60.59375 8.40625 62.25 
Q 6.90625 63.90625 1.203125 64.296875 
L 1.203125 66.203125 
L 54.09375 66.203125 
z
" id="STIXGeneral-Regular-70"/>
      </defs>
      <use xlink:href="#STIXGeneral-Regular-80"/>
      <use x="55.699997" xlink:href="#STIXGeneral-Regular-68"/>
      <use x="127.899979" xlink:href="#STIXGeneral-Regular-70"/>
     </g>
    </g>
   </g>
   <g id="line2d_14">
    <path clip-path="url(#pf641891549)" d="M 61.2 308.68 
L 72.26477 308.56979 
L 74.723607 308.184266 
L 75.953026 307.774972 
L 77.182445 307.147062 
L 78.411864 306.239407 
L 79.641283 304.990647 
L 80.870701 303.342552 
L 82.10012 301.242964 
L 83.329539 298.648139 
L 84.558958 295.524414 
L 85.788377 291.849202 
L 87.017796 287.611362 
L 88.247214 282.811039 
L 89.476633 277.45907 
L 91.935471 265.191301 
L 94.394309 251.068986 
L 96.853146 235.449635 
L 100.541403 210.122942 
L 109.147335 149.454439 
L 112.835591 125.638431 
L 115.294429 111.130209 
L 117.753267 97.90545 
L 120.212104 86.069651 
L 122.670942 75.684629 
L 125.12978 66.774526 
L 127.588617 59.331897 
L 128.818036 56.15137 
L 130.047455 53.323562 
L 131.276874 50.841193 
L 132.506293 48.696023 
L 133.735711 46.87899 
L 134.96513 45.380337 
L 136.194549 44.189733 
L 137.423968 43.296381 
L 138.653387 42.689121 
L 139.882806 42.356518 
L 141.112224 42.286951 
L 142.341643 42.46868 
L 143.571062 42.889922 
L 144.800481 43.538905 
L 146.0299 44.403925 
L 147.259319 45.473392 
L 148.488737 46.735872 
L 150.947575 49.795124 
L 153.406413 53.494567 
L 155.865251 57.751402 
L 158.324088 62.487678 
L 160.782926 67.630637 
L 164.471182 75.961647 
L 168.159439 84.85257 
L 173.077114 97.274011 
L 192.747816 147.740962 
L 197.665491 159.576912 
L 202.583166 170.873629 
L 207.500842 181.577172 
L 212.418517 191.657087 
L 217.336192 201.101247 
L 221.024449 207.767877 
L 224.712705 214.082578 
L 228.400962 220.052789 
L 232.089218 225.687969 
L 235.777475 230.999103 
L 239.465731 235.998286 
L 243.153988 240.698368 
L 246.842244 245.112676 
L 250.530501 249.254775 
L 254.218758 253.138277 
L 257.907014 256.776689 
L 262.824689 261.269566 
L 267.742365 265.38087 
L 272.66004 269.139879 
L 277.577715 272.574393 
L 282.495391 275.710618 
L 287.413066 278.573121 
L 292.330741 281.18481 
L 297.248417 283.566968 
L 302.166092 285.739293 
L 308.313186 288.187184 
L 314.460281 290.367879 
L 320.607375 292.310472 
L 326.754469 294.041046 
L 334.130982 295.870541 
L 341.507495 297.463808 
L 350.113427 299.065214 
L 358.719359 300.429534 
L 368.554709 301.744314 
L 378.39006 302.841199 
L 389.45483 303.860797 
L 401.749018 304.77762 
L 416.502044 305.641152 
L 432.484489 306.35346 
L 452.15519 306.996066 
L 475.514148 307.523917 
L 505.0202 307.95259 
L 543.132184 308.272613 
L 598.456032 308.498087 
L 674.68 308.616236 
L 674.68 308.616236 
" style="fill:none;stroke:#1f77b4;stroke-linecap:square;stroke-width:4;"/>
   </g>
   <g id="line2d_15">
    <path clip-path="url(#pf641891549)" d="M 61.2 308.68 
L 64.888257 298.427898 
L 68.576513 288.902245 
L 72.26477 280.064435 
L 75.953026 271.877686 
L 79.641283 264.306958 
L 83.329539 257.318876 
L 87.017796 250.881659 
L 90.706052 244.965044 
L 94.394309 239.540223 
L 98.082565 234.579774 
L 101.770822 230.057602 
L 105.459078 225.948878 
L 109.147335 222.229982 
L 112.835591 218.878449 
L 116.523848 215.872916 
L 120.212104 213.193073 
L 123.900361 210.819614 
L 127.588617 208.734194 
L 131.276874 206.919382 
L 134.96513 205.35862 
L 138.653387 204.036185 
L 142.341643 202.937149 
L 146.0299 202.047341 
L 149.718156 201.353316 
L 153.406413 200.842318 
L 158.324088 200.424876 
L 163.241764 200.284426 
L 168.159439 200.395873 
L 173.077114 200.73587 
L 177.99479 201.282708 
L 184.141884 202.226526 
L 190.288978 203.425845 
L 196.436072 204.847635 
L 203.812585 206.805338 
L 211.189098 208.993544 
L 219.79503 211.782585 
L 229.630381 215.211079 
L 241.924569 219.750834 
L 259.136433 226.371427 
L 294.789579 240.141366 
L 310.772024 246.048593 
L 325.52505 251.258986 
L 339.048657 255.79907 
L 352.572265 260.095556 
L 366.095872 264.139118 
L 378.39006 267.592751 
L 390.684248 270.835535 
L 404.207856 274.16324 
L 417.731463 277.247273 
L 431.25507 280.096934 
L 444.778677 282.722961 
L 458.302285 285.137026 
L 473.055311 287.543169 
L 487.808337 289.727749 
L 503.790782 291.863015 
L 519.773226 293.77717 
L 536.98509 295.613382 
L 555.426373 297.346903 
L 575.097074 298.958188 
L 595.997194 300.433179 
L 618.126733 301.763285 
L 641.485691 302.945096 
L 667.303487 304.026609 
L 674.68 304.297809 
L 674.68 304.297809 
" style="fill:none;stroke:#ff7f0e;stroke-linecap:square;stroke-width:4;"/>
   </g>
   <g id="patch_3">
    <path d="M 61.2 308.68 
L 61.2 14.029687 
" style="fill:none;stroke:#000000;stroke-linecap:square;stroke-linejoin:miter;stroke-width:0.8;"/>
   </g>
   <g id="patch_4">
    <path d="M 674.68 308.68 
L 674.68 14.029687 
" style="fill:none;stroke:#000000;stroke-linecap:square;stroke-linejoin:miter;stroke-width:0.8;"/>
   </g>
   <g id="patch_5">
    <path d="M 61.2 308.68 
L 674.68 308.68 
" style="fill:none;stroke:#000000;stroke-linecap:square;stroke-linejoin:miter;stroke-width:0.8;"/>
   </g>
   <g id="patch_6">
    <path d="M 61.2 14.029687 
L 674.68 14.029687 
" style="fill:none;stroke:#000000;stroke-linecap:square;stroke-linejoin:miter;stroke-width:0.8;"/>
   </g>
   <g id="legend_1">
    <g id="line2d_16">
     <path d="M 498.745 34.029687 
L 530.745 34.029687 
" style="fill:none;stroke:#1f77b4;stroke-linecap:square;stroke-width:4;"/>
    </g>
    <g id="line2d_17"/>
    <g id="text_16">
     <!-- Lognormal: s=0.5 -->
     <g transform="translate(543.545 39.629687)scale(0.16 -0.16)">
      <defs>
       <path d="M 59.796875 17.40625 
L 55 0 
L 1.203125 0 
L 1.203125 1.90625 
Q 6.703125 2.203125 8.296875 4 
Q 9.90625 5.796875 9.90625 11.5 
L 9.90625 54.59375 
Q 9.90625 60.5 8.453125 62.203125 
Q 7 63.90625 1.203125 64.296875 
L 1.203125 66.203125 
L 29.5 66.203125 
L 29.5 64.296875 
Q 23.40625 63.90625 21.75 62.25 
Q 20.09375 60.59375 20.09375 54.796875 
L 20.09375 8.40625 
Q 20.09375 5.59375 21.84375 4.75 
Q 23.59375 3.90625 29.09375 3.90625 
L 36.09375 3.90625 
Q 48.203125 3.90625 53 10 
Q 55 12.703125 57.203125 17.40625 
z
" id="STIXGeneral-Regular-76"/>
       <path d="M 47 23.09375 
Q 47 12.59375 40.75 5.796875 
Q 34.5 -1 24.5 -1 
Q 15.296875 -1 9.09375 5.75 
Q 2.90625 12.5 2.90625 22.796875 
Q 2.90625 33.203125 9.09375 39.59375 
Q 15.296875 46 25.40625 46 
Q 34.703125 46 40.84375 39.640625 
Q 47 33.296875 47 23.09375 
z
M 38 20.40625 
Q 38 31.796875 33 38.203125 
Q 29 43.203125 23.5 43.203125 
Q 18.296875 43.203125 15.09375 38.953125 
Q 11.90625 34.703125 11.90625 27.296875 
Q 11.90625 14.5 17.203125 6.796875 
Q 20.59375 1.796875 26.203125 1.796875 
Q 31.703125 1.796875 34.84375 6.75 
Q 38 11.703125 38 20.40625 
z
" id="STIXGeneral-Regular-111"/>
       <path d="M 47 38.796875 
L 38.703125 38.796875 
Q 40.59375 34.5 40.59375 30.40625 
Q 40.59375 22.703125 35.390625 18.796875 
Q 30.203125 14.90625 25 14.90625 
Q 23.90625 14.90625 21.203125 15.203125 
L 19.296875 15.40625 
Q 17.296875 14.796875 15.296875 12.6875 
Q 13.296875 10.59375 13.296875 9.09375 
Q 13.296875 6.796875 21.09375 6.40625 
L 34 5.796875 
Q 39.5 5.59375 42.796875 2.6875 
Q 46.09375 -0.203125 46.09375 -4.90625 
Q 46.09375 -10.703125 40.09375 -15.40625 
Q 31.796875 -21.796875 20.09375 -21.796875 
Q 12.90625 -21.796875 7.84375 -18.9375 
Q 2.796875 -16.09375 2.796875 -12.09375 
Q 2.796875 -9.296875 5 -6.546875 
Q 7.203125 -3.796875 12.59375 0.09375 
Q 9.40625 1.59375 8.34375 2.6875 
Q 7.296875 3.796875 7.296875 5.40625 
Q 7.296875 8.296875 11.90625 12.296875 
Q 14.203125 14.296875 16.203125 16.296875 
Q 11.203125 18.796875 9.046875 21.890625 
Q 6.90625 25 6.90625 29.703125 
Q 6.90625 36.5 11.75 41.25 
Q 16.59375 46 23.59375 46 
Q 27.59375 46 31.59375 44.5 
L 33.796875 43.703125 
Q 36.703125 42.703125 39.296875 42.703125 
L 47 42.703125 
z
M 15.203125 33.796875 
L 15.203125 33.5 
Q 15.203125 26.296875 18.046875 21.84375 
Q 20.90625 17.40625 25.5 17.40625 
Q 28.90625 17.40625 30.90625 19.84375 
Q 32.90625 22.296875 32.90625 26.40625 
Q 32.90625 33 29.90625 38.5 
Q 27.40625 43.203125 22.59375 43.203125 
Q 19.09375 43.203125 17.140625 40.703125 
Q 15.203125 38.203125 15.203125 33.796875 
z
M 43.296875 -6.40625 
Q 43.296875 -3.59375 40.546875 -2.546875 
Q 37.796875 -1.5 30.90625 -1.5 
Q 21 -1.5 14.703125 -0.203125 
Q 11.703125 -3.796875 10.75 -5.4375 
Q 9.796875 -7.09375 9.796875 -8.796875 
Q 9.796875 -12.09375 13.75 -14.09375 
Q 17.703125 -16.09375 24.296875 -16.09375 
Q 32.796875 -16.09375 38.046875 -13.4375 
Q 43.296875 -10.796875 43.296875 -6.40625 
z
" id="STIXGeneral-Regular-103"/>
       <path d="M 48.5 0 
L 27.703125 0 
L 27.796875 1.5 
Q 31.5 1.796875 32.75 3.640625 
Q 34 5.5 34 10.5 
L 34 30.40625 
Q 34 40.5 26.703125 40.5 
Q 24.203125 40.5 22 39.296875 
Q 19.796875 38.09375 16.40625 34.796875 
L 16.40625 7.203125 
Q 16.40625 4.203125 17.75 3 
Q 19.09375 1.796875 22.90625 1.5 
L 22.90625 0 
L 1.796875 0 
L 1.796875 1.5 
Q 5.59375 1.796875 6.796875 3.34375 
Q 8 4.90625 8 9.40625 
L 8 33.703125 
Q 8 37.40625 7.296875 38.796875 
Q 6.59375 40.203125 4.5 40.203125 
Q 2.5 40.203125 1.59375 39.796875 
L 1.59375 41.5 
Q 8.59375 43.5 15.296875 46 
L 16.09375 45.703125 
L 16.09375 37.90625 
L 16.203125 37.90625 
Q 23.296875 46 30.59375 46 
Q 36.296875 46 39.34375 42 
Q 42.40625 38 42.40625 30.59375 
L 42.40625 8.5 
Q 42.40625 4.5 43.59375 3.203125 
Q 44.796875 1.90625 48.5 1.5 
z
" id="STIXGeneral-Regular-110"/>
       <path d="M 16 45.796875 
L 16 36.59375 
Q 19.796875 42 22.34375 44 
Q 24.90625 46 28 46 
Q 30.59375 46 32.046875 44.59375 
Q 33.5 43.203125 33.5 40.703125 
Q 33.5 38.59375 32.453125 37.390625 
Q 31.40625 36.203125 29.59375 36.203125 
Q 27.703125 36.203125 25.59375 38.203125 
Q 24 39.703125 23 39.703125 
Q 20.90625 39.703125 18.453125 36.796875 
Q 16 33.90625 16 31.5 
L 16 9 
Q 16 4.703125 17.703125 3.203125 
Q 19.40625 1.703125 24.5 1.5 
L 24.5 0 
L 0.5 0 
L 0.5 1.5 
Q 5.296875 2.40625 6.4375 3.5 
Q 7.59375 4.59375 7.59375 8.40625 
L 7.59375 33.40625 
Q 7.59375 36.703125 6.84375 38.046875 
Q 6.09375 39.40625 4.203125 39.40625 
Q 2.59375 39.40625 0.703125 39 
L 0.703125 40.59375 
Q 7 42.59375 15.5 46 
z
" id="STIXGeneral-Regular-114"/>
       <path d="M 77.5 0 
L 55.703125 0 
L 55.703125 1.5 
Q 59.90625 1.90625 61.046875 3.25 
Q 62.203125 4.59375 62.203125 9 
L 62.203125 29.59375 
Q 62.203125 35.59375 60.453125 38.1875 
Q 58.703125 40.796875 54.5 40.796875 
Q 51 40.796875 48.546875 39.390625 
Q 46.09375 38 43.796875 34.703125 
L 43.796875 9.5 
Q 43.796875 4.703125 45.25 3.140625 
Q 46.703125 1.59375 51 1.5 
L 51 0 
L 28.59375 0 
L 28.59375 1.5 
Q 33 1.796875 34.203125 2.9375 
Q 35.40625 4.09375 35.40625 8.59375 
L 35.40625 29.703125 
Q 35.40625 40.796875 28.90625 40.796875 
Q 26.09375 40.796875 22.9375 39.546875 
Q 19.796875 38.296875 18.296875 36.5 
Q 17 35 17 34.796875 
L 17 7 
Q 17 3.796875 18.390625 2.75 
Q 19.796875 1.703125 23.796875 1.5 
L 23.796875 0 
L 1.59375 0 
L 1.59375 1.5 
Q 5.796875 1.59375 7.1875 3.046875 
Q 8.59375 4.5 8.59375 8.796875 
L 8.59375 33.59375 
Q 8.59375 37.296875 7.796875 38.75 
Q 7 40.203125 5.09375 40.203125 
Q 3.59375 40.203125 1.90625 39.796875 
L 1.90625 41.5 
Q 8.703125 43.40625 15.796875 46 
L 16.59375 45.703125 
L 16.59375 38.296875 
L 16.796875 38.296875 
Q 21.296875 43 24.75 44.5 
Q 28.203125 46 32.09375 46 
Q 40 46 42.703125 37.59375 
Q 50.5 46 59 46 
Q 70.59375 46 70.59375 28 
L 70.59375 7.703125 
Q 70.59375 4.40625 71.59375 3.15625 
Q 72.59375 1.90625 74.90625 1.703125 
L 77.5 1.5 
z
" id="STIXGeneral-Regular-109"/>
       <path d="M 44.203125 6.59375 
L 44.203125 3.796875 
Q 40.40625 -1 35.203125 -1 
Q 29.5 -1 28.796875 6.296875 
L 28.703125 6.296875 
Q 22.296875 -1 14.203125 -1 
Q 9.5 -1 6.59375 1.75 
Q 3.703125 4.5 3.703125 9.40625 
Q 3.703125 16.40625 10.703125 21.09375 
Q 15.5 24.296875 28.703125 29.203125 
L 28.703125 34.59375 
Q 28.703125 39.09375 26.546875 41.34375 
Q 24.40625 43.59375 20.90625 43.59375 
Q 17.90625 43.59375 15.90625 42.140625 
Q 13.90625 40.703125 13.90625 38.703125 
Q 13.90625 37.796875 14.203125 36.6875 
Q 14.5 35.59375 14.5 34.5 
Q 14.5 33 13.140625 31.703125 
Q 11.796875 30.40625 9.90625 30.40625 
Q 8.203125 30.40625 6.890625 31.703125 
Q 5.59375 33 5.59375 35 
Q 5.59375 39.796875 10.703125 43 
Q 15.40625 46 22.203125 46 
Q 30.296875 46 34 41.5 
Q 35.796875 39.40625 36.296875 37.25 
Q 36.796875 35.09375 36.796875 30.40625 
L 36.796875 11.296875 
Q 36.796875 4.703125 39.90625 4.703125 
Q 41.90625 4.703125 44.203125 6.59375 
z
M 28.703125 12.703125 
L 28.703125 26.796875 
Q 19.5 23.59375 15.90625 20.203125 
Q 12.5 17.09375 12.5 12.5 
Q 12.5 8.703125 14.390625 6.75 
Q 16.296875 4.796875 19.40625 4.796875 
Q 22.703125 4.796875 25.203125 6.40625 
Q 27.296875 7.90625 28 9.203125 
Q 28.703125 10.5 28.703125 12.703125 
z
" id="STIXGeneral-Regular-97"/>
       <path d="M 25.703125 0 
L 2.09375 0 
L 2.09375 1.5 
Q 6.796875 1.90625 8.296875 3.453125 
Q 9.796875 5 9.796875 9.203125 
L 9.796875 56.09375 
Q 9.796875 59.703125 8.890625 61.09375 
Q 8 62.5 5.59375 62.5 
Q 3.5 62.5 1.90625 62.296875 
L 1.90625 63.90625 
Q 11.40625 66.203125 17.703125 68.296875 
L 18.203125 67.90625 
L 18.203125 8.703125 
Q 18.203125 4.5 19.59375 3.140625 
Q 21 1.796875 25.703125 1.5 
z
" id="STIXGeneral-Regular-108"/>
       <path d="M 15.90625 45.90625 
Q 19.203125 42.59375 19.203125 40.296875 
Q 19.203125 38 17.59375 36.390625 
Q 16 34.796875 13.703125 34.796875 
Q 11.40625 34.796875 9.75 36.4375 
Q 8.09375 38.09375 8.09375 40.296875 
Q 8.09375 42.703125 9.6875 44.296875 
Q 11.296875 45.90625 13.703125 45.90625 
Q 15.90625 45.90625 19.203125 42.59375 
z
M 19.203125 4.40625 
Q 19.203125 2.203125 17.59375 0.546875 
Q 16 -1.09375 13.703125 -1.09375 
Q 11.40625 -1.09375 9.75 0.546875 
Q 8.09375 2.203125 8.09375 4.40625 
Q 8.09375 6.796875 9.6875 8.390625 
Q 11.296875 10 13.703125 10 
Q 15.90625 10 17.546875 8.34375 
Q 19.203125 6.703125 19.203125 4.40625 
z
" id="STIXGeneral-Regular-58"/>
       <path id="STIXGeneral-Regular-32"/>
       <path d="M 15.59375 30.09375 
L 26 23.796875 
Q 31 20.796875 32.890625 18.1875 
Q 34.796875 15.59375 34.796875 11.5 
Q 34.796875 6.5 30.640625 2.75 
Q 26.5 -1 20.796875 -1 
Q 16.09375 -1 13.5 -0.09375 
Q 10.796875 0.796875 8.90625 0.796875 
Q 7.203125 0.796875 6.5 -0.40625 
L 5.203125 -0.40625 
L 5.203125 15.296875 
L 6.796875 15.296875 
Q 8.40625 8 11.40625 4.59375 
Q 14.40625 1.203125 19.5 1.203125 
Q 23.203125 1.203125 25.5 3.296875 
Q 27.796875 5.40625 27.796875 8.59375 
Q 27.796875 13.203125 22.5 16.09375 
L 17.09375 19.09375 
Q 5.09375 25.796875 5.09375 33.59375 
Q 5.09375 39.40625 8.84375 42.65625 
Q 12.59375 45.90625 18.90625 45.90625 
Q 23.296875 45.90625 25.59375 44.796875 
Q 27.40625 44 28.40625 44 
Q 29.09375 44 30 45 
L 31.09375 45 
L 31.59375 31.40625 
L 30.09375 31.40625 
Q 28.40625 38.203125 25.84375 40.953125 
Q 23.296875 43.703125 18.796875 43.703125 
Q 15.40625 43.703125 13.34375 42 
Q 11.296875 40.296875 11.296875 36.90625 
Q 11.296875 35.203125 12.4375 33.25 
Q 13.59375 31.296875 15.59375 30.09375 
z
" id="STIXGeneral-Regular-115"/>
       <path d="M 63.703125 32 
L 4.796875 32 
L 4.796875 38.59375 
L 63.703125 38.59375 
z
M 63.703125 12 
L 4.796875 12 
L 4.796875 18.59375 
L 63.703125 18.59375 
z
" id="STIXGeneral-Regular-61"/>
      </defs>
      <use xlink:href="#STIXGeneral-Regular-76"/>
      <use x="61.099991" xlink:href="#STIXGeneral-Regular-111"/>
      <use x="111.099976" xlink:href="#STIXGeneral-Regular-103"/>
      <use x="161.09996" xlink:href="#STIXGeneral-Regular-110"/>
      <use x="211.099945" xlink:href="#STIXGeneral-Regular-111"/>
      <use x="261.09993" xlink:href="#STIXGeneral-Regular-114"/>
      <use x="294.399918" xlink:href="#STIXGeneral-Regular-109"/>
      <use x="372.199905" xlink:href="#STIXGeneral-Regular-97"/>
      <use x="416.599899" xlink:href="#STIXGeneral-Regular-108"/>
      <use x="444.399887" xlink:href="#STIXGeneral-Regular-58"/>
      <use x="472.199875" xlink:href="#STIXGeneral-Regular-32"/>
      <use x="497.19986" xlink:href="#STIXGeneral-Regular-115"/>
      <use x="536.099854" xlink:href="#STIXGeneral-Regular-61"/>
      <use x="604.599838" xlink:href="#STIXGeneral-Regular-48"/>
      <use x="654.599823" xlink:href="#STIXGeneral-Regular-46"/>
      <use x="679.599808" xlink:href="#STIXGeneral-Regular-53"/>
     </g>
    </g>
    <g id="line2d_18">
     <path d="M 498.745 56.717187 
L 530.745 56.717187 
" style="fill:none;stroke:#ff7f0e;stroke-linecap:square;stroke-width:4;"/>
    </g>
    <g id="line2d_19"/>
    <g id="text_17">
     <!-- Gamma: a=2 -->
     <g transform="translate(543.545 62.317187)scale(0.16 -0.16)">
      <defs>
       <path d="M 70.90625 35.40625 
L 70.90625 33.59375 
Q 66.5 33.203125 65.203125 31.796875 
Q 63.90625 30.40625 63.90625 25.59375 
L 63.90625 5.59375 
Q 55.296875 -1.40625 38.5 -1.40625 
Q 30.703125 -1.40625 23.546875 1.390625 
Q 16.40625 4.203125 11.5 9.296875 
Q 3.203125 18 3.203125 32.703125 
Q 3.203125 49.296875 13.90625 59 
Q 23.296875 67.59375 37.796875 67.59375 
Q 44.203125 67.59375 51.09375 65.296875 
Q 53.796875 64.296875 55.5 64.296875 
Q 57.09375 64.296875 58.296875 65.25 
Q 59.5 66.203125 60 67.59375 
L 62.203125 67.59375 
L 63 46.5 
L 60.703125 46.5 
Q 57.5 54.296875 53.59375 58.09375 
Q 47.796875 63.59375 39 63.59375 
Q 29 63.59375 22.296875 56.703125 
Q 14.59375 49 14.59375 32.40625 
Q 14.59375 18.59375 21.796875 10.59375 
Q 29 2.59375 40.90625 2.59375 
Q 46.59375 2.59375 50.390625 4.390625 
Q 54.203125 6.203125 54.203125 8.703125 
L 54.203125 24.40625 
Q 54.203125 30.203125 52.75 31.640625 
Q 51.296875 33.09375 45.296875 33.59375 
L 45.296875 35.40625 
z
" id="STIXGeneral-Regular-71"/>
      </defs>
      <use xlink:href="#STIXGeneral-Regular-71"/>
      <use x="72.199982" xlink:href="#STIXGeneral-Regular-97"/>
      <use x="116.599976" xlink:href="#STIXGeneral-Regular-109"/>
      <use x="194.399963" xlink:href="#STIXGeneral-Regular-109"/>
      <use x="272.199951" xlink:href="#STIXGeneral-Regular-97"/>
      <use x="316.599945" xlink:href="#STIXGeneral-Regular-58"/>
      <use x="344.399933" xlink:href="#STIXGeneral-Regular-32"/>
      <use x="369.399918" xlink:href="#STIXGeneral-Regular-97"/>
      <use x="413.799911" xlink:href="#STIXGeneral-Regular-61"/>
      <use x="482.299896" xlink:href="#STIXGeneral-Regular-50"/>
     </g>
    </g>
   </g>
  </g>
 </g>
 <defs>
  <clipPath id="pf641891549">
   <rect height="294.650312" width="613.48" x="61.2" y="14.029687"/>
  </clipPath>
 </defs>
</svg>
