<?xml version="1.0" encoding="utf-8" standalone="no"?>
<!DOCTYPE svg PUBLIC "-//W3C//DTD SVG 1.1//EN"
  "http://www.w3.org/Graphics/SVG/1.1/DTD/svg11.dtd">
<!-- Created with matplotlib (https://matplotlib.org/) -->
<svg height="362.88pt" version="1.1" viewBox="0 0 686.88 362.88" width="686.88pt" xmlns="http://www.w3.org/2000/svg" xmlns:xlink="http://www.w3.org/1999/xlink">
 <metadata>
  <rdf:RDF xmlns:cc="http://creativecommons.org/ns#" xmlns:dc="http://purl.org/dc/elements/1.1/" xmlns:rdf="http://www.w3.org/1999/02/22-rdf-syntax-ns#">
   <cc:Work>
    <dc:type rdf:resource="http://purl.org/dc/dcmitype/StillImage"/>
    <dc:date>2021-01-22T18:10:15.659996</dc:date>
    <dc:format>image/svg+xml</dc:format>
    <dc:creator>
     <cc:Agent>
      <dc:title>Matplotlib v3.3.3, https://matplotlib.org/</dc:title>
     </cc:Agent>
    </dc:creator>
   </cc:Work>
  </rdf:RDF>
 </metadata>
 <defs>
  <style type="text/css">*{stroke-linecap:butt;stroke-linejoin:round;}</style>
 </defs>
 <g id="figure_1">
  <g id="patch_1">
   <path d="M 0 362.88 
L 686.88 362.88 
L 686.88 0 
L 0 0 
z
" style="fill:none;"/>
  </g>
  <g id="axes_1">
   <g id="patch_2">
    <path d="M 39.2 330.68 
L 679.68 330.68 
L 679.68 7.2 
L 39.2 7.2 
z
" style="fill:#ffffff;"/>
   </g>
   <g id="patch_3">
    <path clip-path="url(#p1ea46fbcbf)" d="M 158.865173 330.68 
L 165.723595 330.68 
L 165.723595 330.198821 
L 158.865173 330.198821 
z
" style="fill:#ff7f0e;opacity:0.8;"/>
   </g>
   <g id="patch_4">
    <path clip-path="url(#p1ea46fbcbf)" d="M 165.723595 330.68 
L 172.582017 330.68 
L 172.582017 330.198821 
L 165.723595 330.198821 
z
" style="fill:#ff7f0e;opacity:0.8;"/>
   </g>
   <g id="patch_5">
    <path clip-path="url(#p1ea46fbcbf)" d="M 172.582017 330.68 
L 179.440438 330.68 
L 179.440438 330.198821 
L 172.582017 330.198821 
z
" style="fill:#ff7f0e;opacity:0.8;"/>
   </g>
   <g id="patch_6">
    <path clip-path="url(#p1ea46fbcbf)" d="M 179.440438 330.68 
L 186.29886 330.68 
L 186.29886 329.717642 
L 179.440438 329.717642 
z
" style="fill:#ff7f0e;opacity:0.8;"/>
   </g>
   <g id="patch_7">
    <path clip-path="url(#p1ea46fbcbf)" d="M 186.29886 330.68 
L 193.157282 330.68 
L 193.157282 329.717642 
L 186.29886 329.717642 
z
" style="fill:#ff7f0e;opacity:0.8;"/>
   </g>
   <g id="patch_8">
    <path clip-path="url(#p1ea46fbcbf)" d="M 193.157282 330.68 
L 200.015703 330.68 
L 200.015703 329.236464 
L 193.157282 329.236464 
z
" style="fill:#ff7f0e;opacity:0.8;"/>
   </g>
   <g id="patch_9">
    <path clip-path="url(#p1ea46fbcbf)" d="M 200.015703 330.68 
L 206.874125 330.68 
L 206.874125 328.274106 
L 200.015703 328.274106 
z
" style="fill:#ff7f0e;opacity:0.8;"/>
   </g>
   <g id="patch_10">
    <path clip-path="url(#p1ea46fbcbf)" d="M 206.874125 330.68 
L 213.732546 330.68 
L 213.732546 327.792927 
L 206.874125 327.792927 
z
" style="fill:#ff7f0e;opacity:0.8;"/>
   </g>
   <g id="patch_11">
    <path clip-path="url(#p1ea46fbcbf)" d="M 213.732546 330.68 
L 220.590968 330.68 
L 220.590968 324.905854 
L 213.732546 324.905854 
z
" style="fill:#ff7f0e;opacity:0.8;"/>
   </g>
   <g id="patch_12">
    <path clip-path="url(#p1ea46fbcbf)" d="M 220.590968 330.68 
L 227.44939 330.68 
L 227.44939 323.462318 
L 220.590968 323.462318 
z
" style="fill:#ff7f0e;opacity:0.8;"/>
   </g>
   <g id="patch_13">
    <path clip-path="url(#p1ea46fbcbf)" d="M 227.44939 330.68 
L 234.307811 330.68 
L 234.307811 317.688172 
L 227.44939 317.688172 
z
" style="fill:#ff7f0e;opacity:0.8;"/>
   </g>
   <g id="patch_14">
    <path clip-path="url(#p1ea46fbcbf)" d="M 234.307811 330.68 
L 241.166233 330.68 
L 241.166233 312.395205 
L 234.307811 312.395205 
z
" style="fill:#ff7f0e;opacity:0.8;"/>
   </g>
   <g id="patch_15">
    <path clip-path="url(#p1ea46fbcbf)" d="M 241.166233 330.68 
L 248.024655 330.68 
L 248.024655 305.177523 
L 241.166233 305.177523 
z
" style="fill:#ff7f0e;opacity:0.8;"/>
   </g>
   <g id="patch_16">
    <path clip-path="url(#p1ea46fbcbf)" d="M 248.024655 330.68 
L 254.883076 330.68 
L 254.883076 288.817443 
L 248.024655 288.817443 
z
" style="fill:#ff7f0e;opacity:0.8;"/>
   </g>
   <g id="patch_17">
    <path clip-path="url(#p1ea46fbcbf)" d="M 254.883076 330.68 
L 261.741498 330.68 
L 261.741498 279.675045 
L 254.883076 279.675045 
z
" style="fill:#ff7f0e;opacity:0.8;"/>
   </g>
   <g id="patch_18">
    <path clip-path="url(#p1ea46fbcbf)" d="M 261.741498 330.68 
L 268.59992 330.68 
L 268.59992 262.833786 
L 261.741498 262.833786 
z
" style="fill:#ff7f0e;opacity:0.8;"/>
   </g>
   <g id="patch_19">
    <path clip-path="url(#p1ea46fbcbf)" d="M 268.59992 330.68 
L 275.458341 330.68 
L 275.458341 241.180739 
L 268.59992 241.180739 
z
" style="fill:#ff7f0e;opacity:0.8;"/>
   </g>
   <g id="patch_20">
    <path clip-path="url(#p1ea46fbcbf)" d="M 275.458341 330.68 
L 282.316763 330.68 
L 282.316763 223.858302 
L 275.458341 223.858302 
z
" style="fill:#ff7f0e;opacity:0.8;"/>
   </g>
   <g id="patch_21">
    <path clip-path="url(#p1ea46fbcbf)" d="M 282.316763 330.68 
L 289.175184 330.68 
L 289.175184 197.874646 
L 282.316763 197.874646 
z
" style="fill:#ff7f0e;opacity:0.8;"/>
   </g>
   <g id="patch_22">
    <path clip-path="url(#p1ea46fbcbf)" d="M 289.175184 330.68 
L 296.033606 330.68 
L 296.033606 156.493267 
L 289.175184 156.493267 
z
" style="fill:#ff7f0e;opacity:0.8;"/>
   </g>
   <g id="patch_23">
    <path clip-path="url(#p1ea46fbcbf)" d="M 296.033606 330.68 
L 302.892028 330.68 
L 302.892028 129.066074 
L 296.033606 129.066074 
z
" style="fill:#ff7f0e;opacity:0.8;"/>
   </g>
   <g id="patch_24">
    <path clip-path="url(#p1ea46fbcbf)" d="M 302.892028 330.68 
L 309.750449 330.68 
L 309.750449 120.404856 
L 302.892028 120.404856 
z
" style="fill:#ff7f0e;opacity:0.8;"/>
   </g>
   <g id="patch_25">
    <path clip-path="url(#p1ea46fbcbf)" d="M 309.750449 330.68 
L 316.608871 330.68 
L 316.608871 69.399901 
L 309.750449 69.399901 
z
" style="fill:#ff7f0e;opacity:0.8;"/>
   </g>
   <g id="patch_26">
    <path clip-path="url(#p1ea46fbcbf)" d="M 316.608871 330.68 
L 323.467293 330.68 
L 323.467293 51.596284 
L 316.608871 51.596284 
z
" style="fill:#ff7f0e;opacity:0.8;"/>
   </g>
   <g id="patch_27">
    <path clip-path="url(#p1ea46fbcbf)" d="M 323.467293 330.68 
L 330.325714 330.68 
L 330.325714 29.462059 
L 323.467293 29.462059 
z
" style="fill:#ff7f0e;opacity:0.8;"/>
   </g>
   <g id="patch_28">
    <path clip-path="url(#p1ea46fbcbf)" d="M 330.325714 330.68 
L 337.184136 330.68 
L 337.184136 28.98088 
L 330.325714 28.98088 
z
" style="fill:#ff7f0e;opacity:0.8;"/>
   </g>
   <g id="patch_29">
    <path clip-path="url(#p1ea46fbcbf)" d="M 337.184136 330.68 
L 344.042557 330.68 
L 344.042557 31.867953 
L 337.184136 31.867953 
z
" style="fill:#ff7f0e;opacity:0.8;"/>
   </g>
   <g id="patch_30">
    <path clip-path="url(#p1ea46fbcbf)" d="M 344.042557 330.68 
L 350.900979 330.68 
L 350.900979 28.98088 
L 344.042557 28.98088 
z
" style="fill:#ff7f0e;opacity:0.8;"/>
   </g>
   <g id="patch_31">
    <path clip-path="url(#p1ea46fbcbf)" d="M 350.900979 330.68 
L 357.759401 330.68 
L 357.759401 42.935066 
L 350.900979 42.935066 
z
" style="fill:#ff7f0e;opacity:0.8;"/>
   </g>
   <g id="patch_32">
    <path clip-path="url(#p1ea46fbcbf)" d="M 357.759401 330.68 
L 364.617822 330.68 
L 364.617822 63.625755 
L 357.759401 63.625755 
z
" style="fill:#ff7f0e;opacity:0.8;"/>
   </g>
   <g id="patch_33">
    <path clip-path="url(#p1ea46fbcbf)" d="M 364.617822 330.68 
L 371.476244 330.68 
L 371.476244 94.902378 
L 364.617822 94.902378 
z
" style="fill:#ff7f0e;opacity:0.8;"/>
   </g>
   <g id="patch_34">
    <path clip-path="url(#p1ea46fbcbf)" d="M 371.476244 330.68 
L 378.334666 330.68 
L 378.334666 102.12006 
L 371.476244 102.12006 
z
" style="fill:#ff7f0e;opacity:0.8;"/>
   </g>
   <g id="patch_35">
    <path clip-path="url(#p1ea46fbcbf)" d="M 378.334666 330.68 
L 385.193087 330.68 
L 385.193087 138.689651 
L 378.334666 138.689651 
z
" style="fill:#ff7f0e;opacity:0.8;"/>
   </g>
   <g id="patch_36">
    <path clip-path="url(#p1ea46fbcbf)" d="M 385.193087 330.68 
L 392.051509 330.68 
L 392.051509 163.710949 
L 385.193087 163.710949 
z
" style="fill:#ff7f0e;opacity:0.8;"/>
   </g>
   <g id="patch_37">
    <path clip-path="url(#p1ea46fbcbf)" d="M 392.051509 330.68 
L 398.909931 330.68 
L 398.909931 198.355824 
L 392.051509 198.355824 
z
" style="fill:#ff7f0e;opacity:0.8;"/>
   </g>
   <g id="patch_38">
    <path clip-path="url(#p1ea46fbcbf)" d="M 398.909931 330.68 
L 405.768352 330.68 
L 405.768352 236.368951 
L 398.909931 236.368951 
z
" style="fill:#ff7f0e;opacity:0.8;"/>
   </g>
   <g id="patch_39">
    <path clip-path="url(#p1ea46fbcbf)" d="M 405.768352 330.68 
L 412.626774 330.68 
L 412.626774 244.548991 
L 405.768352 244.548991 
z
" style="fill:#ff7f0e;opacity:0.8;"/>
   </g>
   <g id="patch_40">
    <path clip-path="url(#p1ea46fbcbf)" d="M 412.626774 330.68 
L 419.485195 330.68 
L 419.485195 265.23968 
L 412.626774 265.23968 
z
" style="fill:#ff7f0e;opacity:0.8;"/>
   </g>
   <g id="patch_41">
    <path clip-path="url(#p1ea46fbcbf)" d="M 419.485195 330.68 
L 426.343617 330.68 
L 426.343617 284.486833 
L 419.485195 284.486833 
z
" style="fill:#ff7f0e;opacity:0.8;"/>
   </g>
   <g id="patch_42">
    <path clip-path="url(#p1ea46fbcbf)" d="M 426.343617 330.68 
L 433.202039 330.68 
L 433.202039 296.516304 
L 426.343617 296.516304 
z
" style="fill:#ff7f0e;opacity:0.8;"/>
   </g>
   <g id="patch_43">
    <path clip-path="url(#p1ea46fbcbf)" d="M 433.202039 330.68 
L 440.06046 330.68 
L 440.06046 308.064595 
L 433.202039 308.064595 
z
" style="fill:#ff7f0e;opacity:0.8;"/>
   </g>
   <g id="patch_44">
    <path clip-path="url(#p1ea46fbcbf)" d="M 440.06046 330.68 
L 446.918882 330.68 
L 446.918882 313.838741 
L 440.06046 313.838741 
z
" style="fill:#ff7f0e;opacity:0.8;"/>
   </g>
   <g id="patch_45">
    <path clip-path="url(#p1ea46fbcbf)" d="M 446.918882 330.68 
L 453.777304 330.68 
L 453.777304 313.838741 
L 446.918882 313.838741 
z
" style="fill:#ff7f0e;opacity:0.8;"/>
   </g>
   <g id="patch_46">
    <path clip-path="url(#p1ea46fbcbf)" d="M 453.777304 330.68 
L 460.635725 330.68 
L 460.635725 322.018781 
L 453.777304 322.018781 
z
" style="fill:#ff7f0e;opacity:0.8;"/>
   </g>
   <g id="patch_47">
    <path clip-path="url(#p1ea46fbcbf)" d="M 460.635725 330.68 
L 467.494147 330.68 
L 467.494147 326.830569 
L 460.635725 326.830569 
z
" style="fill:#ff7f0e;opacity:0.8;"/>
   </g>
   <g id="patch_48">
    <path clip-path="url(#p1ea46fbcbf)" d="M 467.494147 330.68 
L 474.352568 330.68 
L 474.352568 328.755285 
L 467.494147 328.755285 
z
" style="fill:#ff7f0e;opacity:0.8;"/>
   </g>
   <g id="patch_49">
    <path clip-path="url(#p1ea46fbcbf)" d="M 474.352568 330.68 
L 481.21099 330.68 
L 481.21099 329.717642 
L 474.352568 329.717642 
z
" style="fill:#ff7f0e;opacity:0.8;"/>
   </g>
   <g id="patch_50">
    <path clip-path="url(#p1ea46fbcbf)" d="M 481.21099 330.68 
L 488.069412 330.68 
L 488.069412 329.236464 
L 481.21099 329.236464 
z
" style="fill:#ff7f0e;opacity:0.8;"/>
   </g>
   <g id="patch_51">
    <path clip-path="url(#p1ea46fbcbf)" d="M 488.069412 330.68 
L 494.927833 330.68 
L 494.927833 329.236464 
L 488.069412 329.236464 
z
" style="fill:#ff7f0e;opacity:0.8;"/>
   </g>
   <g id="patch_52">
    <path clip-path="url(#p1ea46fbcbf)" d="M 494.927833 330.68 
L 501.786255 330.68 
L 501.786255 329.717642 
L 494.927833 329.717642 
z
" style="fill:#ff7f0e;opacity:0.8;"/>
   </g>
   <g id="patch_53">
    <path clip-path="url(#p1ea46fbcbf)" d="M 68.312727 330.68 
L 79.957818 330.68 
L 79.957818 329.546431 
L 68.312727 329.546431 
z
" style="fill:#2ca02c;opacity:0.8;"/>
   </g>
   <g id="patch_54">
    <path clip-path="url(#p1ea46fbcbf)" d="M 79.957818 330.68 
L 91.602909 330.68 
L 91.602909 330.396608 
L 79.957818 330.396608 
z
" style="fill:#2ca02c;opacity:0.8;"/>
   </g>
   <g id="patch_55">
    <path clip-path="url(#p1ea46fbcbf)" d="M 91.602909 330.68 
L 103.248 330.68 
L 103.248 329.546431 
L 91.602909 329.546431 
z
" style="fill:#2ca02c;opacity:0.8;"/>
   </g>
   <g id="patch_56">
    <path clip-path="url(#p1ea46fbcbf)" d="M 103.248 330.68 
L 114.893091 330.68 
L 114.893091 329.263039 
L 103.248 329.263039 
z
" style="fill:#2ca02c;opacity:0.8;"/>
   </g>
   <g id="patch_57">
    <path clip-path="url(#p1ea46fbcbf)" d="M 114.893091 330.68 
L 126.538182 330.68 
L 126.538182 326.995902 
L 114.893091 326.995902 
z
" style="fill:#2ca02c;opacity:0.8;"/>
   </g>
   <g id="patch_58">
    <path clip-path="url(#p1ea46fbcbf)" d="M 126.538182 330.68 
L 138.183273 330.68 
L 138.183273 326.71251 
L 126.538182 326.71251 
z
" style="fill:#2ca02c;opacity:0.8;"/>
   </g>
   <g id="patch_59">
    <path clip-path="url(#p1ea46fbcbf)" d="M 138.183273 330.68 
L 149.828364 330.68 
L 149.828364 325.578941 
L 138.183273 325.578941 
z
" style="fill:#2ca02c;opacity:0.8;"/>
   </g>
   <g id="patch_60">
    <path clip-path="url(#p1ea46fbcbf)" d="M 149.828364 330.68 
L 161.473455 330.68 
L 161.473455 324.161981 
L 149.828364 324.161981 
z
" style="fill:#2ca02c;opacity:0.8;"/>
   </g>
   <g id="patch_61">
    <path clip-path="url(#p1ea46fbcbf)" d="M 161.473455 330.68 
L 173.118545 330.68 
L 173.118545 319.911099 
L 161.473455 319.911099 
z
" style="fill:#2ca02c;opacity:0.8;"/>
   </g>
   <g id="patch_62">
    <path clip-path="url(#p1ea46fbcbf)" d="M 173.118545 330.68 
L 184.763636 330.68 
L 184.763636 311.692727 
L 173.118545 311.692727 
z
" style="fill:#2ca02c;opacity:0.8;"/>
   </g>
   <g id="patch_63">
    <path clip-path="url(#p1ea46fbcbf)" d="M 184.763636 330.68 
L 196.408727 330.68 
L 196.408727 312.826295 
L 184.763636 312.826295 
z
" style="fill:#2ca02c;opacity:0.8;"/>
   </g>
   <g id="patch_64">
    <path clip-path="url(#p1ea46fbcbf)" d="M 196.408727 330.68 
L 208.053818 330.68 
L 208.053818 306.024884 
L 196.408727 306.024884 
z
" style="fill:#2ca02c;opacity:0.8;"/>
   </g>
   <g id="patch_65">
    <path clip-path="url(#p1ea46fbcbf)" d="M 208.053818 330.68 
L 219.698909 330.68 
L 219.698909 298.656688 
L 208.053818 298.656688 
z
" style="fill:#2ca02c;opacity:0.8;"/>
   </g>
   <g id="patch_66">
    <path clip-path="url(#p1ea46fbcbf)" d="M 219.698909 330.68 
L 231.344 330.68 
L 231.344 283.636905 
L 219.698909 283.636905 
z
" style="fill:#2ca02c;opacity:0.8;"/>
   </g>
   <g id="patch_67">
    <path clip-path="url(#p1ea46fbcbf)" d="M 231.344 330.68 
L 242.989091 330.68 
L 242.989091 276.835493 
L 231.344 276.835493 
z
" style="fill:#2ca02c;opacity:0.8;"/>
   </g>
   <g id="patch_68">
    <path clip-path="url(#p1ea46fbcbf)" d="M 242.989091 330.68 
L 254.634182 330.68 
L 254.634182 263.516063 
L 242.989091 263.516063 
z
" style="fill:#2ca02c;opacity:0.8;"/>
   </g>
   <g id="patch_69">
    <path clip-path="url(#p1ea46fbcbf)" d="M 254.634182 330.68 
L 266.279273 330.68 
L 266.279273 253.88073 
L 254.634182 253.88073 
z
" style="fill:#2ca02c;opacity:0.8;"/>
   </g>
   <g id="patch_70">
    <path clip-path="url(#p1ea46fbcbf)" d="M 266.279273 330.68 
L 277.924364 330.68 
L 277.924364 240.844692 
L 266.279273 240.844692 
z
" style="fill:#2ca02c;opacity:0.8;"/>
   </g>
   <g id="patch_71">
    <path clip-path="url(#p1ea46fbcbf)" d="M 277.924364 330.68 
L 289.569455 330.68 
L 289.569455 229.225614 
L 277.924364 229.225614 
z
" style="fill:#2ca02c;opacity:0.8;"/>
   </g>
   <g id="patch_72">
    <path clip-path="url(#p1ea46fbcbf)" d="M 289.569455 330.68 
L 301.214545 330.68 
L 301.214545 213.922438 
L 289.569455 213.922438 
z
" style="fill:#2ca02c;opacity:0.8;"/>
   </g>
   <g id="patch_73">
    <path clip-path="url(#p1ea46fbcbf)" d="M 301.214545 330.68 
L 312.859636 330.68 
L 312.859636 200.8864 
L 301.214545 200.8864 
z
" style="fill:#2ca02c;opacity:0.8;"/>
   </g>
   <g id="patch_74">
    <path clip-path="url(#p1ea46fbcbf)" d="M 312.859636 330.68 
L 324.504727 330.68 
L 324.504727 194.084989 
L 312.859636 194.084989 
z
" style="fill:#2ca02c;opacity:0.8;"/>
   </g>
   <g id="patch_75">
    <path clip-path="url(#p1ea46fbcbf)" d="M 324.504727 330.68 
L 336.149818 330.68 
L 336.149818 179.63199 
L 324.504727 179.63199 
z
" style="fill:#2ca02c;opacity:0.8;"/>
   </g>
   <g id="patch_76">
    <path clip-path="url(#p1ea46fbcbf)" d="M 336.149818 330.68 
L 347.794909 330.68 
L 347.794909 178.781813 
L 336.149818 178.781813 
z
" style="fill:#2ca02c;opacity:0.8;"/>
   </g>
   <g id="patch_77">
    <path clip-path="url(#p1ea46fbcbf)" d="M 347.794909 330.68 
L 359.44 330.68 
L 359.44 182.749303 
L 347.794909 182.749303 
z
" style="fill:#2ca02c;opacity:0.8;"/>
   </g>
   <g id="patch_78">
    <path clip-path="url(#p1ea46fbcbf)" d="M 359.44 330.68 
L 371.085091 330.68 
L 371.085091 178.498421 
L 359.44 178.498421 
z
" style="fill:#2ca02c;opacity:0.8;"/>
   </g>
   <g id="patch_79">
    <path clip-path="url(#p1ea46fbcbf)" d="M 371.085091 330.68 
L 382.730182 330.68 
L 382.730182 175.6645 
L 371.085091 175.6645 
z
" style="fill:#2ca02c;opacity:0.8;"/>
   </g>
   <g id="patch_80">
    <path clip-path="url(#p1ea46fbcbf)" d="M 382.730182 330.68 
L 394.375273 330.68 
L 394.375273 181.615735 
L 382.730182 181.615735 
z
" style="fill:#2ca02c;opacity:0.8;"/>
   </g>
   <g id="patch_81">
    <path clip-path="url(#p1ea46fbcbf)" d="M 394.375273 330.68 
L 406.020364 330.68 
L 406.020364 194.084989 
L 394.375273 194.084989 
z
" style="fill:#2ca02c;opacity:0.8;"/>
   </g>
   <g id="patch_82">
    <path clip-path="url(#p1ea46fbcbf)" d="M 406.020364 330.68 
L 417.665455 330.68 
L 417.665455 195.218557 
L 406.020364 195.218557 
z
" style="fill:#2ca02c;opacity:0.8;"/>
   </g>
   <g id="patch_83">
    <path clip-path="url(#p1ea46fbcbf)" d="M 417.665455 330.68 
L 429.310545 330.68 
L 429.310545 219.023497 
L 417.665455 219.023497 
z
" style="fill:#2ca02c;opacity:0.8;"/>
   </g>
   <g id="patch_84">
    <path clip-path="url(#p1ea46fbcbf)" d="M 429.310545 330.68 
L 440.955636 330.68 
L 440.955636 222.990987 
L 429.310545 222.990987 
z
" style="fill:#2ca02c;opacity:0.8;"/>
   </g>
   <g id="patch_85">
    <path clip-path="url(#p1ea46fbcbf)" d="M 440.955636 330.68 
L 452.600727 330.68 
L 452.600727 233.193104 
L 440.955636 233.193104 
z
" style="fill:#2ca02c;opacity:0.8;"/>
   </g>
   <g id="patch_86">
    <path clip-path="url(#p1ea46fbcbf)" d="M 452.600727 330.68 
L 464.245818 330.68 
L 464.245818 260.115357 
L 452.600727 260.115357 
z
" style="fill:#2ca02c;opacity:0.8;"/>
   </g>
   <g id="patch_87">
    <path clip-path="url(#p1ea46fbcbf)" d="M 464.245818 330.68 
L 475.890909 330.68 
L 475.890909 259.831965 
L 464.245818 259.831965 
z
" style="fill:#2ca02c;opacity:0.8;"/>
   </g>
   <g id="patch_88">
    <path clip-path="url(#p1ea46fbcbf)" d="M 475.890909 330.68 
L 487.536 330.68 
L 487.536 277.969062 
L 475.890909 277.969062 
z
" style="fill:#2ca02c;opacity:0.8;"/>
   </g>
   <g id="patch_89">
    <path clip-path="url(#p1ea46fbcbf)" d="M 487.536 330.68 
L 499.181091 330.68 
L 499.181091 284.203689 
L 487.536 284.203689 
z
" style="fill:#2ca02c;opacity:0.8;"/>
   </g>
   <g id="patch_90">
    <path clip-path="url(#p1ea46fbcbf)" d="M 499.181091 330.68 
L 510.826182 330.68 
L 510.826182 292.422061 
L 499.181091 292.422061 
z
" style="fill:#2ca02c;opacity:0.8;"/>
   </g>
   <g id="patch_91">
    <path clip-path="url(#p1ea46fbcbf)" d="M 510.826182 330.68 
L 522.471273 330.68 
L 522.471273 298.94008 
L 510.826182 298.94008 
z
" style="fill:#2ca02c;opacity:0.8;"/>
   </g>
   <g id="patch_92">
    <path clip-path="url(#p1ea46fbcbf)" d="M 522.471273 330.68 
L 534.116364 330.68 
L 534.116364 308.858805 
L 522.471273 308.858805 
z
" style="fill:#2ca02c;opacity:0.8;"/>
   </g>
   <g id="patch_93">
    <path clip-path="url(#p1ea46fbcbf)" d="M 534.116364 330.68 
L 545.761455 330.68 
L 545.761455 317.077177 
L 534.116364 317.077177 
z
" style="fill:#2ca02c;opacity:0.8;"/>
   </g>
   <g id="patch_94">
    <path clip-path="url(#p1ea46fbcbf)" d="M 545.761455 330.68 
L 557.406545 330.68 
L 557.406545 318.494138 
L 545.761455 318.494138 
z
" style="fill:#2ca02c;opacity:0.8;"/>
   </g>
   <g id="patch_95">
    <path clip-path="url(#p1ea46fbcbf)" d="M 557.406545 330.68 
L 569.051636 330.68 
L 569.051636 321.044667 
L 557.406545 321.044667 
z
" style="fill:#2ca02c;opacity:0.8;"/>
   </g>
   <g id="patch_96">
    <path clip-path="url(#p1ea46fbcbf)" d="M 569.051636 330.68 
L 580.696727 330.68 
L 580.696727 323.595197 
L 569.051636 323.595197 
z
" style="fill:#2ca02c;opacity:0.8;"/>
   </g>
   <g id="patch_97">
    <path clip-path="url(#p1ea46fbcbf)" d="M 580.696727 330.68 
L 592.341818 330.68 
L 592.341818 324.161981 
L 580.696727 324.161981 
z
" style="fill:#2ca02c;opacity:0.8;"/>
   </g>
   <g id="patch_98">
    <path clip-path="url(#p1ea46fbcbf)" d="M 592.341818 330.68 
L 603.986909 330.68 
L 603.986909 326.71251 
L 592.341818 326.71251 
z
" style="fill:#2ca02c;opacity:0.8;"/>
   </g>
   <g id="patch_99">
    <path clip-path="url(#p1ea46fbcbf)" d="M 603.986909 330.68 
L 615.632 330.68 
L 615.632 328.129471 
L 603.986909 328.129471 
z
" style="fill:#2ca02c;opacity:0.8;"/>
   </g>
   <g id="patch_100">
    <path clip-path="url(#p1ea46fbcbf)" d="M 615.632 330.68 
L 627.277091 330.68 
L 627.277091 328.696255 
L 615.632 328.696255 
z
" style="fill:#2ca02c;opacity:0.8;"/>
   </g>
   <g id="patch_101">
    <path clip-path="url(#p1ea46fbcbf)" d="M 627.277091 330.68 
L 638.922182 330.68 
L 638.922182 330.396608 
L 627.277091 330.396608 
z
" style="fill:#2ca02c;opacity:0.8;"/>
   </g>
   <g id="patch_102">
    <path clip-path="url(#p1ea46fbcbf)" d="M 638.922182 330.68 
L 650.567273 330.68 
L 650.567273 329.829824 
L 638.922182 329.829824 
z
" style="fill:#2ca02c;opacity:0.8;"/>
   </g>
   <g id="matplotlib.axis_1">
    <g id="xtick_1">
     <g id="line2d_1">
      <defs>
       <path d="M 0 0 
L 0 3.5 
" id="md0957ed6a1" style="stroke:#000000;stroke-width:0.8;"/>
      </defs>
      <g>
       <use style="stroke:#000000;stroke-width:0.8;" x="83.366803" xlink:href="#md0957ed6a1" y="330.68"/>
      </g>
     </g>
     <g id="text_1">
      <!-- −6 -->
      <g transform="translate(71.516803 351.339375)scale(0.2 -0.2)">
       <defs>
        <path d="M 62.09375 22 
L 6.40625 22 
L 6.40625 28.59375 
L 62.09375 28.59375 
z
" id="STIXGeneral-Regular-8722"/>
        <path d="M 44.59375 68.40625 
L 44.796875 66.796875 
Q 33 64.90625 25.09375 57.25 
Q 17.203125 49.59375 15.203125 38.296875 
Q 21 42.796875 27.90625 42.796875 
Q 36.703125 42.796875 41.75 37.1875 
Q 46.796875 31.59375 46.796875 21.90625 
Q 46.796875 12.09375 41.703125 5.90625 
Q 35.796875 -1.40625 25.796875 -1.40625 
Q 13.59375 -1.40625 8.09375 8.703125 
Q 3.40625 17.296875 3.40625 27.90625 
Q 3.40625 44.296875 14.296875 55.5 
Q 20.5 61.90625 27.046875 64.546875 
Q 33.59375 67.203125 44.59375 68.40625 
z
M 37.796875 18.796875 
Q 37.796875 38.203125 24.296875 38.203125 
Q 19.296875 38.203125 16 35.546875 
Q 12.703125 32.90625 12.703125 26.59375 
Q 12.703125 14.90625 16.34375 8.15625 
Q 20 1.40625 26.90625 1.40625 
Q 32.203125 1.40625 35 6.15625 
Q 37.796875 10.90625 37.796875 18.796875 
z
" id="STIXGeneral-Regular-54"/>
       </defs>
       <use xlink:href="#STIXGeneral-Regular-8722"/>
       <use x="68.499985" xlink:href="#STIXGeneral-Regular-54"/>
      </g>
     </g>
    </g>
    <g id="xtick_2">
     <g id="line2d_2">
      <g>
       <use style="stroke:#000000;stroke-width:0.8;" x="168.832286" xlink:href="#md0957ed6a1" y="330.68"/>
      </g>
     </g>
     <g id="text_2">
      <!-- −4 -->
      <g transform="translate(156.982286 351.339375)scale(0.2 -0.2)">
       <defs>
        <path d="M 47.296875 16.703125 
L 37 16.703125 
L 37 0 
L 29.203125 0 
L 29.203125 16.703125 
L 1.203125 16.703125 
L 1.203125 23.09375 
L 32.59375 67.59375 
L 37 67.59375 
L 37 23.09375 
L 47.296875 23.09375 
z
M 29.203125 23.09375 
L 29.203125 57.40625 
L 5.203125 23.09375 
z
" id="STIXGeneral-Regular-52"/>
       </defs>
       <use xlink:href="#STIXGeneral-Regular-8722"/>
       <use x="68.499985" xlink:href="#STIXGeneral-Regular-52"/>
      </g>
     </g>
    </g>
    <g id="xtick_3">
     <g id="line2d_3">
      <g>
       <use style="stroke:#000000;stroke-width:0.8;" x="254.297768" xlink:href="#md0957ed6a1" y="330.68"/>
      </g>
     </g>
     <g id="text_3">
      <!-- −2 -->
      <g transform="translate(242.447768 351.339375)scale(0.2 -0.2)">
       <defs>
        <path d="M 47.40625 13.703125 
L 42 0 
L 2.90625 0 
L 2.90625 1.203125 
L 20.703125 20.09375 
Q 27.703125 27.40625 30.703125 33.5 
Q 33.703125 39.59375 33.703125 46.09375 
Q 33.703125 52.796875 30 56.5 
Q 26.296875 60.203125 19.796875 60.203125 
Q 14.40625 60.203125 11.25 57.390625 
Q 8.09375 54.59375 5.09375 47.203125 
L 3 47.703125 
Q 4.703125 57 9.84375 62.296875 
Q 15 67.59375 23.796875 67.59375 
Q 32.09375 67.59375 37.1875 62.59375 
Q 42.296875 57.59375 42.296875 50 
Q 42.296875 38.703125 29.5 25.203125 
L 13 7.59375 
L 36.40625 7.59375 
Q 39.703125 7.59375 41.640625 8.890625 
Q 43.59375 10.203125 46 14.296875 
z
" id="STIXGeneral-Regular-50"/>
       </defs>
       <use xlink:href="#STIXGeneral-Regular-8722"/>
       <use x="68.499985" xlink:href="#STIXGeneral-Regular-50"/>
      </g>
     </g>
    </g>
    <g id="xtick_4">
     <g id="line2d_4">
      <g>
       <use style="stroke:#000000;stroke-width:0.8;" x="339.763251" xlink:href="#md0957ed6a1" y="330.68"/>
      </g>
     </g>
     <g id="text_4">
      <!-- 0 -->
      <g transform="translate(334.763251 351.339375)scale(0.2 -0.2)">
       <defs>
        <path d="M 47.59375 33 
Q 47.59375 26.296875 46.296875 20.34375 
Q 45 14.40625 42.453125 9.40625 
Q 39.90625 4.40625 35.40625 1.5 
Q 30.90625 -1.40625 25 -1.40625 
Q 18.90625 -1.40625 14.296875 1.6875 
Q 9.703125 4.796875 7.203125 10 
Q 4.703125 15.203125 3.546875 21.09375 
Q 2.40625 27 2.40625 33.59375 
Q 2.40625 42.90625 4.703125 50.34375 
Q 7 57.796875 12.34375 62.6875 
Q 17.703125 67.59375 25.40625 67.59375 
Q 35.203125 67.59375 41.390625 58 
Q 47.59375 48.40625 47.59375 33 
z
M 38 32.5 
Q 38 48.296875 34.640625 56.640625 
Q 31.296875 65 24.796875 65 
Q 18.59375 65 15.296875 56.59375 
Q 12 48.203125 12 32.90625 
Q 12 17.5 15.296875 9.34375 
Q 18.59375 1.203125 25 1.203125 
Q 31.296875 1.203125 34.640625 9.34375 
Q 38 17.5 38 32.5 
z
" id="STIXGeneral-Regular-48"/>
       </defs>
       <use xlink:href="#STIXGeneral-Regular-48"/>
      </g>
     </g>
    </g>
    <g id="xtick_5">
     <g id="line2d_5">
      <g>
       <use style="stroke:#000000;stroke-width:0.8;" x="425.228733" xlink:href="#md0957ed6a1" y="330.68"/>
      </g>
     </g>
     <g id="text_5">
      <!-- 2 -->
      <g transform="translate(420.228733 351.339375)scale(0.2 -0.2)">
       <use xlink:href="#STIXGeneral-Regular-50"/>
      </g>
     </g>
    </g>
    <g id="xtick_6">
     <g id="line2d_6">
      <g>
       <use style="stroke:#000000;stroke-width:0.8;" x="510.694216" xlink:href="#md0957ed6a1" y="330.68"/>
      </g>
     </g>
     <g id="text_6">
      <!-- 4 -->
      <g transform="translate(505.694216 351.339375)scale(0.2 -0.2)">
       <use xlink:href="#STIXGeneral-Regular-52"/>
      </g>
     </g>
    </g>
    <g id="xtick_7">
     <g id="line2d_7">
      <g>
       <use style="stroke:#000000;stroke-width:0.8;" x="596.159699" xlink:href="#md0957ed6a1" y="330.68"/>
      </g>
     </g>
     <g id="text_7">
      <!-- 6 -->
      <g transform="translate(591.159699 351.339375)scale(0.2 -0.2)">
       <use xlink:href="#STIXGeneral-Regular-54"/>
      </g>
     </g>
    </g>
   </g>
   <g id="matplotlib.axis_2">
    <g id="ytick_1">
     <g id="line2d_8">
      <defs>
       <path d="M 0 0 
L -3.5 0 
" id="med98aa8c11" style="stroke:#000000;stroke-width:0.8;"/>
      </defs>
      <g>
       <use style="stroke:#000000;stroke-width:0.8;" x="39.2" xlink:href="#med98aa8c11" y="330.68"/>
      </g>
     </g>
     <g id="text_8">
      <!-- 0.0 -->
      <g transform="translate(7.2 337.509687)scale(0.2 -0.2)">
       <defs>
        <path d="M 18.09375 4.296875 
Q 18.09375 2.09375 16.4375 0.5 
Q 14.796875 -1.09375 12.5 -1.09375 
Q 10.203125 -1.09375 8.59375 0.5 
Q 7 2.09375 7 4.390625 
Q 7 6.703125 8.640625 8.34375 
Q 10.296875 10 12.59375 10 
Q 14.796875 10 16.4375 8.296875 
Q 18.09375 6.59375 18.09375 4.296875 
z
" id="STIXGeneral-Regular-46"/>
       </defs>
       <use xlink:href="#STIXGeneral-Regular-48"/>
       <use x="49.999985" xlink:href="#STIXGeneral-Regular-46"/>
       <use x="74.999969" xlink:href="#STIXGeneral-Regular-48"/>
      </g>
     </g>
    </g>
    <g id="ytick_2">
     <g id="line2d_9">
      <g>
       <use style="stroke:#000000;stroke-width:0.8;" x="39.2" xlink:href="#med98aa8c11" y="253.452864"/>
      </g>
     </g>
     <g id="text_9">
      <!-- 0.1 -->
      <g transform="translate(7.2 260.282551)scale(0.2 -0.2)">
       <defs>
        <path d="M 39.40625 0 
L 11.796875 0 
L 11.796875 1.5 
Q 17.296875 1.796875 19.296875 3.546875 
Q 21.296875 5.296875 21.296875 9.5 
L 21.296875 54.40625 
Q 21.296875 59.296875 18.296875 59.296875 
Q 16.90625 59.296875 13.796875 58.09375 
L 11.09375 57.09375 
L 11.09375 58.5 
L 29 67.59375 
L 29.90625 67.296875 
L 29.90625 7.59375 
Q 29.90625 4.296875 31.90625 2.890625 
Q 33.90625 1.5 39.40625 1.5 
z
" id="STIXGeneral-Regular-49"/>
       </defs>
       <use xlink:href="#STIXGeneral-Regular-48"/>
       <use x="49.999985" xlink:href="#STIXGeneral-Regular-46"/>
       <use x="74.999969" xlink:href="#STIXGeneral-Regular-49"/>
      </g>
     </g>
    </g>
    <g id="ytick_3">
     <g id="line2d_10">
      <g>
       <use style="stroke:#000000;stroke-width:0.8;" x="39.2" xlink:href="#med98aa8c11" y="176.225728"/>
      </g>
     </g>
     <g id="text_10">
      <!-- 0.2 -->
      <g transform="translate(7.2 183.055415)scale(0.2 -0.2)">
       <use xlink:href="#STIXGeneral-Regular-48"/>
       <use x="49.999985" xlink:href="#STIXGeneral-Regular-46"/>
       <use x="74.999969" xlink:href="#STIXGeneral-Regular-50"/>
      </g>
     </g>
    </g>
    <g id="ytick_4">
     <g id="line2d_11">
      <g>
       <use style="stroke:#000000;stroke-width:0.8;" x="39.2" xlink:href="#med98aa8c11" y="98.998592"/>
      </g>
     </g>
     <g id="text_11">
      <!-- 0.3 -->
      <g transform="translate(7.2 105.828279)scale(0.2 -0.2)">
       <defs>
        <path d="M 6.09375 51 
L 4.5 51.40625 
Q 6.796875 58.90625 11.6875 63.25 
Q 16.59375 67.59375 24.09375 67.59375 
Q 31.09375 67.59375 35.390625 63.796875 
Q 39.703125 60 39.703125 53.90625 
Q 39.703125 45.703125 30.40625 40.09375 
Q 35.90625 37.703125 38.703125 34.796875 
Q 43.09375 29.90625 43.09375 21.90625 
Q 43.09375 13.90625 38.5 7.90625 
Q 35.09375 3.296875 28.75 0.9375 
Q 22.40625 -1.40625 15.296875 -1.40625 
Q 4.09375 -1.40625 4.09375 4.296875 
Q 4.09375 5.90625 5.296875 6.90625 
Q 6.5 7.90625 8.203125 7.90625 
Q 10.703125 7.90625 14.296875 5.296875 
Q 18.703125 2.203125 22.90625 2.203125 
Q 28.40625 2.203125 32.15625 6.640625 
Q 35.90625 11.09375 35.90625 17.5 
Q 35.90625 29 25.5 32 
Q 22.40625 33 15.296875 33 
L 15.296875 34.40625 
Q 20.90625 36.296875 23.703125 38 
Q 31.796875 42.59375 31.796875 51.40625 
Q 31.796875 56.40625 28.9375 59 
Q 26.09375 61.59375 21 61.59375 
Q 12 61.59375 6.09375 51 
z
" id="STIXGeneral-Regular-51"/>
       </defs>
       <use xlink:href="#STIXGeneral-Regular-48"/>
       <use x="49.999985" xlink:href="#STIXGeneral-Regular-46"/>
       <use x="74.999969" xlink:href="#STIXGeneral-Regular-51"/>
      </g>
     </g>
    </g>
    <g id="ytick_5">
     <g id="line2d_12">
      <g>
       <use style="stroke:#000000;stroke-width:0.8;" x="39.2" xlink:href="#med98aa8c11" y="21.771456"/>
      </g>
     </g>
     <g id="text_12">
      <!-- 0.4 -->
      <g transform="translate(7.2 28.601143)scale(0.2 -0.2)">
       <use xlink:href="#STIXGeneral-Regular-48"/>
       <use x="49.999985" xlink:href="#STIXGeneral-Regular-46"/>
       <use x="74.999969" xlink:href="#STIXGeneral-Regular-52"/>
      </g>
     </g>
    </g>
   </g>
   <g id="line2d_13">
    <path clip-path="url(#p1ea46fbcbf)" d="M 211.565027 327.25741 
L 214.99508 326.339547 
L 218.425132 325.210884 
L 221.855185 323.832987 
L 225.285238 322.162992 
L 227.857778 320.690581 
L 230.430317 319.006006 
L 233.002857 317.086705 
L 235.575397 314.909114 
L 238.147936 312.448873 
L 240.720476 309.681077 
L 243.293015 306.580582 
L 245.865555 303.12235 
L 248.438095 299.281865 
L 251.010634 295.035576 
L 253.583174 290.361403 
L 256.155713 285.239272 
L 258.728253 279.651686 
L 261.300793 273.584324 
L 263.873332 267.026646 
L 266.445872 259.97251 
L 269.875925 249.793524 
L 273.305977 238.743428 
L 276.73603 226.854845 
L 280.166083 214.181921 
L 284.453649 197.357287 
L 288.741215 179.631131 
L 294.743808 153.803101 
L 305.891479 105.644835 
L 310.179045 88.240429 
L 313.609098 75.211045 
L 316.181638 66.10254 
L 318.754177 57.660531 
L 321.326717 49.968338 
L 323.899256 43.103522 
L 325.614283 39.02178 
L 327.329309 35.358168 
L 329.044336 32.129804 
L 330.759362 29.351895 
L 332.474389 27.037616 
L 334.189415 25.198004 
L 335.904441 23.841877 
L 337.619468 22.975753 
L 338.476981 22.727841 
L 339.334494 22.60381 
L 340.192007 22.60381 
L 341.049521 22.727841 
L 341.907034 22.975753 
L 342.764547 23.347248 
L 344.479573 24.459043 
L 346.1946 26.057872 
L 347.909626 28.136061 
L 349.624653 30.68367 
L 351.339679 33.688583 
L 353.054705 37.136595 
L 354.769732 41.011526 
L 356.484758 45.295352 
L 359.057298 52.444168 
L 361.629837 60.395231 
L 364.202377 69.068908 
L 367.63243 81.61048 
L 371.062483 95.073697 
L 375.350049 112.866413 
L 382.210154 142.563011 
L 390.785286 179.631131 
L 395.930366 200.80163 
L 400.217932 217.419874 
L 403.647984 229.90302 
L 407.078037 241.58619 
L 410.50809 252.420762 
L 413.938143 262.379231 
L 416.510682 269.267495 
L 419.083222 275.660821 
L 421.655762 281.566888 
L 424.228301 286.997562 
L 426.800841 291.96829 
L 429.373381 296.497494 
L 431.94592 300.605978 
L 434.51846 304.316371 
L 437.090999 307.652599 
L 439.663539 310.6394 
L 442.236079 313.301888 
L 444.808618 315.665166 
L 447.381158 317.753989 
L 449.953697 319.592476 
L 452.526237 321.203876 
L 455.098777 322.610383 
L 458.528829 324.203096 
L 461.958882 325.514838 
L 465.388935 326.587372 
L 467.961475 327.25741 
L 467.961475 327.25741 
" style="fill:none;stroke:#1f77b4;stroke-linecap:square;stroke-width:3;"/>
   </g>
   <g id="patch_103">
    <path d="M 39.2 330.68 
L 39.2 7.2 
" style="fill:none;stroke:#000000;stroke-linecap:square;stroke-linejoin:miter;stroke-width:0.8;"/>
   </g>
   <g id="patch_104">
    <path d="M 679.68 330.68 
L 679.68 7.2 
" style="fill:none;stroke:#000000;stroke-linecap:square;stroke-linejoin:miter;stroke-width:0.8;"/>
   </g>
   <g id="patch_105">
    <path d="M 39.2 330.68 
L 679.68 330.68 
" style="fill:none;stroke:#000000;stroke-linecap:square;stroke-linejoin:miter;stroke-width:0.8;"/>
   </g>
   <g id="patch_106">
    <path d="M 39.2 7.2 
L 679.68 7.2 
" style="fill:none;stroke:#000000;stroke-linecap:square;stroke-linejoin:miter;stroke-width:0.8;"/>
   </g>
   <g id="legend_1">
    <g id="line2d_14">
     <path d="M 490.705 27.2 
L 522.705 27.2 
" style="fill:none;stroke:#1f77b4;stroke-linecap:square;stroke-width:3;"/>
    </g>
    <g id="line2d_15"/>
    <g id="text_13">
     <!-- Std norm: analytical -->
     <g transform="translate(535.505 32.8)scale(0.16 -0.16)">
      <defs>
       <path d="M 46.90625 46.296875 
L 44.40625 46.296875 
Q 42.703125 52.5 40.296875 55.703125 
Q 34.203125 63.5 25.796875 63.5 
Q 21.203125 63.5 18.453125 60.84375 
Q 15.703125 58.203125 15.703125 54 
Q 15.703125 52 16.703125 50.09375 
Q 17.703125 48.203125 18.84375 46.84375 
Q 20 45.5 22.890625 43.5 
Q 25.796875 41.5 27.59375 40.453125 
Q 29.40625 39.40625 33.59375 36.90625 
Q 41.703125 32.203125 45.390625 27.546875 
Q 49.09375 22.90625 49.09375 17.296875 
Q 49.09375 9 43.296875 3.796875 
Q 37.5 -1.40625 28.703125 -1.40625 
Q 22.203125 -1.40625 16.90625 0.90625 
Q 14.296875 2 12.203125 2 
Q 11 2 10.203125 1.09375 
Q 9.40625 0.203125 9.40625 -1.296875 
L 7.203125 -1.296875 
L 4.296875 19.90625 
L 6.5 19.90625 
Q 13.203125 2.203125 27.09375 2.203125 
Q 32.40625 2.203125 35.703125 5.34375 
Q 39 8.5 39 13.40625 
Q 39 18.09375 36.09375 21.296875 
Q 31.296875 26.5 19.296875 32.90625 
Q 7.09375 39.40625 7.09375 50.09375 
Q 7.09375 58.09375 12 62.84375 
Q 16.90625 67.59375 24.5 67.59375 
Q 29.796875 67.59375 35 65.40625 
Q 37.703125 64.203125 39.40625 64.203125 
Q 42 64.203125 42.59375 67.59375 
L 44.703125 67.59375 
z
" id="STIXGeneral-Regular-83"/>
       <path d="M 26.59375 7.703125 
L 27.90625 6.59375 
Q 23.09375 -1 15.796875 -1 
Q 7 -1 7 11.703125 
L 7 41.796875 
L 1.703125 41.796875 
Q 1.296875 42.09375 1.296875 42.5 
Q 1.296875 43.296875 3 44.40625 
Q 6.796875 46.59375 12.703125 55.09375 
Q 12.90625 55.40625 13.65625 56.34375 
Q 14.40625 57.296875 14.703125 57.90625 
Q 15.40625 57.90625 15.40625 56.59375 
L 15.40625 45 
L 25.5 45 
L 25.5 41.796875 
L 15.40625 41.796875 
L 15.40625 13.203125 
Q 15.40625 8.40625 16.59375 6.296875 
Q 17.796875 4.203125 20.59375 4.203125 
Q 23.59375 4.203125 26.59375 7.703125 
z
" id="STIXGeneral-Regular-116"/>
       <path d="M 49.09375 4.203125 
L 34.40625 -1 
L 34 -0.703125 
L 34 5.703125 
Q 29.203125 -1 21.203125 -1 
Q 12.90625 -1 7.796875 4.953125 
Q 2.703125 10.90625 2.703125 20.5 
Q 2.703125 31.09375 8.796875 38.546875 
Q 14.90625 46 23.5 46 
Q 28.90625 46 34 41.703125 
L 34 57.296875 
Q 34 60.40625 33.09375 61.40625 
Q 32.203125 62.40625 29.40625 62.40625 
Q 28 62.40625 27.203125 62.296875 
L 27.203125 63.90625 
Q 36.296875 66.296875 41.90625 68.296875 
L 42.40625 68.09375 
L 42.40625 11.40625 
Q 42.40625 7.90625 43.25 6.796875 
Q 44.09375 5.703125 46.796875 5.703125 
Q 47.40625 5.703125 49.09375 5.796875 
z
M 34 10.203125 
L 34 33.203125 
Q 34 37.203125 30.953125 40.203125 
Q 27.90625 43.203125 23.796875 43.203125 
Q 18.09375 43.203125 14.6875 38.09375 
Q 11.296875 33 11.296875 24.5 
Q 11.296875 15.296875 15.046875 9.75 
Q 18.796875 4.203125 25.09375 4.203125 
Q 29.796875 4.203125 32.5 7.40625 
Q 34 9.09375 34 10.203125 
z
" id="STIXGeneral-Regular-100"/>
       <path id="STIXGeneral-Regular-32"/>
       <path d="M 48.5 0 
L 27.703125 0 
L 27.796875 1.5 
Q 31.5 1.796875 32.75 3.640625 
Q 34 5.5 34 10.5 
L 34 30.40625 
Q 34 40.5 26.703125 40.5 
Q 24.203125 40.5 22 39.296875 
Q 19.796875 38.09375 16.40625 34.796875 
L 16.40625 7.203125 
Q 16.40625 4.203125 17.75 3 
Q 19.09375 1.796875 22.90625 1.5 
L 22.90625 0 
L 1.796875 0 
L 1.796875 1.5 
Q 5.59375 1.796875 6.796875 3.34375 
Q 8 4.90625 8 9.40625 
L 8 33.703125 
Q 8 37.40625 7.296875 38.796875 
Q 6.59375 40.203125 4.5 40.203125 
Q 2.5 40.203125 1.59375 39.796875 
L 1.59375 41.5 
Q 8.59375 43.5 15.296875 46 
L 16.09375 45.703125 
L 16.09375 37.90625 
L 16.203125 37.90625 
Q 23.296875 46 30.59375 46 
Q 36.296875 46 39.34375 42 
Q 42.40625 38 42.40625 30.59375 
L 42.40625 8.5 
Q 42.40625 4.5 43.59375 3.203125 
Q 44.796875 1.90625 48.5 1.5 
z
" id="STIXGeneral-Regular-110"/>
       <path d="M 47 23.09375 
Q 47 12.59375 40.75 5.796875 
Q 34.5 -1 24.5 -1 
Q 15.296875 -1 9.09375 5.75 
Q 2.90625 12.5 2.90625 22.796875 
Q 2.90625 33.203125 9.09375 39.59375 
Q 15.296875 46 25.40625 46 
Q 34.703125 46 40.84375 39.640625 
Q 47 33.296875 47 23.09375 
z
M 38 20.40625 
Q 38 31.796875 33 38.203125 
Q 29 43.203125 23.5 43.203125 
Q 18.296875 43.203125 15.09375 38.953125 
Q 11.90625 34.703125 11.90625 27.296875 
Q 11.90625 14.5 17.203125 6.796875 
Q 20.59375 1.796875 26.203125 1.796875 
Q 31.703125 1.796875 34.84375 6.75 
Q 38 11.703125 38 20.40625 
z
" id="STIXGeneral-Regular-111"/>
       <path d="M 16 45.796875 
L 16 36.59375 
Q 19.796875 42 22.34375 44 
Q 24.90625 46 28 46 
Q 30.59375 46 32.046875 44.59375 
Q 33.5 43.203125 33.5 40.703125 
Q 33.5 38.59375 32.453125 37.390625 
Q 31.40625 36.203125 29.59375 36.203125 
Q 27.703125 36.203125 25.59375 38.203125 
Q 24 39.703125 23 39.703125 
Q 20.90625 39.703125 18.453125 36.796875 
Q 16 33.90625 16 31.5 
L 16 9 
Q 16 4.703125 17.703125 3.203125 
Q 19.40625 1.703125 24.5 1.5 
L 24.5 0 
L 0.5 0 
L 0.5 1.5 
Q 5.296875 2.40625 6.4375 3.5 
Q 7.59375 4.59375 7.59375 8.40625 
L 7.59375 33.40625 
Q 7.59375 36.703125 6.84375 38.046875 
Q 6.09375 39.40625 4.203125 39.40625 
Q 2.59375 39.40625 0.703125 39 
L 0.703125 40.59375 
Q 7 42.59375 15.5 46 
z
" id="STIXGeneral-Regular-114"/>
       <path d="M 77.5 0 
L 55.703125 0 
L 55.703125 1.5 
Q 59.90625 1.90625 61.046875 3.25 
Q 62.203125 4.59375 62.203125 9 
L 62.203125 29.59375 
Q 62.203125 35.59375 60.453125 38.1875 
Q 58.703125 40.796875 54.5 40.796875 
Q 51 40.796875 48.546875 39.390625 
Q 46.09375 38 43.796875 34.703125 
L 43.796875 9.5 
Q 43.796875 4.703125 45.25 3.140625 
Q 46.703125 1.59375 51 1.5 
L 51 0 
L 28.59375 0 
L 28.59375 1.5 
Q 33 1.796875 34.203125 2.9375 
Q 35.40625 4.09375 35.40625 8.59375 
L 35.40625 29.703125 
Q 35.40625 40.796875 28.90625 40.796875 
Q 26.09375 40.796875 22.9375 39.546875 
Q 19.796875 38.296875 18.296875 36.5 
Q 17 35 17 34.796875 
L 17 7 
Q 17 3.796875 18.390625 2.75 
Q 19.796875 1.703125 23.796875 1.5 
L 23.796875 0 
L 1.59375 0 
L 1.59375 1.5 
Q 5.796875 1.59375 7.1875 3.046875 
Q 8.59375 4.5 8.59375 8.796875 
L 8.59375 33.59375 
Q 8.59375 37.296875 7.796875 38.75 
Q 7 40.203125 5.09375 40.203125 
Q 3.59375 40.203125 1.90625 39.796875 
L 1.90625 41.5 
Q 8.703125 43.40625 15.796875 46 
L 16.59375 45.703125 
L 16.59375 38.296875 
L 16.796875 38.296875 
Q 21.296875 43 24.75 44.5 
Q 28.203125 46 32.09375 46 
Q 40 46 42.703125 37.59375 
Q 50.5 46 59 46 
Q 70.59375 46 70.59375 28 
L 70.59375 7.703125 
Q 70.59375 4.40625 71.59375 3.15625 
Q 72.59375 1.90625 74.90625 1.703125 
L 77.5 1.5 
z
" id="STIXGeneral-Regular-109"/>
       <path d="M 15.90625 45.90625 
Q 19.203125 42.59375 19.203125 40.296875 
Q 19.203125 38 17.59375 36.390625 
Q 16 34.796875 13.703125 34.796875 
Q 11.40625 34.796875 9.75 36.4375 
Q 8.09375 38.09375 8.09375 40.296875 
Q 8.09375 42.703125 9.6875 44.296875 
Q 11.296875 45.90625 13.703125 45.90625 
Q 15.90625 45.90625 19.203125 42.59375 
z
M 19.203125 4.40625 
Q 19.203125 2.203125 17.59375 0.546875 
Q 16 -1.09375 13.703125 -1.09375 
Q 11.40625 -1.09375 9.75 0.546875 
Q 8.09375 2.203125 8.09375 4.40625 
Q 8.09375 6.796875 9.6875 8.390625 
Q 11.296875 10 13.703125 10 
Q 15.90625 10 17.546875 8.34375 
Q 19.203125 6.703125 19.203125 4.40625 
z
" id="STIXGeneral-Regular-58"/>
       <path d="M 44.203125 6.59375 
L 44.203125 3.796875 
Q 40.40625 -1 35.203125 -1 
Q 29.5 -1 28.796875 6.296875 
L 28.703125 6.296875 
Q 22.296875 -1 14.203125 -1 
Q 9.5 -1 6.59375 1.75 
Q 3.703125 4.5 3.703125 9.40625 
Q 3.703125 16.40625 10.703125 21.09375 
Q 15.5 24.296875 28.703125 29.203125 
L 28.703125 34.59375 
Q 28.703125 39.09375 26.546875 41.34375 
Q 24.40625 43.59375 20.90625 43.59375 
Q 17.90625 43.59375 15.90625 42.140625 
Q 13.90625 40.703125 13.90625 38.703125 
Q 13.90625 37.796875 14.203125 36.6875 
Q 14.5 35.59375 14.5 34.5 
Q 14.5 33 13.140625 31.703125 
Q 11.796875 30.40625 9.90625 30.40625 
Q 8.203125 30.40625 6.890625 31.703125 
Q 5.59375 33 5.59375 35 
Q 5.59375 39.796875 10.703125 43 
Q 15.40625 46 22.203125 46 
Q 30.296875 46 34 41.5 
Q 35.796875 39.40625 36.296875 37.25 
Q 36.796875 35.09375 36.796875 30.40625 
L 36.796875 11.296875 
Q 36.796875 4.703125 39.90625 4.703125 
Q 41.90625 4.703125 44.203125 6.59375 
z
M 28.703125 12.703125 
L 28.703125 26.796875 
Q 19.5 23.59375 15.90625 20.203125 
Q 12.5 17.09375 12.5 12.5 
Q 12.5 8.703125 14.390625 6.75 
Q 16.296875 4.796875 19.40625 4.796875 
Q 22.703125 4.796875 25.203125 6.40625 
Q 27.296875 7.90625 28 9.203125 
Q 28.703125 10.5 28.703125 12.703125 
z
" id="STIXGeneral-Regular-97"/>
       <path d="M 25.703125 0 
L 2.09375 0 
L 2.09375 1.5 
Q 6.796875 1.90625 8.296875 3.453125 
Q 9.796875 5 9.796875 9.203125 
L 9.796875 56.09375 
Q 9.796875 59.703125 8.890625 61.09375 
Q 8 62.5 5.59375 62.5 
Q 3.5 62.5 1.90625 62.296875 
L 1.90625 63.90625 
Q 11.40625 66.203125 17.703125 68.296875 
L 18.203125 67.90625 
L 18.203125 8.703125 
Q 18.203125 4.5 19.59375 3.140625 
Q 21 1.796875 25.703125 1.5 
z
" id="STIXGeneral-Regular-108"/>
       <path d="M 47.5 45 
L 47.5 43.5 
Q 45.703125 43.296875 44.59375 42.1875 
Q 43.5 41.09375 42.5 38.40625 
L 27.5 -2.5 
Q 23.59375 -13.09375 19.640625 -17.4375 
Q 15.703125 -21.796875 10 -21.796875 
Q 6.796875 -21.796875 4.890625 -20.140625 
Q 3 -18.5 3 -16 
Q 3 -14.09375 4.25 -12.75 
Q 5.5 -11.40625 7.296875 -11.40625 
Q 10.203125 -11.40625 12.5 -12.703125 
Q 13.796875 -13.40625 15.09375 -13.40625 
Q 17.203125 -13.40625 20.09375 -9 
Q 21.5 -7 22.796875 -3.296875 
Q 24.09375 0.40625 24.09375 1.796875 
Q 24.09375 3.09375 19.90625 11.90625 
L 6.703125 40.09375 
Q 5.40625 43 1.40625 43.59375 
L 1.40625 45 
L 21.90625 45 
L 21.90625 43.5 
Q 18.703125 43.40625 17.453125 42.796875 
Q 16.203125 42.203125 16.203125 40.796875 
Q 16.203125 39.703125 17.5 36.703125 
L 28.703125 11.703125 
L 38.40625 39.296875 
Q 38.796875 40.203125 38.796875 41.09375 
Q 38.796875 43.5 34.203125 43.5 
L 34.203125 45 
z
" id="STIXGeneral-Regular-121"/>
       <path d="M 18 63.203125 
Q 18 61 16.5 59.546875 
Q 15 58.09375 12.796875 58.09375 
Q 10.703125 58.09375 9.25 59.546875 
Q 7.796875 61 7.796875 63.203125 
Q 7.796875 65.296875 9.296875 66.796875 
Q 10.796875 68.296875 12.90625 68.296875 
Q 15.09375 68.296875 16.546875 66.796875 
Q 18 65.296875 18 63.203125 
z
M 25.296875 0 
L 1.59375 0 
L 1.59375 1.5 
Q 6.796875 1.796875 8.140625 3.296875 
Q 9.5 4.796875 9.5 10.40625 
L 9.5 33.09375 
Q 9.5 36.59375 8.796875 38 
Q 8.09375 39.40625 6.203125 39.40625 
Q 3.796875 39.40625 2 38.90625 
L 2 40.5 
L 17.5 46 
L 17.90625 45.59375 
L 17.90625 10.5 
Q 17.90625 4.90625 19.15625 3.40625 
Q 20.40625 1.90625 25.296875 1.5 
z
" id="STIXGeneral-Regular-105"/>
       <path d="M 39.796875 15.59375 
L 41.203125 14.703125 
Q 36.90625 6.296875 33 3.203125 
Q 27.90625 -1 21.5 -1 
Q 13.203125 -1 7.84375 5.25 
Q 2.5 11.5 2.5 21.203125 
Q 2.5 33.90625 10.90625 40.90625 
Q 17.09375 46 24.40625 46 
Q 30.703125 46 35.25 42.953125 
Q 39.796875 39.90625 39.796875 35.703125 
Q 39.796875 34 38.390625 32.75 
Q 37 31.5 35.09375 31.5 
Q 31.59375 31.5 30.296875 36.09375 
L 29.703125 38.296875 
Q 28.90625 41.09375 27.703125 42.09375 
Q 26.5 43.09375 23.796875 43.09375 
Q 17.703125 43.09375 13.953125 38.296875 
Q 10.203125 33.5 10.203125 25.703125 
Q 10.203125 17.09375 14.5 11.640625 
Q 18.796875 6.203125 25.703125 6.203125 
Q 30 6.203125 33.09375 8.25 
Q 36.203125 10.296875 39.796875 15.59375 
z
" id="STIXGeneral-Regular-99"/>
      </defs>
      <use xlink:href="#STIXGeneral-Regular-83"/>
      <use x="55.599991" xlink:href="#STIXGeneral-Regular-116"/>
      <use x="83.399979" xlink:href="#STIXGeneral-Regular-100"/>
      <use x="133.399963" xlink:href="#STIXGeneral-Regular-32"/>
      <use x="158.399948" xlink:href="#STIXGeneral-Regular-110"/>
      <use x="208.399933" xlink:href="#STIXGeneral-Regular-111"/>
      <use x="258.399918" xlink:href="#STIXGeneral-Regular-114"/>
      <use x="291.699905" xlink:href="#STIXGeneral-Regular-109"/>
      <use x="369.499893" xlink:href="#STIXGeneral-Regular-58"/>
      <use x="397.299881" xlink:href="#STIXGeneral-Regular-32"/>
      <use x="422.299866" xlink:href="#STIXGeneral-Regular-97"/>
      <use x="466.69986" xlink:href="#STIXGeneral-Regular-110"/>
      <use x="516.699844" xlink:href="#STIXGeneral-Regular-97"/>
      <use x="561.099838" xlink:href="#STIXGeneral-Regular-108"/>
      <use x="588.899826" xlink:href="#STIXGeneral-Regular-121"/>
      <use x="638.899811" xlink:href="#STIXGeneral-Regular-116"/>
      <use x="666.699799" xlink:href="#STIXGeneral-Regular-105"/>
      <use x="694.499786" xlink:href="#STIXGeneral-Regular-99"/>
      <use x="738.89978" xlink:href="#STIXGeneral-Regular-97"/>
      <use x="783.299774" xlink:href="#STIXGeneral-Regular-108"/>
     </g>
    </g>
    <g id="patch_107">
     <path d="M 490.705 55.4875 
L 522.705 55.4875 
L 522.705 44.2875 
L 490.705 44.2875 
z
" style="fill:#ff7f0e;opacity:0.8;"/>
    </g>
    <g id="text_14">
     <!-- Std norm: generated -->
     <g transform="translate(535.505 55.4875)scale(0.16 -0.16)">
      <defs>
       <path d="M 47 38.796875 
L 38.703125 38.796875 
Q 40.59375 34.5 40.59375 30.40625 
Q 40.59375 22.703125 35.390625 18.796875 
Q 30.203125 14.90625 25 14.90625 
Q 23.90625 14.90625 21.203125 15.203125 
L 19.296875 15.40625 
Q 17.296875 14.796875 15.296875 12.6875 
Q 13.296875 10.59375 13.296875 9.09375 
Q 13.296875 6.796875 21.09375 6.40625 
L 34 5.796875 
Q 39.5 5.59375 42.796875 2.6875 
Q 46.09375 -0.203125 46.09375 -4.90625 
Q 46.09375 -10.703125 40.09375 -15.40625 
Q 31.796875 -21.796875 20.09375 -21.796875 
Q 12.90625 -21.796875 7.84375 -18.9375 
Q 2.796875 -16.09375 2.796875 -12.09375 
Q 2.796875 -9.296875 5 -6.546875 
Q 7.203125 -3.796875 12.59375 0.09375 
Q 9.40625 1.59375 8.34375 2.6875 
Q 7.296875 3.796875 7.296875 5.40625 
Q 7.296875 8.296875 11.90625 12.296875 
Q 14.203125 14.296875 16.203125 16.296875 
Q 11.203125 18.796875 9.046875 21.890625 
Q 6.90625 25 6.90625 29.703125 
Q 6.90625 36.5 11.75 41.25 
Q 16.59375 46 23.59375 46 
Q 27.59375 46 31.59375 44.5 
L 33.796875 43.703125 
Q 36.703125 42.703125 39.296875 42.703125 
L 47 42.703125 
z
M 15.203125 33.796875 
L 15.203125 33.5 
Q 15.203125 26.296875 18.046875 21.84375 
Q 20.90625 17.40625 25.5 17.40625 
Q 28.90625 17.40625 30.90625 19.84375 
Q 32.90625 22.296875 32.90625 26.40625 
Q 32.90625 33 29.90625 38.5 
Q 27.40625 43.203125 22.59375 43.203125 
Q 19.09375 43.203125 17.140625 40.703125 
Q 15.203125 38.203125 15.203125 33.796875 
z
M 43.296875 -6.40625 
Q 43.296875 -3.59375 40.546875 -2.546875 
Q 37.796875 -1.5 30.90625 -1.5 
Q 21 -1.5 14.703125 -0.203125 
Q 11.703125 -3.796875 10.75 -5.4375 
Q 9.796875 -7.09375 9.796875 -8.796875 
Q 9.796875 -12.09375 13.75 -14.09375 
Q 17.703125 -16.09375 24.296875 -16.09375 
Q 32.796875 -16.09375 38.046875 -13.4375 
Q 43.296875 -10.796875 43.296875 -6.40625 
z
" id="STIXGeneral-Regular-103"/>
       <path d="M 40.796875 16.40625 
L 42.40625 15.703125 
Q 36.40625 -1 21.5 -1 
Q 12.703125 -1 7.59375 5.140625 
Q 2.5 11.296875 2.5 21.703125 
Q 2.5 32.40625 8.203125 39.203125 
Q 13.90625 46 23.203125 46 
Q 32.203125 46 37.09375 39.09375 
Q 40 35.09375 40.5 27.703125 
L 9.703125 27.703125 
Q 10.09375 21.40625 10.9375 18.09375 
Q 11.796875 14.796875 14.296875 11.40625 
Q 18.5 5.90625 25.40625 5.90625 
Q 30.296875 5.90625 33.640625 8.296875 
Q 37 10.703125 40.796875 16.40625 
z
M 9.90625 30.90625 
L 30.296875 30.90625 
Q 29.40625 37.203125 27.34375 39.796875 
Q 25.296875 42.40625 20.5 42.40625 
Q 16.296875 42.40625 13.5 39.453125 
Q 10.703125 36.5 9.90625 30.90625 
z
" id="STIXGeneral-Regular-101"/>
      </defs>
      <use xlink:href="#STIXGeneral-Regular-83"/>
      <use x="55.599991" xlink:href="#STIXGeneral-Regular-116"/>
      <use x="83.399979" xlink:href="#STIXGeneral-Regular-100"/>
      <use x="133.399963" xlink:href="#STIXGeneral-Regular-32"/>
      <use x="158.399948" xlink:href="#STIXGeneral-Regular-110"/>
      <use x="208.399933" xlink:href="#STIXGeneral-Regular-111"/>
      <use x="258.399918" xlink:href="#STIXGeneral-Regular-114"/>
      <use x="291.699905" xlink:href="#STIXGeneral-Regular-109"/>
      <use x="369.499893" xlink:href="#STIXGeneral-Regular-58"/>
      <use x="397.299881" xlink:href="#STIXGeneral-Regular-32"/>
      <use x="422.299866" xlink:href="#STIXGeneral-Regular-103"/>
      <use x="472.29985" xlink:href="#STIXGeneral-Regular-101"/>
      <use x="516.699844" xlink:href="#STIXGeneral-Regular-110"/>
      <use x="566.699829" xlink:href="#STIXGeneral-Regular-101"/>
      <use x="611.099823" xlink:href="#STIXGeneral-Regular-114"/>
      <use x="644.399811" xlink:href="#STIXGeneral-Regular-97"/>
      <use x="688.799805" xlink:href="#STIXGeneral-Regular-116"/>
      <use x="716.599792" xlink:href="#STIXGeneral-Regular-101"/>
      <use x="760.999786" xlink:href="#STIXGeneral-Regular-100"/>
     </g>
    </g>
    <g id="patch_108">
     <path d="M 490.705 78.175 
L 522.705 78.175 
L 522.705 66.975 
L 490.705 66.975 
z
" style="fill:#2ca02c;opacity:0.8;"/>
    </g>
    <g id="text_15">
     <!-- Norm: $\mu$=0.5, $\sigma$=2 -->
     <g transform="translate(535.505 78.175)scale(0.16 -0.16)">
      <defs>
       <path d="M 70.703125 66.203125 
L 70.703125 64.296875 
Q 65.59375 63.796875 64.09375 62.5 
Q 62.5 61.09375 61.84375 58.6875 
Q 61.203125 56.296875 61.203125 50.703125 
L 61.203125 -1.09375 
L 59.40625 -1.09375 
L 15.296875 53.796875 
L 15.296875 15 
Q 15.296875 7.40625 17 5.046875 
Q 18.703125 2.703125 24.59375 1.90625 
L 24.59375 0 
L 1.203125 0 
L 1.203125 1.90625 
Q 7.40625 2.59375 9.15625 4.84375 
Q 10.90625 7.09375 10.90625 15 
L 10.90625 59 
Q 8.296875 62.203125 6.5 63.25 
Q 4.703125 64.296875 1.203125 64.296875 
L 1.203125 66.203125 
L 18.203125 66.203125 
L 56.796875 17.90625 
L 56.796875 51.90625 
Q 56.796875 59.5 54.90625 61.703125 
Q 53.703125 63 52.25 63.453125 
Q 50.796875 63.90625 47 64.296875 
L 47 66.203125 
z
" id="STIXGeneral-Regular-78"/>
       <path d="M 46.90625 11.703125 
L 48.296875 10.796875 
Q 43.703125 3.703125 40.84375 1.296875 
Q 38 -1.09375 34.59375 -1.09375 
Q 32.5 -1.09375 31.09375 0.09375 
Q 29.703125 1.296875 29.703125 3.40625 
Q 29.703125 6.5 31.203125 11 
L 34.5 21.40625 
L 34.40625 21.40625 
Q 27.59375 9.296875 23.046875 4.1875 
Q 18.5 -0.90625 14.09375 -0.90625 
Q 11.296875 -0.90625 10.5 1.90625 
Q 9.59375 -1.703125 8.546875 -5.84375 
Q 7.5 -10 7.046875 -11.84375 
Q 6.59375 -13.703125 6 -15.703125 
Q 5.40625 -17.703125 4.90625 -18.703125 
Q 4.40625 -19.703125 3.796875 -20.5 
L -3.296875 -20.5 
Q -0.90625 -17 1.09375 -9.296875 
L 14.203125 42.796875 
L 21.703125 42.796875 
L 14.203125 13 
Q 13.796875 11.203125 13.796875 10.296875 
Q 13.796875 5.5 17.796875 5.5 
Q 21.796875 5.5 28.296875 15.140625 
Q 34.796875 24.796875 36.296875 30.59375 
L 39.59375 42.796875 
L 47.296875 42.796875 
L 39.40625 12.796875 
Q 37.5 5.203125 37.5 5.09375 
Q 37.5 3.59375 38.59375 3.59375 
Q 39.796875 3.59375 41.4375 5.140625 
Q 43.09375 6.703125 46.90625 11.703125 
z
" id="STIXGeneral-Italic-956"/>
       <path d="M 63.703125 32 
L 4.796875 32 
L 4.796875 38.59375 
L 63.703125 38.59375 
z
M 63.703125 12 
L 4.796875 12 
L 4.796875 18.59375 
L 63.703125 18.59375 
z
" id="STIXGeneral-Regular-61"/>
       <path d="M 43.796875 68.09375 
L 40.203125 59.59375 
Q 39.59375 58.296875 37.5 58.296875 
L 18.09375 58.296875 
L 14.09375 49.796875 
Q 25.09375 47.703125 30 45.25 
Q 34.90625 42.796875 39.09375 37 
Q 42.59375 32.203125 42.59375 24.296875 
Q 42.59375 17.09375 40.25 12.1875 
Q 37.90625 7.296875 32.796875 3.5 
Q 26 -1.40625 15.796875 -1.40625 
Q 10.09375 -1.40625 6.59375 0.296875 
Q 3.09375 2 3.09375 4.796875 
Q 3.09375 8.59375 7.59375 8.59375 
Q 11.203125 8.59375 15 5.5 
Q 18.90625 2.296875 22.09375 2.296875 
Q 27.296875 2.296875 31.4375 7.5 
Q 35.59375 12.703125 35.59375 19.203125 
Q 35.59375 28.796875 28.90625 34.203125 
Q 20.203125 41.203125 7.59375 41.203125 
Q 6.40625 41.203125 6.40625 42 
L 6.5 42.5 
L 17.40625 66.203125 
L 38.09375 66.203125 
Q 39.796875 66.203125 40.75 66.703125 
Q 41.703125 67.203125 42.90625 68.796875 
z
" id="STIXGeneral-Regular-53"/>
       <path d="M 8.296875 -14.09375 
L 7.296875 -12.203125 
Q 15.59375 -6.59375 15.59375 -1.5 
Q 15.59375 -0.203125 14.203125 -0.203125 
Q 13.796875 -0.203125 12.84375 -0.390625 
Q 11.90625 -0.59375 11.296875 -0.59375 
Q 5.5 -0.59375 5.5 4.5 
Q 5.5 7.09375 7.140625 8.640625 
Q 8.796875 10.203125 11.5 10.203125 
Q 14.90625 10.203125 17.203125 7.75 
Q 19.5 5.296875 19.5 1.5 
Q 19.5 -3.09375 16.453125 -7.390625 
Q 13.40625 -11.703125 8.296875 -14.09375 
z
" id="STIXGeneral-Regular-44"/>
       <path d="M 53.09375 42.796875 
L 51.296875 35.40625 
L 34.296875 35.40625 
Q 35.796875 33 38.390625 30.953125 
Q 41 28.90625 42.453125 26.953125 
Q 43.90625 25 43.90625 21.703125 
Q 43.90625 13.296875 35.75 6.09375 
Q 27.59375 -1.09375 17.296875 -1.09375 
Q 10.296875 -1.09375 6.5 2.65625 
Q 2.703125 6.40625 2.703125 13 
Q 2.703125 19.90625 6.390625 26.65625 
Q 10.09375 33.40625 17.390625 38.09375 
Q 24.703125 42.796875 33.703125 42.796875 
z
M 35.5 22.09375 
Q 35.5 26.703125 33.84375 30.296875 
Q 32.203125 33.90625 29.703125 35.40625 
Q 23.90625 35.40625 17.5 27.65625 
Q 11.09375 19.90625 11.09375 10 
Q 11.09375 5.59375 13.1875 3.296875 
Q 15.296875 1 18.90625 1 
Q 25.59375 1 30.546875 8.203125 
Q 35.5 15.40625 35.5 22.09375 
z
" id="STIXGeneral-Italic-963"/>
      </defs>
      <use transform="translate(0 0.203125)" xlink:href="#STIXGeneral-Regular-78"/>
      <use transform="translate(72.199982 0.203125)" xlink:href="#STIXGeneral-Regular-111"/>
      <use transform="translate(122.199966 0.203125)" xlink:href="#STIXGeneral-Regular-114"/>
      <use transform="translate(155.499954 0.203125)" xlink:href="#STIXGeneral-Regular-109"/>
      <use transform="translate(233.299942 0.203125)" xlink:href="#STIXGeneral-Regular-58"/>
      <use transform="translate(261.09993 0.203125)" xlink:href="#STIXGeneral-Regular-32"/>
      <use transform="translate(286.099915 0.203125)" xlink:href="#STIXGeneral-Italic-956"/>
      <use transform="translate(338.699905 0.203125)" xlink:href="#STIXGeneral-Regular-61"/>
      <use transform="translate(407.19989 0.203125)" xlink:href="#STIXGeneral-Regular-48"/>
      <use transform="translate(457.199875 0.203125)" xlink:href="#STIXGeneral-Regular-46"/>
      <use transform="translate(482.19986 0.203125)" xlink:href="#STIXGeneral-Regular-53"/>
      <use transform="translate(532.199844 0.203125)" xlink:href="#STIXGeneral-Regular-44"/>
      <use transform="translate(557.199829 0.203125)" xlink:href="#STIXGeneral-Regular-32"/>
      <use transform="translate(582.199814 0.203125)" xlink:href="#STIXGeneral-Italic-963"/>
      <use transform="translate(631.999802 0.203125)" xlink:href="#STIXGeneral-Regular-61"/>
      <use transform="translate(700.499786 0.203125)" xlink:href="#STIXGeneral-Regular-50"/>
     </g>
    </g>
   </g>
  </g>
 </g>
 <defs>
  <clipPath id="p1ea46fbcbf">
   <rect height="323.48" width="640.48" x="39.2" y="7.2"/>
  </clipPath>
 </defs>
</svg>
